<?xml version="1.0" encoding="utf-8"?>
<!-- Generator: Adobe Illustrator 16.0.2, SVG Export Plug-In . SVG Version: 6.00 Build 0)  -->
<!DOCTYPE svg PUBLIC "-//W3C//DTD SVG 1.1//EN" "http://www.w3.org/Graphics/SVG/1.1/DTD/svg11.dtd">
<svg version="1.1" xmlns="http://www.w3.org/2000/svg" xmlns:xlink="http://www.w3.org/1999/xlink" x="0px" y="0px"
	 width="2843.148px" height="1697.953px" viewBox="0 0 2843.148 1697.953" enable-background="new 0 0 2843.148 1697.953"
	 xml:space="preserve">
<g id="Слой_2">
</g>
<g id="Слой_1">
	<g id="дракон">
	</g>
</g>
<g id="набросок">
	<g id="XMLID_10_">
		<g>
			<linearGradient id="SVGID_1_" gradientUnits="userSpaceOnUse" x1="1921.0898" y1="1354.8379" x2="1922.5469" y2="1354.8379">
				<stop  offset="0" style="stop-color:#702536"/>
				<stop  offset="0.3429" style="stop-color:#2F2439"/>
			</linearGradient>
			<path fill="url(#SVGID_1_)" d="M1921.09,1356.985c0.488-1.43,0.977-2.866,1.457-4.295
				C1922.157,1354.154,1921.669,1355.584,1921.09,1356.985z"/>
			<path fill="#A58897" d="M1793.623,1398.796c-0.076-2.636,0.202-4.226,0.977-5.397c0.007-0.007,0.014-0.007,0.014-0.007
				c5.746-3.103,11.624-6.813,17.384-10.885c12.963-9.17,25.306-20.173,34.112-30.172c6.408-7.273,11.282-12.984,15.348-19.42
				c3.158-5.007,5.822-10.453,8.332-17.405c2.009-5.578,7.029-25.389,16.213-22.871c0.244,7.294,7.538,7.726,10.654,13.953
				c3.306,6.568,0.774,16.177-0.969,22.822l1.032,1.221c-3.104,6.715-2.134,16.31-4.185,23.339
				c-2.35,8.054-7.077,14.866-9.427,22.809c-2.19,7.398-4.303,12.53-7.406,16.121c-7.237,3.033-14.831,5.718-22.432,8.075
				c-6.61,0.809-13.061,2.727-19.351,5.383c-2.336,0.579-4.637,1.137-6.903,1.652c-10.829,2.504-20.709,4.338-28.422,5.613
				c-0.544,0.021-1.06,0.042-1.52,0.153C1798.079,1408.251,1793.783,1404.032,1793.623,1398.796z"/>
			<path fill="#A58897" d="M1875.702,1392.903c-4.197,4.86-10.229,6.89-20.772,7.887c-0.558,0.056-1.108,0.111-1.659,0.188
				C1860.871,1398.621,1868.465,1395.937,1875.702,1392.903z"/>
			<path fill="#A58897" d="M1827.003,1409.59c0.028-0.537,0.042-1.074,0.014-1.576c2.267-0.516,4.567-1.073,6.903-1.652
				C1831.592,1407.345,1829.283,1408.426,1827.003,1409.59z"/>
			<linearGradient id="SVGID_2_" gradientUnits="userSpaceOnUse" x1="1103.6299" y1="1411.7461" x2="1921.088" y2="1411.7461">
				<stop  offset="0" style="stop-color:#702536"/>
				<stop  offset="0.3429" style="stop-color:#1B1526"/>
			</linearGradient>
			<path fill="url(#SVGID_2_)" d="M1820.818,1413.829c-0.007-0.307-0.042-0.571-0.098-0.815c0,0,0,0,0.007-0.007
				c2.071-1.199,4.163-2.343,6.275-3.417c-0.063,1.123-0.223,2.26-0.313,3.187
				C1824.695,1413.536,1822.889,1414.108,1820.818,1413.829z"/>
			<linearGradient id="SVGID_3_" gradientUnits="userSpaceOnUse" x1="1101.7227" y1="1412.9473" x2="1718.9102" y2="1412.9473">
				<stop  offset="0" style="stop-color:#702536"/>
				<stop  offset="0.3429" style="stop-color:#1B1526"/>
			</linearGradient>
			<path fill="url(#SVGID_3_)" d="M1820.692,1412.888c0.028,0.021,0.049,0.035,0.077,0.057c-0.015,0.021-0.028,0.041-0.042,0.063
				h-0.007C1820.714,1412.965,1820.706,1412.923,1820.692,1412.888z"/>
			<linearGradient id="SVGID_4_" gradientUnits="userSpaceOnUse" x1="1793.377" y1="1413.0098" x2="1848.0645" y2="1413.0098">
				<stop  offset="0" style="stop-color:#702536"/>
				<stop  offset="0.3429" style="stop-color:#1B1526"/>
			</linearGradient>
			<path fill="url(#SVGID_4_)" d="M1820.721,1413.007h0.007c-0.007,0.007-0.007,0.007-0.007,0.007V1413.007z"/>
			<linearGradient id="SVGID_5_" gradientUnits="userSpaceOnUse" x1="1103.626" y1="1411.7344" x2="1921.0896" y2="1411.7344">
				<stop  offset="0" style="stop-color:#702536"/>
				<stop  offset="0.3429" style="stop-color:#1B1526"/>
			</linearGradient>
			<path fill="url(#SVGID_5_)" d="M1820.692,1412.881c-0.606-0.488-0.795-1.534-1.024-2.294
				C1819.995,1411.41,1820.47,1411.968,1820.692,1412.881z"/>
			<linearGradient id="SVGID_6_" gradientUnits="userSpaceOnUse" x1="1103.5137" y1="1415.4648" x2="1921.1051" y2="1415.4648">
				<stop  offset="0" style="stop-color:#702536"/>
				<stop  offset="0.3429" style="stop-color:#1B1526"/>
			</linearGradient>
			<path fill="url(#SVGID_6_)" d="M1820.714,1413.021c-1.911,2.747-4.889,4.63-7.936,4.888
				C1815.393,1416.207,1818.043,1414.562,1820.714,1413.021z"/>
			<linearGradient id="SVGID_7_" gradientUnits="userSpaceOnUse" x1="1103.1787" y1="1416.8066" x2="1921.158" y2="1416.8066">
				<stop  offset="0" style="stop-color:#702536"/>
				<stop  offset="0.3429" style="stop-color:#1B1526"/>
			</linearGradient>
			<path fill="url(#SVGID_7_)" d="M1812.771,1417.908c-0.523,0.342-1.046,0.684-1.563,1.032c0.042-1.324,0.293-2.768,0.182-4.079
				c-0.182-1.004,1.039,2.273,1.206,3.062C1812.652,1417.916,1812.716,1417.916,1812.771,1417.908z"/>
			<linearGradient id="SVGID_8_" gradientUnits="userSpaceOnUse" x1="1103.6299" y1="1423.1465" x2="1921.0884" y2="1423.1465">
				<stop  offset="0" style="stop-color:#702536"/>
				<stop  offset="0.3429" style="stop-color:#1B1526"/>
			</linearGradient>
			<path fill="url(#SVGID_8_)" d="M1799.16,1427.336c3.953-2.858,7.963-5.696,12.049-8.396c-0.007,0.363-0.007,0.719,0.028,1.053
				C1806.146,1421.925,1804.892,1427.706,1799.16,1427.336z"/>
			<path fill="#A58897" d="M1806.405,1368.84c-0.803-0.342-1.541-0.795-2.273-1.263c1.346-0.704,2.649-1.422,3.919-2.154
				c1.102-0.313,2.419-0.586,3.737-0.662c0.516,0.871,0.906,1.617,0.928,1.688c-0.161-0.565-0.335-1.137-0.475-1.716
				c-0.153,0.007-0.3,0.014-0.453,0.028c-0.202-0.356-0.453-0.768-0.704-1.165c1.568-0.983,3.067-1.994,4.512-3.04
				c0.292,0.153,0.627,0.335,1.004,0.544c-0.07-0.411-0.07-0.83-0.049-1.241c1.046-0.774,2.057-1.562,3.04-2.371
				c12.956-10.634,21.03-24.308,28.45-43.435c1.617-4.17,9.901-40.29,17.997-23.248c2.336,4.895-4.603,15.605-5.146,21.135
				c-0.6,6.367,0.761,15.432-0.474,20.313l1.039,0.663c-4.065,6.436-8.939,12.146-15.348,19.42
				c-8.807,9.999-21.149,21.002-34.112,30.172l-0.014-0.014l-0.746-1.032C1809.57,1381.552,1806.803,1373.965,1806.405,1368.84z"/>
			<path fill="#A58897" d="M1820.692,1412.881c-0.223-0.913-0.697-1.471-1.024-2.294
				C1819.897,1411.347,1820.086,1412.393,1820.692,1412.881z M1798.595,1413.627c7.713-1.275,17.593-3.109,28.422-5.613
				c0.028,0.502,0.015,1.039-0.014,1.576c-2.112,1.074-4.204,2.218-6.275,3.417c0.014-0.021,0.027-0.042,0.042-0.063
				c-0.028-0.021-0.049-0.035-0.077-0.057c0.014,0.035,0.021,0.077,0.028,0.119v0.007c0,0.007,0,0.007-0.007,0.007
				c-2.671,1.541-5.321,3.187-7.936,4.888h-0.007c-0.056,0.008-0.119,0.008-0.175,0.015c-0.167-0.788-1.388-4.065-1.206-3.062
				c0.111,1.312-0.14,2.755-0.182,4.079c-4.086,2.699-8.096,5.537-12.049,8.396h-0.007c-0.321-0.014-0.648-0.049-0.997-0.111
				c-0.37-5.167,0.307-9.581,2.858-13.876C1800.213,1413.6,1799.376,1413.606,1798.595,1413.627z"/>
			<path fill="#C2B487" d="M1784.001,1415.782c0.16-4.951,0.425-10.041,0.857-15.403c0.049-0.648,0.104-1.297,0.16-1.953
				c0.049-0.223,0.063-0.355,0.056-0.425c3.104-1.318,6.297-2.866,9.525-4.603c-0.774,1.172-1.053,2.762-0.977,5.397
				c0.16,5.236,4.456,9.455,3.452,14.984c0.46-0.111,0.976-0.132,1.52-0.153C1791.699,1414.771,1786.539,1415.461,1784.001,1415.782
				z"/>
			<path fill="#3A585F" d="M1784.9,1398.077c0-0.007,0.007-0.007,0.007-0.007L1784.9,1398.077z"/>
			<path fill="#3A585F" d="M1633.509,1426.109c-18.221-0.565-34.928-2.95-51.056-7.873c-0.858-0.258-1.716-0.53-2.566-0.809
				l0.063-0.188c2.42-2.071,5.684-2.378,7.956-0.495l-0.16,0.391c10.969,4.554,38.052-8.061,49.669-11.094
				c15.654-4.065,35.339-9.407,51.593-9.505c20.885-0.118,36.288,0.761,56.126-5.711c16.589-5.425,33.833-12.175,49.62-18.848
				c3.333-1.408,6.45-2.873,9.372-4.4c0,0,0,0,0.007,0c0.732,0.468,1.471,0.921,2.273,1.263c0.397,5.125,3.165,12.712,4.832,12.621
				l0.746,1.032l0.014,0.014c-5.76,4.072-11.638,7.782-17.384,10.885c0,0-0.007,0-0.014,0.007c-3.229,1.736-6.422,3.284-9.525,4.603
				c-0.007-0.104-0.069-0.056-0.167,0.069c0,0-0.007,0-0.007,0.007l0.007-0.007c0.056-0.021,0.111-0.049,0.167-0.069
				c0.007,0.069-0.007,0.202-0.056,0.425c-0.056,0.656-0.111,1.305-0.16,1.953c-18.374,5.571-39.224,10.55-58.762,15.18
				c1.039,2.329,1.039,5.62,2.503,7.727c-4.406-1.932-8.012-5.516-12.914-6.506c-1.339-0.272-2.768-0.349-4.344-0.153
				c-0.153,2.126-1.716,3.646-2.008,5.139c-2.971-1.729-6.186-2.907-9.49-3.675c-3.745-0.864-7.594-1.213-11.304-1.269
				C1669.72,1416.528,1652.789,1426.716,1633.509,1426.109z"/>
			<path fill="#C2B487" d="M1783.806,1438.472c-0.049-7.579-0.056-14.971,0.195-22.689c2.538-0.321,7.698-1.012,14.594-2.155
				c0.781-0.021,1.618-0.027,2.42-0.278c-2.552,4.295-3.229,8.709-2.858,13.876c0.349,0.063,0.676,0.098,0.997,0.111
				C1793.93,1431.108,1788.819,1434.909,1783.806,1438.472z"/>
			<linearGradient id="SVGID_9_" gradientUnits="userSpaceOnUse" x1="1103.6152" y1="1411.127" x2="1921.0898" y2="1411.127">
				<stop  offset="0" style="stop-color:#702536"/>
				<stop  offset="0.3429" style="stop-color:#1B1526"/>
			</linearGradient>
			<path fill="url(#SVGID_9_)" d="M1840.656,1452.104c0,0-34.272,6.422-81.821,13.165c0.014-0.007,0.035-0.007,0.049-0.014
				c8.019-2.267,17.362-2.762,24.978-5.899c0.049-7.35-0.021-14.19-0.056-20.885c5.014-3.563,10.124-7.363,15.348-11.136h0.007
				c5.731,0.37,6.986-5.411,12.077-7.343c-0.035-0.334-0.035-0.689-0.028-1.053c0.517-0.349,1.039-0.69,1.563-1.032h0.007
				c3.047-0.258,6.024-2.141,7.936-4.888c0.007,0,0.007,0,0.007-0.007c0.056,0.244,0.091,0.509,0.098,0.815
				c2.07,0.279,3.877-0.293,5.871-1.053c0.091-0.927,0.251-2.063,0.313-3.187c2.28-1.164,4.589-2.245,6.917-3.229
				c6.311-1.569,12.831-3.354,19.351-5.383c0.551-0.077,1.102-0.133,1.659-0.188c10.544-0.997,16.575-3.026,20.772-7.887
				c20.976-8.786,38.952-20.521,45.388-35.918C1906.391,1399.207,1881.588,1442.635,1840.656,1452.104z"/>
			<path fill="#3A585F" d="M1715.686,1416.793v-0.014c4.902,0.99,8.508,4.574,12.914,6.506c-1.464-2.106-1.464-5.397-2.503-7.727
				c19.538-4.63,40.388-9.608,58.762-15.18c-0.433,5.362-0.697,10.452-0.857,15.403c-1.144,0.146-1.758,0.216-1.758,0.216
				c-15.39,4.805-35.709,7.956-58.811,9.881C1721.558,1422.811,1719.054,1419.791,1715.686,1416.793z"/>
			<path fill="#3A585F" d="M1715.686,1416.793c3.368,2.998,5.872,6.018,7.747,9.086c-6.791,0.564-13.827,1.025-21.044,1.388
				c-0.6-2.629-1.499-5.391-2.706-8.36l0.161-0.816c3.305,0.768,6.52,1.945,9.49,3.675c0.292-1.492,1.854-3.013,2.008-5.139
				c1.576-0.195,3.005-0.119,4.344,0.153V1416.793z"/>
			<path fill="#3A585F" d="M1582.453,1418.236c16.128,4.923,32.835,7.308,51.056,7.873c19.28,0.606,36.211-9.581,55.031-9.288
				c3.71,0.056,7.559,0.404,11.304,1.269l-0.161,0.816c1.207,2.97,2.106,5.731,2.706,8.36c-43.289,2.176-93.229,0.928-137.982-1.408
				c5.516-2.482,11.513-4.338,17.607-6.192L1582.453,1418.236z"/>
			<path fill="#3A585F" d="M1543.271,1479.905l0.007-0.258c7.168,0.266,11.233,0.349,11.233,0.349
				c17.14,0.893,36.1,0.788,55.854-0.014c38.659-1.576,80.378-5.822,117.537-10.543c10.753-1.374,21.129-2.775,30.933-4.17
				c-16.729,4.783-38.345,8.333-55.575,10.09c-17.237,1.764-27.927,3.661-45.436,5.349c-28.688,2.761-38.624,0.558-59.403,2.503
				C1579.949,1484.927,1562.161,1480.54,1543.271,1479.905z"/>
			<path fill="#31484D" d="M1494.216,1403.551c-13.172,0-20.619-13.172-26.295-20.779v-0.007l-0.586-2.28
				c4.651-1.137,9.128-2.594,13.229-4.512c0.048,1.472,0.153,2.838,0.313,4.128c0.983,8.104,4.044,12.984,9.309,18.646
				c1.409,1.513,2.971,3.089,4.693,4.79C1494.655,1403.544,1494.433,1403.551,1494.216,1403.551z"/>
			<path fill="#B4AD83" d="M1490.186,1398.747c-5.265-5.662-8.325-10.543-9.309-18.646h0.007l0.928-0.111
				c8.096-2.343,14.908-9.435,22.648-13.13c7.774-3.688,15.682-6.938,23.436-10.815c7.343-3.646,13.611-5.836,21.938-5.871
				c8.807-0.014,12.544,4.142,18.632,7.154c-11.387,0.014-22.202-2.05-32.438,3.939c3.64,6.771,15.124,7.691,22,10.495
				c6.841,2.761,8.214,4.058-1.039,5.201c-5.467,0.663-11.248-3.193-16.233-4.463c-12.907-3.277-14.915,3.85-24.74,10.815
				c-5.418,3.842-18.569,14.985-22.878,15.215L1490.186,1398.747z"/>
			<path fill="#3A585F" d="M1469.455,1413.899c-4.128-1.032-8.012-3.201-12.356-4.094c-0.265-0.056-0.537-0.104-0.815-0.146
				c1.715-1.631,4.351-4.162,6.338-4.95c3.654,0.864,6.736,1.764,8.319,2.643c0.007-0.007,0.014,0,0.014,0
				c1.723,0.091,3.431,0.223,5.146,0.377c-0.739,3.2-3.026,5.529-6.437,5.285l-0.209,0.872V1413.899z"/>
			<path fill="#3A585F" d="M1465.292,1418.696c1.485-1.233,3.062-2.782,4.825-4.637c-0.223-0.049-0.446-0.098-0.662-0.16v-0.014
				l0.209-0.872c3.41,0.244,5.697-2.085,6.437-5.285c3.591,0.313,7.182,0.731,10.766,1.213c12.503,1.659,25.013,3.988,37.927,5.027
				c18.199,1.45,36.678-2.72,53.204,2.838c0.627,0.21,1.255,0.419,1.89,0.621c0.851,0.278,1.708,0.551,2.566,0.809l-0.439,1.43
				c-6.095,1.854-12.092,3.71-17.607,6.192c-8.82-0.454-17.439-0.956-25.765-1.485
				C1509.201,1422.518,1483.415,1420.356,1465.292,1418.696z"/>
			<linearGradient id="SVGID_10_" gradientUnits="userSpaceOnUse" x1="1014.9678" y1="1387.8242" x2="1979.1124" y2="1387.8242">
				<stop  offset="0" style="stop-color:#702536"/>
				<stop  offset="0.3429" style="stop-color:#2F2439"/>
			</linearGradient>
			<path fill="url(#SVGID_10_)" d="M1323.774,1477.103c0.712-1.06,1.332-2.064,1.674-2.838c8.604,2.782,8.047-9.95,6.646-14.615
				c-0.837-2.804-1.813-4.889-2.957-6.45l1.443-0.488c10.411,3.598,22.342,5.195,34.07,6.841c0.007,0,0.015,0.007,0.028,0.007
				c13.36,2.922,27.265,5.425,41.203,7.572c8.2,1.548,16.407,3.124,24.301,5.125c1.674,0.426,3.333,0.865,4.972,1.332
				c2.797,0.788,5.788,1.45,8.912,2.002c17.104,3.04,38.281,2.929,54.57,4.219c18.479,1.471,27.069-0.488,44.635,0.097
				c18.89,0.635,36.678,5.021,55.149,3.306c20.779-1.945,30.716,0.258,59.403-2.503c17.509-1.688,28.198-3.585,45.436-5.349
				c17.23-1.757,38.847-5.307,55.575-10.09c47.549-6.743,81.821-13.165,81.821-13.165c40.932-9.47,65.734-52.897,80.434-95.119
				c0.579-1.401,1.067-2.831,1.457-4.295c14.393-43.261,18.325-83.977,18.325-83.977l38.24-3.486v10.46
				c-30.325-6.276-58.016,151.314-58.016,151.314c-7.803,4.839-13.012,15.089-16.442,27.647
				C1652.106,1530.704,1462.028,1519.562,1323.774,1477.103z"/>
			<path fill="#67462C" d="M1470.117,1414.06c-1.764,1.854-3.34,3.403-4.825,4.637c-0.007,0-0.007,0-0.007,0
				c-7.398-0.676-13.514-1.269-18.088-1.729c2.907-2.775,6.366-5.224,9.901-7.162c4.345,0.893,8.229,3.062,12.356,4.094
				C1469.671,1413.962,1469.895,1414.011,1470.117,1414.06z"/>
			<path fill="#3A585F" d="M1448.341,1444.016c10.013,0.586,8.158,20.87,8.507,27.313c0.572-0.648,0.613-1.541,1.081-2.147
				c10.013,1.359,20.082,4.309,30.374,5.194l-0.16,2.058c-13.729-1.074-28.806-2.469-44.46-4.261
				C1442.692,1462.878,1443.864,1452.425,1448.341,1444.016z"/>
			<path fill="#67462C" d="M1465.285,1418.696c-5.536,4.582-9.804,4.721-17.823-0.076c-0.391-0.23-0.788-0.475-1.199-0.732
				c0.307-0.313,0.613-0.62,0.935-0.92C1451.771,1417.428,1457.887,1418.021,1465.285,1418.696z"/>
			<path fill="#3A585F" d="M1446.263,1417.888c0.411,0.258,0.809,0.502,1.199,0.732c-0.335,0.822-0.822,1.555-1.353,2.231
				c-2.998-1.234-6.108-2.971-8.919-4.867c0.195,0.007,0.391,0.014,0.586,0.014c0,0,3.354,0.362,9.421,0.97
				C1446.876,1417.268,1446.569,1417.574,1446.263,1417.888z"/>
			<path fill="#3A585F" d="M1465.292,1418.696c18.123,1.66,43.909,3.821,73.35,5.677c8.325,0.529,16.944,1.031,25.765,1.485
				c44.753,2.336,94.693,3.584,137.982,1.408c7.217-0.362,14.253-0.823,21.044-1.388c23.102-1.925,43.421-5.076,58.811-9.881
				c0,0,0.614-0.069,1.758-0.216c-0.251,7.719-0.244,15.11-0.195,22.689c0.034,6.694,0.104,13.535,0.056,20.885
				c-7.615,3.138-16.959,3.633-24.978,5.899c-0.014,0.007-0.035,0.007-0.049,0.014c-9.804,1.395-20.18,2.796-30.933,4.17
				c-37.159,4.721-78.878,8.967-117.537,10.543c-19.754,0.802-38.714,0.906-55.854,0.014c0,0-4.065-0.083-11.233-0.349
				c-11.596-0.425-31.33-1.346-55.136-3.214l0.16-2.058c-10.292-0.886-20.361-3.835-30.374-5.194
				c-0.468,0.606-0.509,1.499-1.081,2.147c-0.349-6.443,1.506-26.728-8.507-27.313c0.983-1.854,2.141-3.619,3.466-5.236
				l-0.397-0.342c1.095-1.346,2.468-4.463,2.761-6.137c0.342-1.959-9.839-3.145-10.487-4.274c-0.111-0.188-0.202-0.376-0.278-0.558
				c-1.158-2.72,0.989-4.4,2.705-6.617c0.53-0.677,1.018-1.409,1.353-2.231c8.02,4.797,12.287,4.658,17.823,0.076
				C1465.285,1418.696,1465.285,1418.696,1465.292,1418.696z"/>
			<path fill="#3A585F" d="M1498.637,1479.809c-16.289-1.29-37.466-1.179-54.57-4.219l0.049-0.23
				c-0.175-1.046-0.313-2.105-0.433-3.187c15.654,1.792,30.73,3.187,44.46,4.261c23.806,1.868,43.54,2.789,55.136,3.214
				l-0.007,0.258C1525.706,1479.32,1517.115,1481.279,1498.637,1479.809z"/>
			<path fill="#695447" d="M1443.683,1428.026c0.648,1.13,10.829,2.315,10.487,4.274c-0.293,1.674-1.666,4.791-2.761,6.137
				c-4.449-1.207-9.672-2.162-14.232-1.081c0.063-0.426,0.146-0.864,0.266-1.311c0.167-0.663,0.383-1.339,0.655-2.009
				c0.969-2.461,2.531-4.832,4.177-6.304l1.13-0.265C1443.48,1427.65,1443.571,1427.838,1443.683,1428.026z"/>
			<path fill="#67462C" d="M1451.807,1438.779c-1.325,1.617-2.482,3.382-3.466,5.236c-4.477,8.409-5.648,18.862-4.658,28.157
				c-4.316-0.488-8.688-1.012-13.081-1.576l0.488-1.925c0.711-9.044,3.514-22.307,5.892-32.738l0.461,0.112
				c-0.119,0.446-0.203,0.885-0.266,1.311c4.561-1.081,9.783-0.126,14.232,1.081L1451.807,1438.779z"/>
			<path fill="#67462C" d="M1444.066,1475.59c-3.124-0.552-6.115-1.214-8.912-2.002c-1.639-0.467-3.298-0.906-4.972-1.332
				l0.419-1.659c4.393,0.564,8.765,1.088,13.081,1.576c0.119,1.081,0.258,2.141,0.433,3.187L1444.066,1475.59z"/>
			<path fill="#667C5D" d="M1430.183,1472.256c-7.894-2.001-16.101-3.577-24.301-5.125c8.264,1.276,16.54,2.427,24.72,3.466
				L1430.183,1472.256z"/>
			<path fill="#667C5D" d="M1470.94,1407.352c-1.583-0.879-4.665-1.778-8.319-2.643c-8.067-1.89-18.932-3.584-22.676-4.31
				c-11.359-2.203-20.104-7.259-30.73-11.478c-1.317-0.523-2.636-0.997-3.953-1.437l0.383-1.144v-0.014
				c9.686,2.671,29.378-1.583,37.021-2.211c8.088-0.676,16.645-1.666,24.67-3.633l0.586,2.28v0.007
				c5.676,7.607,13.123,20.779,26.295,20.779l0.663,1.234l0.007,0.007c-2.385,1.807-5.181,3.159-8.02,4.149
				c-3.584-0.481-7.175-0.899-10.766-1.213c-1.716-0.154-3.424-0.286-5.146-0.377
				C1470.954,1407.352,1470.947,1407.345,1470.94,1407.352z"/>
			<linearGradient id="SVGID_11_" gradientUnits="userSpaceOnUse" x1="1103.6182" y1="1463.3447" x2="1921.0869" y2="1463.3447">
				<stop  offset="0" style="stop-color:#702536"/>
				<stop  offset="0.3429" style="stop-color:#1B1526"/>
			</linearGradient>
			<path fill="url(#SVGID_11_)" d="M1384.928,1462.969c6.834,1.533,13.891,2.838,20.954,4.162
				c-13.938-2.147-27.843-4.65-41.203-7.572c3.444,0.481,6.868,0.969,10.236,1.513
				C1378.332,1461.63,1381.686,1462.243,1384.928,1462.969z"/>
			<path fill="#667C5D" d="M1436.981,1435.934c-2.378,10.432-5.181,23.694-5.892,32.738l-0.488,1.925
				c-8.18-1.039-16.456-2.189-24.72-3.466c-7.063-1.324-14.12-2.629-20.954-4.162c-3.242-0.726-6.596-1.339-10.013-1.897
				l0.433-2.517c9.364-7.105,19.176-14.246,30.207-18.507c6.422-2.489,27.563-1.583,30.556-6.031l1.987,0.021
				c-0.272,0.67-0.488,1.346-0.655,2.009L1436.981,1435.934z"/>
			<path fill="#B4AD83" d="M1374.176,1629.574c-0.697,1.743-1.332,3.577-1.945,5.467
				C1373.263,1633.326,1373.994,1631.52,1374.176,1629.574z M1391.727,1638.598c-1.875,5.118-5.341,22.648-9.734,15.361
				c-1.932-3.166,1.054-7.587,1.465-10.801c0.439-3.215-0.07-6.457,0.355-9.609h-0.014l-1.081-0.125h-0.007
				c-0.266,2.245-0.3,4.567-1.102,6.735c-1.179,3.187-2.895,6.102-4.254,9.177c-2.267,5.056-3.193,11.436-7.363,15.592
				c-4.407,4.414-10.725,0.928-7.329-4.7c4.581-7.517,6.848-16.847,9.546-25.145c-2.803,4.645-7.747,8.633-9.686,13.032
				c-4.567-0.683-4.56-4.539-3.354-8.807l-0.056-0.014c-3.445,0.369-3.759-3.584-3.479-6.178h-0.007
				c0.069-0.628,0.111-1.263,0.153-1.897c0.098-1.541,0.174-3.096,0.474-4.581c0.704-3.486,1.025-6.861,1.012-10.146
				c-0.077-21.687-14.699-39.07-29.845-55.191c10.669,0.049,21.463,0.091,32.341,0.133c7.043,11.198,12.161,22.258,17.886,34.418
				c6.708,14.211,16.721,26.065,13.849,42.668L1391.727,1638.598z"/>
			<path fill="#A89956" d="M1334.841,1300.699c4.442,6.024,19.922,20.396,2.811,23.569c-0.056-3.417-1.199-6.443-3.675-8.668
				c-3.71,7.05-3.466,17.342-2.134,26.595c-7.691-8.736-6.868-17.313-5.935-28.944l-1.401-0.14
				C1329.576,1309.674,1333.558,1305.518,1334.841,1300.699z"/>
			<path fill="#A89956" d="M1333.613,1293.663c5.119,2.002,12.134,3.508,11.011,9.623c-3.151-0.593-6.639-1.819-9.608-3.36
				C1335.385,1297.806,1334.834,1295.707,1333.613,1293.663z"/>
			<linearGradient id="SVGID_12_" gradientUnits="userSpaceOnUse" x1="966.3887" y1="1531.7441" x2="1899.6404" y2="1531.7441">
				<stop  offset="0" style="stop-color:#702536"/>
				<stop  offset="0.3429" style="stop-color:#2F2439"/>
			</linearGradient>
			<path fill="url(#SVGID_12_)" d="M1333.37,1516.8c134.426,32.62,317.893,39.509,565.085-14.846l0.168,0.007
				c-0.774,24.1,1.018,44.433,1.018,44.433c-86.988,13.305-330.312,15.71-539.878,15.041c-1.199-1.904-2.447-3.821-3.772-5.739
				C1347.106,1542.803,1339.827,1530.495,1333.37,1516.8z"/>
			<path fill="#667C5D" d="M1284.182,1395.86c0.461-3.536,0.098-8.02-0.383-12.552c57.82,17.488,116.4,31.992,153.392,32.676
				c2.811,1.896,5.921,3.633,8.919,4.867c-1.716,2.217-3.863,3.897-2.705,6.617l-1.13,0.265c-1.646,1.472-3.208,3.843-4.177,6.304
				l-1.987-0.021c-2.992,4.448-24.134,3.542-30.556,6.031c-11.031,4.261-20.843,11.401-30.207,18.507l-0.433,2.517
				c-3.368-0.544-6.792-1.031-10.236-1.513c-0.014,0-0.021-0.007-0.028-0.007c-14.315-3.124-28.003-6.723-40.443-10.857h-0.007
				c-0.014-0.007-0.035-0.014-0.049-0.021c-8.724-2.901-16.826-6.073-24.105-9.532h-0.007c-8.193-3.898-15.334-8.158-21.114-12.823
				c0.153-0.523,0.3-1.039,0.438-1.563c0,0,0,0,0.008-0.007C1281.93,1415.301,1282.822,1406.215,1284.182,1395.86z"/>
			<path fill="#3A585F" d="M1364.65,1459.552c-11.729-1.646-23.659-3.243-34.07-6.841l-1.443,0.488
				c-1.45-1.945-3.158-3.082-5.229-3.793l0.244-0.732c0.014,0.007,0.035,0.014,0.049,0.021h0.007
				C1336.647,1452.829,1350.335,1456.428,1364.65,1459.552z"/>
			<path fill="#31484D" d="M1320.03,1475.938c1.241,0.39,2.489,0.78,3.737,1.164c-0.788,1.179-1.715,2.42-2.531,3.493l-0.76-0.411
				C1320.372,1478.644,1320.226,1477.229,1320.03,1475.938z"/>
			<linearGradient id="SVGID_13_" gradientUnits="userSpaceOnUse" x1="1014.9668" y1="1473.3301" x2="1979.1165" y2="1473.3301">
				<stop  offset="0" style="stop-color:#702536"/>
				<stop  offset="0.3429" style="stop-color:#2F2439"/>
			</linearGradient>
			<path fill="url(#SVGID_13_)" d="M1318.74,1470.723c0.564,1.478,0.983,3.2,1.29,5.216c-0.815-0.251-1.625-0.51-2.434-0.768
				C1317.848,1473.728,1318.225,1472.249,1318.74,1470.723z"/>
			<linearGradient id="SVGID_14_" gradientUnits="userSpaceOnUse" x1="997.5635" y1="1498.3555" x2="1904.6538" y2="1498.3555">
				<stop  offset="0" style="stop-color:#702536"/>
				<stop  offset="0.3429" style="stop-color:#2F2439"/>
			</linearGradient>
			<path fill="url(#SVGID_14_)" d="M1332.136,1514.157c-6.29-13.737-17.091-24.183-14.539-38.986
				c0.809,0.258,1.618,0.517,2.434,0.768c0.195,1.29,0.342,2.705,0.446,4.246l0.76,0.411c0.816-1.073,1.743-2.314,2.531-3.493h0.007
				c138.254,42.459,328.332,53.602,580.88-22.453c-3.911,14.309-5.516,31.608-6.031,47.312l-0.168-0.007
				c-247.192,54.354-430.659,47.466-565.085,14.846C1332.951,1515.929,1332.54,1515.043,1332.136,1514.157z"/>
			<path fill="#667C5D" d="M1312.869,1447.906c-2.971-0.236-6.192-0.522-9.512-0.683c-0.007-0.008-0.007-0.008-0.007-0.008
				c-1.213-2.929-2.321-5.578-3.305-8.074c7.279,3.459,15.382,6.631,24.105,9.532l-0.244,0.732
				C1321.007,1448.416,1317.401,1448.27,1312.869,1447.906z"/>
			<path fill="#B4AD83" d="M1292.013,1505.531c-0.244-0.069-0.488-0.146-0.732-0.223c0.028-0.37,0.056-0.739,0.07-1.102
				C1291.573,1504.646,1291.79,1505.085,1292.013,1505.531z"/>
			<path fill="#C2BC93" d="M1328.412,1380.84c-8.995-1.764-10.236-2.008-17.552-5.752v-0.008c-1.171-0.593-2.503-1.282-4.044-2.085
				c-9.113-4.721-13.98-7.182-23.513-7.774c-0.37-0.028-0.746-0.042-1.13-0.063l-0.182-0.614c0.614-4.958-4.546-13.799-5.146-20.598
				l-1.932-0.056c-0.251-2.462,0.773-5.056,0.711-7.371c2.05,0.23,1.556,0.711,3.089,1.96c0.259-0.572-0.48-2.469,0.342-2.824
				c1.032,0.711,4.728,1.896,6.192,2.44c1.785-4.303,4.985-8.542,6.533-13.158c1.27-0.14,2.546-0.328,3.836-0.544
				c6.889-1.15,19.691-5.034,28.889-11.282l1.401,0.14c-0.934,11.631-1.757,20.208,5.935,28.944c0.076,0.559,0.16,1.123,0.251,1.674
				c0.551,3.473,1.241,6.757,1.896,9.609c1.053,4.483,3.954,10.11,3.34,14.957c-0.049,0.383-0.111,0.753-0.188,1.095
				c-1.137,5.209-5,6.338-7.553,10.725l-0.543-0.356C1328.852,1380.22,1328.635,1380.533,1328.412,1380.84z"/>
			<linearGradient id="SVGID_15_" gradientUnits="userSpaceOnUse" x1="970.7031" y1="1455.4795" x2="1317.2617" y2="1455.4795">
				<stop  offset="0" style="stop-color:#702536"/>
				<stop  offset="0.3429" style="stop-color:#2F2439"/>
			</linearGradient>
			<path fill="url(#SVGID_15_)" d="M970.703,1349.706c158.427,194.679,326.609,210.354,346.559,211.547
				c-57.479-0.3-111.247-0.802-157.053-1.332v-0.118c-105.99-27.586-183.46-131.406-183.46-131.406
				C974.602,1403.481,972.468,1374.829,970.703,1349.706z"/>
			<path fill="#B4AD83" d="M1318.74,1470.723c-0.516,1.526-0.893,3.005-1.144,4.448c-11.562-3.668-22.753-7.552-33.582-11.624
				c4.63-2.127,10.647-2.405,15.341-2.015C1310.687,1462.459,1316.202,1464.104,1318.74,1470.723z"/>
			<linearGradient id="SVGID_16_" gradientUnits="userSpaceOnUse" x1="966.3867" y1="1423.0273" x2="1899.6418" y2="1423.0273">
				<stop  offset="0" style="stop-color:#702536"/>
				<stop  offset="0.3429" style="stop-color:#2F2439"/>
			</linearGradient>
			<path fill="url(#SVGID_16_)" d="M1281.881,1502.373c1.144,4.561,2.476,8.591,3.926,11.533c5.76,11.7,20.055,24.183,28.966,33.944
				c4.052,4.428,8.375,8.891,12.649,13.451c-3.403-0.014-6.785-0.035-10.16-0.049c-19.949-1.192-188.132-16.868-346.559-211.547
				v-0.008c-2.538-36.112-4.316-64.946-4.316-64.946l31.177,11.129C997.563,1295.881,1064.226,1432.733,1281.881,1502.373z"/>
			<path fill="#667C5D" d="M1283.338,1379.132c7.831,4.017,30.103,12,27.522-4.037v-0.007c7.315,3.744,8.557,3.988,17.552,5.752
				c0.223-0.307,0.439-0.62,0.635-0.941l0.543,0.356c2.553-4.387,6.416-5.516,7.553-10.725l3.458,0.3
				c10.327,0.829,21.372,2.887,32.432,7.97c10.647,4.881,21.491,6.102,32.229,9.686c1.317,0.439,2.636,0.913,3.953,1.437
				c10.627,4.219,19.371,9.274,30.73,11.478c3.744,0.726,14.608,2.42,22.676,4.31c-1.987,0.788-4.623,3.319-6.338,4.95
				c0.278,0.042,0.551,0.091,0.815,0.146c-3.535,1.938-6.994,4.387-9.901,7.162c-6.066-0.607-9.421-0.97-9.421-0.97
				c-0.195,0-0.391-0.007-0.586-0.014c-36.991-0.684-95.571-15.188-153.392-32.676
				C1283.652,1381.914,1283.492,1380.513,1283.338,1379.132z"/>
			<path fill="#B4AD83" d="M1310.86,1375.095c2.58,16.037-19.691,8.054-27.522,4.037c-0.606-5.558-1.066-10.76-0.034-13.876v-0.035
				c9.532,0.593,14.399,3.054,23.513,7.774c1.541,0.803,2.873,1.492,4.044,2.085v0.008V1375.095z"/>
			<path fill="#B4AD83" d="M1327.422,1561.302c-4.274-4.561-8.598-9.023-12.649-13.451c-8.911-9.762-23.206-22.244-28.966-33.944
				c-1.45-2.942-2.782-6.973-3.926-11.533c3.104,0.99,6.241,1.966,9.399,2.936c0.244,0.076,0.488,0.153,0.732,0.223
				c13.242,4.023,27.021,7.789,41.357,11.269c6.457,13.695,13.736,26.003,22.62,38.896c1.325,1.918,2.573,3.835,3.772,5.739
				C1348.885,1561.393,1338.091,1561.351,1327.422,1561.302z"/>
			<path fill="#9B755C" d="M1284.182,1395.86c-1.359,10.354-2.252,19.44-4.811,28.889c-0.008,0.007-0.008,0.007-0.008,0.007
				c-0.487,0.397-0.948,0.753-1.387,1.081c-3.528-1.757-16.799-8.396-34.705-17.795c-2.991-1.576-6.115-3.222-9.344-4.937
				c5.09,0,19.664-6.472,16.826-11.464c-4.017-7.071-22.224,4.567-20.39,9.56c-5.139-2.74-10.508-5.634-16.023-8.653
				c0.236-0.153,0.474-0.3,0.704-0.446c7.956-4.985,14.043-9.532,21.352-15.445c1.38-1.122,4.26-3.242,7.844-5.773
				c12.963,4.212,26.24,8.396,39.559,12.426C1284.279,1387.841,1284.643,1392.324,1284.182,1395.86z"/>
			<linearGradient id="SVGID_17_" gradientUnits="userSpaceOnUse" x1="1103.7822" y1="1425.5371" x2="1920.4834" y2="1425.5371">
				<stop  offset="0" style="stop-color:#702536"/>
				<stop  offset="0.3429" style="stop-color:#1B1526"/>
			</linearGradient>
			<path fill="url(#SVGID_17_)" d="M1279.363,1424.756c-0.139,0.523-0.285,1.039-0.438,1.563c-0.008-0.007-0.008-0.007-0.015-0.015
				c0,0-0.32-0.16-0.934-0.467C1278.415,1425.509,1278.876,1425.153,1279.363,1424.756z"/>
			<linearGradient id="SVGID_18_" gradientUnits="userSpaceOnUse" x1="997.5635" y1="1382.5215" x2="1904.6526" y2="1382.5215">
				<stop  offset="0" style="stop-color:#702536"/>
				<stop  offset="0.3429" style="stop-color:#2F2439"/>
			</linearGradient>
			<path fill="url(#SVGID_18_)" d="M1268.5,1464.655c-2.253,13.821,5.376,15.613,10.223,20.905c0,0,0,0,0,0.007
				c0.767,5.719,1.841,11.604,3.158,16.806c-217.655-69.64-284.317-206.492-284.317-206.492s6.966-14.113,17.404-33.212
				c7.161,11.358,82.631,126.051,254.794,195.327C1269.26,1460.36,1268.835,1462.605,1268.5,1464.655z"/>
			<path fill="#B4AD83" d="M1317.597,1475.171c-2.552,14.804,8.249,25.249,14.539,38.986c0.404,0.886,0.815,1.771,1.234,2.643
				c-14.337-3.479-28.115-7.245-41.357-11.269c-0.223-0.446-0.439-0.886-0.662-1.324c-0.015,0.362-0.042,0.731-0.07,1.102
				c-3.158-0.97-6.296-1.945-9.399-2.936c-1.317-5.202-2.392-11.087-3.158-16.806c0-0.007,0-0.007,0-0.007
				c-0.726-5.46-1.165-10.773-1.249-15.201v-0.007c1.095-3.264,3.528-5.425,6.541-6.806
				C1294.844,1467.619,1306.035,1471.503,1317.597,1475.171z"/>
			<path fill="#31484D" d="M1278.723,1485.561c-4.847-5.292-12.476-7.084-10.223-20.905c0.335-2.05,0.76-4.295,1.262-6.659
				c4.679,1.89,9.435,3.738,14.253,5.551c-3.013,1.381-5.446,3.542-6.541,6.806v0.007
				C1277.558,1474.787,1277.997,1480.101,1278.723,1485.561z"/>
			<path fill="#A89956" d="M1291.782,1324.938c-1.548,4.616-4.748,8.855-6.533,13.158c-1.465-0.544-5.16-1.729-6.192-2.44
				c-0.822,0.355-0.083,2.252-0.342,2.824c-1.533-1.249-1.039-1.729-3.089-1.96c0.063,2.315-0.962,4.909-0.711,7.371
				c-2.733-4.561-6.304-9.239-10.09-12.796c-2.162,3.229-4.03,7.88-5.404,10.676c1.248-11.199-7.531-20.703-5.536-33.087
				c0.292,0.46,0.564,0.906,0.822,1.353c4.728,8.222,5.069,10.181,15.25,13.193
				C1277.579,1325.468,1284.552,1325.788,1291.782,1324.938z"/>
			<path fill="#667C5D" d="M1303.351,1447.216c-11.756-0.613-24.698,0.21-31.915,9.825l-1.45-0.063h-0.007
				c1.771-8.2,4.344-17.551,6.868-24.35c0.795-2.134,1.479-4.232,2.078-6.311c5.78,4.665,12.921,8.925,21.114,12.823h0.007
				C1301.029,1441.638,1302.138,1444.287,1303.351,1447.216z"/>
			<path fill="#31484D" d="M1318.74,1470.723c-2.538-6.618-8.054-8.264-19.385-9.19c-4.693-0.391-10.711-0.112-15.341,2.015
				c-4.818-1.813-9.574-3.661-14.253-5.551c0.07-0.334,0.14-0.669,0.217-1.018h0.007l1.45,0.063
				c7.217-9.615,20.159-10.438,31.915-9.825c0,0,0,0,0.007,0.008c3.319,0.16,6.541,0.446,9.512,0.683
				c4.532,0.363,8.138,0.51,11.038,1.5c2.071,0.711,3.779,1.848,5.229,3.793c1.144,1.562,2.12,3.646,2.957,6.45
				c1.401,4.665,1.959,17.397-6.646,14.615c-0.342,0.773-0.962,1.778-1.674,2.838h-0.007c-1.248-0.384-2.496-0.774-3.737-1.164
				C1319.724,1473.923,1319.305,1472.2,1318.74,1470.723z"/>
			<path fill="#808993" d="M1311.697,1287.234c-12.279,7.321-25.396-8.374-40.088-2.071l-1.792,0.495
				c-1.834-3.975,2.922-7.788,8.215-10.146c0.899-0.404,1.819-0.767,2.719-1.073c2.497-0.865,4.882-1.354,6.521-1.339
				c3.569,0.034,7.126,1.568,10.557,3.702C1302.842,1279.92,1307.576,1284.319,1311.697,1287.234z"/>
			<path fill="#96A0AE" d="M1324.507,1313.111c-9.197,6.248-22,10.132-28.889,11.282c-1.29,0.216-2.566,0.404-3.836,0.544
				c-7.23,0.851-14.203,0.53-21.825-1.708c-10.181-3.013-10.522-4.972-15.25-13.193c-0.258-0.446-0.53-0.893-0.822-1.353v-0.007
				c0.041-0.258,0.09-0.517,0.139-0.774c-0.153,0.119-0.293,0.23-0.411,0.342c-3.577-5.634-8.723-12.293-6.046-19.357
				c0.035-0.09,0.07-0.174,0.112-0.265c1.631-3.975,5.383-5.913,9.678-7.224c3.759-1.144,7.929-1.813,11.457-2.936
				c3.306-1.039,5.746-2.629,9.219-2.971v0.014v0.007c-5.293,2.357-10.049,6.171-8.215,10.146l1.792-0.495
				c14.692-6.303,27.809,9.393,40.088,2.071c-4.121-2.915-8.855-7.314-13.869-10.432l0.244-1.952
				c8.904,0.948,29.754,9.135,35.541,18.813c1.221,2.044,1.771,4.143,1.402,6.263c-0.355-0.188-0.704-0.377-1.039-0.565
				c0.188,0.377,0.488,0.823,0.864,1.332v0.007C1333.558,1305.518,1329.576,1309.674,1324.507,1313.111z"/>
			<path fill="#9B755C" d="M1209.32,1328.39c6.687-7.636-12.461-30.808-17.956-19.462h-1.039c-0.118,4.574,6.938,14.797,8.424,21.47
				c1.45,0.223,2.754,0.32,3.904,0.313l0.035,0.879c0.928,7.119,3.521,14.741,11.324,20.591c6.024,4.533,18.66,11.004,20.501-0.815
				c-17.601,0.544-15.076-13.64-24.615-22.864L1209.32,1328.39z M1268.813,1278.463c-3.528,1.122-7.698,1.792-11.457,2.936
				l-0.083-0.279c-2.782-3.249-5.997-7.712-7.392-12.21c-18.367-3.242-8.277,12.594-2.9,19.42l0.697,0.293
				c-0.042,0.091-0.077,0.175-0.112,0.265c-2.677,7.064,2.469,13.724,6.046,19.357c0.091,0.146,0.182,0.293,0.272,0.433v0.007
				c-1.995,12.384,6.784,21.888,5.536,33.087c1.374-2.796,3.242-7.447,5.404-10.676c3.786,3.557,7.356,8.235,10.09,12.796
				l1.932,0.056c0.6,6.799,5.76,15.64,5.146,20.598l0.182,0.614c0.384,0.021,0.76,0.034,1.13,0.063v0.035
				c-1.032,3.116-0.572,8.318,0.034,13.876c0.154,1.381,0.314,2.782,0.461,4.177c-13.318-4.03-26.596-8.214-39.559-12.426
				c-26.483-8.604-51.663-17.314-73.195-24.998c-1.346-3.403-2.747-6.799-4.4-10.229c-2.97-6.122-9.455-10.383-12.111-15.654
				c-0.328-0.656-0.607-1.312-0.837-1.96c-5.704-16.38,20.089-32.11,32.508-39.997c16.624-10.571,57.514-48.574,77.505-27.843
				c5.084,5.271,13.8,15.759,16.227,22.683l0.815,1.556c-0.899,0.307-1.819,0.669-2.719,1.073v-0.007v-0.014
				C1274.56,1275.834,1272.119,1277.424,1268.813,1278.463z"/>
			<path fill="#7F736B" d="M1252.016,1278.009c-1.952-1.255-3.57-1.031-5.906-1.004c-0.153,0.217-0.258,0.544-0.286,1.053
				C1249.156,1280.143,1249.003,1280.589,1252.016,1278.009z M1257.273,1281.119l0.083,0.279c-4.295,1.311-8.047,3.249-9.678,7.224
				l-0.697-0.293c-5.377-6.826-15.467-22.662,2.9-19.42C1251.276,1273.407,1254.491,1277.87,1257.273,1281.119z"/>
			<path fill="#9B755C" d="M1277.977,1425.837c-11.743,8.702-10.62-3.577-29.671-4.505c-8.744-0.432-6.673-7.642-15.772-7.523
				c4.463-3.981,7.203-4.616,10.738-5.767C1261.178,1417.441,1274.448,1424.08,1277.977,1425.837z"/>
			<linearGradient id="SVGID_19_" gradientUnits="userSpaceOnUse" x1="1014.9678" y1="1342.9033" x2="1979.116" y2="1342.9033">
				<stop  offset="0" style="stop-color:#702536"/>
				<stop  offset="0.3429" style="stop-color:#2F2439"/>
			</linearGradient>
			<path fill="url(#SVGID_19_)" d="M1276.847,1432.629c-2.524,6.799-5.098,16.149-6.868,24.35c-0.077,0.349-0.146,0.684-0.217,1.018
				c-172.163-69.276-247.633-183.969-254.794-195.327c5.802-10.606,12.67-22.739,20.013-34.858
				c0.851,23.081,8.549,34.621,8.549,34.621c16.938,24.245,40.095,41.51,52.109,48.071c1.416,3.055,4.163,6.541,7.978,10.362
				c8.465,8.465,22.174,18.556,38.303,29.077c7.37,4.812,15.25,9.721,23.366,14.602c7.092,4.854,12.433,13.828,18.862,19.482
				c1.164,1.025,2.496,2.267,3.946,3.626c0.007,0.008,0.015,0.015,0.021,0.021c2.482,3.402,6.624,7.057,9.393,8.458
				c0,0,0.007,0,0.007,0.007c4.47,3.675,9.135,6.785,13.207,7.552c8.374,1.576,13.597,10.229,21.812,10.118
				c9.1-0.118,7.028,7.092,15.772,7.523c19.051,0.928,17.928,13.207,29.671,4.505c0.613,0.307,0.934,0.467,0.934,0.467
				c0.007,0.008,0.007,0.008,0.015,0.015C1278.325,1428.396,1277.642,1430.495,1276.847,1432.629z"/>
			<path fill="#7F736B" d="M1233.921,1403.105c-0.307,0-0.579-0.028-0.816-0.077c-1.575-0.349-2.44-0.997-2.74-1.827
				C1231.563,1401.843,1232.749,1402.478,1233.921,1403.105z"/>
			<path fill="#7F736B" d="M1250.754,1391.642c2.838,4.992-11.736,11.464-16.826,11.464h-0.007
				c-1.172-0.628-2.357-1.263-3.557-1.904C1228.53,1396.209,1246.737,1384.57,1250.754,1391.642z"/>
			<path fill="#9F5F3F" d="M1209.898,1328.501c9.539,9.225,7.015,23.408,24.615,22.864c-1.841,11.819-14.477,5.349-20.501,0.815
				c-7.803-5.85-10.396-13.472-11.324-20.591l-0.035-0.879c3.292-0.021,5.433-0.906,6.667-2.321L1209.898,1328.501z"/>
			<path fill="#9B755C" d="M1232.533,1413.809c-8.215,0.111-13.438-8.542-21.812-10.118c-4.072-0.767-8.737-3.877-13.207-7.552
				c0.007,0.007,0.021,0.007,0.027,0.015c5.83,2.921,11.75-0.461,16.799-3.605c5.516,3.02,10.885,5.913,16.023,8.653
				c0.3,0.83,1.165,1.479,2.74,1.827c0.237,0.049,0.51,0.077,0.816,0.077h0.007c3.229,1.715,6.353,3.36,9.344,4.937
				C1239.736,1409.192,1236.996,1409.827,1232.533,1413.809z"/>
			<path fill="#7F736B" d="M1191.364,1308.928c5.495-11.346,24.643,11.826,17.956,19.462c-1.234,1.415-3.375,2.301-6.667,2.321
				c-1.15,0.007-2.454-0.091-3.904-0.313c-1.485-6.673-8.542-16.896-8.424-21.47H1191.364z M1202.549,1315.057
				c-1.848-1.604-2.629-0.879-4.121-0.258h-0.007c-1.004,1.325-0.446,2.72,2.225,4.554
				C1201.727,1317.797,1202.054,1316.96,1202.549,1315.057z"/>
			<path fill="#9F5F3F" d="M1197.508,1396.132c-2.769-1.401-6.91-5.056-9.393-8.458
				C1190.911,1390.31,1194.153,1393.378,1197.508,1396.132z"/>
			<path fill="#9B755C" d="M1214.341,1392.548c-5.049,3.145-10.969,6.526-16.799,3.605c-0.007-0.008-0.021-0.008-0.027-0.015
				c0-0.007-0.007-0.007-0.007-0.007c-3.354-2.754-6.597-5.822-9.393-8.458c-0.007-0.007-0.015-0.014-0.021-0.021
				c-0.906-1.241-1.59-2.454-1.903-3.507c-0.977-3.201-2.022-6.206-3.138-9.142
				C1193.603,1381.099,1204.216,1387.019,1214.341,1392.548z"/>
			<path fill="#9B755C" d="M1186.19,1384.146c0.313,1.053,0.997,2.266,1.903,3.507c-1.45-1.359-2.782-2.601-3.946-3.626
				c-6.43-5.654-11.771-14.629-18.862-19.482c5.829,3.515,11.791,7.015,17.768,10.46
				C1184.168,1377.939,1185.214,1380.944,1186.19,1384.146z"/>
			<path fill="#9B755C" d="M1244.24,1370.883c-3.584,2.531-6.464,4.651-7.844,5.773c-7.309,5.913-13.396,10.46-21.352,15.445
				c-0.23,0.146-0.468,0.293-0.704,0.446c-10.125-5.529-20.738-11.449-31.288-17.544c-2.218-5.815-4.7-11.359-7.398-17.642
				c-1.66-3.856-3.104-7.664-4.609-11.478C1192.577,1353.568,1217.757,1362.278,1244.24,1370.883z"/>
			<linearGradient id="SVGID_20_" gradientUnits="userSpaceOnUse" x1="976.749" y1="1494.1582" x2="1160.209" y2="1494.1582">
				<stop  offset="0" style="stop-color:#702536"/>
				<stop  offset="0.3429" style="stop-color:#2F2439"/>
			</linearGradient>
			<path fill="url(#SVGID_20_)" d="M1160.209,1559.803v0.118c-43.847-0.509-80.406-1.039-105.948-1.443v-0.056
				c0,0-65.477-46.67-69.409-67.269c-2.141-1.255-5.139-28.478-8.103-62.757C976.749,1428.396,1054.219,1532.217,1160.209,1559.803z
				"/>
			<linearGradient id="SVGID_21_" gradientUnits="userSpaceOnUse" x1="1103.6162" y1="1357.2432" x2="1921.082" y2="1357.2432">
				<stop  offset="0" style="stop-color:#702536"/>
				<stop  offset="0.3429" style="stop-color:#1B1526"/>
			</linearGradient>
			<path fill="url(#SVGID_21_)" d="M1142.281,1350.173c15.634,9.888,7.956,4.079,23.004,14.371
				c-8.116-4.881-15.996-9.79-23.366-14.602C1142.037,1350.02,1142.156,1350.096,1142.281,1350.173z"/>
			<path fill="#9B755C" d="M1153.25,1318.194l0.446-0.153c0.229,0.648,0.509,1.304,0.837,1.96
				c2.656,5.271,9.142,9.532,12.111,15.654c1.653,3.431,3.055,6.826,4.4,10.229c-11.108-3.968-21.247-7.656-30.096-10.92
				c3.661-4.63,8.695-10.125,10.418-17.663C1153.11,1316.417,1152.524,1318.007,1153.25,1318.194z"/>
			<linearGradient id="SVGID_22_" gradientUnits="userSpaceOnUse" x1="1103.6162" y1="1335.4004" x2="1921.0874" y2="1335.4004">
				<stop  offset="0" style="stop-color:#702536"/>
				<stop  offset="0.3429" style="stop-color:#1B1526"/>
			</linearGradient>
			<path fill="url(#SVGID_22_)" d="M1140.949,1334.965c-4.406,5.571-6.813,9.888,0.97,14.978
				c-16.129-10.521-29.838-20.612-38.303-29.077v-0.007C1103.616,1320.858,1117.932,1326.465,1140.949,1334.965z"/>
			<path fill="#9B755C" d="M1165.285,1364.544c-15.048-10.292-7.37-4.483-23.004-14.371c-0.125-0.077-0.244-0.153-0.362-0.23
				c-7.782-5.09-5.376-9.406-0.97-14.978c8.849,3.264,18.987,6.952,30.096,10.92c1.506,3.813,2.949,7.621,4.609,11.478
				c2.698,6.282,5.181,11.826,7.398,17.642C1177.076,1371.559,1171.114,1368.059,1165.285,1364.544z"/>
			<linearGradient id="SVGID_23_" gradientUnits="userSpaceOnUse" x1="943.1348" y1="1153.5488" x2="1103.6123" y2="1153.5488">
				<stop  offset="0" style="stop-color:#702536"/>
				<stop  offset="0.3429" style="stop-color:#2F2439"/>
			</linearGradient>
			<path fill="url(#SVGID_23_)" d="M978.91,1072.096c-0.341,0.886-13.332,35.423,25.717,26.477c0,0,0,31.379-26.372,23.012
				c0,0,17.803,13.646,6.597,40.646h-1.98l-22.418-27.397c0,0,2.636-25.103-15.822-37.654v-41.838c0,0-6.596-50.659,7.908-44.16
				l-1.318,13.479c0,0,54.181-22.921,52.862-30.981c0.509,1.861,2.469,9.783,0.028,12.852c0,0,71.725,6.973,75.678-4.882
				c0,0,1.325,15.341-15.159,28.59c0,0,34.941,0,38.24,17.433l-16.484,10.459c0,0,21.101,46.72,13.186,76.006l-21.1-6.973
				c0,0,19.119,64.151,7.252,89.952c0,0-38.24-63.455-34.942,10.459c0,0,1.318,45.576,39.558,73.342
				c17.781,12.907,15.753,15.292,5.3,9.588c-12.015-6.562-35.172-23.826-52.109-48.071c0,0-7.698-11.54-8.549-34.621
				c-0.369-9.999,0.544-22.16,3.933-36.497l21.101-55.784c0,0,21.101-58.573,17.14-68.335c0,0-7.252-37.654-40.221-39.049
				c0,0-34.279,4.881-34.279,23.708c0,3.382,0.23,6.429,0.642,9.17c1.862,12.481,7.322,18.61,10.564,21.804l-23.073-8.66
				l6.589,13.946C997.375,1088.113,976.31,1081.154,978.91,1072.096z"/>
			<linearGradient id="SVGID_24_" gradientUnits="userSpaceOnUse" x1="959.1348" y1="1162.0137" x2="1077.6484" y2="1162.0137">
				<stop  offset="0" style="stop-color:#702536"/>
				<stop  offset="0.3429" style="stop-color:#2F2439"/>
			</linearGradient>
			<path fill="url(#SVGID_24_)" d="M1014.968,1262.669c-10.438,19.099-17.404,33.212-17.404,33.212l-31.177-11.129l-7.252-12.552
				l0.886-21.979v-0.014l90.099-161.397c0,0,11.84-63.942-46.824-27.787c-0.411-2.741-0.642-5.788-0.642-9.17
				c0-18.827,34.279-23.708,34.279-23.708c32.969,1.395,40.221,39.049,40.221,39.049c3.961,9.762-17.14,68.335-17.14,68.335
				l-21.101,55.784c-3.389,14.337-4.302,26.498-3.933,36.497C1027.638,1239.93,1020.77,1252.063,1014.968,1262.669z"/>
			<linearGradient id="SVGID_25_" gradientUnits="userSpaceOnUse" x1="984.8516" y1="1524.8154" x2="1054.2607" y2="1524.8154">
				<stop  offset="0" style="stop-color:#702536"/>
				<stop  offset="0.3429" style="stop-color:#2F2439"/>
			</linearGradient>
			<path fill="url(#SVGID_25_)" d="M1054.261,1558.422v0.056c-25.354-0.397-39.857-0.677-39.857-0.677s-20.11-10.515-25.187-25.2
				c-2.964-8.563-4.365-41.447-4.365-41.447C988.784,1511.752,1054.261,1558.422,1054.261,1558.422z"/>
			<linearGradient id="SVGID_26_" gradientUnits="userSpaceOnUse" x1="1003.9854" y1="993.5039" x2="1004.083" y2="993.5039">
				<stop  offset="0" style="stop-color:#702536"/>
				<stop  offset="0.3429" style="stop-color:#2F2439"/>
			</linearGradient>
			<path fill="url(#SVGID_26_)" d="M1003.985,993.329c0.049,0.111,0.084,0.23,0.098,0.349
				C1004.041,993.511,1004.007,993.392,1003.985,993.329z"/>
			<linearGradient id="SVGID_27_" gradientUnits="userSpaceOnUse" x1="917.3672" y1="1262.5391" x2="960.0205" y2="1262.5391">
				<stop  offset="0" style="stop-color:#702536"/>
				<stop  offset="0.3429" style="stop-color:#2F2439"/>
			</linearGradient>
			<path fill="url(#SVGID_27_)" d="M960.021,1250.208v0.014l-6.819,12.21l5.934,9.769c0,0-12.906-1.924-17.558-0.132
				c-2.447,0.941-10.313,2.008-17.217,2.803c-2.217-1.729-6.589-4.783-6.993-5.041
				C925.901,1269.265,960.021,1250.208,960.021,1250.208z"/>
			<linearGradient id="SVGID_28_" gradientUnits="userSpaceOnUse" x1="953.2012" y1="1261.2109" x2="960.0205" y2="1261.2109">
				<stop  offset="0" style="stop-color:#702536"/>
				<stop  offset="0.3429" style="stop-color:#2F2439"/>
			</linearGradient>
			<polygon fill="url(#SVGID_28_)" points="960.021,1250.222 959.135,1272.2 953.201,1262.432 			"/>
			<linearGradient id="SVGID_29_" gradientUnits="userSpaceOnUse" x1="880.125" y1="1344.4336" x2="945.2549" y2="1344.4336">
				<stop  offset="0" style="stop-color:#702536"/>
				<stop  offset="0.3429" style="stop-color:#2F2439"/>
			</linearGradient>
			<path fill="url(#SVGID_29_)" d="M942.156,1366.169c6.973,2.691,0,8.96,0,8.96c-5.948-0.669-11.353-1.171-16.24-1.541h-0.015
				c-11.017-0.829-19.461-0.962-25.849-0.773c-0.021,0-0.042,0-0.056,0c-2.008,0.014-3.814,0.118-5.418,0.286
				c-0.035,0-0.077,0-0.111,0.007c-9.107,0.662-12.189,2.021-12.189,2.021c-6.394-9.406,3.487-9.853,3.487-9.853
				c-1.165-11.206,13.367-13.897,13.367-13.897l6.979-14.782l1.165-6.276c-5.816-5.376,0.578-8.067,0.578-8.067
				c0.23-0.879,0.558-1.743,0.928-2.56c1.534-3.347,3.904-5.954,3.904-5.954c2.922,0.815,4.156,3.758,4.672,5.954
				c0.342,1.437,0.377,2.56,0.377,2.56c6.98,3.138,0,7.175,0,7.175l1.743,7.169l7.559,14.336
				C939.248,1354.971,942.156,1366.169,942.156,1366.169z"/>
			<linearGradient id="SVGID_30_" gradientUnits="userSpaceOnUse" x1="922.3877" y1="1409.5371" x2="938.6689" y2="1409.5371">
				<stop  offset="0" style="stop-color:#702536"/>
				<stop  offset="0.3429" style="stop-color:#2F2439"/>
			</linearGradient>
			<polygon fill="url(#SVGID_30_)" points="938.669,1375.129 934.019,1441.449 934.199,1442.07 922.388,1445.487 925.901,1373.588 
				925.916,1373.588 			"/>
			<linearGradient id="SVGID_31_" gradientUnits="userSpaceOnUse" x1="900.0527" y1="1409.1133" x2="925.9014" y2="1409.1133">
				<stop  offset="0" style="stop-color:#A74144"/>
				<stop  offset="0.737" style="stop-color:#E77D42"/>
			</linearGradient>
			<path fill="url(#SVGID_31_)" d="M925.901,1373.588l-3.514,71.899h-18.604l-3.507-72.673c-0.077,0-0.153,0-0.224,0
				C906.44,1372.626,914.885,1372.759,925.901,1373.588z"/>
			<linearGradient id="SVGID_32_" gradientUnits="userSpaceOnUse" x1="887.6553" y1="1296.0195" x2="936.835" y2="1296.0195">
				<stop  offset="0" style="stop-color:#702536"/>
				<stop  offset="0.3429" style="stop-color:#2F2439"/>
			</linearGradient>
			<path fill="url(#SVGID_32_)" d="M925.017,1275.401c30.492,25.458-7.649,44.292-7.649,44.292h-0.008
				c-0.516-2.196-1.75-5.139-4.672-5.954c0,0-2.37,2.607-3.904,5.954c-41.733-20.507-9.463-44.522-5.404-47.347
				c1.862,1.458,4.818,2.769,9.309,3.752c0,0,5.446-0.502,11.673-1.228C924.611,1275.066,924.828,1275.248,925.017,1275.401z"/>
			<linearGradient id="SVGID_33_" gradientUnits="userSpaceOnUse" x1="900.6484" y1="1266.2354" x2="924.3604" y2="1266.2354">
				<stop  offset="0" style="stop-color:#702536"/>
				<stop  offset="0.3429" style="stop-color:#2F2439"/>
			</linearGradient>
			<path fill="url(#SVGID_33_)" d="M903.379,1272.347c-7.461-5.843,2.733-14.169,2.733-14.169c15.696-6.275,6.575,5.822,6.575,5.822
				c-3.514,3.473-2.141,4.916,0,5.495c2.002,0.544,4.68,0.335,4.68,0.335c0.404,0.258,4.776,3.312,6.993,5.041
				c-6.227,0.726-11.673,1.228-11.673,1.228C908.197,1275.115,905.241,1273.805,903.379,1272.347z"/>
			<linearGradient id="SVGID_34_" gradientUnits="userSpaceOnUse" x1="904.1182" y1="1452.082" x2="917.2969" y2="1452.082">
				<stop  offset="0" style="stop-color:#702536"/>
				<stop  offset="0.3429" style="stop-color:#2F2439"/>
			</linearGradient>
			<path fill="url(#SVGID_34_)" d="M904.118,1449.518h13.179C911.837,1461.058,904.118,1449.518,904.118,1449.518z"/>
			<linearGradient id="SVGID_35_" gradientUnits="userSpaceOnUse" x1="885.1797" y1="1409.1504" x2="903.7832" y2="1409.1504">
				<stop  offset="0" style="stop-color:#A74144"/>
				<stop  offset="0.737" style="stop-color:#E77D42"/>
			</linearGradient>
			<path fill="url(#SVGID_35_)" d="M900.276,1372.814l3.507,72.673h-2.322l-10.515-3.041l-5.767-67.317c0,0,3.187-1.401,9.288-2.021
				c0.034-0.007,0.076-0.007,0.111-0.007c1.61-0.126,3.417-0.217,5.418-0.286c0.014,0,0.035,0,0.056,0
				C900.123,1372.814,900.199,1372.814,900.276,1372.814z"/>
			<linearGradient id="SVGID_36_" gradientUnits="userSpaceOnUse" x1="894.5791" y1="1372.957" x2="899.9971" y2="1372.957">
				<stop  offset="0" style="stop-color:#702536"/>
				<stop  offset="0.3429" style="stop-color:#2F2439"/>
			</linearGradient>
			<path fill="url(#SVGID_36_)" d="M894.579,1373.101c1.604-0.168,3.41-0.272,5.418-0.286
				C897.996,1372.884,896.189,1372.975,894.579,1373.101z"/>
			<linearGradient id="SVGID_37_" gradientUnits="userSpaceOnUse" x1="887.5088" y1="1445.4834" x2="936.3408" y2="1445.4834">
				<stop  offset="0" style="stop-color:#702536"/>
				<stop  offset="0.3429" style="stop-color:#2F2439"/>
			</linearGradient>
			<polygon fill="url(#SVGID_37_)" points="898.554,1449.518 887.509,1441.449 890.946,1442.446 901.461,1445.487 903.783,1445.487 
				922.388,1445.487 934.199,1442.07 936.341,1441.449 924.717,1449.518 917.297,1449.518 904.118,1449.518 			"/>
		</g>
		<g>
			<path fill="none" stroke="#000000" stroke-miterlimit="10" d="M925.916,1373.588c4.888,0.37,10.292,0.872,16.24,1.541
				c0,0,6.973-6.269,0-8.96c0,0-2.908-11.198-15.118-15.236l-7.559-14.336l-1.743-7.169c0,0,6.98-4.037,0-7.175
				c0,0-0.035-1.123-0.377-2.56c-0.516-2.196-1.75-5.139-4.672-5.954c0,0-2.37,2.607-3.904,5.954
				c-0.37,0.816-0.697,1.681-0.928,2.56c0,0-6.395,2.691-0.578,8.067l-1.165,6.276l-6.979,14.782c0,0-14.532,2.691-13.367,13.897
				c0,0-9.881,0.446-3.487,9.853c0,0,3.082-1.359,12.189-2.021"/>
			<path fill="none" stroke="#000000" stroke-miterlimit="10" d="M900.053,1372.814c6.388-0.188,14.832-0.056,25.849,0.773"/>
			<path fill="none" stroke="#000000" stroke-miterlimit="10" d="M894.579,1373.101c1.61-0.126,3.417-0.217,5.418-0.286"/>
			<polyline fill="none" stroke="#000000" stroke-miterlimit="10" points="903.783,1445.487 901.461,1445.487 890.946,1442.446 
				887.509,1441.449 898.554,1449.518 904.118,1449.518 917.297,1449.518 924.717,1449.518 936.341,1441.449 934.199,1442.07 
				922.388,1445.487 			"/>
			<path fill="none" stroke="#000000" stroke-miterlimit="10" d="M890.946,1442.446l-5.767-67.317c0,0,3.187-1.401,9.288-2.021
				c0.034-0.007,0.076-0.007,0.111-0.007c1.604-0.168,3.41-0.272,5.418-0.286c0.014,0,0.035,0,0.056,0c0.07,0,0.146,0,0.224,0
				l3.507,72.673h18.604l3.514-71.899h0.015l12.753,1.541l-4.65,66.32"/>
			<path fill="none" stroke="#000000" stroke-miterlimit="10" d="M903.783,1272.068c0,0-0.146,0.098-0.404,0.278
				c-4.059,2.824-36.329,26.84,5.404,47.347"/>
			<path fill="none" stroke="#000000" stroke-miterlimit="10" d="M960.021,1250.208c0,0-34.119,19.057-42.653,19.622"/>
			<path fill="none" stroke="#000000" stroke-miterlimit="10" d="M917.367,1319.693c0,0,38.142-18.834,7.649-44.292
				c-0.188-0.153-0.405-0.335-0.656-0.53c-2.217-1.729-6.589-4.783-6.993-5.041c0,0-2.678,0.209-4.68-0.335
				c-2.141-0.579-3.514-2.022,0-5.495c0,0,9.121-12.098-6.575-5.822c0,0-10.194,8.326-2.733,14.169
				c1.862,1.458,4.818,2.769,9.309,3.752c0,0,5.446-0.502,11.673-1.228c6.903-0.795,14.77-1.861,17.217-2.803
				c4.651-1.792,17.558,0.132,17.558,0.132l0.886-21.979"/>
			<path fill="none" stroke="#000000" stroke-miterlimit="10" d="M904.118,1449.518c0,0,7.719,11.54,13.179,0"/>
			<path fill="none" stroke="#000000" stroke-miterlimit="10" d="M978.918,1072.075c0,0.007-0.008,0.014-0.008,0.021
				c-0.341,0.886-13.332,35.423,25.717,26.477c0,0,0,31.379-26.372,23.012c0,0,17.803,13.646,6.597,40.646h-1.98l-22.418-27.397
				c0,0,2.636-25.103-15.822-37.654v-41.838c0,0-6.596-50.659,7.908-44.16l-1.318,13.479c0,0,54.181-22.921,52.862-30.981
				c-0.014-0.118-0.049-0.237-0.098-0.349"/>
			<path fill="none" stroke="#000000" stroke-miterlimit="10" d="M1003.972,993.28c0,0,0,0.007,0.007,0.021
				c0.007,0.007,0.007,0.021,0.007,0.028c0.021,0.063,0.056,0.182,0.098,0.349c0.509,1.861,2.469,9.783,0.028,12.852
				c0,0,71.725,6.973,75.678-4.882c0,0,1.325,15.341-15.159,28.59c0,0,34.941,0,38.24,17.433l-16.484,10.459
				c0,0,21.101,46.72,13.186,76.006l-21.1-6.973c0,0,19.119,64.151,7.252,89.952c0,0-38.24-63.455-34.942,10.459
				c0,0,1.318,45.576,39.558,73.342c17.781,12.907,15.753,15.292,5.3,9.588c-12.015-6.562-35.172-23.826-52.109-48.071
				c0,0-7.698-11.54-8.549-34.621c-0.369-9.999,0.544-22.16,3.933-36.497l21.101-55.784c0,0,21.101-58.573,17.14-68.335
				c0,0-7.252-37.654-40.221-39.049c0,0-34.279,4.881-34.279,23.708c0,3.382,0.23,6.429,0.642,9.17
				c1.862,12.481,7.322,18.61,10.564,21.804l-23.073-8.66l6.589,13.946c0,0-21.065-6.959-18.465-16.018"/>
			<path fill="none" stroke="#000000" stroke-miterlimit="10" d="M1165.285,1364.544c-8.116-4.881-15.996-9.79-23.366-14.602
				c-16.129-10.521-29.838-20.612-38.303-29.077c-3.814-3.821-6.562-7.308-7.978-10.362"/>
			<path fill="none" stroke="#000000" stroke-miterlimit="10" d="M1278.925,1426.318c-0.008-0.007-0.008-0.007-0.015-0.015
				c0,0-0.32-0.16-0.934-0.467"/>
			<path fill="none" stroke="#000000" stroke-miterlimit="10" d="M1405.882,1467.131c-13.938-2.147-27.843-4.65-41.203-7.572"/>
			<path fill="none" stroke="#000000" stroke-miterlimit="10" d="M1359.763,1561.435c209.566,0.669,452.89-1.736,539.878-15.041
				c0,0-1.792-20.333-1.018-44.433c0.516-15.703,2.12-33.003,6.031-47.312c3.431-12.559,8.64-22.809,16.442-27.647
				c0,0,27.69-157.591,58.016-151.314v-10.46l-38.24,3.486c0,0-3.933,40.716-18.325,83.977c-0.48,1.429-0.969,2.865-1.457,4.295
				c-14.699,42.222-39.502,85.649-80.434,95.119c0,0-34.272,6.422-81.821,13.165"/>
			<path fill="none" stroke="#000000" stroke-miterlimit="10" d="M970.703,1349.706c1.765,25.123,3.898,53.775,6.046,78.69
				c2.964,34.279,5.962,61.502,8.103,62.757c0,0,1.401,32.885,4.365,41.447c5.076,14.686,25.187,25.2,25.187,25.2
				s14.504,0.279,39.857,0.677c25.542,0.404,62.102,0.935,105.948,1.443c45.806,0.53,99.574,1.032,157.053,1.332
				c3.375,0.014,6.757,0.035,10.16,0.049"/>
			<path fill="none" stroke="#000000" stroke-miterlimit="10" d="M1003.295,1061.023c58.664-36.155,46.824,27.787,46.824,27.787
				l-90.099,161.397v0.014l-6.819,12.21l5.934,9.769l7.252,12.552c0,0,1.778,28.834,4.316,64.946"/>
			<path fill="none" stroke="#000000" stroke-miterlimit="10" d="M1875.702,1392.903c20.976-8.786,38.952-20.521,45.388-35.918
				c0.579-1.401,1.067-2.831,1.457-4.295c0.008-0.035,0.021-0.07,0.028-0.104"/>
			<path fill="none" stroke="#000000" stroke-miterlimit="10" d="M1833.92,1406.361c6.311-1.569,12.831-3.354,19.351-5.383"/>
			<path fill="none" stroke="#000000" stroke-miterlimit="10" d="M1103.616,1320.858c0,0,14.315,5.606,37.333,14.106"/>
			<path fill="none" stroke="#000000" stroke-miterlimit="10" d="M966.387,1284.752l31.177,11.129c0,0,6.966-14.113,17.404-33.212
				c5.802-10.606,12.67-22.739,20.013-34.858"/>
			<path fill="none" stroke="#000000" stroke-miterlimit="10" d="M1323.774,1477.103c138.254,42.459,328.332,53.602,580.88-22.453"
				/>
			<path fill="none" stroke="#000000" stroke-miterlimit="10" d="M1317.597,1475.171c0.809,0.258,1.618,0.517,2.434,0.768"/>
			<path fill="none" stroke="#000000" stroke-miterlimit="10" d="M1014.403,1261.755c0,0,0.188,0.314,0.564,0.914
				c7.161,11.358,82.631,126.051,254.794,195.327"/>
			<path fill="none" stroke="#000000" stroke-miterlimit="10" d="M1333.37,1516.8c134.426,32.62,317.893,39.509,565.085-14.846"/>
			<path fill="none" stroke="#000000" stroke-miterlimit="10" d="M997.563,1295.881c0,0,66.662,136.853,284.317,206.492"/>
			<path fill="none" stroke="#000000" stroke-miterlimit="10" d="M1319.235,1561.344c0,0-0.669-0.015-1.974-0.091
				c-19.949-1.192-188.132-16.868-346.559-211.547v-0.008"/>
			<path fill="none" stroke="#000000" stroke-miterlimit="10" d="M976.749,1428.396c0,0,77.47,103.82,183.46,131.406"/>
			<path fill="none" stroke="#000000" stroke-miterlimit="10" d="M1054.261,1558.422c0,0-65.477-46.67-69.409-67.269"/>
			<path fill="none" stroke="#000000" stroke-miterlimit="10" d="M1325.908,1313.251c-0.934,11.631-1.757,20.208,5.935,28.944
				c0.278,0.321,0.578,0.648,0.886,0.97c-0.202,0.251-0.412,0.488-0.635,0.704c-3.075,3.131-7.622,3.577-12.252,2.817"/>
			<path fill="none" stroke="#000000" stroke-miterlimit="10" d="M1278.723,1485.567c1.018,1.103,1.903,2.357,2.559,3.912"/>
			<path fill="none" stroke="#000000" stroke-miterlimit="10" d="M1279.363,1424.756c-0.139,0.523-0.285,1.039-0.438,1.563
				c-0.6,2.078-1.283,4.177-2.078,6.311c-2.524,6.799-5.098,16.149-6.868,24.35c-0.077,0.349-0.146,0.684-0.217,1.018
				c-0.502,2.364-0.927,4.609-1.262,6.659c-2.253,13.821,5.376,15.613,10.223,20.905"/>
			<path fill="none" stroke="#000000" stroke-miterlimit="10" d="M1283.304,1365.256c-1.032,3.116-0.572,8.318,0.034,13.876
				c0.154,1.381,0.314,2.782,0.461,4.177c0.48,4.532,0.844,9.016,0.383,12.552c-1.359,10.354-2.252,19.44-4.811,28.889"/>
			<path fill="none" stroke="#000000" stroke-miterlimit="10" d="M1334.841,1300.692c-0.376-0.509-0.676-0.955-0.864-1.332
				c0.335,0.188,0.684,0.377,1.039,0.565c2.97,1.541,6.457,2.768,9.608,3.36c1.123-6.115-5.892-7.621-11.011-9.623
				c-0.16-0.063-0.32-0.125-0.474-0.188"/>
			<path fill="none" stroke="#000000" stroke-miterlimit="10" d="M1329.59,1380.255c2.553-4.387,6.416-5.516,7.553-10.725
				c0.076-0.342,0.139-0.712,0.188-1.095c0.614-4.847-2.287-10.474-3.34-14.957c-0.655-2.853-1.346-6.137-1.896-9.609
				c-0.091-0.551-0.175-1.115-0.251-1.674c-1.332-9.253-1.576-19.545,2.134-26.595c2.476,2.225,3.619,5.251,3.675,8.668
				c17.111-3.173,1.632-17.545-2.811-23.569"/>
			<path fill="none" stroke="#000000" stroke-miterlimit="10" d="M1470.954,1407.352c0.774,0.433,1.186,0.857,1.123,1.27"/>
			<path fill="none" stroke="#000000" stroke-miterlimit="10" d="M1340.601,1369.83c10.327,0.829,21.372,2.887,32.432,7.97
				c10.647,4.881,21.491,6.102,32.229,9.686c1.317,0.439,2.636,0.913,3.953,1.437c10.627,4.219,19.371,9.274,30.73,11.478
				c3.744,0.726,14.608,2.42,22.676,4.31c3.654,0.864,6.736,1.764,8.319,2.643"/>
			<path fill="none" stroke="#000000" stroke-miterlimit="10" d="M1282.174,1365.158c0.384,0.021,0.76,0.034,1.13,0.063
				c9.532,0.593,14.399,3.054,23.513,7.774c1.541,0.803,2.873,1.492,4.044,2.085v0.008c7.315,3.744,8.557,3.988,17.552,5.752
				c0.223-0.307,0.439-0.62,0.635-0.941c1.575-2.517,2.377-5.362,2.398-8.527"/>
			<path fill="none" stroke="#000000" stroke-miterlimit="10" d="M1271.609,1285.163c14.692-6.303,27.809,9.393,40.088,2.071
				c-4.121-2.915-8.855-7.314-13.869-10.432c-3.431-2.134-6.987-3.668-10.557-3.702c-1.639-0.015-4.023,0.474-6.521,1.339
				c-0.899,0.307-1.819,0.669-2.719,1.073c-5.293,2.357-10.049,6.171-8.215,10.146c0.453,0.983,1.312,1.98,2.657,2.964"/>
			<path fill="none" stroke="#000000" stroke-miterlimit="10" d="M1333.823,1355.724c-2.336,5.731-17.503,5.913-16.952-0.217"/>
			<path fill="none" stroke="#000000" stroke-miterlimit="10" d="M1303.357,1447.224c0.146,0.355,0.293,0.718,0.446,1.087"/>
			<path fill="none" stroke="#000000" stroke-miterlimit="10" d="M1294.768,1405.748c-1.158,14.392,0.878,22.292,5.271,33.394h0.007
				c0.983,2.496,2.092,5.146,3.305,8.074"/>
			<path fill="none" stroke="#000000" stroke-miterlimit="10" d="M1327.833,1442.182c-0.084,2.691-0.509,4.721-1.381,5.683"/>
			<path fill="none" stroke="#000000" stroke-miterlimit="10" d="M1318.636,1404.263c4.477,6.102,9.553,27.216,9.197,37.912"/>
			<path fill="none" stroke="#000000" stroke-miterlimit="10" d="M1784.9,1398.077c0-0.007,0.007-0.007,0.007-0.007
				c0.098-0.125,0.16-0.174,0.167-0.069c0.007,0.069-0.007,0.202-0.056,0.425c-0.056,0.656-0.111,1.305-0.16,1.953
				c-0.433,5.362-0.697,10.452-0.857,15.403c-0.251,7.719-0.244,15.11-0.195,22.689c0.034,6.694,0.104,13.535,0.056,20.885
				c-7.615,3.138-16.959,3.633-24.978,5.899c-0.014,0.007-0.035,0.007-0.049,0.014c-16.729,4.783-38.345,8.333-55.575,10.09
				c-17.237,1.764-27.927,3.661-45.436,5.349c-28.688,2.761-38.624,0.558-59.403,2.503c-18.472,1.716-36.26-2.671-55.149-3.306
				c-17.565-0.585-26.156,1.374-44.635-0.097c-16.289-1.29-37.466-1.179-54.57-4.219c-3.124-0.552-6.115-1.214-8.912-2.002
				c-1.639-0.467-3.298-0.906-4.972-1.332c-7.894-2.001-16.101-3.577-24.301-5.125c-7.063-1.324-14.12-2.629-20.954-4.162
				c-3.242-0.726-6.596-1.339-10.013-1.897c-3.368-0.544-6.792-1.031-10.236-1.513c-0.014,0-0.021-0.007-0.028-0.007
				c-11.729-1.646-23.659-3.243-34.07-6.841"/>
			<path fill="none" stroke="#000000" stroke-miterlimit="10" d="M1783.771,1399.633c0.3-0.153,0.844-1.172,1.123-1.549"/>
			<path fill="none" stroke="#000000" stroke-miterlimit="10" d="M1468.785,1407.233c0.719,0.034,1.437,0.069,2.155,0.118
				c0.007-0.007,0.014,0,0.014,0c1.723,0.091,3.431,0.223,5.146,0.377c3.591,0.313,7.182,0.731,10.766,1.213
				c12.503,1.659,25.013,3.988,37.927,5.027c18.199,1.45,36.678-2.72,53.204,2.838c0.627,0.21,1.255,0.419,1.89,0.621
				c0.851,0.278,1.708,0.551,2.566,0.809c16.128,4.923,32.835,7.308,51.056,7.873c19.28,0.606,36.211-9.581,55.031-9.288
				c3.71,0.056,7.559,0.404,11.304,1.269c3.305,0.768,6.52,1.945,9.49,3.675c0.292-1.492,1.854-3.013,2.008-5.139
				c1.576-0.195,3.005-0.119,4.344,0.153c4.902,0.99,8.508,4.574,12.914,6.506c-1.464-2.106-1.464-5.397-2.503-7.727
				c19.538-4.63,40.388-9.608,58.762-15.18c1.562-0.475,3.109-0.948,4.63-1.43"/>
			<path fill="none" stroke="#000000" stroke-miterlimit="10" d="M1271.436,1457.041c7.217-9.615,20.159-10.438,31.915-9.825
				c0,0,0,0,0.007,0.008c3.319,0.16,6.541,0.446,9.512,0.683c4.532,0.363,8.138,0.51,11.038,1.5
				c2.071,0.711,3.779,1.848,5.229,3.793c1.144,1.562,2.12,3.646,2.957,6.45c1.401,4.665,1.959,17.397-6.646,14.615
				c-0.342,0.773-0.962,1.778-1.674,2.838h-0.007c-0.788,1.179-1.715,2.42-2.531,3.493c-1.311,1.729-2.343,3.013-2.154,2.859"/>
			<path fill="none" stroke="#000000" stroke-miterlimit="10" d="M1253.885,1308.677c-0.091-0.14-0.182-0.286-0.272-0.433
				c-3.577-5.634-8.723-12.293-6.046-19.357c0.035-0.09,0.07-0.174,0.112-0.265c1.631-3.975,5.383-5.913,9.678-7.224
				c3.759-1.144,7.929-1.813,11.457-2.936c3.306-1.039,5.746-2.629,9.219-2.971"/>
			<path fill="none" stroke="#000000" stroke-miterlimit="10" d="M1297.313,1274.78c0.244,0.015,0.495,0.035,0.76,0.07
				c8.904,0.948,29.754,9.135,35.541,18.813c1.221,2.044,1.771,4.143,1.402,6.263c-0.028,0.174-0.07,0.355-0.112,0.529
				c-0.021,0.077-0.041,0.16-0.063,0.237v0.007c-1.283,4.818-5.265,8.975-10.334,12.412c-9.197,6.248-22,10.132-28.889,11.282
				c-1.29,0.216-2.566,0.404-3.836,0.544c-7.23,0.851-14.203,0.53-21.825-1.708c-10.181-3.013-10.522-4.972-15.25-13.193
				c-0.258-0.446-0.53-0.893-0.822-1.353"/>
			<path fill="none" stroke="#000000" stroke-miterlimit="10" d="M1442.274,1427.733c-1.646,1.472-3.208,3.843-4.177,6.304
				c-0.272,0.67-0.488,1.346-0.655,2.009c-0.119,0.446-0.203,0.885-0.266,1.311c4.561-1.081,9.783-0.126,14.232,1.081
				c1.095-1.346,2.468-4.463,2.761-6.137c0.342-1.959-9.839-3.145-10.487-4.274c-0.111-0.188-0.202-0.376-0.278-0.558
				c-1.158-2.72,0.989-4.4,2.705-6.617c0.53-0.677,1.018-1.409,1.353-2.231c0.035-0.084,0.07-0.168,0.098-0.251"/>
			<path fill="none" stroke="#000000" stroke-miterlimit="10" d="M1277.474,1470.353c1.095-3.264,3.528-5.425,6.541-6.806
				c4.63-2.127,10.647-2.405,15.341-2.015c11.331,0.927,16.847,2.572,19.385,9.19c0.564,1.478,0.983,3.2,1.29,5.216
				c0.195,1.29,0.342,2.705,0.446,4.246"/>
			<path fill="none" stroke="#000000" stroke-miterlimit="10" d="M1276.833,1474.432c0.007-1.52,0.229-2.865,0.641-4.072"/>
			<path fill="none" stroke="#000000" stroke-miterlimit="10" d="M1437.149,1435.223c-0.057,0.237-0.104,0.475-0.168,0.711
				c-2.378,10.432-5.181,23.694-5.892,32.738"/>
			<path fill="none" stroke="#000000" stroke-miterlimit="10" d="M1452.797,1437.621c-0.342,0.377-0.67,0.761-0.99,1.158
				c-1.325,1.617-2.482,3.382-3.466,5.236c-4.477,8.409-5.648,18.862-4.658,28.157c0.119,1.081,0.258,2.141,0.433,3.187"/>
			<path fill="none" stroke="#000000" stroke-miterlimit="10" d="M1457.294,1409.701c-0.063,0.035-0.133,0.07-0.195,0.104
				c-3.535,1.938-6.994,4.387-9.901,7.162c-0.321,0.3-0.628,0.606-0.935,0.92c0.411,0.258,0.809,0.502,1.199,0.732
				c8.02,4.797,12.287,4.658,17.823,0.076c0,0,0,0,0.007,0c1.485-1.233,3.062-2.782,4.825-4.637
				c-0.223-0.049-0.446-0.098-0.662-0.16c-4.128-1.032-8.012-3.201-12.356-4.094c-0.265-0.056-0.537-0.104-0.815-0.146
				c-0.774-0.125-1.563-0.209-2.371-0.236"/>
			<path fill="none" stroke="#000000" stroke-miterlimit="10" d="M1549.065,1421.569c-3.66,0.411-7.126,1.395-10.424,2.804
				c-16.38,6.966-28.674,24.294-40.005,33.867"/>
			<path fill="none" stroke="#000000" stroke-miterlimit="10" d="M1582.014,1419.666c-6.095,1.854-12.092,3.71-17.607,6.192
				c-9.364,4.226-17.32,10.264-21.896,21.184"/>
			<path fill="none" stroke="#000000" stroke-miterlimit="10" d="M1570.41,1479.809c7.231-4.107,16.254-7.462,23.61-12.775
				c9.268-6.701,16.715-19.991,26.818-23.896"/>
			<path fill="none" stroke="#000000" stroke-miterlimit="10" d="M1609.934,1480.708c0.139-0.244,0.278-0.488,0.432-0.726
				c4.714-7.447,15.982-11.596,25.479-16.178c13.855-6.673,21.673-18.325,34.035-25.8"/>
			<path fill="none" stroke="#000000" stroke-miterlimit="10" d="M1692.898,1461.33c8.862-13.5,12.091-22.565,9.49-34.063
				c-0.6-2.629-1.499-5.391-2.706-8.36"/>
			<path fill="none" stroke="#000000" stroke-miterlimit="10" d="M1715.686,1416.793c3.368,2.998,5.872,6.018,7.747,9.086
				c5.355,8.737,5.613,17.879,6.234,28.227"/>
			<path fill="none" stroke="#000000" stroke-miterlimit="10" d="M1765.522,1429.833c-16.206,17.063-21.993,22.976-37.62,39.606
				c-0.411,0.439-0.837,0.893-1.262,1.346"/>
			<path fill="none" stroke="#000000" stroke-miterlimit="10" d="M1447.762,1444.002c0.195,0,0.391,0,0.579,0.014
				c10.013,0.586,8.158,20.87,8.507,27.313c0.572-0.648,0.613-1.541,1.081-2.147c10.013,1.359,20.082,4.309,30.374,5.194"/>
			<path fill="none" stroke="#000000" stroke-miterlimit="10" d="M1333.14,1406.55c-1.004,9.574-0.977,24.803-5.307,35.625
				c0.007,0.007,0,0.007,0,0.007c-0.969,2.434-2.154,4.637-3.626,6.513h-0.007c-0.028,0.035-0.056,0.077-0.084,0.111"/>
			<path fill="none" stroke="#000000" stroke-miterlimit="10" d="M1299.753,1329.261c4.588,0.893,8.779-0.063,11.589-3.605"/>
			<path fill="none" stroke="#000000" stroke-miterlimit="10" d="M1252.511,1311.905c0.446-1.625-0.069-2.566,1.102-3.661
				c0.118-0.111,0.258-0.223,0.411-0.342c-0.049,0.258-0.098,0.517-0.139,0.774v0.007c-1.995,12.384,6.784,21.888,5.536,33.087
				c1.374-2.796,3.242-7.447,5.404-10.676c3.786,3.557,7.356,8.235,10.09,12.796c-0.251-2.462,0.773-5.056,0.711-7.371
				c2.05,0.23,1.556,0.711,3.089,1.96c0.259-0.572-0.48-2.469,0.342-2.824c1.032,0.711,4.728,1.896,6.192,2.44
				c1.785-4.303,4.985-8.542,6.533-13.158c0.217-0.635,0.397-1.283,0.544-1.938"/>
			<path fill="none" stroke="#000000" stroke-miterlimit="10" d="M1277.558,1465.443c-0.091,1.458-0.118,3.11-0.084,4.909v0.007
				c0.084,4.428,0.523,9.741,1.249,15.201c0,0,0,0,0,0.007c0.767,5.719,1.841,11.604,3.158,16.806
				c1.144,4.561,2.476,8.591,3.926,11.533c5.76,11.7,20.055,24.183,28.966,33.944c4.052,4.428,8.375,8.891,12.649,13.451
				c15.146,16.121,29.768,33.505,29.845,55.191c0.014,3.284-0.308,6.659-1.012,10.146c-0.3,1.485-0.376,3.04-0.474,4.581
				c-0.042,0.635-0.084,1.27-0.153,1.897c-0.042,0.418-0.091,0.829-0.161,1.233"/>
			<path fill="none" stroke="#000000" stroke-miterlimit="10" d="M1319.04,1469.879c-0.104,0.278-0.202,0.564-0.3,0.844
				c-0.516,1.526-0.893,3.005-1.144,4.448c-2.552,14.804,8.249,25.249,14.539,38.986c0.404,0.886,0.815,1.771,1.234,2.643
				c6.457,13.695,13.736,26.003,22.62,38.896c1.325,1.918,2.573,3.835,3.772,5.739c7.043,11.198,12.161,22.258,17.886,34.418
				c6.708,14.211,16.721,26.065,13.849,42.668"/>
			<path fill="none" stroke="#000000" stroke-miterlimit="10" d="M1375.348,1458.555c9.364-7.105,19.176-14.246,30.207-18.507
				c6.422-2.489,27.563-1.583,30.556-6.031"/>
			<path fill="none" stroke="#000000" stroke-miterlimit="10" d="M1447.315,1421.332c-0.397-0.146-0.802-0.307-1.206-0.48
				c-2.998-1.234-6.108-2.971-8.919-4.867c-0.613-0.404-1.213-0.823-1.792-1.248"/>
			<path fill="none" stroke="#000000" stroke-miterlimit="10" d="M1411.935,1453.562c6.485-3.193,13.904-3.661,19.727-6.331"/>
			<path fill="none" stroke="#000000" stroke-miterlimit="10" d="M1426.459,1427.594c2.824,2.56,7.552,3.229,12.168,3.229"/>
			<path fill="none" stroke="#000000" stroke-miterlimit="10" d="M1804.132,1367.577c1.346-0.704,2.649-1.422,3.919-2.154
				c1.039-0.6,2.05-1.206,3.033-1.827c1.568-0.983,3.067-1.994,4.512-3.04c0.32-0.23,0.641-0.46,0.955-0.697
				c1.046-0.774,2.057-1.562,3.04-2.371c12.956-10.634,21.03-24.308,28.45-43.435c1.617-4.17,9.901-40.29,17.997-23.248
				c2.336,4.895-4.603,15.605-5.146,21.135c-0.6,6.367,0.761,15.432-0.474,20.313"/>
			<path fill="none" stroke="#000000" stroke-miterlimit="10" d="M1586.776,1416.668c0.307,0.174,0.627,0.327,0.969,0.467
				c10.969,4.554,38.052-8.061,49.669-11.094c15.654-4.065,35.339-9.407,51.593-9.505c20.885-0.118,36.288,0.761,56.126-5.711
				c16.589-5.425,33.833-12.175,49.62-18.848c3.333-1.408,6.45-2.873,9.372-4.4"/>
			<path fill="none" stroke="#000000" stroke-miterlimit="10" d="M1794.613,1393.392c5.746-3.103,11.624-6.813,17.384-10.885
				c12.963-9.17,25.306-20.173,34.112-30.172c6.408-7.273,11.282-12.984,15.348-19.42c3.158-5.007,5.822-10.453,8.332-17.405
				c2.009-5.578,7.029-25.389,16.213-22.871c0.244,7.294,7.538,7.726,10.654,13.953c3.306,6.568,0.774,16.177-0.969,22.822"/>
			<path fill="none" stroke="#000000" stroke-miterlimit="10" d="M1783.861,1398.503c0.342-0.14,0.684-0.279,1.032-0.419
				l0.007-0.007l0.007-0.007c0.056-0.021,0.111-0.049,0.167-0.069c3.104-1.318,6.297-2.866,9.525-4.603"/>
			<path fill="none" stroke="#000000" stroke-miterlimit="10" d="M1801.168,1365.967c1.039,0.377,1.994,0.997,2.957,1.61
				c0,0,0,0,0.007,0c0.732,0.468,1.471,0.921,2.273,1.263c0.397,5.125,3.165,12.712,4.832,12.621"/>
			<path fill="none" stroke="#000000" stroke-miterlimit="10" d="M1820.721,1413.014c0,0,0,0,0.007-0.007
				c2.071-1.199,4.163-2.343,6.275-3.417c2.28-1.164,4.589-2.245,6.917-3.229c6.29-2.656,12.74-4.574,19.351-5.383
				c0.551-0.077,1.102-0.133,1.659-0.188c10.544-0.997,16.575-3.026,20.772-7.887c3.104-3.591,5.216-8.723,7.406-16.121
				c2.35-7.942,7.077-14.755,9.427-22.809c2.051-7.029,1.081-16.624,4.185-23.339"/>
			<path fill="none" stroke="#000000" stroke-miterlimit="10" d="M1812.778,1417.908c2.614-1.701,5.265-3.347,7.936-4.888"/>
			<path fill="none" stroke="#000000" stroke-miterlimit="10" d="M1799.16,1427.336c3.953-2.858,7.963-5.696,12.049-8.396
				c0.517-0.349,1.039-0.69,1.563-1.032"/>
			<path fill="none" stroke="#000000" stroke-miterlimit="10" d="M1782.871,1439.135c0.313-0.217,0.62-0.439,0.935-0.663
				c5.014-3.563,10.124-7.363,15.348-11.136"/>
			<path fill="none" stroke="#000000" stroke-miterlimit="10" d="M1579.949,1417.239c2.42-2.071,5.684-2.378,7.956-0.495"/>
			<path fill="none" stroke="#000000" stroke-miterlimit="10" d="M1291.071,1508.362c0-1.011,0.126-2.036,0.209-3.054
				c0.028-0.37,0.056-0.739,0.07-1.102c0.223,0.438,0.439,0.878,0.662,1.324c1.228,2.497,2.371,5.056,3.201,7.678"/>
			<path fill="none" stroke="#000000" stroke-miterlimit="10" d="M1197.515,1396.139c0.007,0.007,0.021,0.007,0.027,0.015
				c5.83,2.921,11.75-0.461,16.799-3.605c0.236-0.153,0.474-0.3,0.704-0.446c7.956-4.985,14.043-9.532,21.352-15.445
				c1.38-1.122,4.26-3.242,7.844-5.773c10.886-7.691,28.234-19.155,29.518-17.663"/>
			<path fill="none" stroke="#000000" stroke-miterlimit="10" d="M1188.115,1387.674c2.482,3.402,6.624,7.057,9.393,8.458"/>
			<path fill="none" stroke="#000000" stroke-miterlimit="10" d="M1279.936,1272.884c-2.427-6.924-11.143-17.411-16.227-22.683
				c-19.991-20.731-60.881,17.271-77.505,27.843c-12.419,7.887-38.212,23.617-32.508,39.997c0.229,0.648,0.509,1.304,0.837,1.96
				c2.656,5.271,9.142,9.532,12.111,15.654c1.653,3.431,3.055,6.826,4.4,10.229c1.506,3.813,2.949,7.621,4.609,11.478
				c2.698,6.282,5.181,11.826,7.398,17.642c1.115,2.936,2.161,5.94,3.138,9.142c0.313,1.053,0.997,2.266,1.903,3.507"/>
			<path fill="none" stroke="#000000" stroke-miterlimit="10" d="M1190.325,1308.928c-0.118,4.574,6.938,14.797,8.424,21.47
				c1.45,0.223,2.754,0.32,3.904,0.313c3.292-0.021,5.433-0.906,6.667-2.321c6.687-7.636-12.461-30.808-17.956-19.462"/>
			<path fill="none" stroke="#000000" stroke-miterlimit="10" d="M1257.273,1281.119c-2.782-3.249-5.997-7.712-7.392-12.21
				c-18.367-3.242-8.277,12.594-2.9,19.42"/>
			<path fill="none" stroke="#000000" stroke-miterlimit="10" d="M1209.898,1328.501c9.539,9.225,7.015,23.408,24.615,22.864
				c-1.841,11.819-14.477,5.349-20.501,0.815c-7.803-5.85-10.396-13.472-11.324-20.591"/>
			<path fill="none" stroke="#000000" stroke-miterlimit="10" d="M1153.25,1318.194c-0.726-0.188-0.14-1.777-1.883-0.893
				c-1.723,7.538-6.757,13.033-10.418,17.663c-4.406,5.571-6.813,9.888,0.97,14.978c0.118,0.077,0.237,0.153,0.362,0.23
				c15.634,9.888,7.956,4.079,23.004,14.371c7.092,4.854,12.433,13.828,18.862,19.482c1.164,1.025,2.496,2.267,3.946,3.626
				c0.007,0.008,0.015,0.015,0.021,0.021c2.796,2.636,6.038,5.704,9.393,8.458c0,0,0.007,0,0.007,0.007
				c4.47,3.675,9.135,6.785,13.207,7.552c8.374,1.576,13.597,10.229,21.812,10.118c9.1-0.118,7.028,7.092,15.772,7.523
				c19.051,0.928,17.928,13.207,29.671,4.505c0.438-0.328,0.899-0.684,1.387-1.081c0,0,0,0,0.008-0.007
				c0.188-0.146,0.376-0.3,0.564-0.46"/>
			<path fill="none" stroke="#000000" stroke-miterlimit="10" d="M1276.847,1343.946c0.6,6.799,5.76,15.64,5.146,20.598"/>
			<path fill="none" stroke="#000000" stroke-miterlimit="10" d="M1283.024,1378.972c0.098,0.056,0.202,0.104,0.313,0.16
				c7.831,4.017,30.103,12,27.522-4.037"/>
			<path fill="none" stroke="#000000" stroke-miterlimit="10" d="M1401.476,1384.117c0.969,1.012,2.398,1.729,4.169,2.211
				c9.686,2.671,29.378-1.583,37.021-2.211c8.088-0.676,16.645-1.666,24.67-3.633c4.651-1.137,9.128-2.594,13.229-4.512
				c0.048,1.472,0.153,2.838,0.313,4.128c0.983,8.104,4.044,12.984,9.309,18.646c1.409,1.513,2.971,3.089,4.693,4.79
				c-0.224,0.007-0.446,0.014-0.663,0.014c-13.172,0-20.619-13.172-26.295-20.779v-0.007c-0.182-0.237-0.362-0.474-0.537-0.704"/>
			<path fill="none" stroke="#000000" stroke-miterlimit="10" d="M1232.533,1413.809c4.463-3.981,7.203-4.616,10.738-5.767
				c1.959-0.642,4.156-1.43,7.028-3.04c8.682-4.882,16.799-12.865,25.508-16.757"/>
			<path fill="none" stroke="#000000" stroke-miterlimit="10" d="M1230.364,1401.201c0.3,0.83,1.165,1.479,2.74,1.827
				c0.237,0.049,0.51,0.077,0.816,0.077h0.007c5.09,0,19.664-6.472,16.826-11.464
				C1246.737,1384.57,1228.53,1396.209,1230.364,1401.201z"/>
			<path fill="none" stroke="#000000" stroke-miterlimit="10" d="M1198.421,1314.799c-0.265,0.111-0.551,0.216-0.879,0.307"/>
			<path fill="none" stroke="#000000" stroke-miterlimit="10" d="M1200.632,1313.049c-1.012,0.593-1.765,1.164-2.204,1.75h-0.007
				c-1.004,1.325-0.446,2.72,2.225,4.554c1.081-1.556,1.408-2.393,1.903-4.296c-1.848-1.604-2.629-0.879-4.121-0.258"/>
			<path fill="none" stroke="#000000" stroke-miterlimit="10" d="M1246.109,1277.005c-0.049,0-0.104,0-0.16,0"/>
			<path fill="none" stroke="#000000" stroke-miterlimit="10" d="M1246.109,1277.005c-0.153,0.217-0.258,0.544-0.286,1.053
				c3.333,2.085,3.18,2.531,6.192-0.049C1250.063,1276.754,1248.445,1276.978,1246.109,1277.005z"/>
			<path fill="none" stroke="#000000" stroke-miterlimit="10" d="M1247.999,1275.973c-0.509,0.754-1.423,0.356-1.89,1.032"/>
			<path fill="none" stroke="#000000" stroke-miterlimit="10" d="M1820.721,1413.014c0.056,0.244,0.091,0.509,0.098,0.815
				c2.07,0.279,3.877-0.293,5.871-1.053c0.091-0.927,0.251-2.063,0.313-3.187c0.028-0.537,0.042-1.074,0.014-1.576
				c-0.027-0.439-0.083-0.851-0.174-1.234"/>
			<path fill="none" stroke="#000000" stroke-miterlimit="10" d="M1820.692,1412.888c0.014,0.035,0.021,0.077,0.028,0.119"/>
			<path fill="none" stroke="#000000" stroke-miterlimit="10" d="M1819.549,1410.26c0.021,0.048,0.035,0.097,0.056,0.153
				c0.021,0.063,0.042,0.118,0.063,0.174c0.327,0.823,0.802,1.381,1.024,2.294"/>
			<path fill="none" stroke="#000000" stroke-miterlimit="10" d="M1820.692,1412.881c-0.606-0.488-0.795-1.534-1.024-2.294"/>
			<line fill="none" stroke="#000000" stroke-miterlimit="10" x1="1820.692" y1="1412.881" x2="1820.692" y2="1412.888"/>
			<path fill="none" stroke="#000000" stroke-miterlimit="10" d="M1820.721,1413.007h0.007c0.014-0.021,0.027-0.042,0.042-0.063
				c-0.028-0.021-0.049-0.035-0.077-0.057"/>
			<line fill="none" stroke="#000000" stroke-miterlimit="10" x1="1820.721" y1="1413.007" x2="1820.721" y2="1413.014"/>
			<path fill="none" stroke="#000000" stroke-miterlimit="10" d="M1803.155,1388.245c-4.637,2.434-7.266,3.229-8.542,5.146
				c0,0-0.007,0-0.014,0.007c-0.774,1.172-1.053,2.762-0.977,5.397c0.16,5.236,4.456,9.455,3.452,14.984
				c0.46-0.111,0.976-0.132,1.52-0.153c0.781-0.021,1.618-0.027,2.42-0.278c-2.552,4.295-3.229,8.709-2.858,13.876
				c0.349,0.063,0.676,0.098,0.997,0.111h0.007c5.731,0.37,6.986-5.411,12.077-7.343c-0.035-0.334-0.035-0.689-0.028-1.053
				c0.042-1.324,0.293-2.768,0.182-4.079c-0.182-1.004,1.039,2.273,1.206,3.062c0.056-0.007,0.119-0.007,0.175-0.015h0.007
				c3.047-0.258,6.024-2.141,7.936-4.888c0.007,0,0.007,0,0.007-0.007"/>
			<path fill="none" stroke="#000000" stroke-miterlimit="10" d="M1812.723,1366.462c0-0.007,0-0.007-0.007-0.014
				c-0.021-0.07-0.412-0.816-0.928-1.688c-0.202-0.356-0.453-0.768-0.704-1.165c-0.293-0.453-0.586-0.871-0.816-1.108
				c3.319-1.688,2.1-3.563,5.328-1.932c0.292,0.153,0.627,0.335,1.004,0.544c-0.07-0.411-0.07-0.83-0.049-1.241
				c0.042-0.809,0.181-1.61,0.14-2.364c0.906-0.111,1.91-0.027,2.9-0.007c0.732,0.021,1.45,0.007,2.105-0.146"/>
			<path fill="none" stroke="#000000" stroke-miterlimit="10" d="M1805.213,1366.615c0.146-0.23,1.282-0.76,2.838-1.192
				c1.102-0.313,2.419-0.586,3.737-0.662c0.153-0.015,0.3-0.021,0.453-0.028c0.14,0.579,0.313,1.15,0.475,1.716"/>
			<path fill="none" stroke="#000000" stroke-miterlimit="10" d="M1481.812,1379.989c8.096-2.343,14.908-9.435,22.648-13.13
				c7.774-3.688,15.682-6.938,23.436-10.815c7.343-3.646,13.611-5.836,21.938-5.871c8.807-0.014,12.544,4.142,18.632,7.154
				c-11.387,0.014-22.202-2.05-32.438,3.939c3.64,6.771,15.124,7.691,22,10.495c6.841,2.761,8.214,4.058-1.039,5.201
				c-5.467,0.663-11.248-3.193-16.233-4.463c-12.907-3.277-14.915,3.85-24.74,10.815c-5.418,3.842-18.569,14.985-22.878,15.215"/>
			<path fill="none" stroke="#000000" stroke-miterlimit="10" d="M1483.868,1409.869c0.997-0.266,2.001-0.572,2.998-0.928
				c2.839-0.99,5.635-2.343,8.02-4.149c0.46-0.349,0.906-0.718,1.339-1.102"/>
			<path fill="none" stroke="#000000" stroke-miterlimit="10" d="M1372.209,1635.083c-2.698,8.298-4.965,17.628-9.546,25.145
				c-3.396,5.628,2.922,9.114,7.329,4.7c4.17-4.156,5.097-10.536,7.363-15.592c1.359-3.075,3.075-5.99,4.254-9.177
				c0.802-2.168,0.836-4.49,1.102-6.735c0.132-1.158,0.335-2.302,0.732-3.396"/>
			<path fill="none" stroke="#000000" stroke-miterlimit="10" d="M1372.23,1635.041c1.032-1.715,1.764-3.521,1.945-5.467
				C1373.479,1631.317,1372.844,1633.151,1372.23,1635.041z"/>
			<path fill="none" stroke="#000000" stroke-miterlimit="10" d="M1372.23,1635.041c0,0.007-0.007,0.015-0.014,0.021
				c0,0.007,0,0.014-0.008,0.021"/>
			<path fill="none" stroke="#000000" stroke-miterlimit="10" d="M1362.978,1628.096c-0.266,2.378-2.615,7.001-3.808,11.213
				c-1.206,4.268-1.214,8.124,3.354,8.807c1.938-4.399,6.883-8.388,9.686-13.032"/>
			<path fill="none" stroke="#000000" stroke-miterlimit="10" d="M1355.635,1633.117c-0.279,2.594,0.034,6.547,3.479,6.178"/>
			<path fill="none" stroke="#000000" stroke-miterlimit="10" d="M1357.566,1616.123c-0.098,0.112-0.195,0.237-0.3,0.37
				c-2.811,3.549-7.385,12.559-2.016,14.692"/>
			<path fill="none" stroke="#000000" stroke-miterlimit="10" d="M1392.326,1637.363c-0.174,0.195-0.376,0.628-0.6,1.234
				c-1.875,5.118-5.341,22.648-9.734,15.361c-1.932-3.166,1.054-7.587,1.465-10.801c0.439-3.215-0.07-6.457,0.355-9.609
				c0.084-0.669,0.216-1.324,0.404-1.98"/>
			<path fill="none" stroke="#000000" stroke-miterlimit="10" d="M1456.06,1409.869c0.07-0.07,0.146-0.14,0.224-0.21
				c1.715-1.631,4.351-4.162,6.338-4.95c0.419-0.168,0.81-0.258,1.158-0.244"/>
			<path fill="none" stroke="#000000" stroke-miterlimit="10" d="M1453.738,1429.958c1.854-2.294,3.402-4.881,3.862-7.726"/>
			<path fill="none" stroke="#000000" stroke-miterlimit="10" d="M1469.19,1412.965c0.16,0.021,0.313,0.035,0.474,0.049
				c3.41,0.244,5.697-2.085,6.437-5.285c0.014-0.057,0.027-0.119,0.042-0.175"/>
		</g>
	</g>
</g>
</svg>
