<?xml version="1.0" encoding="utf-8"?>
<!-- Generator: Adobe Illustrator 16.0.2, SVG Export Plug-In . SVG Version: 6.00 Build 0)  -->
<!DOCTYPE svg PUBLIC "-//W3C//DTD SVG 1.1//EN" "http://www.w3.org/Graphics/SVG/1.1/DTD/svg11.dtd">
<svg version="1.1" xmlns="http://www.w3.org/2000/svg" xmlns:xlink="http://www.w3.org/1999/xlink" x="0px" y="0px"
	 width="1099.987px" height="674.397px" viewBox="0 0 1099.987 674.397" enable-background="new 0 0 1099.987 674.397"
	 xml:space="preserve">
<g id="Слой_2">
</g>
<g id="Слой_1">
	<g id="дракон">
	</g>
</g>
<g id="набросок">
	<g id="XMLID_10_">
		<g>
			<linearGradient id="SVGID_1_" gradientUnits="userSpaceOnUse" x1="1041.4648" y1="361.8076" x2="1042.9219" y2="361.8076">
				<stop  offset="0" style="stop-color:#702536"/>
				<stop  offset="0.3429" style="stop-color:#2F2439"/>
			</linearGradient>
			<path fill="url(#SVGID_1_)" d="M1041.465,363.955c0.488-1.43,0.977-2.866,1.457-4.295
				C1042.532,361.124,1042.044,362.554,1041.465,363.955z"/>
			<path fill="#A58897" d="M913.998,405.766c-0.076-2.636,0.202-4.226,0.977-5.397c0.007-0.007,0.014-0.007,0.014-0.007
				c5.746-3.103,11.624-6.813,17.384-10.885c12.963-9.17,25.306-20.173,34.112-30.172c6.408-7.273,11.282-12.984,15.348-19.42
				c3.158-5.007,5.822-10.453,8.332-17.405c2.009-5.578,7.029-25.389,16.213-22.871c0.244,7.294,7.538,7.726,10.654,13.953
				c3.306,6.568,0.774,16.177-0.969,22.822l1.032,1.221c-3.104,6.715-2.134,16.31-4.185,23.339
				c-2.35,8.054-7.077,14.866-9.427,22.809c-2.19,7.398-4.303,12.53-7.406,16.121c-7.237,3.033-14.831,5.718-22.432,8.075
				c-6.61,0.809-13.061,2.727-19.351,5.383c-2.336,0.579-4.637,1.137-6.903,1.652c-10.829,2.504-20.709,4.338-28.422,5.613
				c-0.544,0.021-1.06,0.042-1.52,0.153C918.454,415.221,914.158,411.002,913.998,405.766z"/>
			<path fill="#A58897" d="M996.077,399.873c-4.197,4.86-10.229,6.89-20.772,7.887c-0.558,0.056-1.108,0.111-1.659,0.188
				C981.246,405.591,988.84,402.906,996.077,399.873z"/>
			<path fill="#A58897" d="M947.378,416.56c0.028-0.537,0.042-1.074,0.014-1.576c2.267-0.516,4.567-1.073,6.903-1.652
				C951.967,414.314,949.658,415.396,947.378,416.56z"/>
			<linearGradient id="SVGID_2_" gradientUnits="userSpaceOnUse" x1="224.0049" y1="418.7158" x2="1041.463" y2="418.7158">
				<stop  offset="0" style="stop-color:#702536"/>
				<stop  offset="0.3429" style="stop-color:#1B1526"/>
			</linearGradient>
			<path fill="url(#SVGID_2_)" d="M941.193,420.799c-0.007-0.307-0.042-0.571-0.098-0.815c0,0,0,0,0.007-0.007
				c2.071-1.199,4.163-2.343,6.275-3.417c-0.063,1.123-0.223,2.26-0.313,3.187C945.07,420.506,943.264,421.078,941.193,420.799z"/>
			<linearGradient id="SVGID_3_" gradientUnits="userSpaceOnUse" x1="222.0977" y1="419.917" x2="839.2852" y2="419.917">
				<stop  offset="0" style="stop-color:#702536"/>
				<stop  offset="0.3429" style="stop-color:#1B1526"/>
			</linearGradient>
			<path fill="url(#SVGID_3_)" d="M941.067,419.857c0.028,0.021,0.049,0.035,0.077,0.057c-0.015,0.021-0.028,0.041-0.042,0.063
				h-0.007C941.089,419.935,941.081,419.893,941.067,419.857z"/>
			<linearGradient id="SVGID_4_" gradientUnits="userSpaceOnUse" x1="913.752" y1="419.9795" x2="968.4395" y2="419.9795">
				<stop  offset="0" style="stop-color:#702536"/>
				<stop  offset="0.3429" style="stop-color:#1B1526"/>
			</linearGradient>
			<path fill="url(#SVGID_4_)" d="M941.096,419.977h0.007c-0.007,0.007-0.007,0.007-0.007,0.007V419.977z"/>
			<linearGradient id="SVGID_5_" gradientUnits="userSpaceOnUse" x1="224.001" y1="418.7041" x2="1041.4646" y2="418.7041">
				<stop  offset="0" style="stop-color:#702536"/>
				<stop  offset="0.3429" style="stop-color:#1B1526"/>
			</linearGradient>
			<path fill="url(#SVGID_5_)" d="M941.067,419.851c-0.606-0.488-0.795-1.534-1.024-2.294
				C940.37,418.38,940.845,418.938,941.067,419.851z"/>
			<linearGradient id="SVGID_6_" gradientUnits="userSpaceOnUse" x1="223.8887" y1="422.4346" x2="1041.4801" y2="422.4346">
				<stop  offset="0" style="stop-color:#702536"/>
				<stop  offset="0.3429" style="stop-color:#1B1526"/>
			</linearGradient>
			<path fill="url(#SVGID_6_)" d="M941.089,419.99c-1.911,2.747-4.889,4.63-7.936,4.888
				C935.768,423.177,938.418,421.531,941.089,419.99z"/>
			<linearGradient id="SVGID_7_" gradientUnits="userSpaceOnUse" x1="223.5537" y1="423.7764" x2="1041.533" y2="423.7764">
				<stop  offset="0" style="stop-color:#702536"/>
				<stop  offset="0.3429" style="stop-color:#1B1526"/>
			</linearGradient>
			<path fill="url(#SVGID_7_)" d="M933.146,424.878c-0.523,0.342-1.046,0.684-1.563,1.032c0.042-1.324,0.293-2.768,0.182-4.079
				c-0.182-1.004,1.039,2.273,1.206,3.062C933.027,424.886,933.091,424.886,933.146,424.878z"/>
			<linearGradient id="SVGID_8_" gradientUnits="userSpaceOnUse" x1="224.0049" y1="430.1162" x2="1041.4634" y2="430.1162">
				<stop  offset="0" style="stop-color:#702536"/>
				<stop  offset="0.3429" style="stop-color:#1B1526"/>
			</linearGradient>
			<path fill="url(#SVGID_8_)" d="M919.535,434.306c3.953-2.858,7.963-5.696,12.049-8.396c-0.007,0.363-0.007,0.719,0.028,1.053
				C926.521,428.895,925.267,434.676,919.535,434.306z"/>
			<path fill="#A58897" d="M926.78,375.81c-0.803-0.342-1.541-0.795-2.273-1.263c1.346-0.704,2.649-1.422,3.919-2.154
				c1.102-0.313,2.419-0.586,3.737-0.662c0.516,0.871,0.906,1.617,0.928,1.688c-0.161-0.565-0.335-1.137-0.475-1.716
				c-0.153,0.007-0.3,0.014-0.453,0.028c-0.202-0.356-0.453-0.768-0.704-1.165c1.568-0.983,3.067-1.994,4.512-3.04
				c0.292,0.153,0.627,0.335,1.004,0.544c-0.07-0.411-0.07-0.83-0.049-1.241c1.046-0.774,2.057-1.562,3.04-2.371
				c12.956-10.634,21.03-24.308,28.45-43.435c1.617-4.17,9.901-40.29,17.997-23.248c2.336,4.895-4.603,15.605-5.146,21.135
				c-0.6,6.367,0.761,15.432-0.474,20.313l1.039,0.663c-4.065,6.436-8.939,12.146-15.348,19.42
				c-8.807,9.999-21.149,21.002-34.112,30.172l-0.014-0.014l-0.746-1.032C929.945,388.521,927.178,380.935,926.78,375.81z"/>
			<path fill="#A58897" d="M941.067,419.851c-0.223-0.913-0.697-1.471-1.024-2.294C940.272,418.316,940.461,419.362,941.067,419.851
				z M918.97,420.597c7.713-1.275,17.593-3.109,28.422-5.613c0.028,0.502,0.015,1.039-0.014,1.576
				c-2.112,1.074-4.204,2.218-6.275,3.417c0.014-0.021,0.027-0.042,0.042-0.063c-0.028-0.021-0.049-0.035-0.077-0.057
				c0.014,0.035,0.021,0.077,0.028,0.119v0.007c0,0.007,0,0.007-0.007,0.007c-2.671,1.541-5.321,3.187-7.936,4.888h-0.007
				c-0.056,0.008-0.119,0.008-0.175,0.015c-0.167-0.788-1.388-4.065-1.206-3.062c0.111,1.312-0.14,2.755-0.182,4.079
				c-4.086,2.699-8.096,5.537-12.049,8.396h-0.007c-0.321-0.014-0.648-0.049-0.997-0.111c-0.37-5.167,0.307-9.581,2.858-13.876
				C920.588,420.569,919.751,420.576,918.97,420.597z"/>
			<path fill="#C2B487" d="M904.376,422.752c0.16-4.951,0.425-10.041,0.857-15.403c0.049-0.648,0.104-1.297,0.16-1.953
				c0.049-0.223,0.063-0.355,0.056-0.425c3.104-1.318,6.297-2.866,9.525-4.603c-0.774,1.172-1.053,2.762-0.977,5.397
				c0.16,5.236,4.456,9.455,3.452,14.984c0.46-0.111,0.976-0.132,1.52-0.153C912.074,421.74,906.914,422.431,904.376,422.752z"/>
			<path fill="#3A585F" d="M905.275,405.047c0-0.007,0.007-0.007,0.007-0.007L905.275,405.047z"/>
			<path fill="#3A585F" d="M753.884,433.079c-18.221-0.565-34.928-2.95-51.056-7.873c-0.858-0.258-1.716-0.53-2.566-0.809
				l0.063-0.188c2.42-2.071,5.684-2.378,7.956-0.495l-0.16,0.391c10.969,4.554,38.052-8.061,49.669-11.094
				c15.654-4.065,35.339-9.407,51.593-9.505c20.885-0.118,36.288,0.761,56.126-5.711c16.589-5.425,33.833-12.175,49.62-18.848
				c3.333-1.408,6.45-2.873,9.372-4.4c0,0,0,0,0.007,0c0.732,0.468,1.471,0.921,2.273,1.263c0.397,5.125,3.165,12.712,4.832,12.621
				l0.746,1.032l0.014,0.014c-5.76,4.072-11.638,7.782-17.384,10.885c0,0-0.007,0-0.014,0.007c-3.229,1.736-6.422,3.284-9.525,4.603
				c-0.007-0.104-0.069-0.056-0.167,0.069c0,0-0.007,0-0.007,0.007l0.007-0.007c0.056-0.021,0.111-0.049,0.167-0.069
				c0.007,0.069-0.007,0.202-0.056,0.425c-0.056,0.656-0.111,1.305-0.16,1.953c-18.374,5.571-39.224,10.55-58.762,15.18
				c1.039,2.329,1.039,5.62,2.503,7.727c-4.406-1.932-8.012-5.516-12.914-6.506c-1.339-0.272-2.768-0.349-4.344-0.153
				c-0.153,2.126-1.716,3.646-2.008,5.139c-2.971-1.729-6.186-2.907-9.49-3.675c-3.745-0.864-7.594-1.213-11.304-1.269
				C790.095,423.498,773.164,433.686,753.884,433.079z"/>
			<path fill="#C2B487" d="M904.181,445.441c-0.049-7.579-0.056-14.971,0.195-22.689c2.538-0.321,7.698-1.012,14.594-2.155
				c0.781-0.021,1.618-0.027,2.42-0.278c-2.552,4.295-3.229,8.709-2.858,13.876c0.349,0.063,0.676,0.098,0.997,0.111
				C914.305,438.078,909.194,441.879,904.181,445.441z"/>
			<linearGradient id="SVGID_9_" gradientUnits="userSpaceOnUse" x1="223.9902" y1="418.0967" x2="1041.4648" y2="418.0967">
				<stop  offset="0" style="stop-color:#702536"/>
				<stop  offset="0.3429" style="stop-color:#1B1526"/>
			</linearGradient>
			<path fill="url(#SVGID_9_)" d="M961.031,459.074c0,0-34.272,6.422-81.821,13.165c0.014-0.007,0.035-0.007,0.049-0.014
				c8.019-2.267,17.362-2.762,24.978-5.899c0.049-7.35-0.021-14.19-0.056-20.885c5.014-3.563,10.124-7.363,15.348-11.136h0.007
				c5.731,0.37,6.986-5.411,12.077-7.343c-0.035-0.334-0.035-0.689-0.028-1.053c0.517-0.349,1.039-0.69,1.563-1.032h0.007
				c3.047-0.258,6.024-2.141,7.936-4.888c0.007,0,0.007,0,0.007-0.007c0.056,0.244,0.091,0.509,0.098,0.815
				c2.07,0.279,3.877-0.293,5.871-1.053c0.091-0.927,0.251-2.063,0.313-3.187c2.28-1.164,4.589-2.245,6.917-3.229
				c6.311-1.569,12.831-3.354,19.351-5.383c0.551-0.077,1.102-0.133,1.659-0.188c10.544-0.997,16.575-3.026,20.772-7.887
				c20.976-8.786,38.952-20.521,45.388-35.918C1026.766,406.177,1001.963,449.604,961.031,459.074z"/>
			<path fill="#3A585F" d="M836.061,423.763v-0.014c4.902,0.99,8.508,4.574,12.914,6.506c-1.464-2.106-1.464-5.397-2.503-7.727
				c19.538-4.63,40.388-9.608,58.762-15.18c-0.433,5.362-0.697,10.452-0.857,15.403c-1.144,0.146-1.758,0.216-1.758,0.216
				c-15.39,4.805-35.709,7.956-58.811,9.881C841.933,429.78,839.429,426.761,836.061,423.763z"/>
			<path fill="#3A585F" d="M836.061,423.763c3.368,2.998,5.872,6.018,7.747,9.086c-6.791,0.564-13.827,1.025-21.044,1.388
				c-0.6-2.629-1.499-5.391-2.706-8.36l0.161-0.816c3.305,0.768,6.52,1.945,9.49,3.675c0.292-1.492,1.854-3.013,2.008-5.139
				c1.576-0.195,3.005-0.119,4.344,0.153V423.763z"/>
			<path fill="#3A585F" d="M702.828,425.206c16.128,4.923,32.835,7.308,51.056,7.873c19.28,0.606,36.211-9.581,55.031-9.288
				c3.71,0.056,7.559,0.404,11.304,1.269l-0.161,0.816c1.207,2.97,2.106,5.731,2.706,8.36c-43.289,2.176-93.229,0.928-137.982-1.408
				c5.516-2.482,11.513-4.338,17.607-6.192L702.828,425.206z"/>
			<path fill="#3A585F" d="M663.646,486.875l0.007-0.258c7.168,0.266,11.233,0.349,11.233,0.349
				c17.14,0.893,36.1,0.788,55.854-0.014c38.659-1.576,80.378-5.822,117.537-10.543c10.753-1.374,21.129-2.775,30.933-4.17
				c-16.729,4.783-38.345,8.333-55.575,10.09c-17.237,1.764-27.927,3.661-45.436,5.349c-28.688,2.761-38.624,0.558-59.403,2.503
				C700.324,491.896,682.536,487.51,663.646,486.875z"/>
			<path fill="#31484D" d="M614.591,410.521c-13.172,0-20.619-13.172-26.295-20.779v-0.007l-0.586-2.28
				c4.651-1.137,9.128-2.594,13.229-4.512c0.048,1.472,0.153,2.838,0.313,4.128c0.983,8.104,4.044,12.984,9.309,18.646
				c1.409,1.513,2.971,3.089,4.693,4.79C615.03,410.514,614.808,410.521,614.591,410.521z"/>
			<path fill="#B4AD83" d="M610.561,405.717c-5.265-5.662-8.325-10.543-9.309-18.646h0.007l0.928-0.111
				c8.096-2.343,14.908-9.435,22.648-13.13c7.774-3.688,15.682-6.938,23.436-10.815c7.343-3.646,13.611-5.836,21.938-5.871
				c8.807-0.014,12.544,4.142,18.632,7.154c-11.387,0.014-22.202-2.05-32.438,3.939c3.64,6.771,15.124,7.691,22,10.495
				c6.841,2.761,8.214,4.058-1.039,5.201c-5.467,0.663-11.248-3.193-16.233-4.463c-12.907-3.277-14.915,3.85-24.74,10.815
				c-5.418,3.842-18.569,14.985-22.878,15.215L610.561,405.717z"/>
			<path fill="#3A585F" d="M589.83,420.869c-4.128-1.032-8.012-3.201-12.356-4.094c-0.265-0.056-0.537-0.104-0.815-0.146
				c1.715-1.631,4.351-4.162,6.338-4.95c3.654,0.864,6.736,1.764,8.319,2.643c0.007-0.007,0.014,0,0.014,0
				c1.723,0.091,3.431,0.223,5.146,0.377c-0.739,3.2-3.026,5.529-6.437,5.285l-0.209,0.872V420.869z"/>
			<path fill="#3A585F" d="M585.667,425.666c1.485-1.233,3.062-2.782,4.825-4.637c-0.223-0.049-0.446-0.098-0.662-0.16v-0.014
				l0.209-0.872c3.41,0.244,5.697-2.085,6.437-5.285c3.591,0.313,7.182,0.731,10.766,1.213c12.503,1.659,25.013,3.988,37.927,5.027
				c18.199,1.45,36.678-2.72,53.204,2.838c0.627,0.21,1.255,0.419,1.89,0.621c0.851,0.278,1.708,0.551,2.566,0.809l-0.439,1.43
				c-6.095,1.854-12.092,3.71-17.607,6.192c-8.82-0.454-17.439-0.956-25.765-1.485C629.576,429.487,603.79,427.326,585.667,425.666z
				"/>
			<linearGradient id="SVGID_10_" gradientUnits="userSpaceOnUse" x1="135.3428" y1="394.7939" x2="1099.4874" y2="394.7939">
				<stop  offset="0" style="stop-color:#702536"/>
				<stop  offset="0.3429" style="stop-color:#2F2439"/>
			</linearGradient>
			<path fill="url(#SVGID_10_)" d="M444.149,484.072c0.712-1.06,1.332-2.064,1.674-2.838c8.604,2.782,8.047-9.95,6.646-14.615
				c-0.837-2.804-1.813-4.889-2.957-6.45l1.443-0.488c10.411,3.598,22.342,5.195,34.07,6.841c0.007,0,0.015,0.007,0.028,0.007
				c13.36,2.922,27.265,5.425,41.203,7.572c8.2,1.548,16.407,3.124,24.301,5.125c1.674,0.426,3.333,0.865,4.972,1.332
				c2.797,0.788,5.788,1.45,8.912,2.002c17.104,3.04,38.281,2.929,54.57,4.219c18.479,1.471,27.069-0.488,44.635,0.097
				c18.89,0.635,36.678,5.021,55.149,3.306c20.779-1.945,30.716,0.258,59.403-2.503c17.509-1.688,28.198-3.585,45.436-5.349
				c17.23-1.757,38.847-5.307,55.575-10.09c47.549-6.743,81.821-13.165,81.821-13.165c40.932-9.47,65.734-52.897,80.434-95.119
				c0.579-1.401,1.067-2.831,1.457-4.295c14.393-43.261,18.325-83.977,18.325-83.977l38.24-3.486v10.46
				c-30.325-6.276-58.016,151.314-58.016,151.314c-7.803,4.839-13.012,15.089-16.442,27.647
				C772.481,537.674,582.403,526.531,444.149,484.072z"/>
			<path fill="#67462C" d="M590.492,421.029c-1.764,1.854-3.34,3.403-4.825,4.637c-0.007,0-0.007,0-0.007,0
				c-7.398-0.676-13.514-1.269-18.088-1.729c2.907-2.775,6.366-5.224,9.901-7.162c4.345,0.893,8.229,3.062,12.356,4.094
				C590.046,420.932,590.27,420.98,590.492,421.029z"/>
			<path fill="#3A585F" d="M568.716,450.985c10.013,0.586,8.158,20.87,8.507,27.313c0.572-0.648,0.613-1.541,1.081-2.147
				c10.013,1.359,20.082,4.309,30.374,5.194l-0.16,2.058c-13.729-1.074-28.806-2.469-44.46-4.261
				C563.067,469.848,564.239,459.395,568.716,450.985z"/>
			<path fill="#67462C" d="M585.66,425.666c-5.536,4.582-9.804,4.721-17.823-0.076c-0.391-0.23-0.788-0.475-1.199-0.732
				c0.307-0.313,0.613-0.62,0.935-0.92C572.146,424.397,578.262,424.99,585.66,425.666z"/>
			<path fill="#3A585F" d="M566.638,424.857c0.411,0.258,0.809,0.502,1.199,0.732c-0.335,0.822-0.822,1.555-1.353,2.231
				c-2.998-1.234-6.108-2.971-8.919-4.867c0.195,0.007,0.391,0.014,0.586,0.014c0,0,3.354,0.362,9.421,0.97
				C567.251,424.237,566.944,424.544,566.638,424.857z"/>
			<path fill="#3A585F" d="M585.667,425.666c18.123,1.66,43.909,3.821,73.35,5.677c8.325,0.529,16.944,1.031,25.765,1.485
				c44.753,2.336,94.693,3.584,137.982,1.408c7.217-0.362,14.253-0.823,21.044-1.388c23.102-1.925,43.421-5.076,58.811-9.881
				c0,0,0.614-0.069,1.758-0.216c-0.251,7.719-0.244,15.11-0.195,22.689c0.034,6.694,0.104,13.535,0.056,20.885
				c-7.615,3.138-16.959,3.633-24.978,5.899c-0.014,0.007-0.035,0.007-0.049,0.014c-9.804,1.395-20.18,2.796-30.933,4.17
				c-37.159,4.721-78.878,8.967-117.537,10.543c-19.754,0.802-38.714,0.906-55.854,0.014c0,0-4.065-0.083-11.233-0.349
				c-11.596-0.425-31.33-1.346-55.136-3.214l0.16-2.058c-10.292-0.886-20.361-3.835-30.374-5.194
				c-0.468,0.606-0.509,1.499-1.081,2.147c-0.349-6.443,1.506-26.728-8.507-27.313c0.983-1.854,2.141-3.619,3.466-5.236
				l-0.397-0.342c1.095-1.346,2.468-4.463,2.761-6.137c0.342-1.959-9.839-3.145-10.487-4.274c-0.111-0.188-0.202-0.376-0.278-0.558
				c-1.158-2.72,0.989-4.4,2.705-6.617c0.53-0.677,1.018-1.409,1.353-2.231c8.02,4.797,12.287,4.658,17.823,0.076
				C585.66,425.666,585.66,425.666,585.667,425.666z"/>
			<path fill="#3A585F" d="M619.012,486.778c-16.289-1.29-37.466-1.179-54.57-4.219l0.049-0.23
				c-0.175-1.046-0.313-2.105-0.433-3.187c15.654,1.792,30.73,3.187,44.46,4.261c23.806,1.868,43.54,2.789,55.136,3.214
				l-0.007,0.258C646.081,486.29,637.49,488.249,619.012,486.778z"/>
			<path fill="#695447" d="M564.058,434.996c0.648,1.13,10.829,2.315,10.487,4.274c-0.293,1.674-1.666,4.791-2.761,6.137
				c-4.449-1.207-9.672-2.162-14.232-1.081c0.063-0.426,0.146-0.864,0.266-1.311c0.167-0.663,0.383-1.339,0.655-2.009
				c0.969-2.461,2.531-4.832,4.177-6.304l1.13-0.265C563.855,434.62,563.946,434.808,564.058,434.996z"/>
			<path fill="#67462C" d="M572.182,445.749c-1.325,1.617-2.482,3.382-3.466,5.236c-4.477,8.409-5.648,18.862-4.658,28.157
				c-4.316-0.488-8.688-1.012-13.081-1.576l0.488-1.925c0.711-9.044,3.514-22.307,5.892-32.738l0.461,0.112
				c-0.119,0.446-0.203,0.885-0.266,1.311c4.561-1.081,9.783-0.126,14.232,1.081L572.182,445.749z"/>
			<path fill="#67462C" d="M564.441,482.56c-3.124-0.552-6.115-1.214-8.912-2.002c-1.639-0.467-3.298-0.906-4.972-1.332l0.419-1.659
				c4.393,0.564,8.765,1.088,13.081,1.576c0.119,1.081,0.258,2.141,0.433,3.187L564.441,482.56z"/>
			<path fill="#667C5D" d="M550.558,479.226c-7.894-2.001-16.101-3.577-24.301-5.125c8.264,1.276,16.54,2.427,24.72,3.466
				L550.558,479.226z"/>
			<path fill="#667C5D" d="M591.315,414.321c-1.583-0.879-4.665-1.778-8.319-2.643c-8.067-1.89-18.932-3.584-22.676-4.31
				c-11.359-2.203-20.104-7.259-30.73-11.478c-1.317-0.523-2.636-0.997-3.953-1.437l0.383-1.144v-0.014
				c9.686,2.671,29.378-1.583,37.021-2.211c8.088-0.676,16.645-1.666,24.67-3.633l0.586,2.28v0.007
				c5.676,7.607,13.123,20.779,26.295,20.779l0.663,1.234l0.007,0.007c-2.385,1.807-5.181,3.159-8.02,4.149
				c-3.584-0.481-7.175-0.899-10.766-1.213c-1.716-0.154-3.424-0.286-5.146-0.377C591.329,414.321,591.322,414.314,591.315,414.321z
				"/>
			<linearGradient id="SVGID_11_" gradientUnits="userSpaceOnUse" x1="223.9932" y1="470.3145" x2="1041.4619" y2="470.3145">
				<stop  offset="0" style="stop-color:#702536"/>
				<stop  offset="0.3429" style="stop-color:#1B1526"/>
			</linearGradient>
			<path fill="url(#SVGID_11_)" d="M505.303,469.938c6.834,1.533,13.891,2.838,20.954,4.162c-13.938-2.147-27.843-4.65-41.203-7.572
				c3.444,0.481,6.868,0.969,10.236,1.513C498.707,468.6,502.061,469.213,505.303,469.938z"/>
			<path fill="#667C5D" d="M557.356,442.903c-2.378,10.432-5.181,23.694-5.892,32.738l-0.488,1.925
				c-8.18-1.039-16.456-2.189-24.72-3.466c-7.063-1.324-14.12-2.629-20.954-4.162c-3.242-0.726-6.596-1.339-10.013-1.897
				l0.433-2.517c9.364-7.105,19.176-14.246,30.207-18.507c6.422-2.489,27.563-1.583,30.556-6.031l1.987,0.021
				c-0.272,0.67-0.488,1.346-0.655,2.009L557.356,442.903z"/>
			<path fill="#B4AD83" d="M494.551,636.544c-0.697,1.743-1.332,3.577-1.945,5.467C493.638,640.296,494.369,638.489,494.551,636.544
				z M512.102,645.567c-1.875,5.118-5.341,22.648-9.734,15.361c-1.932-3.166,1.054-7.587,1.465-10.801
				c0.439-3.215-0.07-6.457,0.355-9.609h-0.014l-1.081-0.125h-0.007c-0.266,2.245-0.3,4.567-1.102,6.735
				c-1.179,3.187-2.895,6.102-4.254,9.177c-2.267,5.056-3.193,11.436-7.363,15.592c-4.407,4.414-10.725,0.928-7.329-4.7
				c4.581-7.517,6.848-16.847,9.546-25.145c-2.803,4.645-7.747,8.633-9.686,13.032c-4.567-0.683-4.56-4.539-3.354-8.807
				l-0.056-0.014c-3.445,0.369-3.759-3.584-3.479-6.178h-0.007c0.069-0.628,0.111-1.263,0.153-1.897
				c0.098-1.541,0.174-3.096,0.474-4.581c0.704-3.486,1.025-6.861,1.012-10.146c-0.077-21.687-14.699-39.07-29.845-55.191
				c10.669,0.049,21.463,0.091,32.341,0.133c7.043,11.198,12.161,22.258,17.886,34.418c6.708,14.211,16.721,26.065,13.849,42.668
				L512.102,645.567z"/>
			<path fill="#A89956" d="M455.216,307.669c4.442,6.024,19.922,20.396,2.811,23.569c-0.056-3.417-1.199-6.443-3.675-8.668
				c-3.71,7.05-3.466,17.342-2.134,26.595c-7.691-8.736-6.868-17.313-5.935-28.944l-1.401-0.14
				C449.951,316.644,453.933,312.487,455.216,307.669z"/>
			<path fill="#A89956" d="M453.988,300.633c5.119,2.002,12.134,3.508,11.011,9.623c-3.151-0.593-6.639-1.819-9.608-3.36
				C455.76,304.775,455.209,302.677,453.988,300.633z"/>
			<linearGradient id="SVGID_12_" gradientUnits="userSpaceOnUse" x1="86.7637" y1="538.7139" x2="1020.0154" y2="538.7139">
				<stop  offset="0" style="stop-color:#702536"/>
				<stop  offset="0.3429" style="stop-color:#2F2439"/>
			</linearGradient>
			<path fill="url(#SVGID_12_)" d="M453.745,523.77c134.426,32.62,317.893,39.509,565.085-14.846l0.168,0.007
				c-0.774,24.1,1.018,44.433,1.018,44.433c-86.988,13.305-330.312,15.71-539.878,15.041c-1.199-1.904-2.447-3.821-3.772-5.739
				C467.481,549.772,460.202,537.465,453.745,523.77z"/>
			<path fill="#667C5D" d="M404.557,402.83c0.461-3.536,0.098-8.02-0.383-12.552c57.82,17.488,116.4,31.992,153.392,32.676
				c2.811,1.896,5.921,3.633,8.919,4.867c-1.716,2.217-3.863,3.897-2.705,6.617l-1.13,0.265c-1.646,1.472-3.208,3.843-4.177,6.304
				l-1.987-0.021c-2.992,4.448-24.134,3.542-30.556,6.031c-11.031,4.261-20.843,11.401-30.207,18.507l-0.433,2.517
				c-3.368-0.544-6.792-1.031-10.236-1.513c-0.014,0-0.021-0.007-0.028-0.007c-14.315-3.124-28.003-6.723-40.443-10.857h-0.007
				c-0.014-0.007-0.035-0.014-0.049-0.021c-8.724-2.901-16.826-6.073-24.105-9.532h-0.007c-8.193-3.898-15.334-8.158-21.114-12.823
				c0.153-0.523,0.3-1.039,0.438-1.563c0,0,0,0,0.008-0.007C402.305,422.271,403.197,413.185,404.557,402.83z"/>
			<path fill="#3A585F" d="M485.025,466.521c-11.729-1.646-23.659-3.243-34.07-6.841l-1.443,0.488
				c-1.45-1.945-3.158-3.082-5.229-3.793l0.244-0.732c0.014,0.007,0.035,0.014,0.049,0.021h0.007
				C457.022,459.799,470.71,463.397,485.025,466.521z"/>
			<path fill="#31484D" d="M440.405,482.908c1.241,0.39,2.489,0.78,3.737,1.164c-0.788,1.179-1.715,2.42-2.531,3.493l-0.76-0.411
				C440.747,485.613,440.601,484.198,440.405,482.908z"/>
			<linearGradient id="SVGID_13_" gradientUnits="userSpaceOnUse" x1="135.3418" y1="480.2998" x2="1099.4915" y2="480.2998">
				<stop  offset="0" style="stop-color:#702536"/>
				<stop  offset="0.3429" style="stop-color:#2F2439"/>
			</linearGradient>
			<path fill="url(#SVGID_13_)" d="M439.115,477.692c0.564,1.478,0.983,3.2,1.29,5.216c-0.815-0.251-1.625-0.51-2.434-0.768
				C438.223,480.697,438.6,479.219,439.115,477.692z"/>
			<linearGradient id="SVGID_14_" gradientUnits="userSpaceOnUse" x1="117.9385" y1="505.3252" x2="1025.0288" y2="505.3252">
				<stop  offset="0" style="stop-color:#702536"/>
				<stop  offset="0.3429" style="stop-color:#2F2439"/>
			</linearGradient>
			<path fill="url(#SVGID_14_)" d="M452.511,521.127c-6.29-13.737-17.091-24.183-14.539-38.986c0.809,0.258,1.618,0.517,2.434,0.768
				c0.195,1.29,0.342,2.705,0.446,4.246l0.76,0.411c0.816-1.073,1.743-2.314,2.531-3.493h0.007
				c138.254,42.459,328.332,53.602,580.88-22.453c-3.911,14.309-5.516,31.608-6.031,47.312l-0.168-0.007
				c-247.192,54.354-430.659,47.466-565.085,14.846C453.326,522.898,452.915,522.013,452.511,521.127z"/>
			<path fill="#667C5D" d="M433.244,454.876c-2.971-0.236-6.192-0.522-9.512-0.683c-0.007-0.008-0.007-0.008-0.007-0.008
				c-1.213-2.929-2.321-5.578-3.305-8.074c7.279,3.459,15.382,6.631,24.105,9.532l-0.244,0.732
				C441.382,455.386,437.776,455.239,433.244,454.876z"/>
			<path fill="#B4AD83" d="M412.388,512.501c-0.244-0.069-0.488-0.146-0.732-0.223c0.028-0.37,0.056-0.739,0.07-1.102
				C411.948,511.615,412.165,512.055,412.388,512.501z"/>
			<path fill="#C2BC93" d="M448.787,387.81c-8.995-1.764-10.236-2.008-17.552-5.752v-0.008c-1.171-0.593-2.503-1.282-4.044-2.085
				c-9.113-4.721-13.98-7.182-23.513-7.774c-0.37-0.028-0.746-0.042-1.13-0.063l-0.182-0.614c0.614-4.958-4.546-13.799-5.146-20.598
				l-1.932-0.056c-0.251-2.462,0.773-5.056,0.711-7.371c2.05,0.23,1.556,0.711,3.089,1.96c0.259-0.572-0.48-2.469,0.342-2.824
				c1.032,0.711,4.728,1.896,6.192,2.44c1.785-4.303,4.985-8.542,6.533-13.158c1.27-0.14,2.546-0.328,3.836-0.544
				c6.889-1.15,19.691-5.034,28.889-11.282l1.401,0.14c-0.934,11.631-1.757,20.208,5.935,28.944c0.076,0.559,0.16,1.123,0.251,1.674
				c0.551,3.473,1.241,6.757,1.896,9.609c1.053,4.483,3.954,10.11,3.34,14.957c-0.049,0.383-0.111,0.753-0.188,1.095
				c-1.137,5.209-5,6.338-7.553,10.725l-0.543-0.356C449.227,387.189,449.01,387.503,448.787,387.81z"/>
			<linearGradient id="SVGID_15_" gradientUnits="userSpaceOnUse" x1="91.0781" y1="462.4492" x2="437.6367" y2="462.4492">
				<stop  offset="0" style="stop-color:#702536"/>
				<stop  offset="0.3429" style="stop-color:#2F2439"/>
			</linearGradient>
			<path fill="url(#SVGID_15_)" d="M91.078,356.676C249.505,551.354,417.688,567.03,437.637,568.223
				c-57.479-0.3-111.247-0.802-157.053-1.332v-0.118c-105.99-27.586-183.46-131.406-183.46-131.406
				C94.977,410.451,92.843,381.799,91.078,356.676z"/>
			<path fill="#B4AD83" d="M439.115,477.692c-0.516,1.526-0.893,3.005-1.144,4.448c-11.562-3.668-22.753-7.552-33.582-11.624
				c4.63-2.127,10.647-2.405,15.341-2.015C431.062,469.429,436.577,471.074,439.115,477.692z"/>
			<linearGradient id="SVGID_16_" gradientUnits="userSpaceOnUse" x1="86.7617" y1="429.9971" x2="1020.0168" y2="429.9971">
				<stop  offset="0" style="stop-color:#702536"/>
				<stop  offset="0.3429" style="stop-color:#2F2439"/>
			</linearGradient>
			<path fill="url(#SVGID_16_)" d="M402.256,509.343c1.144,4.561,2.476,8.591,3.926,11.533c5.76,11.7,20.055,24.183,28.966,33.944
				c4.052,4.428,8.375,8.891,12.649,13.451c-3.403-0.014-6.785-0.035-10.16-0.049c-19.949-1.192-188.132-16.868-346.559-211.547
				v-0.008c-2.538-36.112-4.316-64.946-4.316-64.946l31.177,11.129C117.938,302.851,184.601,439.703,402.256,509.343z"/>
			<path fill="#667C5D" d="M403.713,386.102c7.831,4.017,30.103,12,27.522-4.037v-0.007c7.315,3.744,8.557,3.988,17.552,5.752
				c0.223-0.307,0.439-0.62,0.635-0.941l0.543,0.356c2.553-4.387,6.416-5.516,7.553-10.725l3.458,0.3
				c10.327,0.829,21.372,2.887,32.432,7.97c10.647,4.881,21.491,6.102,32.229,9.686c1.317,0.439,2.636,0.913,3.953,1.437
				c10.627,4.219,19.371,9.274,30.73,11.478c3.744,0.726,14.608,2.42,22.676,4.31c-1.987,0.788-4.623,3.319-6.338,4.95
				c0.278,0.042,0.551,0.091,0.815,0.146c-3.535,1.938-6.994,4.387-9.901,7.162c-6.066-0.607-9.421-0.97-9.421-0.97
				c-0.195,0-0.391-0.007-0.586-0.014c-36.991-0.684-95.571-15.188-153.392-32.676C404.027,388.884,403.867,387.482,403.713,386.102
				z"/>
			<path fill="#B4AD83" d="M431.235,382.064c2.58,16.037-19.691,8.054-27.522,4.037c-0.606-5.558-1.066-10.76-0.034-13.876v-0.035
				c9.532,0.593,14.399,3.054,23.513,7.774c1.541,0.803,2.873,1.492,4.044,2.085v0.008V382.064z"/>
			<path fill="#B4AD83" d="M447.797,568.271c-4.274-4.561-8.598-9.023-12.649-13.451c-8.911-9.762-23.206-22.244-28.966-33.944
				c-1.45-2.942-2.782-6.973-3.926-11.533c3.104,0.99,6.241,1.966,9.399,2.936c0.244,0.076,0.488,0.153,0.732,0.223
				c13.242,4.023,27.021,7.789,41.357,11.269c6.457,13.695,13.736,26.003,22.62,38.896c1.325,1.918,2.573,3.835,3.772,5.739
				C469.26,568.362,458.466,568.32,447.797,568.271z"/>
			<path fill="#9B755C" d="M404.557,402.83c-1.359,10.354-2.252,19.44-4.811,28.889c-0.008,0.007-0.008,0.007-0.008,0.007
				c-0.487,0.397-0.948,0.753-1.387,1.081c-3.528-1.757-16.799-8.396-34.705-17.795c-2.991-1.576-6.115-3.222-9.344-4.937
				c5.09,0,19.664-6.472,16.826-11.464c-4.017-7.071-22.224,4.567-20.39,9.56c-5.139-2.74-10.508-5.634-16.023-8.653
				c0.236-0.153,0.474-0.3,0.704-0.446c7.956-4.985,14.043-9.532,21.352-15.445c1.38-1.122,4.26-3.242,7.844-5.773
				c12.963,4.212,26.24,8.396,39.559,12.426C404.654,394.811,405.018,399.294,404.557,402.83z"/>
			<linearGradient id="SVGID_17_" gradientUnits="userSpaceOnUse" x1="224.1572" y1="432.5068" x2="1040.8584" y2="432.5068">
				<stop  offset="0" style="stop-color:#702536"/>
				<stop  offset="0.3429" style="stop-color:#1B1526"/>
			</linearGradient>
			<path fill="url(#SVGID_17_)" d="M399.738,431.726c-0.139,0.523-0.285,1.039-0.438,1.563c-0.008-0.007-0.008-0.007-0.015-0.015
				c0,0-0.32-0.16-0.934-0.467C398.79,432.479,399.251,432.123,399.738,431.726z"/>
			<linearGradient id="SVGID_18_" gradientUnits="userSpaceOnUse" x1="117.9385" y1="389.4912" x2="1025.0276" y2="389.4912">
				<stop  offset="0" style="stop-color:#702536"/>
				<stop  offset="0.3429" style="stop-color:#2F2439"/>
			</linearGradient>
			<path fill="url(#SVGID_18_)" d="M388.875,471.625c-2.253,13.821,5.376,15.613,10.223,20.905c0,0,0,0,0,0.007
				c0.767,5.719,1.841,11.604,3.158,16.806c-217.655-69.64-284.317-206.492-284.317-206.492s6.966-14.113,17.404-33.212
				c7.161,11.358,82.631,126.051,254.794,195.327C389.635,467.33,389.21,469.575,388.875,471.625z"/>
			<path fill="#B4AD83" d="M437.972,482.141c-2.552,14.804,8.249,25.249,14.539,38.986c0.404,0.886,0.815,1.771,1.234,2.643
				c-14.337-3.479-28.115-7.245-41.357-11.269c-0.223-0.446-0.439-0.886-0.662-1.324c-0.015,0.362-0.042,0.731-0.07,1.102
				c-3.158-0.97-6.296-1.945-9.399-2.936c-1.317-5.202-2.392-11.087-3.158-16.806c0-0.007,0-0.007,0-0.007
				c-0.726-5.46-1.165-10.773-1.249-15.201v-0.007c1.095-3.264,3.528-5.425,6.541-6.806
				C415.219,474.589,426.41,478.473,437.972,482.141z"/>
			<path fill="#31484D" d="M399.098,492.53c-4.847-5.292-12.476-7.084-10.223-20.905c0.335-2.05,0.76-4.295,1.262-6.659
				c4.679,1.89,9.435,3.738,14.253,5.551c-3.013,1.381-5.446,3.542-6.541,6.806v0.007
				C397.933,481.757,398.372,487.07,399.098,492.53z"/>
			<path fill="#A89956" d="M412.157,331.907c-1.548,4.616-4.748,8.855-6.533,13.158c-1.465-0.544-5.16-1.729-6.192-2.44
				c-0.822,0.355-0.083,2.252-0.342,2.824c-1.533-1.249-1.039-1.729-3.089-1.96c0.063,2.315-0.962,4.909-0.711,7.371
				c-2.733-4.561-6.304-9.239-10.09-12.796c-2.162,3.229-4.03,7.88-5.404,10.676c1.248-11.199-7.531-20.703-5.536-33.087
				c0.292,0.46,0.564,0.906,0.822,1.353c4.728,8.222,5.069,10.181,15.25,13.193C397.954,332.438,404.927,332.758,412.157,331.907z"
				/>
			<path fill="#667C5D" d="M423.726,454.186c-11.756-0.613-24.698,0.21-31.915,9.825l-1.45-0.063h-0.007
				c1.771-8.2,4.344-17.551,6.868-24.35c0.795-2.134,1.479-4.232,2.078-6.311c5.78,4.665,12.921,8.925,21.114,12.823h0.007
				C421.404,448.607,422.513,451.257,423.726,454.186z"/>
			<path fill="#31484D" d="M439.115,477.692c-2.538-6.618-8.054-8.264-19.385-9.19c-4.693-0.391-10.711-0.112-15.341,2.015
				c-4.818-1.813-9.574-3.661-14.253-5.551c0.07-0.334,0.14-0.669,0.217-1.018h0.007l1.45,0.063
				c7.217-9.615,20.159-10.438,31.915-9.825c0,0,0,0,0.007,0.008c3.319,0.16,6.541,0.446,9.512,0.683
				c4.532,0.363,8.138,0.51,11.038,1.5c2.071,0.711,3.779,1.848,5.229,3.793c1.144,1.562,2.12,3.646,2.957,6.45
				c1.401,4.665,1.959,17.397-6.646,14.615c-0.342,0.773-0.962,1.778-1.674,2.838h-0.007c-1.248-0.384-2.496-0.774-3.737-1.164
				C440.099,480.893,439.68,479.17,439.115,477.692z"/>
			<path fill="#808993" d="M432.072,294.204c-12.279,7.321-25.396-8.374-40.088-2.071l-1.792,0.495
				c-1.834-3.975,2.922-7.788,8.215-10.146c0.899-0.404,1.819-0.767,2.719-1.073c2.497-0.865,4.882-1.354,6.521-1.339
				c3.569,0.034,7.126,1.568,10.557,3.702C423.217,286.89,427.951,291.289,432.072,294.204z"/>
			<path fill="#96A0AE" d="M444.882,320.081c-9.197,6.248-22,10.132-28.889,11.282c-1.29,0.216-2.566,0.404-3.836,0.544
				c-7.23,0.851-14.203,0.53-21.825-1.708c-10.181-3.013-10.522-4.972-15.25-13.193c-0.258-0.446-0.53-0.893-0.822-1.353v-0.007
				c0.041-0.258,0.09-0.517,0.139-0.774c-0.153,0.119-0.293,0.23-0.411,0.342c-3.577-5.634-8.723-12.293-6.046-19.357
				c0.035-0.09,0.07-0.174,0.112-0.265c1.631-3.975,5.383-5.913,9.678-7.224c3.759-1.144,7.929-1.813,11.457-2.936
				c3.306-1.039,5.746-2.629,9.219-2.971v0.014v0.007c-5.293,2.357-10.049,6.171-8.215,10.146l1.792-0.495
				c14.692-6.303,27.809,9.393,40.088,2.071c-4.121-2.915-8.855-7.314-13.869-10.432l0.244-1.952
				c8.904,0.948,29.754,9.135,35.541,18.813c1.221,2.044,1.771,4.143,1.402,6.263c-0.355-0.188-0.704-0.377-1.039-0.565
				c0.188,0.377,0.488,0.823,0.864,1.332v0.007C453.933,312.487,449.951,316.644,444.882,320.081z"/>
			<path fill="#9B755C" d="M329.695,335.359c6.687-7.636-12.461-30.808-17.956-19.462H310.7c-0.118,4.574,6.938,14.797,8.424,21.47
				c1.45,0.223,2.754,0.32,3.904,0.313l0.035,0.879c0.928,7.119,3.521,14.741,11.324,20.591c6.024,4.533,18.66,11.004,20.501-0.815
				c-17.601,0.544-15.076-13.64-24.615-22.864L329.695,335.359z M389.188,285.433c-3.528,1.122-7.698,1.792-11.457,2.936
				l-0.083-0.279c-2.782-3.249-5.997-7.712-7.392-12.21c-18.367-3.242-8.277,12.594-2.9,19.42l0.697,0.293
				c-0.042,0.091-0.077,0.175-0.112,0.265c-2.677,7.064,2.469,13.724,6.046,19.357c0.091,0.146,0.182,0.293,0.272,0.433v0.007
				c-1.995,12.384,6.784,21.888,5.536,33.087c1.374-2.796,3.242-7.447,5.404-10.676c3.786,3.557,7.356,8.235,10.09,12.796
				l1.932,0.056c0.6,6.799,5.76,15.64,5.146,20.598l0.182,0.614c0.384,0.021,0.76,0.034,1.13,0.063v0.035
				c-1.032,3.116-0.572,8.318,0.034,13.876c0.154,1.381,0.314,2.782,0.461,4.177c-13.318-4.03-26.596-8.214-39.559-12.426
				c-26.483-8.604-51.663-17.314-73.195-24.998c-1.346-3.403-2.747-6.799-4.4-10.229c-2.97-6.122-9.455-10.383-12.111-15.654
				c-0.328-0.656-0.607-1.312-0.837-1.96c-5.704-16.38,20.089-32.11,32.508-39.997c16.624-10.571,57.514-48.574,77.505-27.843
				c5.084,5.271,13.8,15.759,16.227,22.683l0.815,1.556c-0.899,0.307-1.819,0.669-2.719,1.073v-0.007v-0.014
				C394.935,282.804,392.494,284.394,389.188,285.433z"/>
			<path fill="#7F736B" d="M372.391,284.979c-1.952-1.255-3.57-1.031-5.906-1.004c-0.153,0.217-0.258,0.544-0.286,1.053
				C369.531,287.112,369.378,287.559,372.391,284.979z M377.648,288.089l0.083,0.279c-4.295,1.311-8.047,3.249-9.678,7.224
				l-0.697-0.293c-5.377-6.826-15.467-22.662,2.9-19.42C371.651,280.377,374.866,284.84,377.648,288.089z"/>
			<path fill="#9B755C" d="M398.352,432.807c-11.743,8.702-10.62-3.577-29.671-4.505c-8.744-0.432-6.673-7.642-15.772-7.523
				c4.463-3.981,7.203-4.616,10.738-5.767C381.553,424.411,394.823,431.05,398.352,432.807z"/>
			<linearGradient id="SVGID_19_" gradientUnits="userSpaceOnUse" x1="135.3428" y1="349.873" x2="1099.491" y2="349.873">
				<stop  offset="0" style="stop-color:#702536"/>
				<stop  offset="0.3429" style="stop-color:#2F2439"/>
			</linearGradient>
			<path fill="url(#SVGID_19_)" d="M397.222,439.599c-2.524,6.799-5.098,16.149-6.868,24.35c-0.077,0.349-0.146,0.684-0.217,1.018
				c-172.163-69.276-247.633-183.969-254.794-195.327c5.802-10.606,12.67-22.739,20.013-34.858
				c0.851,23.081,8.549,34.621,8.549,34.621c16.938,24.245,40.095,41.51,52.109,48.071c1.416,3.055,4.163,6.541,7.978,10.362
				c8.465,8.465,22.174,18.556,38.303,29.077c7.37,4.812,15.25,9.721,23.366,14.602c7.092,4.854,12.433,13.828,18.862,19.482
				c1.164,1.025,2.496,2.267,3.946,3.626c0.007,0.008,0.015,0.015,0.021,0.021c2.482,3.402,6.624,7.057,9.393,8.458
				c0,0,0.007,0,0.007,0.007c4.47,3.675,9.135,6.785,13.207,7.552c8.374,1.576,13.597,10.229,21.812,10.118
				c9.1-0.118,7.028,7.092,15.772,7.523c19.051,0.928,17.928,13.207,29.671,4.505c0.613,0.307,0.934,0.467,0.934,0.467
				c0.007,0.008,0.007,0.008,0.015,0.015C398.7,435.366,398.017,437.465,397.222,439.599z"/>
			<path fill="#7F736B" d="M354.296,410.075c-0.307,0-0.579-0.028-0.816-0.077c-1.575-0.349-2.44-0.997-2.74-1.827
				C351.938,408.813,353.124,409.447,354.296,410.075z"/>
			<path fill="#7F736B" d="M371.129,398.611c2.838,4.992-11.736,11.464-16.826,11.464h-0.007c-1.172-0.628-2.357-1.263-3.557-1.904
				C348.905,403.179,367.112,391.54,371.129,398.611z"/>
			<path fill="#9F5F3F" d="M330.273,335.471c9.539,9.225,7.015,23.408,24.615,22.864c-1.841,11.819-14.477,5.349-20.501,0.815
				c-7.803-5.85-10.396-13.472-11.324-20.591l-0.035-0.879c3.292-0.021,5.433-0.906,6.667-2.321L330.273,335.471z"/>
			<path fill="#9B755C" d="M352.908,420.778c-8.215,0.111-13.438-8.542-21.812-10.118c-4.072-0.767-8.737-3.877-13.207-7.552
				c0.007,0.007,0.021,0.007,0.027,0.015c5.83,2.921,11.75-0.461,16.799-3.605c5.516,3.02,10.885,5.913,16.023,8.653
				c0.3,0.83,1.165,1.479,2.74,1.827c0.237,0.049,0.51,0.077,0.816,0.077h0.007c3.229,1.715,6.353,3.36,9.344,4.937
				C360.111,416.162,357.371,416.797,352.908,420.778z"/>
			<path fill="#7F736B" d="M311.739,315.897c5.495-11.346,24.643,11.826,17.956,19.462c-1.234,1.415-3.375,2.301-6.667,2.321
				c-1.15,0.007-2.454-0.091-3.904-0.313c-1.485-6.673-8.542-16.896-8.424-21.47H311.739z M322.924,322.026
				c-1.848-1.604-2.629-0.879-4.121-0.258h-0.007c-1.004,1.325-0.446,2.72,2.225,4.554
				C322.102,324.767,322.429,323.93,322.924,322.026z"/>
			<path fill="#9F5F3F" d="M317.883,403.102c-2.769-1.401-6.91-5.056-9.393-8.458C311.286,397.279,314.528,400.348,317.883,403.102z
				"/>
			<path fill="#9B755C" d="M334.716,399.518c-5.049,3.145-10.969,6.526-16.799,3.605c-0.007-0.008-0.021-0.008-0.027-0.015
				c0-0.007-0.007-0.007-0.007-0.007c-3.354-2.754-6.597-5.822-9.393-8.458c-0.007-0.007-0.015-0.014-0.021-0.021
				c-0.906-1.241-1.59-2.454-1.903-3.507c-0.977-3.201-2.022-6.206-3.138-9.142C313.978,388.068,324.591,393.988,334.716,399.518z"
				/>
			<path fill="#9B755C" d="M306.565,391.115c0.313,1.053,0.997,2.266,1.903,3.507c-1.45-1.359-2.782-2.601-3.946-3.626
				c-6.43-5.654-11.771-14.629-18.862-19.482c5.829,3.515,11.791,7.015,17.768,10.46
				C304.543,384.909,305.589,387.914,306.565,391.115z"/>
			<path fill="#9B755C" d="M364.615,377.853c-3.584,2.531-6.464,4.651-7.844,5.773c-7.309,5.913-13.396,10.46-21.352,15.445
				c-0.23,0.146-0.468,0.293-0.704,0.446c-10.125-5.529-20.738-11.449-31.288-17.544c-2.218-5.815-4.7-11.359-7.398-17.642
				c-1.66-3.856-3.104-7.664-4.609-11.478C312.952,360.538,338.132,369.248,364.615,377.853z"/>
			<linearGradient id="SVGID_20_" gradientUnits="userSpaceOnUse" x1="97.124" y1="501.1279" x2="280.584" y2="501.1279">
				<stop  offset="0" style="stop-color:#702536"/>
				<stop  offset="0.3429" style="stop-color:#2F2439"/>
			</linearGradient>
			<path fill="url(#SVGID_20_)" d="M280.584,566.772v0.118c-43.847-0.509-80.406-1.039-105.948-1.443v-0.056
				c0,0-65.477-46.67-69.409-67.269c-2.141-1.255-5.139-28.478-8.103-62.757C97.124,435.366,174.594,539.187,280.584,566.772z"/>
			<linearGradient id="SVGID_21_" gradientUnits="userSpaceOnUse" x1="223.9912" y1="364.2129" x2="1041.457" y2="364.2129">
				<stop  offset="0" style="stop-color:#702536"/>
				<stop  offset="0.3429" style="stop-color:#1B1526"/>
			</linearGradient>
			<path fill="url(#SVGID_21_)" d="M262.656,357.143c15.634,9.888,7.956,4.079,23.004,14.371
				c-8.116-4.881-15.996-9.79-23.366-14.602C262.412,356.989,262.531,357.065,262.656,357.143z"/>
			<path fill="#9B755C" d="M273.625,325.164l0.446-0.153c0.229,0.648,0.509,1.304,0.837,1.96c2.656,5.271,9.142,9.532,12.111,15.654
				c1.653,3.431,3.055,6.826,4.4,10.229c-11.108-3.968-21.247-7.656-30.096-10.92c3.661-4.63,8.695-10.125,10.418-17.663
				C273.485,323.387,272.899,324.977,273.625,325.164z"/>
			<linearGradient id="SVGID_22_" gradientUnits="userSpaceOnUse" x1="223.9912" y1="342.3701" x2="1041.4624" y2="342.3701">
				<stop  offset="0" style="stop-color:#702536"/>
				<stop  offset="0.3429" style="stop-color:#1B1526"/>
			</linearGradient>
			<path fill="url(#SVGID_22_)" d="M261.324,341.935c-4.406,5.571-6.813,9.888,0.97,14.978
				c-16.129-10.521-29.838-20.612-38.303-29.077v-0.007C223.991,327.828,238.307,333.435,261.324,341.935z"/>
			<path fill="#9B755C" d="M285.66,371.514c-15.048-10.292-7.37-4.483-23.004-14.371c-0.125-0.077-0.244-0.153-0.362-0.23
				c-7.782-5.09-5.376-9.406-0.97-14.978c8.849,3.264,18.987,6.952,30.096,10.92c1.506,3.813,2.949,7.621,4.609,11.478
				c2.698,6.282,5.181,11.826,7.398,17.642C297.451,378.528,291.489,375.028,285.66,371.514z"/>
			<linearGradient id="SVGID_23_" gradientUnits="userSpaceOnUse" x1="63.5098" y1="160.5186" x2="223.9873" y2="160.5186">
				<stop  offset="0" style="stop-color:#702536"/>
				<stop  offset="0.3429" style="stop-color:#2F2439"/>
			</linearGradient>
			<path fill="url(#SVGID_23_)" d="M99.285,79.065c-0.341,0.886-13.332,35.423,25.717,26.477c0,0,0,31.379-26.372,23.012
				c0,0,17.803,13.646,6.597,40.646h-1.98l-22.418-27.397c0,0,2.636-25.103-15.822-37.654V62.31c0,0-6.596-50.659,7.908-44.16
				l-1.318,13.479c0,0,54.181-22.921,52.862-30.981c0.509,1.861,2.469,9.783,0.028,12.852c0,0,71.725,6.973,75.678-4.882
				c0,0,1.325,15.341-15.159,28.59c0,0,34.941,0,38.24,17.433l-16.484,10.459c0,0,21.101,46.72,13.186,76.006l-21.1-6.973
				c0,0,19.119,64.151,7.252,89.952c0,0-38.24-63.455-34.942,10.459c0,0,1.318,45.576,39.558,73.342
				c17.781,12.907,15.753,15.292,5.3,9.588c-12.015-6.562-35.172-23.826-52.109-48.071c0,0-7.698-11.54-8.549-34.621
				c-0.369-9.999,0.544-22.16,3.933-36.497l21.101-55.784c0,0,21.101-58.573,17.14-68.335c0,0-7.252-37.654-40.221-39.049
				c0,0-34.279,4.881-34.279,23.708c0,3.382,0.23,6.429,0.642,9.17c1.862,12.481,7.322,18.61,10.564,21.804l-23.073-8.66
				l6.589,13.946C117.75,95.083,96.685,88.124,99.285,79.065z"/>
			<linearGradient id="SVGID_24_" gradientUnits="userSpaceOnUse" x1="79.5098" y1="168.9834" x2="198.0234" y2="168.9834">
				<stop  offset="0" style="stop-color:#702536"/>
				<stop  offset="0.3429" style="stop-color:#2F2439"/>
			</linearGradient>
			<path fill="url(#SVGID_24_)" d="M135.343,269.639c-10.438,19.099-17.404,33.212-17.404,33.212l-31.177-11.129L79.51,279.17
				l0.886-21.979v-0.014L170.494,95.78c0,0,11.84-63.942-46.824-27.787c-0.411-2.741-0.642-5.788-0.642-9.17
				c0-18.827,34.279-23.708,34.279-23.708c32.969,1.395,40.221,39.049,40.221,39.049c3.961,9.762-17.14,68.335-17.14,68.335
				l-21.101,55.784c-3.389,14.337-4.302,26.498-3.933,36.497C148.013,246.899,141.145,259.032,135.343,269.639z"/>
			<linearGradient id="SVGID_25_" gradientUnits="userSpaceOnUse" x1="105.2266" y1="531.7852" x2="174.6357" y2="531.7852">
				<stop  offset="0" style="stop-color:#702536"/>
				<stop  offset="0.3429" style="stop-color:#2F2439"/>
			</linearGradient>
			<path fill="url(#SVGID_25_)" d="M174.636,565.392v0.056c-25.354-0.397-39.857-0.677-39.857-0.677s-20.11-10.515-25.187-25.2
				c-2.964-8.563-4.365-41.447-4.365-41.447C109.159,518.722,174.636,565.392,174.636,565.392z"/>
			<linearGradient id="SVGID_26_" gradientUnits="userSpaceOnUse" x1="124.3604" y1="0.4736" x2="124.458" y2="0.4736">
				<stop  offset="0" style="stop-color:#702536"/>
				<stop  offset="0.3429" style="stop-color:#2F2439"/>
			</linearGradient>
			<path fill="url(#SVGID_26_)" d="M124.36,0.299c0.049,0.111,0.084,0.23,0.098,0.349C124.416,0.48,124.382,0.361,124.36,0.299z"/>
			<linearGradient id="SVGID_27_" gradientUnits="userSpaceOnUse" x1="37.7422" y1="269.5088" x2="80.3955" y2="269.5088">
				<stop  offset="0" style="stop-color:#702536"/>
				<stop  offset="0.3429" style="stop-color:#2F2439"/>
			</linearGradient>
			<path fill="url(#SVGID_27_)" d="M80.396,257.178v0.014l-6.819,12.21l5.934,9.769c0,0-12.906-1.924-17.558-0.132
				c-2.447,0.941-10.313,2.008-17.217,2.803c-2.217-1.729-6.589-4.783-6.993-5.041C46.276,276.234,80.396,257.178,80.396,257.178z"
				/>
			<linearGradient id="SVGID_28_" gradientUnits="userSpaceOnUse" x1="73.5762" y1="268.1807" x2="80.3955" y2="268.1807">
				<stop  offset="0" style="stop-color:#702536"/>
				<stop  offset="0.3429" style="stop-color:#2F2439"/>
			</linearGradient>
			<polygon fill="url(#SVGID_28_)" points="80.396,257.191 79.51,279.17 73.576,269.401 			"/>
			<linearGradient id="SVGID_29_" gradientUnits="userSpaceOnUse" x1="0.5" y1="351.4033" x2="65.6299" y2="351.4033">
				<stop  offset="0" style="stop-color:#702536"/>
				<stop  offset="0.3429" style="stop-color:#2F2439"/>
			</linearGradient>
			<path fill="url(#SVGID_29_)" d="M62.531,373.139c6.973,2.691,0,8.96,0,8.96c-5.948-0.669-11.353-1.171-16.24-1.541h-0.015
				c-11.017-0.829-19.461-0.962-25.849-0.773c-0.021,0-0.042,0-0.056,0c-2.008,0.014-3.814,0.118-5.418,0.286
				c-0.035,0-0.077,0-0.111,0.007c-9.107,0.662-12.189,2.021-12.189,2.021c-6.394-9.406,3.487-9.853,3.487-9.853
				c-1.165-11.206,13.367-13.897,13.367-13.897l6.979-14.782l1.165-6.276c-5.816-5.376,0.578-8.067,0.578-8.067
				c0.23-0.879,0.558-1.743,0.928-2.56c1.534-3.347,3.904-5.954,3.904-5.954c2.922,0.815,4.156,3.758,4.672,5.954
				c0.342,1.437,0.377,2.56,0.377,2.56c6.98,3.138,0,7.175,0,7.175l1.743,7.169l7.559,14.336
				C59.623,361.94,62.531,373.139,62.531,373.139z"/>
			<linearGradient id="SVGID_30_" gradientUnits="userSpaceOnUse" x1="42.7627" y1="416.5068" x2="59.0439" y2="416.5068">
				<stop  offset="0" style="stop-color:#702536"/>
				<stop  offset="0.3429" style="stop-color:#2F2439"/>
			</linearGradient>
			<polygon fill="url(#SVGID_30_)" points="59.044,382.099 54.394,448.419 54.574,449.04 42.763,452.457 46.276,380.558 
				46.291,380.558 			"/>
			<linearGradient id="SVGID_31_" gradientUnits="userSpaceOnUse" x1="20.4277" y1="416.083" x2="46.2764" y2="416.083">
				<stop  offset="0" style="stop-color:#A74144"/>
				<stop  offset="0.737" style="stop-color:#E77D42"/>
			</linearGradient>
			<path fill="url(#SVGID_31_)" d="M46.276,380.558l-3.514,71.899H24.158l-3.507-72.673c-0.077,0-0.153,0-0.224,0
				C26.815,379.596,35.26,379.729,46.276,380.558z"/>
			<linearGradient id="SVGID_32_" gradientUnits="userSpaceOnUse" x1="8.0303" y1="302.9893" x2="57.21" y2="302.9893">
				<stop  offset="0" style="stop-color:#702536"/>
				<stop  offset="0.3429" style="stop-color:#2F2439"/>
			</linearGradient>
			<path fill="url(#SVGID_32_)" d="M45.392,282.371c30.492,25.458-7.649,44.292-7.649,44.292h-0.008
				c-0.516-2.196-1.75-5.139-4.672-5.954c0,0-2.37,2.607-3.904,5.954c-41.733-20.507-9.463-44.522-5.404-47.347
				c1.862,1.458,4.818,2.769,9.309,3.752c0,0,5.446-0.502,11.673-1.228C44.986,282.036,45.203,282.218,45.392,282.371z"/>
			<linearGradient id="SVGID_33_" gradientUnits="userSpaceOnUse" x1="21.0234" y1="273.2051" x2="44.7354" y2="273.2051">
				<stop  offset="0" style="stop-color:#702536"/>
				<stop  offset="0.3429" style="stop-color:#2F2439"/>
			</linearGradient>
			<path fill="url(#SVGID_33_)" d="M23.754,279.316c-7.461-5.843,2.733-14.169,2.733-14.169c15.696-6.275,6.575,5.822,6.575,5.822
				c-3.514,3.473-2.141,4.916,0,5.495c2.002,0.544,4.68,0.335,4.68,0.335c0.404,0.258,4.776,3.312,6.993,5.041
				c-6.227,0.726-11.673,1.228-11.673,1.228C28.572,282.085,25.616,280.774,23.754,279.316z"/>
			<linearGradient id="SVGID_34_" gradientUnits="userSpaceOnUse" x1="24.4932" y1="459.0518" x2="37.6719" y2="459.0518">
				<stop  offset="0" style="stop-color:#702536"/>
				<stop  offset="0.3429" style="stop-color:#2F2439"/>
			</linearGradient>
			<path fill="url(#SVGID_34_)" d="M24.493,456.487h13.179C32.212,468.027,24.493,456.487,24.493,456.487z"/>
			<linearGradient id="SVGID_35_" gradientUnits="userSpaceOnUse" x1="5.5547" y1="416.1201" x2="24.1582" y2="416.1201">
				<stop  offset="0" style="stop-color:#A74144"/>
				<stop  offset="0.737" style="stop-color:#E77D42"/>
			</linearGradient>
			<path fill="url(#SVGID_35_)" d="M20.651,379.784l3.507,72.673h-2.322l-10.515-3.041l-5.767-67.317c0,0,3.187-1.401,9.288-2.021
				c0.034-0.007,0.076-0.007,0.111-0.007c1.61-0.126,3.417-0.217,5.418-0.286c0.014,0,0.035,0,0.056,0
				C20.498,379.784,20.574,379.784,20.651,379.784z"/>
			<linearGradient id="SVGID_36_" gradientUnits="userSpaceOnUse" x1="14.9541" y1="379.9268" x2="20.3721" y2="379.9268">
				<stop  offset="0" style="stop-color:#702536"/>
				<stop  offset="0.3429" style="stop-color:#2F2439"/>
			</linearGradient>
			<path fill="url(#SVGID_36_)" d="M14.954,380.07c1.604-0.168,3.41-0.272,5.418-0.286C18.371,379.854,16.564,379.944,14.954,380.07
				z"/>
			<linearGradient id="SVGID_37_" gradientUnits="userSpaceOnUse" x1="7.8838" y1="452.4531" x2="56.7158" y2="452.4531">
				<stop  offset="0" style="stop-color:#702536"/>
				<stop  offset="0.3429" style="stop-color:#2F2439"/>
			</linearGradient>
			<polygon fill="url(#SVGID_37_)" points="18.929,456.487 7.884,448.419 11.321,449.416 21.836,452.457 24.158,452.457 
				42.763,452.457 54.574,449.04 56.716,448.419 45.092,456.487 37.672,456.487 24.493,456.487 			"/>
		</g>
		<g>
			<path fill="none" stroke="#000000" stroke-miterlimit="10" d="M46.291,380.558c4.888,0.37,10.292,0.872,16.24,1.541
				c0,0,6.973-6.269,0-8.96c0,0-2.908-11.198-15.118-15.236l-7.559-14.336l-1.743-7.169c0,0,6.98-4.037,0-7.175
				c0,0-0.035-1.123-0.377-2.56c-0.516-2.196-1.75-5.139-4.672-5.954c0,0-2.37,2.607-3.904,5.954
				c-0.37,0.816-0.697,1.681-0.928,2.56c0,0-6.395,2.691-0.578,8.067l-1.165,6.276l-6.979,14.782c0,0-14.532,2.691-13.367,13.897
				c0,0-9.881,0.446-3.487,9.853c0,0,3.082-1.359,12.189-2.021"/>
			<path fill="none" stroke="#000000" stroke-miterlimit="10" d="M20.428,379.784c6.388-0.188,14.832-0.056,25.849,0.773"/>
			<path fill="none" stroke="#000000" stroke-miterlimit="10" d="M14.954,380.07c1.61-0.126,3.417-0.217,5.418-0.286"/>
			<polyline fill="none" stroke="#000000" stroke-miterlimit="10" points="24.158,452.457 21.836,452.457 11.321,449.416 
				7.884,448.419 18.929,456.487 24.493,456.487 37.672,456.487 45.092,456.487 56.716,448.419 54.574,449.04 42.763,452.457 			"/>
			<path fill="none" stroke="#000000" stroke-miterlimit="10" d="M11.321,449.416l-5.767-67.317c0,0,3.187-1.401,9.288-2.021
				c0.034-0.007,0.076-0.007,0.111-0.007c1.604-0.168,3.41-0.272,5.418-0.286c0.014,0,0.035,0,0.056,0c0.07,0,0.146,0,0.224,0
				l3.507,72.673h18.604l3.514-71.899h0.015l12.753,1.541l-4.65,66.32"/>
			<path fill="none" stroke="#000000" stroke-miterlimit="10" d="M24.158,279.038c0,0-0.146,0.098-0.404,0.278
				c-4.059,2.824-36.329,26.84,5.404,47.347"/>
			<path fill="none" stroke="#000000" stroke-miterlimit="10" d="M80.396,257.178c0,0-34.119,19.057-42.653,19.622"/>
			<path fill="none" stroke="#000000" stroke-miterlimit="10" d="M37.742,326.663c0,0,38.142-18.834,7.649-44.292
				c-0.188-0.153-0.405-0.335-0.656-0.53c-2.217-1.729-6.589-4.783-6.993-5.041c0,0-2.678,0.209-4.68-0.335
				c-2.141-0.579-3.514-2.022,0-5.495c0,0,9.121-12.098-6.575-5.822c0,0-10.194,8.326-2.733,14.169
				c1.862,1.458,4.818,2.769,9.309,3.752c0,0,5.446-0.502,11.673-1.228c6.903-0.795,14.77-1.861,17.217-2.803
				c4.651-1.792,17.558,0.132,17.558,0.132l0.886-21.979"/>
			<path fill="none" stroke="#000000" stroke-miterlimit="10" d="M24.493,456.487c0,0,7.719,11.54,13.179,0"/>
			<path fill="none" stroke="#000000" stroke-miterlimit="10" d="M99.293,79.045c0,0.007-0.008,0.014-0.008,0.021
				c-0.341,0.886-13.332,35.423,25.717,26.477c0,0,0,31.379-26.372,23.012c0,0,17.803,13.646,6.597,40.646h-1.98l-22.418-27.397
				c0,0,2.636-25.103-15.822-37.654V62.31c0,0-6.596-50.659,7.908-44.16l-1.318,13.479c0,0,54.181-22.921,52.862-30.981
				c-0.014-0.118-0.049-0.237-0.098-0.349"/>
			<path fill="none" stroke="#000000" stroke-miterlimit="10" d="M124.347,0.25c0,0,0,0.007,0.007,0.021
				c0.007,0.007,0.007,0.021,0.007,0.028c0.021,0.063,0.056,0.182,0.098,0.349c0.509,1.861,2.469,9.783,0.028,12.852
				c0,0,71.725,6.973,75.678-4.882c0,0,1.325,15.341-15.159,28.59c0,0,34.941,0,38.24,17.433l-16.484,10.459
				c0,0,21.101,46.72,13.186,76.006l-21.1-6.973c0,0,19.119,64.151,7.252,89.952c0,0-38.24-63.455-34.942,10.459
				c0,0,1.318,45.576,39.558,73.342c17.781,12.907,15.753,15.292,5.3,9.588c-12.015-6.562-35.172-23.826-52.109-48.071
				c0,0-7.698-11.54-8.549-34.621c-0.369-9.999,0.544-22.16,3.933-36.497l21.101-55.784c0,0,21.101-58.573,17.14-68.335
				c0,0-7.252-37.654-40.221-39.049c0,0-34.279,4.881-34.279,23.708c0,3.382,0.23,6.429,0.642,9.17
				c1.862,12.481,7.322,18.61,10.564,21.804l-23.073-8.66l6.589,13.946c0,0-21.065-6.959-18.465-16.018"/>
			<path fill="none" stroke="#000000" stroke-miterlimit="10" d="M285.66,371.514c-8.116-4.881-15.996-9.79-23.366-14.602
				c-16.129-10.521-29.838-20.612-38.303-29.077c-3.814-3.821-6.562-7.308-7.978-10.362"/>
			<path fill="none" stroke="#000000" stroke-miterlimit="10" d="M399.3,433.288c-0.008-0.007-0.008-0.007-0.015-0.015
				c0,0-0.32-0.16-0.934-0.467"/>
			<path fill="none" stroke="#000000" stroke-miterlimit="10" d="M526.257,474.101c-13.938-2.147-27.843-4.65-41.203-7.572"/>
			<path fill="none" stroke="#000000" stroke-miterlimit="10" d="M480.138,568.404c209.566,0.669,452.89-1.736,539.878-15.041
				c0,0-1.792-20.333-1.018-44.433c0.516-15.703,2.12-33.003,6.031-47.312c3.431-12.559,8.64-22.809,16.442-27.647
				c0,0,27.69-157.591,58.016-151.314v-10.46l-38.24,3.486c0,0-3.933,40.716-18.325,83.977c-0.48,1.429-0.969,2.865-1.457,4.295
				c-14.699,42.222-39.502,85.649-80.434,95.119c0,0-34.272,6.422-81.821,13.165"/>
			<path fill="none" stroke="#000000" stroke-miterlimit="10" d="M91.078,356.676c1.765,25.123,3.898,53.775,6.046,78.69
				c2.964,34.279,5.962,61.502,8.103,62.757c0,0,1.401,32.885,4.365,41.447c5.076,14.686,25.187,25.2,25.187,25.2
				s14.504,0.279,39.857,0.677c25.542,0.404,62.102,0.935,105.948,1.443c45.806,0.53,99.574,1.032,157.053,1.332
				c3.375,0.014,6.757,0.035,10.16,0.049"/>
			<path fill="none" stroke="#000000" stroke-miterlimit="10" d="M123.67,67.993c58.664-36.155,46.824,27.787,46.824,27.787
				L80.396,257.178v0.014l-6.819,12.21l5.934,9.769l7.252,12.552c0,0,1.778,28.834,4.316,64.946"/>
			<path fill="none" stroke="#000000" stroke-miterlimit="10" d="M996.077,399.873c20.976-8.786,38.952-20.521,45.388-35.918
				c0.579-1.401,1.067-2.831,1.457-4.295c0.008-0.035,0.021-0.07,0.028-0.104"/>
			<path fill="none" stroke="#000000" stroke-miterlimit="10" d="M954.295,413.331c6.311-1.569,12.831-3.354,19.351-5.383"/>
			<path fill="none" stroke="#000000" stroke-miterlimit="10" d="M223.991,327.828c0,0,14.315,5.606,37.333,14.106"/>
			<path fill="none" stroke="#000000" stroke-miterlimit="10" d="M86.762,291.722l31.177,11.129c0,0,6.966-14.113,17.404-33.212
				c5.802-10.606,12.67-22.739,20.013-34.858"/>
			<path fill="none" stroke="#000000" stroke-miterlimit="10" d="M444.149,484.072c138.254,42.459,328.332,53.602,580.88-22.453"/>
			<path fill="none" stroke="#000000" stroke-miterlimit="10" d="M437.972,482.141c0.809,0.258,1.618,0.517,2.434,0.768"/>
			<path fill="none" stroke="#000000" stroke-miterlimit="10" d="M134.778,268.725c0,0,0.188,0.314,0.564,0.914
				c7.161,11.358,82.631,126.051,254.794,195.327"/>
			<path fill="none" stroke="#000000" stroke-miterlimit="10" d="M453.745,523.77c134.426,32.62,317.893,39.509,565.085-14.846"/>
			<path fill="none" stroke="#000000" stroke-miterlimit="10" d="M117.938,302.851c0,0,66.662,136.853,284.317,206.492"/>
			<path fill="none" stroke="#000000" stroke-miterlimit="10" d="M439.61,568.313c0,0-0.669-0.015-1.974-0.091
				c-19.949-1.192-188.132-16.868-346.559-211.547v-0.008"/>
			<path fill="none" stroke="#000000" stroke-miterlimit="10" d="M97.124,435.366c0,0,77.47,103.82,183.46,131.406"/>
			<path fill="none" stroke="#000000" stroke-miterlimit="10" d="M174.636,565.392c0,0-65.477-46.67-69.409-67.269"/>
			<path fill="none" stroke="#000000" stroke-miterlimit="10" d="M446.283,320.221c-0.934,11.631-1.757,20.208,5.935,28.944
				c0.278,0.321,0.578,0.648,0.886,0.97c-0.202,0.251-0.412,0.488-0.635,0.704c-3.075,3.131-7.622,3.577-12.252,2.817"/>
			<path fill="none" stroke="#000000" stroke-miterlimit="10" d="M399.098,492.537c1.018,1.103,1.903,2.357,2.559,3.912"/>
			<path fill="none" stroke="#000000" stroke-miterlimit="10" d="M399.738,431.726c-0.139,0.523-0.285,1.039-0.438,1.563
				c-0.6,2.078-1.283,4.177-2.078,6.311c-2.524,6.799-5.098,16.149-6.868,24.35c-0.077,0.349-0.146,0.684-0.217,1.018
				c-0.502,2.364-0.927,4.609-1.262,6.659c-2.253,13.821,5.376,15.613,10.223,20.905"/>
			<path fill="none" stroke="#000000" stroke-miterlimit="10" d="M403.679,372.226c-1.032,3.116-0.572,8.318,0.034,13.876
				c0.154,1.381,0.314,2.782,0.461,4.177c0.48,4.532,0.844,9.016,0.383,12.552c-1.359,10.354-2.252,19.44-4.811,28.889"/>
			<path fill="none" stroke="#000000" stroke-miterlimit="10" d="M455.216,307.662c-0.376-0.509-0.676-0.955-0.864-1.332
				c0.335,0.188,0.684,0.377,1.039,0.565c2.97,1.541,6.457,2.768,9.608,3.36c1.123-6.115-5.892-7.621-11.011-9.623
				c-0.16-0.063-0.32-0.125-0.474-0.188"/>
			<path fill="none" stroke="#000000" stroke-miterlimit="10" d="M449.965,387.225c2.553-4.387,6.416-5.516,7.553-10.725
				c0.076-0.342,0.139-0.712,0.188-1.095c0.614-4.847-2.287-10.474-3.34-14.957c-0.655-2.853-1.346-6.137-1.896-9.609
				c-0.091-0.551-0.175-1.115-0.251-1.674c-1.332-9.253-1.576-19.545,2.134-26.595c2.476,2.225,3.619,5.251,3.675,8.668
				c17.111-3.173,1.632-17.545-2.811-23.569"/>
			<path fill="none" stroke="#000000" stroke-miterlimit="10" d="M591.329,414.321c0.774,0.433,1.186,0.857,1.123,1.27"/>
			<path fill="none" stroke="#000000" stroke-miterlimit="10" d="M460.976,376.8c10.327,0.829,21.372,2.887,32.432,7.97
				c10.647,4.881,21.491,6.102,32.229,9.686c1.317,0.439,2.636,0.913,3.953,1.437c10.627,4.219,19.371,9.274,30.73,11.478
				c3.744,0.726,14.608,2.42,22.676,4.31c3.654,0.864,6.736,1.764,8.319,2.643"/>
			<path fill="none" stroke="#000000" stroke-miterlimit="10" d="M402.549,372.128c0.384,0.021,0.76,0.034,1.13,0.063
				c9.532,0.593,14.399,3.054,23.513,7.774c1.541,0.803,2.873,1.492,4.044,2.085v0.008c7.315,3.744,8.557,3.988,17.552,5.752
				c0.223-0.307,0.439-0.62,0.635-0.941c1.575-2.517,2.377-5.362,2.398-8.527"/>
			<path fill="none" stroke="#000000" stroke-miterlimit="10" d="M391.984,292.133c14.692-6.303,27.809,9.393,40.088,2.071
				c-4.121-2.915-8.855-7.314-13.869-10.432c-3.431-2.134-6.987-3.668-10.557-3.702c-1.639-0.015-4.023,0.474-6.521,1.339
				c-0.899,0.307-1.819,0.669-2.719,1.073c-5.293,2.357-10.049,6.171-8.215,10.146c0.453,0.983,1.312,1.98,2.657,2.964"/>
			<path fill="none" stroke="#000000" stroke-miterlimit="10" d="M454.198,362.693c-2.336,5.731-17.503,5.913-16.952-0.217"/>
			<path fill="none" stroke="#000000" stroke-miterlimit="10" d="M423.732,454.193c0.146,0.355,0.293,0.718,0.446,1.087"/>
			<path fill="none" stroke="#000000" stroke-miterlimit="10" d="M415.143,412.718c-1.158,14.392,0.878,22.292,5.271,33.394h0.007
				c0.983,2.496,2.092,5.146,3.305,8.074"/>
			<path fill="none" stroke="#000000" stroke-miterlimit="10" d="M448.208,449.151c-0.084,2.691-0.509,4.721-1.381,5.683"/>
			<path fill="none" stroke="#000000" stroke-miterlimit="10" d="M439.011,411.232c4.477,6.102,9.553,27.216,9.197,37.912"/>
			<path fill="none" stroke="#000000" stroke-miterlimit="10" d="M905.275,405.047c0-0.007,0.007-0.007,0.007-0.007
				c0.098-0.125,0.16-0.174,0.167-0.069c0.007,0.069-0.007,0.202-0.056,0.425c-0.056,0.656-0.111,1.305-0.16,1.953
				c-0.433,5.362-0.697,10.452-0.857,15.403c-0.251,7.719-0.244,15.11-0.195,22.689c0.034,6.694,0.104,13.535,0.056,20.885
				c-7.615,3.138-16.959,3.633-24.978,5.899c-0.014,0.007-0.035,0.007-0.049,0.014c-16.729,4.783-38.345,8.333-55.575,10.09
				c-17.237,1.764-27.927,3.661-45.436,5.349c-28.688,2.761-38.624,0.558-59.403,2.503c-18.472,1.716-36.26-2.671-55.149-3.306
				c-17.565-0.585-26.156,1.374-44.635-0.097c-16.289-1.29-37.466-1.179-54.57-4.219c-3.124-0.552-6.115-1.214-8.912-2.002
				c-1.639-0.467-3.298-0.906-4.972-1.332c-7.894-2.001-16.101-3.577-24.301-5.125c-7.063-1.324-14.12-2.629-20.954-4.162
				c-3.242-0.726-6.596-1.339-10.013-1.897c-3.368-0.544-6.792-1.031-10.236-1.513c-0.014,0-0.021-0.007-0.028-0.007
				c-11.729-1.646-23.659-3.243-34.07-6.841"/>
			<path fill="none" stroke="#000000" stroke-miterlimit="10" d="M904.146,406.603c0.3-0.153,0.844-1.172,1.123-1.549"/>
			<path fill="none" stroke="#000000" stroke-miterlimit="10" d="M589.16,414.203c0.719,0.034,1.437,0.069,2.155,0.118
				c0.007-0.007,0.014,0,0.014,0c1.723,0.091,3.431,0.223,5.146,0.377c3.591,0.313,7.182,0.731,10.766,1.213
				c12.503,1.659,25.013,3.988,37.927,5.027c18.199,1.45,36.678-2.72,53.204,2.838c0.627,0.21,1.255,0.419,1.89,0.621
				c0.851,0.278,1.708,0.551,2.566,0.809c16.128,4.923,32.835,7.308,51.056,7.873c19.28,0.606,36.211-9.581,55.031-9.288
				c3.71,0.056,7.559,0.404,11.304,1.269c3.305,0.768,6.52,1.945,9.49,3.675c0.292-1.492,1.854-3.013,2.008-5.139
				c1.576-0.195,3.005-0.119,4.344,0.153c4.902,0.99,8.508,4.574,12.914,6.506c-1.464-2.106-1.464-5.397-2.503-7.727
				c19.538-4.63,40.388-9.608,58.762-15.18c1.562-0.475,3.109-0.948,4.63-1.43"/>
			<path fill="none" stroke="#000000" stroke-miterlimit="10" d="M391.811,464.011c7.217-9.615,20.159-10.438,31.915-9.825
				c0,0,0,0,0.007,0.008c3.319,0.16,6.541,0.446,9.512,0.683c4.532,0.363,8.138,0.51,11.038,1.5
				c2.071,0.711,3.779,1.848,5.229,3.793c1.144,1.562,2.12,3.646,2.957,6.45c1.401,4.665,1.959,17.397-6.646,14.615
				c-0.342,0.773-0.962,1.778-1.674,2.838h-0.007c-0.788,1.179-1.715,2.42-2.531,3.493c-1.311,1.729-2.343,3.013-2.154,2.859"/>
			<path fill="none" stroke="#000000" stroke-miterlimit="10" d="M374.26,315.646c-0.091-0.14-0.182-0.286-0.272-0.433
				c-3.577-5.634-8.723-12.293-6.046-19.357c0.035-0.09,0.07-0.174,0.112-0.265c1.631-3.975,5.383-5.913,9.678-7.224
				c3.759-1.144,7.929-1.813,11.457-2.936c3.306-1.039,5.746-2.629,9.219-2.971"/>
			<path fill="none" stroke="#000000" stroke-miterlimit="10" d="M417.688,281.75c0.244,0.015,0.495,0.035,0.76,0.07
				c8.904,0.948,29.754,9.135,35.541,18.813c1.221,2.044,1.771,4.143,1.402,6.263c-0.028,0.174-0.07,0.355-0.112,0.529
				c-0.021,0.077-0.041,0.16-0.063,0.237v0.007c-1.283,4.818-5.265,8.975-10.334,12.412c-9.197,6.248-22,10.132-28.889,11.282
				c-1.29,0.216-2.566,0.404-3.836,0.544c-7.23,0.851-14.203,0.53-21.825-1.708c-10.181-3.013-10.522-4.972-15.25-13.193
				c-0.258-0.446-0.53-0.893-0.822-1.353"/>
			<path fill="none" stroke="#000000" stroke-miterlimit="10" d="M562.649,434.703c-1.646,1.472-3.208,3.843-4.177,6.304
				c-0.272,0.67-0.488,1.346-0.655,2.009c-0.119,0.446-0.203,0.885-0.266,1.311c4.561-1.081,9.783-0.126,14.232,1.081
				c1.095-1.346,2.468-4.463,2.761-6.137c0.342-1.959-9.839-3.145-10.487-4.274c-0.111-0.188-0.202-0.376-0.278-0.558
				c-1.158-2.72,0.989-4.4,2.705-6.617c0.53-0.677,1.018-1.409,1.353-2.231c0.035-0.084,0.07-0.168,0.098-0.251"/>
			<path fill="none" stroke="#000000" stroke-miterlimit="10" d="M397.849,477.322c1.095-3.264,3.528-5.425,6.541-6.806
				c4.63-2.127,10.647-2.405,15.341-2.015c11.331,0.927,16.847,2.572,19.385,9.19c0.564,1.478,0.983,3.2,1.29,5.216
				c0.195,1.29,0.342,2.705,0.446,4.246"/>
			<path fill="none" stroke="#000000" stroke-miterlimit="10" d="M397.208,481.401c0.007-1.52,0.229-2.865,0.641-4.072"/>
			<path fill="none" stroke="#000000" stroke-miterlimit="10" d="M557.524,442.192c-0.057,0.237-0.104,0.475-0.168,0.711
				c-2.378,10.432-5.181,23.694-5.892,32.738"/>
			<path fill="none" stroke="#000000" stroke-miterlimit="10" d="M573.172,444.591c-0.342,0.377-0.67,0.761-0.99,1.158
				c-1.325,1.617-2.482,3.382-3.466,5.236c-4.477,8.409-5.648,18.862-4.658,28.157c0.119,1.081,0.258,2.141,0.433,3.187"/>
			<path fill="none" stroke="#000000" stroke-miterlimit="10" d="M577.669,416.671c-0.063,0.035-0.133,0.07-0.195,0.104
				c-3.535,1.938-6.994,4.387-9.901,7.162c-0.321,0.3-0.628,0.606-0.935,0.92c0.411,0.258,0.809,0.502,1.199,0.732
				c8.02,4.797,12.287,4.658,17.823,0.076c0,0,0,0,0.007,0c1.485-1.233,3.062-2.782,4.825-4.637
				c-0.223-0.049-0.446-0.098-0.662-0.16c-4.128-1.032-8.012-3.201-12.356-4.094c-0.265-0.056-0.537-0.104-0.815-0.146
				c-0.774-0.125-1.563-0.209-2.371-0.236"/>
			<path fill="none" stroke="#000000" stroke-miterlimit="10" d="M669.44,428.539c-3.66,0.411-7.126,1.395-10.424,2.804
				c-16.38,6.966-28.674,24.294-40.005,33.867"/>
			<path fill="none" stroke="#000000" stroke-miterlimit="10" d="M702.389,426.636c-6.095,1.854-12.092,3.71-17.607,6.192
				c-9.364,4.226-17.32,10.264-21.896,21.184"/>
			<path fill="none" stroke="#000000" stroke-miterlimit="10" d="M690.785,486.778c7.231-4.107,16.254-7.462,23.61-12.775
				c9.268-6.701,16.715-19.991,26.818-23.896"/>
			<path fill="none" stroke="#000000" stroke-miterlimit="10" d="M730.309,487.678c0.139-0.244,0.278-0.488,0.432-0.726
				c4.714-7.447,15.982-11.596,25.479-16.178c13.855-6.673,21.673-18.325,34.035-25.8"/>
			<path fill="none" stroke="#000000" stroke-miterlimit="10" d="M813.273,468.3c8.862-13.5,12.091-22.565,9.49-34.063
				c-0.6-2.629-1.499-5.391-2.706-8.36"/>
			<path fill="none" stroke="#000000" stroke-miterlimit="10" d="M836.061,423.763c3.368,2.998,5.872,6.018,7.747,9.086
				c5.355,8.737,5.613,17.879,6.234,28.227"/>
			<path fill="none" stroke="#000000" stroke-miterlimit="10" d="M885.897,436.803c-16.206,17.063-21.993,22.976-37.62,39.606
				c-0.411,0.439-0.837,0.893-1.262,1.346"/>
			<path fill="none" stroke="#000000" stroke-miterlimit="10" d="M568.137,450.972c0.195,0,0.391,0,0.579,0.014
				c10.013,0.586,8.158,20.87,8.507,27.313c0.572-0.648,0.613-1.541,1.081-2.147c10.013,1.359,20.082,4.309,30.374,5.194"/>
			<path fill="none" stroke="#000000" stroke-miterlimit="10" d="M453.515,413.52c-1.004,9.574-0.977,24.803-5.307,35.625
				c0.007,0.007,0,0.007,0,0.007c-0.969,2.434-2.154,4.637-3.626,6.513h-0.007c-0.028,0.035-0.056,0.077-0.084,0.111"/>
			<path fill="none" stroke="#000000" stroke-miterlimit="10" d="M420.128,336.23c4.588,0.893,8.779-0.063,11.589-3.605"/>
			<path fill="none" stroke="#000000" stroke-miterlimit="10" d="M372.886,318.875c0.446-1.625-0.069-2.566,1.102-3.661
				c0.118-0.111,0.258-0.223,0.411-0.342c-0.049,0.258-0.098,0.517-0.139,0.774v0.007c-1.995,12.384,6.784,21.888,5.536,33.087
				c1.374-2.796,3.242-7.447,5.404-10.676c3.786,3.557,7.356,8.235,10.09,12.796c-0.251-2.462,0.773-5.056,0.711-7.371
				c2.05,0.23,1.556,0.711,3.089,1.96c0.259-0.572-0.48-2.469,0.342-2.824c1.032,0.711,4.728,1.896,6.192,2.44
				c1.785-4.303,4.985-8.542,6.533-13.158c0.217-0.635,0.397-1.283,0.544-1.938"/>
			<path fill="none" stroke="#000000" stroke-miterlimit="10" d="M397.933,472.413c-0.091,1.458-0.118,3.11-0.084,4.909v0.007
				c0.084,4.428,0.523,9.741,1.249,15.201c0,0,0,0,0,0.007c0.767,5.719,1.841,11.604,3.158,16.806
				c1.144,4.561,2.476,8.591,3.926,11.533c5.76,11.7,20.055,24.183,28.966,33.944c4.052,4.428,8.375,8.891,12.649,13.451
				c15.146,16.121,29.768,33.505,29.845,55.191c0.014,3.284-0.308,6.659-1.012,10.146c-0.3,1.485-0.376,3.04-0.474,4.581
				c-0.042,0.635-0.084,1.27-0.153,1.897c-0.042,0.418-0.091,0.829-0.161,1.233"/>
			<path fill="none" stroke="#000000" stroke-miterlimit="10" d="M439.415,476.849c-0.104,0.278-0.202,0.564-0.3,0.844
				c-0.516,1.526-0.893,3.005-1.144,4.448c-2.552,14.804,8.249,25.249,14.539,38.986c0.404,0.886,0.815,1.771,1.234,2.643
				c6.457,13.695,13.736,26.003,22.62,38.896c1.325,1.918,2.573,3.835,3.772,5.739c7.043,11.198,12.161,22.258,17.886,34.418
				c6.708,14.211,16.721,26.065,13.849,42.668"/>
			<path fill="none" stroke="#000000" stroke-miterlimit="10" d="M495.723,465.524c9.364-7.105,19.176-14.246,30.207-18.507
				c6.422-2.489,27.563-1.583,30.556-6.031"/>
			<path fill="none" stroke="#000000" stroke-miterlimit="10" d="M567.69,428.302c-0.397-0.146-0.802-0.307-1.206-0.48
				c-2.998-1.234-6.108-2.971-8.919-4.867c-0.613-0.404-1.213-0.823-1.792-1.248"/>
			<path fill="none" stroke="#000000" stroke-miterlimit="10" d="M532.31,460.531c6.485-3.193,13.904-3.661,19.727-6.331"/>
			<path fill="none" stroke="#000000" stroke-miterlimit="10" d="M546.834,434.563c2.824,2.56,7.552,3.229,12.168,3.229"/>
			<path fill="none" stroke="#000000" stroke-miterlimit="10" d="M924.507,374.547c1.346-0.704,2.649-1.422,3.919-2.154
				c1.039-0.6,2.05-1.206,3.033-1.827c1.568-0.983,3.067-1.994,4.512-3.04c0.32-0.23,0.641-0.46,0.955-0.697
				c1.046-0.774,2.057-1.562,3.04-2.371c12.956-10.634,21.03-24.308,28.45-43.435c1.617-4.17,9.901-40.29,17.997-23.248
				c2.336,4.895-4.603,15.605-5.146,21.135c-0.6,6.367,0.761,15.432-0.474,20.313"/>
			<path fill="none" stroke="#000000" stroke-miterlimit="10" d="M707.151,423.638c0.307,0.174,0.627,0.327,0.969,0.467
				c10.969,4.554,38.052-8.061,49.669-11.094c15.654-4.065,35.339-9.407,51.593-9.505c20.885-0.118,36.288,0.761,56.126-5.711
				c16.589-5.425,33.833-12.175,49.62-18.848c3.333-1.408,6.45-2.873,9.372-4.4"/>
			<path fill="none" stroke="#000000" stroke-miterlimit="10" d="M914.988,400.361c5.746-3.103,11.624-6.813,17.384-10.885
				c12.963-9.17,25.306-20.173,34.112-30.172c6.408-7.273,11.282-12.984,15.348-19.42c3.158-5.007,5.822-10.453,8.332-17.405
				c2.009-5.578,7.029-25.389,16.213-22.871c0.244,7.294,7.538,7.726,10.654,13.953c3.306,6.568,0.774,16.177-0.969,22.822"/>
			<path fill="none" stroke="#000000" stroke-miterlimit="10" d="M904.236,405.473c0.342-0.14,0.684-0.279,1.032-0.419l0.007-0.007
				l0.007-0.007c0.056-0.021,0.111-0.049,0.167-0.069c3.104-1.318,6.297-2.866,9.525-4.603"/>
			<path fill="none" stroke="#000000" stroke-miterlimit="10" d="M921.543,372.937c1.039,0.377,1.994,0.997,2.957,1.61
				c0,0,0,0,0.007,0c0.732,0.468,1.471,0.921,2.273,1.263c0.397,5.125,3.165,12.712,4.832,12.621"/>
			<path fill="none" stroke="#000000" stroke-miterlimit="10" d="M941.096,419.983c0,0,0,0,0.007-0.007
				c2.071-1.199,4.163-2.343,6.275-3.417c2.28-1.164,4.589-2.245,6.917-3.229c6.29-2.656,12.74-4.574,19.351-5.383
				c0.551-0.077,1.102-0.133,1.659-0.188c10.544-0.997,16.575-3.026,20.772-7.887c3.104-3.591,5.216-8.723,7.406-16.121
				c2.35-7.942,7.077-14.755,9.427-22.809c2.051-7.029,1.081-16.624,4.185-23.339"/>
			<path fill="none" stroke="#000000" stroke-miterlimit="10" d="M933.153,424.878c2.614-1.701,5.265-3.347,7.936-4.888"/>
			<path fill="none" stroke="#000000" stroke-miterlimit="10" d="M919.535,434.306c3.953-2.858,7.963-5.696,12.049-8.396
				c0.517-0.349,1.039-0.69,1.563-1.032"/>
			<path fill="none" stroke="#000000" stroke-miterlimit="10" d="M903.246,446.104c0.313-0.217,0.62-0.439,0.935-0.663
				c5.014-3.563,10.124-7.363,15.348-11.136"/>
			<path fill="none" stroke="#000000" stroke-miterlimit="10" d="M700.324,424.209c2.42-2.071,5.684-2.378,7.956-0.495"/>
			<path fill="none" stroke="#000000" stroke-miterlimit="10" d="M411.446,515.332c0-1.011,0.126-2.036,0.209-3.054
				c0.028-0.37,0.056-0.739,0.07-1.102c0.223,0.438,0.439,0.878,0.662,1.324c1.228,2.497,2.371,5.056,3.201,7.678"/>
			<path fill="none" stroke="#000000" stroke-miterlimit="10" d="M317.89,403.108c0.007,0.007,0.021,0.007,0.027,0.015
				c5.83,2.921,11.75-0.461,16.799-3.605c0.236-0.153,0.474-0.3,0.704-0.446c7.956-4.985,14.043-9.532,21.352-15.445
				c1.38-1.122,4.26-3.242,7.844-5.773c10.886-7.691,28.234-19.155,29.518-17.663"/>
			<path fill="none" stroke="#000000" stroke-miterlimit="10" d="M308.49,394.644c2.482,3.402,6.624,7.057,9.393,8.458"/>
			<path fill="none" stroke="#000000" stroke-miterlimit="10" d="M400.311,279.854c-2.427-6.924-11.143-17.411-16.227-22.683
				c-19.991-20.731-60.881,17.271-77.505,27.843c-12.419,7.887-38.212,23.617-32.508,39.997c0.229,0.648,0.509,1.304,0.837,1.96
				c2.656,5.271,9.142,9.532,12.111,15.654c1.653,3.431,3.055,6.826,4.4,10.229c1.506,3.813,2.949,7.621,4.609,11.478
				c2.698,6.282,5.181,11.826,7.398,17.642c1.115,2.936,2.161,5.94,3.138,9.142c0.313,1.053,0.997,2.266,1.903,3.507"/>
			<path fill="none" stroke="#000000" stroke-miterlimit="10" d="M310.7,315.897c-0.118,4.574,6.938,14.797,8.424,21.47
				c1.45,0.223,2.754,0.32,3.904,0.313c3.292-0.021,5.433-0.906,6.667-2.321c6.687-7.636-12.461-30.808-17.956-19.462"/>
			<path fill="none" stroke="#000000" stroke-miterlimit="10" d="M377.648,288.089c-2.782-3.249-5.997-7.712-7.392-12.21
				c-18.367-3.242-8.277,12.594-2.9,19.42"/>
			<path fill="none" stroke="#000000" stroke-miterlimit="10" d="M330.273,335.471c9.539,9.225,7.015,23.408,24.615,22.864
				c-1.841,11.819-14.477,5.349-20.501,0.815c-7.803-5.85-10.396-13.472-11.324-20.591"/>
			<path fill="none" stroke="#000000" stroke-miterlimit="10" d="M273.625,325.164c-0.726-0.188-0.14-1.777-1.883-0.893
				c-1.723,7.538-6.757,13.033-10.418,17.663c-4.406,5.571-6.813,9.888,0.97,14.978c0.118,0.077,0.237,0.153,0.362,0.23
				c15.634,9.888,7.956,4.079,23.004,14.371c7.092,4.854,12.433,13.828,18.862,19.482c1.164,1.025,2.496,2.267,3.946,3.626
				c0.007,0.008,0.015,0.015,0.021,0.021c2.796,2.636,6.038,5.704,9.393,8.458c0,0,0.007,0,0.007,0.007
				c4.47,3.675,9.135,6.785,13.207,7.552c8.374,1.576,13.597,10.229,21.812,10.118c9.1-0.118,7.028,7.092,15.772,7.523
				c19.051,0.928,17.928,13.207,29.671,4.505c0.438-0.328,0.899-0.684,1.387-1.081c0,0,0,0,0.008-0.007
				c0.188-0.146,0.376-0.3,0.564-0.46"/>
			<path fill="none" stroke="#000000" stroke-miterlimit="10" d="M397.222,350.916c0.6,6.799,5.76,15.64,5.146,20.598"/>
			<path fill="none" stroke="#000000" stroke-miterlimit="10" d="M403.399,385.941c0.098,0.056,0.202,0.104,0.313,0.16
				c7.831,4.017,30.103,12,27.522-4.037"/>
			<path fill="none" stroke="#000000" stroke-miterlimit="10" d="M521.851,391.087c0.969,1.012,2.398,1.729,4.169,2.211
				c9.686,2.671,29.378-1.583,37.021-2.211c8.088-0.676,16.645-1.666,24.67-3.633c4.651-1.137,9.128-2.594,13.229-4.512
				c0.048,1.472,0.153,2.838,0.313,4.128c0.983,8.104,4.044,12.984,9.309,18.646c1.409,1.513,2.971,3.089,4.693,4.79
				c-0.224,0.007-0.446,0.014-0.663,0.014c-13.172,0-20.619-13.172-26.295-20.779v-0.007c-0.182-0.237-0.362-0.474-0.537-0.704"/>
			<path fill="none" stroke="#000000" stroke-miterlimit="10" d="M352.908,420.778c4.463-3.981,7.203-4.616,10.738-5.767
				c1.959-0.642,4.156-1.43,7.028-3.04c8.682-4.882,16.799-12.865,25.508-16.757"/>
			<path fill="none" stroke="#000000" stroke-miterlimit="10" d="M350.739,408.171c0.3,0.83,1.165,1.479,2.74,1.827
				c0.237,0.049,0.51,0.077,0.816,0.077h0.007c5.09,0,19.664-6.472,16.826-11.464C367.112,391.54,348.905,403.179,350.739,408.171z"
				/>
			<path fill="none" stroke="#000000" stroke-miterlimit="10" d="M318.796,321.769c-0.265,0.111-0.551,0.216-0.879,0.307"/>
			<path fill="none" stroke="#000000" stroke-miterlimit="10" d="M321.007,320.019c-1.012,0.593-1.765,1.164-2.204,1.75h-0.007
				c-1.004,1.325-0.446,2.72,2.225,4.554c1.081-1.556,1.408-2.393,1.903-4.296c-1.848-1.604-2.629-0.879-4.121-0.258"/>
			<path fill="none" stroke="#000000" stroke-miterlimit="10" d="M366.484,283.975c-0.049,0-0.104,0-0.16,0"/>
			<path fill="none" stroke="#000000" stroke-miterlimit="10" d="M366.484,283.975c-0.153,0.217-0.258,0.544-0.286,1.053
				c3.333,2.085,3.18,2.531,6.192-0.049C370.438,283.724,368.82,283.947,366.484,283.975z"/>
			<path fill="none" stroke="#000000" stroke-miterlimit="10" d="M368.374,282.942c-0.509,0.754-1.423,0.356-1.89,1.032"/>
			<path fill="none" stroke="#000000" stroke-miterlimit="10" d="M941.096,419.983c0.056,0.244,0.091,0.509,0.098,0.815
				c2.07,0.279,3.877-0.293,5.871-1.053c0.091-0.927,0.251-2.063,0.313-3.187c0.028-0.537,0.042-1.074,0.014-1.576
				c-0.027-0.439-0.083-0.851-0.174-1.234"/>
			<path fill="none" stroke="#000000" stroke-miterlimit="10" d="M941.067,419.857c0.014,0.035,0.021,0.077,0.028,0.119"/>
			<path fill="none" stroke="#000000" stroke-miterlimit="10" d="M939.924,417.229c0.021,0.048,0.035,0.097,0.056,0.153
				c0.021,0.063,0.042,0.118,0.063,0.174c0.327,0.823,0.802,1.381,1.024,2.294"/>
			<path fill="none" stroke="#000000" stroke-miterlimit="10" d="M941.067,419.851c-0.606-0.488-0.795-1.534-1.024-2.294"/>
			<line fill="none" stroke="#000000" stroke-miterlimit="10" x1="941.067" y1="419.851" x2="941.067" y2="419.857"/>
			<path fill="none" stroke="#000000" stroke-miterlimit="10" d="M941.096,419.977h0.007c0.014-0.021,0.027-0.042,0.042-0.063
				c-0.028-0.021-0.049-0.035-0.077-0.057"/>
			<line fill="none" stroke="#000000" stroke-miterlimit="10" x1="941.096" y1="419.977" x2="941.096" y2="419.983"/>
			<path fill="none" stroke="#000000" stroke-miterlimit="10" d="M923.53,395.215c-4.637,2.434-7.266,3.229-8.542,5.146
				c0,0-0.007,0-0.014,0.007c-0.774,1.172-1.053,2.762-0.977,5.397c0.16,5.236,4.456,9.455,3.452,14.984
				c0.46-0.111,0.976-0.132,1.52-0.153c0.781-0.021,1.618-0.027,2.42-0.278c-2.552,4.295-3.229,8.709-2.858,13.876
				c0.349,0.063,0.676,0.098,0.997,0.111h0.007c5.731,0.37,6.986-5.411,12.077-7.343c-0.035-0.334-0.035-0.689-0.028-1.053
				c0.042-1.324,0.293-2.768,0.182-4.079c-0.182-1.004,1.039,2.273,1.206,3.062c0.056-0.007,0.119-0.007,0.175-0.015h0.007
				c3.047-0.258,6.024-2.141,7.936-4.888c0.007,0,0.007,0,0.007-0.007"/>
			<path fill="none" stroke="#000000" stroke-miterlimit="10" d="M933.098,373.432c0-0.007,0-0.007-0.007-0.014
				c-0.021-0.07-0.412-0.816-0.928-1.688c-0.202-0.356-0.453-0.768-0.704-1.165c-0.293-0.453-0.586-0.871-0.816-1.108
				c3.319-1.688,2.1-3.563,5.328-1.932c0.292,0.153,0.627,0.335,1.004,0.544c-0.07-0.411-0.07-0.83-0.049-1.241
				c0.042-0.809,0.181-1.61,0.14-2.364c0.906-0.111,1.91-0.027,2.9-0.007c0.732,0.021,1.45,0.007,2.105-0.146"/>
			<path fill="none" stroke="#000000" stroke-miterlimit="10" d="M925.588,373.585c0.146-0.23,1.282-0.76,2.838-1.192
				c1.102-0.313,2.419-0.586,3.737-0.662c0.153-0.015,0.3-0.021,0.453-0.028c0.14,0.579,0.313,1.15,0.475,1.716"/>
			<path fill="none" stroke="#000000" stroke-miterlimit="10" d="M602.187,386.959c8.096-2.343,14.908-9.435,22.648-13.13
				c7.774-3.688,15.682-6.938,23.436-10.815c7.343-3.646,13.611-5.836,21.938-5.871c8.807-0.014,12.544,4.142,18.632,7.154
				c-11.387,0.014-22.202-2.05-32.438,3.939c3.64,6.771,15.124,7.691,22,10.495c6.841,2.761,8.214,4.058-1.039,5.201
				c-5.467,0.663-11.248-3.193-16.233-4.463c-12.907-3.277-14.915,3.85-24.74,10.815c-5.418,3.842-18.569,14.985-22.878,15.215"/>
			<path fill="none" stroke="#000000" stroke-miterlimit="10" d="M604.243,416.839c0.997-0.266,2.001-0.572,2.998-0.928
				c2.839-0.99,5.635-2.343,8.02-4.149c0.46-0.349,0.906-0.718,1.339-1.102"/>
			<path fill="none" stroke="#000000" stroke-miterlimit="10" d="M492.584,642.053c-2.698,8.298-4.965,17.628-9.546,25.145
				c-3.396,5.628,2.922,9.114,7.329,4.7c4.17-4.156,5.097-10.536,7.363-15.592c1.359-3.075,3.075-5.99,4.254-9.177
				c0.802-2.168,0.836-4.49,1.102-6.735c0.132-1.158,0.335-2.302,0.732-3.396"/>
			<path fill="none" stroke="#000000" stroke-miterlimit="10" d="M492.605,642.011c1.032-1.715,1.764-3.521,1.945-5.467
				C493.854,638.287,493.219,640.121,492.605,642.011z"/>
			<path fill="none" stroke="#000000" stroke-miterlimit="10" d="M492.605,642.011c0,0.007-0.007,0.015-0.014,0.021
				c0,0.007,0,0.014-0.008,0.021"/>
			<path fill="none" stroke="#000000" stroke-miterlimit="10" d="M483.353,635.065c-0.266,2.378-2.615,7.001-3.808,11.213
				c-1.206,4.268-1.214,8.124,3.354,8.807c1.938-4.399,6.883-8.388,9.686-13.032"/>
			<path fill="none" stroke="#000000" stroke-miterlimit="10" d="M476.01,640.087c-0.279,2.594,0.034,6.547,3.479,6.178"/>
			<path fill="none" stroke="#000000" stroke-miterlimit="10" d="M477.941,623.093c-0.098,0.112-0.195,0.237-0.3,0.37
				c-2.811,3.549-7.385,12.559-2.016,14.692"/>
			<path fill="none" stroke="#000000" stroke-miterlimit="10" d="M512.701,644.333c-0.174,0.195-0.376,0.628-0.6,1.234
				c-1.875,5.118-5.341,22.648-9.734,15.361c-1.932-3.166,1.054-7.587,1.465-10.801c0.439-3.215-0.07-6.457,0.355-9.609
				c0.084-0.669,0.216-1.324,0.404-1.98"/>
			<path fill="none" stroke="#000000" stroke-miterlimit="10" d="M576.435,416.839c0.07-0.07,0.146-0.14,0.224-0.21
				c1.715-1.631,4.351-4.162,6.338-4.95c0.419-0.168,0.81-0.258,1.158-0.244"/>
			<path fill="none" stroke="#000000" stroke-miterlimit="10" d="M574.113,436.928c1.854-2.294,3.402-4.881,3.862-7.726"/>
			<path fill="none" stroke="#000000" stroke-miterlimit="10" d="M589.565,419.935c0.16,0.021,0.313,0.035,0.474,0.049
				c3.41,0.244,5.697-2.085,6.437-5.285c0.014-0.057,0.027-0.119,0.042-0.175"/>
		</g>
	</g>
</g>
</svg>
