<?xml version="1.0" encoding="utf-8"?>
<!-- Generator: Adobe Illustrator 16.0.2, SVG Export Plug-In . SVG Version: 6.00 Build 0)  -->
<!DOCTYPE svg PUBLIC "-//W3C//DTD SVG 1.1//EN" "http://www.w3.org/Graphics/SVG/1.1/DTD/svg11.dtd">
<svg version="1.1" id="Слой_1" xmlns="http://www.w3.org/2000/svg" xmlns:xlink="http://www.w3.org/1999/xlink" x="0px" y="0px"
	 width="2848.117px" height="1272.844px" viewBox="0 0 2848.117 1272.844" enable-background="new 0 0 2848.117 1272.844"
	 xml:space="preserve">
<g id="Слой_2">
</g>
<g id="Слой_1_1_">
	<g id="дракон">
	</g>
	<g>
		
			<linearGradient id="SVGID_1_" gradientUnits="userSpaceOnUse" x1="-236.5415" y1="2413.6882" x2="-153.2354" y2="555.5951" gradientTransform="matrix(1 0 0 -1 1619.9551 2426.9038)">
			<stop  offset="0" style="stop-color:#8C4C53"/>
			<stop  offset="0.6601" style="stop-color:#6C75B8"/>
		</linearGradient>
		<path fill="url(#SVGID_1_)" d="M2848.117,1272.594v-692.08c-55.919,260-400.25,187.866-428.652,84.175
			c-11.423-41.703-14.313-93.039-25.05-135.981c-7.156-25.05-14.313-60.832-28.628-82.305
			c-14.311-21.469-35.781-28.626-42.938-46.519c-17.893-35.784-14.313-96.619-17.893-135.98
			c-10.736-85.883-14.314-182.501-46.519-261.226c10.731,42.94-17.894,89.46-25.05,139.56
			c-7.158,53.674-17.894,107.353-25.052,161.027c-7.156,57.256-7.156,114.512-25.051,171.768
			c-7.157,21.47-10.736,67.989-32.202,78.726c-28.629,17.894-50.103-21.473-82.304-10.735
			c-50.102,10.735-35.785,75.147-46.521,118.089c-14.314,50.1-39.365,100.197-75.146,135.98
			c-57.259,53.678-211.129,135.979-286.274,78.727c-67.99-50.099-64.411-182.502-132.404-239.758
			c-42.94-35.783-65.016-26.889-65.016-93.451c0-46.506-35.181-89.049-45.916-135.566c-60.834,57.256-56.427,89.062-100.196,200.394
			c-20.992,53.39-25.051,110.929-17.895,164.605c3.58,35.784,21.473,118.091-14.313,143.138
			c-28.626,21.473-114.509-3.578-143.136-14.313c-93.039-35.783-207.551-114.51-254.07-200.391
			c-46.52-82.304-60.834-182.501-71.568-275.54c-7.158-50.1-21.471-75.146-42.938-125.247
			c-14.315-39.36-10.736-93.039-39.365-128.824c-28.627,89.463-67.989,178.925-78.725,271.961
			c-7.158,46.521-7.158,89.461-32.208,132.405c-29.606,59.215-222.214,262.002-318.224,132.989
			C294.684,690.29,8.615,265.166,0.637,278.752v994.487l449.922-0.394c6.336,1.423,26.258-1.567,32.613-0.252H2848.117z"/>
	</g>
	<g id="XMLID_1_">
		<g>
			<path fill="#A495A5" d="M868.811,658.358l-56.946-51.891l-39.771-76.344v-74.148l-31.802-70.594l-12.74-93.88l12.74-81.066
				l-5.821-42.014c28.63,35.786,25.052,89.466,39.365,128.83c21.472,50.102,35.762,75.151,42.919,125.253
				C825.82,501.042,837.438,584.687,868.811,658.358z"/>
		</g>
		<g>
			<path fill="none" stroke="#111314" stroke-width="0.1" stroke-miterlimit="10" d="M868.811,658.358
				c-31.371-73.672-42.989-157.316-52.057-235.855c-7.157-50.101-21.447-75.15-42.919-125.252
				c-14.313-39.364-10.736-93.044-39.365-128.83c-28.629,89.466-67.993,178.932-78.729,271.976
				c-7.157,46.522-7.157,89.44-32.208,132.385c-14.457,28.939-35.404,49.17-58.309,67.588"/>
			<path fill="none" stroke="#111314" stroke-width="0.1" stroke-miterlimit="10" d="M2406.829,612.385
				c-4.175-28.867-5.344-59.548-11.976-86.125c-7.157-25.026-14.314-60.813-28.629-82.284
				c-14.291-21.472-35.764-28.629-42.92-46.522c-17.895-35.785-14.314-96.623-17.895-135.987
				c-10.735-85.888-14.314-182.51-46.521-261.216c10.735,42.944-17.894,89.442-25.051,139.542
				c-7.156,53.68-17.893,107.358-25.05,161.038c-7.157,57.259-7.157,114.517-25.051,171.774
				c-7.157,21.472-10.735,67.97-32.207,78.706c-28.629,17.894-50.102-21.472-82.31-10.735
				c-50.101,10.735-35.785,75.15-46.521,118.095c-14.314,50.101-39.364,100.2-75.15,135.986
				c-57.258,53.681-211.115,135.988-286.266,78.73c-67.994-50.103-64.415-182.51-132.409-239.769
				c-42.942-35.786-65.012-26.888-65.012-93.45c0-46.498-35.189-89.035-45.925-135.558c-60.838,57.258-56.424,89.06-100.203,200.379
				c-20.971,53.394-25.049,110.938-17.893,164.616c3.578,35.786,21.473,118.095-14.313,143.145
				c-28.605,21.473-114.492-3.577-143.121-14.313c-93.044-35.786-207.56-114.516-254.082-200.402
				c-7.252-12.812-13.694-26.053-19.491-39.65"/>
			
				<line fill="none" stroke="#111314" stroke-width="0.1" stroke-miterlimit="10" x1="868.811" y1="658.358" x2="868.835" y2="658.383"/>
			<polyline fill="none" stroke="#111314" stroke-width="0.5" stroke-miterlimit="10" points="734.47,168.421 740.291,210.435 
				727.551,291.502 740.291,385.382 772.093,455.975 772.093,530.126 811.863,606.469 868.811,658.358 			"/>
		</g>
	</g>
	<polyline fill="#9D81A3" stroke="#111314" stroke-width="0.5" stroke-miterlimit="10" points="728.962,301.906 707.677,382.994 
		718.318,442.499 727.55,492.74 718.318,535.684 767.32,597.714 772.093,530.124 772.093,455.975 	"/>
	<polyline fill="#826E89" stroke="#111314" stroke-width="0.5" stroke-miterlimit="10" points="772.093,530.124 767.32,597.714 
		798.189,632.987 811.862,606.469 	"/>
	<polyline fill="#A69DAA" stroke="#111314" stroke-width="0.5" stroke-miterlimit="10" points="23.118,301.833 36.388,433.824 
		91.533,478.673 216.896,567.691 	"/>
	<path fill="#AD97B6" stroke="#111314" stroke-width="0.5" stroke-miterlimit="10" d="M1417.938,404.61L1406.7,509.44l21.471,35.785
		l16.701,52.486l52.485,60.669h53.992l-37.292-40.787c0,0-38.258-25.448-35.032-27.834c0,0-3.934-1.591-12.683-15.904l-2.149-20.733
		l-0.729-21.625l-4.451-22.801l-14.937-35.837L1417.938,404.61z"/>
	<polyline fill="#A08DAA" stroke="#111314" stroke-width="0.5" stroke-miterlimit="10" points="1406.7,509.44 1398.749,561.927 
		1406.7,581.555 1419.427,620.775 1446.464,644.634 1444.872,597.714 1428.171,545.226 	"/>
	<polyline fill="#867B8E" stroke="#111314" stroke-width="0.5" stroke-miterlimit="10" points="1503.721,658.382 1559.391,713.022 
		1551.352,658.382 	"/>
	<polygon fill="#867B8E" stroke="#111314" stroke-width="0.5" stroke-miterlimit="10" points="2847.867,608.342 2848.117,586.78 
		2747.48,734.175 2847.867,708.833 	"/>
	<polyline fill="#836C8C" stroke="#111314" stroke-width="0.5" stroke-miterlimit="10" points="1417.938,404.61 1379.189,449.808 
		1352.048,509.44 1336.729,553.777 1317.734,604.988 1298.4,685.7 1297.07,702.691 1368.527,632.987 	"/>
	<polygon fill="#836C8C" stroke="#111314" stroke-width="0.5" stroke-miterlimit="10" points="939.993,766.228 939.993,852.987 
		850.821,809.605 831.734,831.515 831.734,864.915 896.15,888.774 927.165,941.26 970.107,941.26 1013.052,979.432 
		1070.311,996.134 1144.268,981.817 1206.298,955.574 1113.254,905.475 1058.382,881.179 1019.018,832.283 	"/>
	<polyline fill="#9A86A3" stroke="#111314" stroke-width="0.5" stroke-miterlimit="10" points="193.876,537.469 129.842,449.81 
		131.593,511.01 73.501,430.642 46.328,440.933 30.546,470.37 76.045,521.835 78.579,582.745 116.426,603.036 136.237,656.969 
		178.81,698.742 250.755,721.07 317.824,727.251 259.493,639.134 	"/>
	<polyline fill="#9D8BA5" stroke="#111314" stroke-width="0.5" stroke-miterlimit="10" points="1052.193,853.739 1102.775,881.179 
		1152.577,902.017 1206.298,916.246 1258.346,920.898 1206.298,955.574 1140.568,920.183 1070.054,886.345 1036.29,853.739 
		1019.018,832.283 	"/>
	<path fill="#B39FC0" stroke="#111314" stroke-width="0.5" stroke-miterlimit="10" d="M2260.708,10.557l9.633,83.763l-9.633,59.644
		l1.738,14.218l7.895,64.514l37.151,69.212l-4.616-61.957l-7.666-71.528c0,0,2.193,7.396-8.17-52.629
		c-10.362-60.023-10.362-60.023-10.362-60.023"/>
	<polyline fill="#9B88AA" stroke="#111314" stroke-width="0.5" stroke-miterlimit="10" points="2244.096,230.308 2260.708,292.337 
		2284.102,337.667 2307.492,423.553 2316.294,378.689 2307.888,311.449 2303.741,297.108 2270.341,232.694 2260.708,180.208 	"/>
	<polyline fill="#9B88AA" stroke="#111314" stroke-width="0.5" stroke-miterlimit="10" points="2069.223,540.573 2069.223,597.714 
		2134.354,632.987 2155.824,597.714 2123.326,553.65 2092.819,540.573 	"/>
	<polyline fill="#8B7B9B" stroke="#111314" stroke-width="0.5" stroke-miterlimit="10" points="2069.223,597.714 2089.023,658.382 
		2124.809,685.7 2155.824,658.382 2193.996,616.799 2155.824,597.714 2134.354,632.987 	"/>
	<polyline fill="#83798E" stroke="#111314" stroke-width="0.5" stroke-miterlimit="10" points="2260.708,292.337 2280.194,375.838 
		2270.451,413.402 2316.294,509.44 2377.698,540.573 2386.541,495.316 2366.225,443.975 2327.249,404.61 2316.294,378.689 
		2305.559,416.456 	"/>
	<path fill="#83798E" stroke="#111314" stroke-width="0.5" stroke-miterlimit="10" d="M1604.568,782.971l-28.48,17.53v47.714
		h-24.736l26.608,45.715l43.458,42.559h42.943l66.8-21.472l21.472-21.087h-52.485
		C1700.146,893.93,1622.313,865.644,1604.568,782.971z"/>
	<polyline fill="#A698B6" stroke="#111314" stroke-width="0.5" stroke-miterlimit="10" points="1576.088,800.501 1583.813,724.388 
		1604.568,782.971 	"/>
</g>
<g id="набросок">
</g>
</svg>
