<?xml version="1.0" encoding="iso-8859-1"?>
<!-- Generator: Adobe Illustrator 16.0.2, SVG Export Plug-In . SVG Version: 6.00 Build 0)  -->
<!DOCTYPE svg PUBLIC "-//W3C//DTD SVG 1.1//EN" "http://www.w3.org/Graphics/SVG/1.1/DTD/svg11.dtd">
<svg version="1.1" id="&#x421;&#x43B;&#x43E;&#x439;_1"
	 xmlns="http://www.w3.org/2000/svg" xmlns:xlink="http://www.w3.org/1999/xlink" x="0px" y="0px" width="4217.357px"
	 height="762.484px" viewBox="0 0 4217.357 762.484" style="enable-background:new 0 0 4217.357 762.484;" xml:space="preserve">
<linearGradient id="SVGID_1_" gradientUnits="userSpaceOnUse" x1="3652.9878" y1="-19.3818" x2="4089.6377" y2="955.5512">
	<stop  offset="0" style="stop-color:#DDD5D1"/>
	<stop  offset="0.3429" style="stop-color:#E5B09A"/>
</linearGradient>
<path style="fill:url(#SVGID_1_);stroke:#634E42;stroke-width:0.2;stroke-miterlimit:10;" d="M4217.257,164.36
	c-60.063-148.582-193.077-5.51-193.077-5.51c-89.28-186.147-240.664-16.213-240.664-16.213
	c-225.14-114.761-213.497,114.181-213.497,114.181l-62.107-34.18c0,0-19.402-1.737-42.697,0
	c-23.284,1.738-120.332,34.763-112.571,142.799c7.771,108.035,128.099,145.281,128.099,145.281h736.516V164.36z"/>
<linearGradient id="SVGID_2_" gradientUnits="userSpaceOnUse" x1="232.9995" y1="-70.2065" x2="669.7674" y2="904.99">
	<stop  offset="0" style="stop-color:#DEB8C1"/>
	<stop  offset="0.9719" style="stop-color:#94CA9A"/>
</linearGradient>
<path style="fill:url(#SVGID_2_);stroke:#634E42;stroke-width:0.1;stroke-miterlimit:10;" d="M879.635,329.489
	C887.33,114.423,698.82,221.968,698.82,221.968c-46.166-241.502-207.741-64.412-207.741-64.412
	c-88.487-187.971-238.523-16.37-238.523-16.37C29.427,25.302,40.967,256.482,40.967,256.482L0.1,233.569v279.296h896.448V328.562
	C886.226,328.699,879.635,329.489,879.635,329.489z"/>
<linearGradient id="SVGID_3_" gradientUnits="userSpaceOnUse" x1="1171.019" y1="19.3872" x2="1070.6057" y2="929.0209">
	<stop  offset="0" style="stop-color:#C26F46"/>
	<stop  offset="0.6601" style="stop-color:#D58B97"/>
</linearGradient>
<path style="fill:url(#SVGID_3_);stroke:#634E42;stroke-width:0.2;stroke-miterlimit:10;" d="M1522.987,368.735
	c0,0-34.018-35.7-113.406-182.47c-79.383-146.769-245.719-15.866-245.719-15.866C1020.207,19.663,868.987,146.598,963.5,329.066
	c85.146,164.389-145.727,10.09-341.594,15.593v277.947h931.328l37.807-59.501c0,0,0,0,41.586-111.068
	C1674.203,340.968,1522.987,368.735,1522.987,368.735z"/>
<linearGradient id="SVGID_4_" gradientUnits="userSpaceOnUse" x1="358.3892" y1="516.4038" x2="-44.5467" y2="-278.9575">
	<stop  offset="0" style="stop-color:#9EA0AC"/>
	<stop  offset="0.8621" style="stop-color:#BE8082"/>
</linearGradient>
<path style="fill:url(#SVGID_4_);stroke:#634E42;stroke-width:0.2;stroke-miterlimit:10;" d="M458.042,318.525
	c-265.3,77.252-377.96-57.1-396.132-43.665C49.208,284.25,84.427,131.232,0.1,98.993V553.64h701.438
	C701.538,553.64,723.337,241.272,458.042,318.525z"/>
<linearGradient id="SVGID_5_" gradientUnits="userSpaceOnUse" x1="3255.4644" y1="561.1284" x2="3153.9307" y2="-95.4597">
	<stop  offset="0" style="stop-color:#724347"/>
	<stop  offset="0.9397" style="stop-color:#B4AEC1"/>
</linearGradient>
<path style="fill:url(#SVGID_5_);stroke:#634E42;stroke-width:0.2;stroke-miterlimit:10;" d="M3610.939,198.466
	c-76.623-107.457-233.861-263.577-377.899-4.595c0,0-185.35-73.893-276.203,120.919c0,0-167.178,26.87-119.932,188.091
	l14.539,26.872h759.495V198.466z"/>
<linearGradient id="SVGID_6_" gradientUnits="userSpaceOnUse" x1="2912.2065" y1="509.6685" x2="2509.272" y2="-285.6901">
	<stop  offset="0" style="stop-color:#929085"/>
	<stop  offset="0.8621" style="stop-color:#BE8082"/>
</linearGradient>
<path style="fill:url(#SVGID_6_);stroke:#634E42;stroke-width:0.2;stroke-miterlimit:10;" d="M2589.715,460.661h835.881
	c0,0,21.807-312.368-243.496-235.115c-265.3,77.252-377.964-57.1-396.132-43.665c-18.179,13.435,61.778-305.651-250.764-127.634
	c0,0-199.886-124.276-174.449,117.556c0,0-149,43.666-47.243,174.658c0,0-83.586,100.764,14.539,114.2"/>
<linearGradient id="SVGID_7_" gradientUnits="userSpaceOnUse" x1="2897.9897" y1="88.3823" x2="3334.7576" y2="1063.5789">
	<stop  offset="0" style="stop-color:#DEB8C1"/>
	<stop  offset="0.9719" style="stop-color:#94CA9A"/>
</linearGradient>
<path style="fill:url(#SVGID_7_);stroke:#634E42;stroke-width:0.1;stroke-miterlimit:10;" d="M3610.939,465.025
	c-10.322,0.137-16.913,0.927-16.913,0.927c7.695-215.066-180.814-107.521-180.814-107.521
	c-46.166-241.502-207.741-64.412-207.741-64.412c-88.487-187.971-238.523-16.37-238.523-16.37
	c-223.129-115.884-211.589,115.296-211.589,115.296l-61.557-34.514c0,0-19.231-1.756-42.314,0
	c-23.086,1.753-119.262,35.104-111.566,144.194c7.696,109.09,126.954,146.702,126.954,146.702h944.064V465.025z"/>
<linearGradient id="SVGID_8_" gradientUnits="userSpaceOnUse" x1="1420.0347" y1="634.1753" x2="1318.5013" y2="-22.4106">
	<stop  offset="0" style="stop-color:#E2B07B"/>
	<stop  offset="0.8473" style="stop-color:#8987C1"/>
</linearGradient>
<path style="fill:url(#SVGID_8_);stroke:#634E42;stroke-width:0.2;stroke-miterlimit:10;" d="M1079.403,617.725h719.581
	c0,0,276.204-225.039-72.682-255.27c0,0-225.328-440.002-425.21-80.608c0,0-185.346-73.895-276.203,120.915
	c0,0-167.175,26.87-119.929,188.092l14.536,26.871"/>
<linearGradient id="SVGID_9_" gradientUnits="userSpaceOnUse" x1="362.7148" y1="693.4751" x2="261.1815" y2="36.8892">
	<stop  offset="0" style="stop-color:#E2B07B"/>
	<stop  offset="0.8473" style="stop-color:#8987C1"/>
</linearGradient>
<path style="fill:url(#SVGID_9_);stroke:#634E42;stroke-width:0.2;stroke-miterlimit:10;" d="M525.533,443.937
	c0,0-225.328-440.002-425.21-80.608c0,0-44.313-17.662-100.223-12.946v348.824h598.115
	C598.215,699.207,874.419,474.167,525.533,443.937z"/>
<linearGradient id="SVGID_10_" gradientUnits="userSpaceOnUse" x1="2063.6865" y1="570.4956" x2="1660.7511" y2="-224.8649">
	<stop  offset="0" style="stop-color:#9EA0AC"/>
	<stop  offset="0.8621" style="stop-color:#BE8082"/>
</linearGradient>
<path style="fill:url(#SVGID_10_);stroke:#634E42;stroke-width:0.2;stroke-miterlimit:10;" d="M1741.197,521.487h835.881
	c0,0,21.8-312.368-243.496-235.115c-265.3,77.252-377.96-57.1-396.132-43.665c-18.174,13.435,61.782-305.651-250.767-127.634
	c0,0-199.882-124.277-174.443,117.558c0,0-149.003,43.664-47.247,174.656c0,0-83.589,100.766,14.54,114.2"/>
<linearGradient id="SVGID_11_" gradientUnits="userSpaceOnUse" x1="3973.1089" y1="811.9741" x2="3570.1736" y2="16.6136">
	<stop  offset="0" style="stop-color:#9EA0AC"/>
	<stop  offset="0.8621" style="stop-color:#BE8082"/>
</linearGradient>
<path style="fill:url(#SVGID_11_);stroke:#634E42;stroke-width:0.2;stroke-miterlimit:10;" d="M4217.257,479.793
	c-146.776-3.531-214.485-77.786-228.219-67.633c-18.174,13.435,61.783-305.651-250.766-127.634c0,0-199.883-124.277-174.443,117.558
	c0,0-149.004,43.664-47.246,174.656c0,0-83.59,100.766,14.539,114.2h686.135V479.793z"/>
<linearGradient id="SVGID_12_" gradientUnits="userSpaceOnUse" x1="2219.9917" y1="690.856" x2="2326.6963" y2="-150.4665">
	<stop  offset="0" style="stop-color:#E6AD8F"/>
	<stop  offset="0.8621" style="stop-color:#9B99CC"/>
</linearGradient>
<path style="fill:url(#SVGID_12_);stroke:#634E42;stroke-width:0.2;stroke-miterlimit:10;" d="M2037.134,637.022h774.574
	c0,0,152.563-227.165-58.68-280.854c-211.247-53.695-516.382,165.206-418.585-24.783c97.8-189.992-58.681-322.156-207.335-165.209
	c0,0-172.13-136.297-254.279,16.521c-82.156,152.819-117.36,189.991-117.36,189.991s-156.483-28.912-113.447,86.735
	c43.033,115.646,43.033,115.646,43.033,115.646l39.116,61.953"/>
<linearGradient id="SVGID_13_" gradientUnits="userSpaceOnUse" x1="1760.1758" y1="188.0381" x2="2196.8257" y2="1162.9712">
	<stop  offset="0" style="stop-color:#DDD5D1"/>
	<stop  offset="0.3429" style="stop-color:#E5B09A"/>
</linearGradient>
<path style="fill:url(#SVGID_13_);stroke:#634E42;stroke-width:0.2;stroke-miterlimit:10;" d="M2381.933,762.383H1489.14
	c0,0-120.328-37.246-128.099-145.281c-7.761-108.036,89.287-141.061,112.571-142.799c23.295-1.737,42.697,0,42.697,0l62.107,34.18
	c0,0-11.643-228.941,213.497-114.181c0,0,151.384-169.935,240.664,16.213c0,0,163.029-175.371,209.612,63.788
	c0,0,190.203-106.502,182.439,106.48c0,0,209.608-24.979,124.214,181.6H2381.933z"/>
</svg>
