<?xml version="1.0" encoding="utf-8"?>
<!-- Generator: Adobe Illustrator 16.0.2, SVG Export Plug-In . SVG Version: 6.00 Build 0)  -->
<!DOCTYPE svg PUBLIC "-//W3C//DTD SVG 1.1//EN" "http://www.w3.org/Graphics/SVG/1.1/DTD/svg11.dtd">
<svg version="1.1" xmlns="http://www.w3.org/2000/svg" xmlns:xlink="http://www.w3.org/1999/xlink" x="0px" y="0px"
	 width="2867.78px" height="1206.761px" viewBox="0 0 2867.78 1206.761" enable-background="new 0 0 2867.78 1206.761"
	 xml:space="preserve">
<g id="Слой_2">
	<linearGradient id="SVGID_1_" gradientUnits="userSpaceOnUse" x1="-1314.8682" y1="493.02" x2="-1713.7905" y2="-1028.5123">
		<stop  offset="0" style="stop-color:#858AC4"/>
		<stop  offset="1" style="stop-color:#804049"/>
	</linearGradient>
	<rect x="-2842.899" y="-247.729" fill="url(#SVGID_1_)" width="2843.149" height="669.427"/>
</g>
<g id="Слой_1">
	<g id="дракон">
	</g>
	<g>
		<linearGradient id="SVGID_2_" gradientUnits="userSpaceOnUse" x1="1539.4824" y1="1327.4165" x2="1187.2131" y2="-331.8174">
			<stop  offset="0.3251" style="stop-color:#999BCF"/>
			<stop  offset="0.9655" style="stop-color:#7A3A44"/>
		</linearGradient>
		<path fill="url(#SVGID_2_)" d="M2871.48,449.759c-50.106,1.962-95.055-10.502-109.801-21.709
			c-104.508-76.685-223.428-133.489-320.725-218.693c-39.641-34.083-86.486-62.485-122.525-96.566
			c-39.639-34.082-79.278-93.726-129.73-107.927c-115.315,204.493-241.444,445.908-565.77,468.628
			c-241.446,17.042-457.662-8.521-684.692-71.004c-100.902-28.401-194.597-85.205-277.479-139.168
			c-64.865-45.443-129.732-159.05-219.822-170.411C409.406,188.996,209.793,592.484-4.52,685.636v520.875h2876V449.759z"/>
		<g>
			<path fill="#5B5753" d="M2871.48,449.509c-33.817,0.972-70.133-2.242-101.213-16.662c-13.395-6.214-25.189-17.111-37.294-25.47
				c-15.249-10.531-30.771-20.664-46.361-30.679c-62.301-40.019-126.452-77.16-186.474-120.638
				c-30.055-21.771-57.428-46.675-86.806-69.269c-30.538-23.487-62.601-44.98-91.206-70.896
				c-41.455-37.559-77.514-94.252-133.361-111.272c-0.105-0.032-0.229,0.02-0.282,0.115
				c-57.235,101.538-113.856,204.844-193.541,290.949c-90.451,97.739-208.093,158.414-340.382,174.581
				c-86.478,10.569-175.608,9.984-262.511,6.186c-88.3-3.859-176.228-14.348-263.153-30.227
				c-85.39-15.598-173.191-33.669-254.087-65.706c-41.589-16.47-81.432-37.163-120.199-59.388
				c-35.073-20.107-72.165-40.585-103.921-65.707c-67.478-53.381-117.071-149.658-209.688-162.759
				c-0.141-0.02-0.261,0.033-0.308,0.175c-11.085,33.486-26.329,65.724-41.63,97.442c-23.434,48.58-49.25,96.022-76.793,142.388
				c-62.526,105.255-135.257,209.637-229.06,289.503c-29.634,25.23-62.163,47.51-97.857,63.245
				c-0.078,0.034-0.124,0.136-0.124,0.216c0,143.568,0,287.137,0,430.705c0,30.057,0,60.113,0,90.17c0,0.137,0.113,0.25,0.25,0.25
				c46.525,0,93.05,0,139.575,0c121.433,0,242.864,0,364.297,0c169.126,0,338.251,0,507.376,0c189.604,0,379.209,0,568.813,0
				c182.869,0,365.737,0,548.606,0c148.919,0,297.837,0,446.756,0c87.755,0,175.51,0,263.265,0c12.438,0,24.875,0,37.313,0
				c0.137,0,0.25-0.113,0.25-0.25c0-128.521,0-257.04,0-385.561c0-123.73,0-247.461,0-371.192c0-0.322-0.5-0.322-0.5,0
				c0,128.52,0,257.041,0,385.56c0,24.108-0.118,370.942,0.112,370.942c-49.168,0-98.337,0-147.505,0
				c-123.259,0-246.518,0-369.777,0c-170.136,0-340.271,0-510.407,0c-189.798,0-379.596,0-569.394,0c-182.246,0-364.492,0-546.738,0
				c-147.48,0-294.96,0-442.439,0c-85.5,0-170.999,0-256.498,0c-3.295,0-32.854,0.601-32.854-0.499c0-58.304,0-116.608,0-174.912
				c0-89.364,0-178.729,0-268.093c0-23.976,0-47.951,0-71.926c0-1.62,0-3.24,0-4.86c0-1.687,23.799-11.811,26.688-13.396
				c22.507-12.353,43.454-27.431,63.368-43.58c93.514-75.835,165.415-178.627,227.605-280.602
				c47.52-77.919,93.176-160.221,124.585-246.2c0.969-2.652,1.894-5.32,2.794-7.996c0.99-2.939,18.806,2.838,20.976,3.471
				c16.3,4.757,31.359,13.186,45.405,22.562c28.114,18.768,51.925,43.664,75.063,68.07c21.226,22.389,41.852,45.546,65.557,65.391
				c28.018,23.456,61.995,41.572,93.346,60.152c73.875,43.783,150.239,76.961,233.36,98.585
				c82.814,21.544,166.948,38.572,251.8,49.756c86.531,11.405,173.648,16.95,260.926,16.699
				c79.706-0.229,161.234-2.213,239.047-21.016c119.23-28.811,219.102-100.224,296.871-193.537
				c36.629-43.95,68.229-91.888,97.77-140.803c14.834-24.563,29.076-49.481,43.2-74.458c6.653-11.767,13.269-23.556,19.898-35.336
				c6.097-10.833,12.619-6.377,22.579-1.56c9.718,4.7,18.581,11.169,27.028,17.817c28.017,22.047,50.255,50.576,75.95,75.112
				c28.27,26.993,59.974,49.624,91.275,72.878c33.859,25.154,65.006,53.588,99.064,78.51
				c33.908,24.813,69.417,47.379,105.027,69.644c47.157,29.483,94.714,58.346,140.24,90.334
				c15.92,11.186,29.018,19.728,47.827,25.085c25.351,7.22,52.267,9.209,78.499,8.455C2871.803,450,2871.803,449.5,2871.48,449.509z
				"/>
		</g>
	</g>
	<polygon fill="#B5BDC4" stroke="#5B5753" stroke-width="0.1" stroke-miterlimit="10" points="436.057,88.068 424.199,121.211 
		407.634,160.48 368.972,239.96 436.057,199.602 500.316,197.602 530.588,174.456 556.439,161.514 510.883,121.211 476.101,100.499 
			"/>
	<polyline fill="#A78FC5" stroke="#5B5753" stroke-width="0.1" stroke-miterlimit="10" points="374.049,234.96 331.119,302.554 
		311.728,350.644 355.89,310.202 423.66,289.74 493.284,277.043 523.555,234.96 561.515,223.878 646.574,251.561 610.162,209.206 
		553.392,156.805 503.881,194.892 441.131,197.602 	"/>
	<polyline fill="#BCA8D3" stroke="#5B5753" stroke-width="0.1" stroke-miterlimit="10" points="2183.822,0.023 2152.617,55.362 
		2121.221,118.701 2183.822,83.802 2220.691,82.212 2276.643,59.201 2248.777,25.9 	"/>
	<polyline fill="#9F8EBC" stroke="#5B5753" stroke-width="0.1" stroke-miterlimit="10" points="2124.323,114.553 2079.506,183.079 
		2147.486,148.816 2222.15,138.503 2276.643,128.96 2311.721,95.32 2276.643,59.201 2232.242,74.884 2191.333,79.655 	"/>
	<path fill="#917CBA" stroke="#5B5753" stroke-width="0.1" stroke-miterlimit="10" d="M2310.451,95.32l-35.078,33.641
		l-129.155,19.855l-67.979,34.263c0,0-4.896,31.27-63.426,91.344c1.088,2.615,1.99,5.229,2.592,7.897
		c1.193,1.643,1.912,3.501,1.879,5.479c0.246,0.503,0.463,1.022,0.6,1.566c0.67,2.634,1.429,5.198,2.085,7.789
		c1.933,3.673,2.888,7.455,3.982,11.32c4.37,10.308,8.718,20.622,12.853,30.991c0.41,1.032,0.629,2.014,0.713,2.955
		c0.501,0.756,0.916,1.554,1.178,2.413c0.146,0.467,0.3,0.926,0.449,1.39c2.229,4.059,3.787,8.266,5.166,12.521
		c0.65,0.91,1.193,1.928,1.574,3.088c5.734,17.487,17.006,33.315,24.218,50.399c0.288,0.676,0.47,1.327,0.611,1.966l176.013-51.091
		l131.672-132.292l60.559-21.456L2310.451,95.32z"/>
</g>
<g id="набросок">
</g>
</svg>
