<?xml version="1.0" encoding="utf-8"?>
<!-- Generator: Adobe Illustrator 16.0.2, SVG Export Plug-In . SVG Version: 6.00 Build 0)  -->
<!DOCTYPE svg PUBLIC "-//W3C//DTD SVG 1.1//EN" "http://www.w3.org/Graphics/SVG/1.1/DTD/svg11.dtd">
<svg version="1.1" id="Слой_1" xmlns="http://www.w3.org/2000/svg" xmlns:xlink="http://www.w3.org/1999/xlink" x="0px" y="0px"
	 width="299.453px" height="389.412px" viewBox="0 0 299.453 389.412" enable-background="new 0 0 299.453 389.412"
	 xml:space="preserve">
<g>
	<path fill-rule="evenodd" clip-rule="evenodd" fill="#F2F2F2" d="M281.29,389.412c-87.719,0-175.438,0-263.157,0
		c-5.46-2.006-10.108-4.981-13.283-10.097c-3.763-6.06-4.838-12.7-4.839-19.631C0,302.263,0.004,244.842,0.005,187.42
		c0-1.014-0.021-2.029,0.023-3.042c0.769-17.785,8.911-26.251,26.183-26.987c2.335-0.099,2.665-1.014,2.652-2.976
		c-0.065-10.14-0.092-20.282-0.011-30.422c0.078-9.643,0.594-19.297,3.035-28.651C45.098,44.72,76.661,12.907,128.292,1.888
		c4.048-0.864,8.193-1.269,12.293-1.888c6.084,0,12.169,0,18.254,0c6.686,1.251,13.492,1.738,20.114,3.425
		c25.787,6.57,47.106,20.208,63.868,40.776c16.123,19.785,25.211,42.515,27.199,68.021c1.075,13.799,0.465,27.621,0.488,41.431
		c0.005,3.069,0.908,3.956,3.849,3.722c5.302-0.422,10.382,0.358,14.699,3.849c7.624,6.163,10.304,14.583,10.316,23.915
		c0.083,58.815,0.143,117.63-0.038,176.444C299.296,374.416,294.472,384.785,281.29,389.412z M149.72,157.331
		c22.307,0,44.613-0.069,66.918,0.076c3.238,0.022,3.988-0.957,3.931-4.042c-0.189-10.135-0.104-20.277-0.06-30.416
		c0.027-6.627-0.783-13.129-2.428-19.547c-9.553-37.289-48.111-60.332-85.293-50.954c-30.756,7.759-52.962,35.352-53.759,67.095
		c-0.282,11.273,0.026,22.56-0.174,33.837c-0.056,3.103,0.729,4.047,3.944,4.026C105.106,157.263,127.413,157.331,149.72,157.331z
		 M125.607,300.723c0,8.36-0.094,16.724,0.028,25.082c0.115,7.894,4.773,12.466,12.633,12.544c7.22,0.072,14.442,0.027,21.663,0.015
		c9.548-0.018,13.871-4.358,13.885-13.992c0.021-15.202,0.086-30.405-0.053-45.605c-0.034-3.693,0.427-6.855,3.197-9.634
		c1.95-1.955,3.092-4.618,4.009-7.256c4.481-12.878,2.313-24.648-6.985-34.531c-9.691-10.3-22.216-12.093-35.049-8.199
		c-22.238,6.749-29.841,33.658-15.106,51.715c1.295,1.587,1.826,3.15,1.807,5.159C125.557,284.253,125.603,292.488,125.607,300.723z
		"/>
	<linearGradient id="SVGID_1_" gradientUnits="userSpaceOnUse" x1="78.8525" y1="103.8818" x2="220.5713" y2="103.8818">
		<stop  offset="0" style="stop-color:#FFFFFF;stop-opacity:0"/>
		<stop  offset="1" style="stop-color:#000000;stop-opacity:0"/>
	</linearGradient>
	<path fill-rule="evenodd" clip-rule="evenodd" fill="url(#SVGID_1_)" d="M149.72,157.331c-22.307,0-44.614-0.068-66.92,0.076
		c-3.216,0.021-4-0.923-3.944-4.026c0.2-11.277-0.108-22.563,0.174-33.837c0.796-31.744,23.002-59.336,53.759-67.095
		c37.182-9.378,75.74,13.665,85.293,50.954c1.645,6.417,2.455,12.92,2.428,19.547c-0.044,10.139-0.13,20.281,0.06,30.416
		c0.058,3.085-0.692,4.064-3.931,4.042C194.333,157.262,172.026,157.331,149.72,157.331z"/>
	<linearGradient id="SVGID_2_" gradientUnits="userSpaceOnUse" x1="116.2354" y1="277.8174" x2="183.2158" y2="277.8174">
		<stop  offset="0" style="stop-color:#FFFFFF;stop-opacity:0"/>
		<stop  offset="1" style="stop-color:#000000;stop-opacity:0"/>
	</linearGradient>
	<path fill-rule="evenodd" clip-rule="evenodd" fill="url(#SVGID_2_)" d="M125.605,300.723c-0.002-8.234-0.048-16.47,0.03-24.703
		c0.019-2.009-0.511-3.572-1.807-5.159c-14.735-18.057-7.132-44.966,15.106-51.715c12.833-3.894,25.358-2.101,35.049,8.199
		c9.299,9.883,11.467,21.653,6.985,34.531c-0.917,2.638-2.059,5.301-4.009,7.256c-2.771,2.778-3.231,5.94-3.197,9.634
		c0.139,15.2,0.073,30.403,0.053,45.605c-0.014,9.634-4.337,13.975-13.885,13.992c-7.221,0.013-14.443,0.058-21.663-0.015
		c-7.859-0.078-12.518-4.65-12.633-12.544C125.513,317.446,125.607,309.083,125.605,300.723z"/>
</g>
</svg>
