<?xml version="1.0" encoding="utf-8"?>
<!-- Generator: Adobe Illustrator 16.0.2, SVG Export Plug-In . SVG Version: 6.00 Build 0)  -->
<!DOCTYPE svg PUBLIC "-//W3C//DTD SVG 1.1//EN" "http://www.w3.org/Graphics/SVG/1.1/DTD/svg11.dtd">
<svg version="1.1" xmlns="http://www.w3.org/2000/svg" xmlns:xlink="http://www.w3.org/1999/xlink" x="0px" y="0px"
	 width="2863.006px" height="1518.687px" viewBox="0 0 2863.006 1518.687" enable-background="new 0 0 2863.006 1518.687"
	 xml:space="preserve">
<g id="Слой_2">
</g>
<g id="Слой_1">
	<g id="дракон">
	</g>
	<g>
		<linearGradient id="SVGID_1_" gradientUnits="userSpaceOnUse" x1="418.1348" y1="1514.856" x2="418.1348" y2="1514.856">
			<stop  offset="0" style="stop-color:#61BFEE"/>
			<stop  offset="1" style="stop-color:#804049"/>
		</linearGradient>
		<path fill="url(#SVGID_1_)" d="M418.135,1514.856"/>
		<g>
			<path fill="#5B5753" d="M418.135,1515.106c0.322,0,0.322-0.5,0-0.5S417.813,1515.106,418.135,1515.106L418.135,1515.106z"/>
		</g>
	</g>
	<g>
		<linearGradient id="SVGID_2_" gradientUnits="userSpaceOnUse" x1="1681.5859" y1="1901.3208" x2="1138.7531" y2="-169.1016">
			<stop  offset="0" style="stop-color:#61BFEE"/>
			<stop  offset="1" style="stop-color:#804049"/>
		</linearGradient>
		<path fill="url(#SVGID_2_)" d="M518.682,1518.216h2340.201V363.44c-48.369,34.87-489.324,239.324-531.637,277.977
			c-14.234,13.003-28.471,42.259-42.705,48.762c-35.584,13.002-17.789,0-49.818-6.503c-46.266-3.25-67.611-9.751-103.199,9.753
			c-67.609,35.758-128.107,110.522-188.6,159.281c-17.797-52.011,3.557-107.27-24.914-162.531
			c-32.021-61.763-53.375-117.025-74.727-182.038c-46.259-149.53-56.938-302.31-88.964-455.091
			c-24.912,152.781-142.343-22.756-185.047-48.761c-17.792,71.515-7.114,149.53-24.909,224.296
			c-85.402-19.505-67.611,120.273-67.611,175.533c0,48.76,0,78.019-39.145,104.022c-39.144,26.005-60.495,19.504-78.287,68.264
			c-53.379,139.776-78.288,302.31-96.081,448.589c-67.614-16.253-110.313-123.523-156.575-175.534
			c-17.793-19.502-49.82-65.013-67.613-74.766c-39.145-29.254-32.026-3.25-78.289,6.504
			c-124.549,29.253-241.979-133.279-266.89-227.55c-49.82,29.259-71.171-22.753-103.198-39.008
			c-11.736-7.145-31.002-11.345-51.288-14.759c-0.511,32.885-2.348,65.753-5.194,98.544
			c-4.127,47.527-172.686,162.827-232.549,191.54C172.707,820.979-15.401,575.205,1.795,668.928c6.254,34.082,0,161.072,0,289.627
			c0,222.854-1.686,505.924-1.098,559.89"/>
		<g>
			<path fill="#5B5753" d="M518.682,1518.466c55.25,0,110.501,0,165.752,0c138.857,0,277.714,0,416.571,0
				c182.124,0,364.247,0,546.37,0c185.048,0,370.096,0,555.144,0c147.632,0,295.263,0,442.895,0c69.874,0,139.748,0,209.622,0
				c1.283,0,2.564,0,3.848,0c0.137,0,0.25-0.113,0.25-0.25c0-97.828,0-195.656,0-293.485c0-183.333,0-366.667,0-550
				c0-103.611,0-207.223,0-310.834c0-0.152,0-0.305,0-0.457c0-0.177-0.217-0.329-0.376-0.216
				c-20.751,14.776-44.812,25.714-67.374,37.34c-40.4,20.818-81.143,40.974-121.859,61.162
				c-88.824,44.041-178.129,87.292-265.691,133.818c-24.646,13.095-50.732,25.785-73.09,42.67
				c-21.578,16.295-28.086,45.856-55.445,54.876c-13.726,4.525-17.596-1.365-29.05-6.376c-14.079-6.159-32.031-5.084-47.104-6.273
				c-31.586-2.49-56.018,5.112-82.935,21.506c-32.019,19.501-59.985,45.417-87.109,71.052
				c-13.991,13.223-27.762,26.677-41.732,39.921c-6.8,6.445-13.684,12.8-20.634,19.083c-2.544,2.3-22.944,22.593-25.08,15.903
				c-12.558-39.329-3.541-82.395-11.16-122.659c-4.918-25.989-19.551-48.912-30.718-72.522
				c-12.017-25.407-22.771-51.391-32.762-77.654c-20.958-55.094-37.352-111.382-50.076-168.924
				c-25.826-116.789-38.026-236.082-62.376-353.163c-0.049-0.235-0.44-0.244-0.482,0c-3.861,22.476-11.015,57.717-38.637,61.408
				c-20.418,2.729-41.364-14.149-56.026-26.083c-18.465-15.029-34.999-32.367-51.65-49.329
				c-11.927-12.15-23.845-25.753-38.366-34.906c-0.134-0.084-0.33-0.005-0.367,0.149c-9.969,41.721-11.127,84.558-13.245,127.212
				c-1.169,23.516-2.929,46.963-6.423,70.261c-0.969,6.458-1.422,27.138-10.726,25.543c-5.139-0.88-10.354-0.894-15.526-0.408
				c-39.701,3.73-45.579,56.586-47.476,87.181c-1.45,23.388-0.388,46.87,0.421,70.26c0.93,26.909,2.761,55.766-4.897,81.832
				c-9.542,32.48-42.019,47.739-70.007,61.516c-23.705,11.668-34.639,29.102-43.842,53.386
				c-30.311,79.987-49.984,163.79-65.436,247.776c-7.745,42.102-14.16,84.441-19.977,126.849
				c-2.497,18.211-4.832,36.443-7.105,54.683c-0.187,1.499-0.445,14.712-4.498,13.651c-3.999-1.047-7.884-2.653-11.662-4.285
				c-6.915-2.987-13.276-7.164-19.363-11.553c-50.828-36.645-76.467-100.699-114.175-148.969
				c-18.021-23.068-37.032-46.274-56.778-67.876c-11.59-12.679-32.464-33.26-51.221-29.826
				c-11.541,2.112-22.603,12.028-33.646,16.031c-18.104,6.563-38.171,7.964-57.205,6.142
				c-38.988-3.732-74.496-24.936-103.979-49.512c-54.254-45.227-99.563-112.07-118.152-180.535
				c-0.043-0.159-0.227-0.227-0.367-0.149c-32.596,18.029-55.125,1.465-79.115-20.84c-22.051-20.502-45.661-27.856-75.179-32.952
				c-0.16-0.027-0.313,0.067-0.316,0.241c-0.39,21.934-1.312,43.837-2.696,65.729c-0.957,15.146,0.121,31.978-6.764,45.893
				c-9.44,19.084-26.78,34.828-42.186,49.052c-41.985,38.767-89.734,72.017-138.168,102.174
				c-17.998,11.205-38.256,26.444-59.704,29.077c-22.373,2.746-45.14-2.654-66.075-10.182
				c-46.744-16.807-88.254-47.162-127.618-76.753c-16.605-12.482-32.926-25.35-49.755-37.533
				c-10.025-7.258-20.745-15.472-32.699-19.259c-22.05-6.985-10.211,35.386-9.793,44.295c3.528,75.317-1.272,151.277-1.954,226.629
				c-0.727,80.187-0.285,160.395-0.505,240.584c-0.327,119.596-2.006,239.264-0.771,358.857c0.003,0.322,0.503,0.322,0.5,0
				c-1.138-110.237,0.365-220.541,0.691-330.78c0.231-78.26,0.355-156.52,0.41-234.779c0.057-80.793,3.763-161.615,2.635-242.402
				c-0.246-17.604-4.029-35.538-3.719-52.974c0.261-14.623,14.331-8.854,22.487-4.457c34.222,18.454,63.94,46.648,95.362,69.327
				c38.108,27.503,79.363,54.366,125.391,66.155c18.799,4.814,38.511,5.98,57.504,1.673c7.138-1.619,15.113-7.771,21.445-11.33
				c10.717-6.025,21.214-12.44,31.629-18.971c46.72-29.294,92.267-61.809,133.061-98.997c14.96-13.637,30.004-28.401,40.474-45.889
				c2.724-4.548,5.343-9.928,5.968-15.257c2.598-22.175,3.441-44.709,4.409-67.004c0.182-4.174-1.724-33.042,5.671-31.765
				c9.484,1.637,18.863,3.707,28.121,6.334c16.481,4.677,29.391,14.207,41.791,25.617c16.677,15.346,33.501,32.094,57.971,29.194
				c4.764-0.564,9.811-2.233,14.115-4.314c9.279-4.487,8.936,2.107,11.314,9.396c3.924,12.024,8.916,23.69,14.286,35.13
				c12.858,27.396,29.269,53.13,47.709,77.083c33.25,43.188,76.876,82.769,129.804,99.229c25.017,7.779,50.615,7.574,75.951,1.713
				c11.788-2.727,22.173-8.333,32.529-14.35c15.461-8.982,27.977-0.576,40.968,8.885c23.065,16.8,39.681,41.176,57.611,63.094
				c19.144,23.4,36.769,46.858,53.239,72.27c27.847,42.967,59.977,100.979,113.397,114.962c0.172,0.045,0.297-0.081,0.316-0.241
				c10.519-86.194,22.842-172.21,40.979-257.168c8.961-41.971,19.597-83.584,32.169-124.62c5.916-19.31,12.442-38.428,19.407-57.383
				c6.334-17.239,12.793-34.207,27.006-46.504c9.224-7.98,21.238-12.605,32.039-17.963c13.645-6.768,26.751-14.729,37.928-25.138
				c18.944-17.643,22.85-42.7,23.749-67.338c1.773-48.603-5.763-97.698,2.946-145.933c6.273-34.746,25.986-62.216,64.584-54.119
				c0.129,0.027,0.275-0.036,0.308-0.175c9.747-42.59,11.077-86.134,13.247-129.601c1.152-23.063,2.885-46.061,6.422-68.895
				c0.526-3.396,3.983-26.295,7.253-24.104c3.845,2.577,7.351,5.668,10.808,8.732c31.681,28.077,57.814,62.209,93.129,86.167
				c11.504,7.804,27.229,16.506,41.751,13.702c15.698-3.031,24.06-16.689,29.552-30.596c2.456-6.221,4.075-12.762,5.575-19.265
				c-0.002,0.009,1.693-11.891,2.872-6.221c1.134,5.45,2.217,10.91,3.302,16.369c4.68,23.562,8.849,47.223,12.856,70.907
				c7.664,45.281,14.447,90.708,21.852,136.031c16.615,101.707,38.351,201.428,75.063,297.938
				c7.629,20.053,15.929,39.842,24.72,59.411c10.65,23.711,24.659,46.517,33.078,71.104c15.748,45.992,1.813,96.136,16.599,142.442
				c0.062,0.191,0.271,0.229,0.418,0.11c61.503-50.063,111.896-114.521,180.925-155.031c15.668-9.194,31.762-15.756,49.947-17.34
				c16.841-1.467,34.108,1.211,50.863,2.646c10.011,0.857,19.249,2.158,27.921,7.459c2.231,1.365,4.21,3.61,6.702,4.516
				c8.357,3.036,20.457-2.163,27.58-6.03c19.867-10.784,27.268-38.126,45.443-51.573c9.285-6.869,19.439-12.639,29.431-18.396
				c34.448-19.847,69.954-37.903,105.362-55.957c90.57-46.181,182.059-90.529,272.934-136.103
				c32.48-16.289,65.057-32.517,96.83-50.16c2.898-1.609,21.594-10.013,21.594-13.393c0,2.354,0,4.707,0,7.061
				c0,119.746,0,239.491,0,359.237c0,182.119,0,364.238,0,546.357c0,62.815,0,125.632,0,188.447c0,15.312,0,30.623,0,45.935
				c0,4.261,1.771,7.405-1.973,7.405c-66.422,0-132.844,0-199.266,0c-145.592,0-291.184,0-436.774,0c-184.419,0-368.839,0-553.259,0
				c-182.906,0-365.813,0-548.721,0c-141.053,0-282.105,0-423.158,0c-58.857,0-117.716,0-176.574,0c-0.075,0-0.15,0-0.227,0
				C518.359,1517.966,518.359,1518.466,518.682,1518.466L518.682,1518.466z"/>
		</g>
	</g>
	<polygon fill="#B6A0C8" stroke="#000000" stroke-width="0.1" stroke-miterlimit="10" points="639.027,657.585 535.473,499.26 
		586.939,514.049 634.327,552.305 652.938,560.865 669.331,557.489 658.054,588.209 651.146,610.987 652.304,610.059 	"/>
	<polyline fill="#CCB5CB" stroke="#000000" stroke-width="0.1" stroke-miterlimit="10" points="535.473,499.26 532.801,564.505 
		511.873,614.441 495.084,650.848 554.309,648.327 562.246,672.975 629.54,683.107 639.027,657.585 	"/>
	<polygon fill="#C79BCA" stroke="#000000" stroke-width="0.1" stroke-miterlimit="10" points="1588.463,61.02 1601.505,101.461 
		1604.333,110.232 1604.333,178.259 1580.527,221.681 1551.957,257.866 1536.089,279.578 1536.089,237.603 1544.352,224.512 
		1556.015,127.452 1560.201,56.7 1569.264,0.216 	"/>
	<path fill="#A86D8C" stroke="#000000" stroke-width="0.1" stroke-miterlimit="10" d="M1637.664,155.1l12.698,98.425l-12.698,63.685
		l-67.452,75.265l-26.188,72.37l-22.221,39.08l-14.284-72.372l-17.459,20.265l-20.183,14.609l6.741-46.44l-0.399-41.999
		l-0.678-60.74c0,0-3.872-104.377,68.81-92.735l-8.263,13.09v41.975l44.438-57.896l23.806-43.422v-68.027L1637.664,155.1z"/>
	<polygon fill="#9F78A8" stroke="#000000" stroke-width="0.1" stroke-miterlimit="10" points="1637.664,311.419 1667.818,385.238 
		1650.362,482.213 1604.333,556.031 1536.089,648.663 1496.409,668.928 1505.932,576.295 1521.804,498.134 1544.024,459.056 
		1565.414,399.939 1582.115,373.402 	"/>
	<polyline fill="#A595AA" stroke="#000000" stroke-width="0.1" stroke-miterlimit="10" points="2556.213,518.193 2641.131,476.071 
		2767.225,413.179 2859.072,362.381 2862.956,442.562 2860.961,526.285 2858.883,591.807 2803.084,546.306 2755.185,595.447 
		2653.4,569.966 	"/>
	<path fill="#A595AA" stroke="#000000" stroke-width="0.1" stroke-miterlimit="10" d="M2572.564,427.988"/>
	<path fill="#A595AA" stroke="#000000" stroke-width="0.1" stroke-miterlimit="10" d="M2666.063,371.54"/>
	<polyline fill="#C89EB5" stroke="#000000" stroke-width="0.1" stroke-miterlimit="10" points="2612.696,490.174 2626.863,485.23 
		2752.955,422.338 2859.072,362.381 2848.688,451.722 2771.389,495.345 	"/>
	<polyline fill="#A36485" stroke="#000000" stroke-width="0.1" stroke-miterlimit="10" points="1769.167,127.452 1780.862,198.69 
		1795.527,290.271 1820.182,417.69 1796.377,389.585 1752.534,346.163 1726.542,307.077 1752.534,279.578 1735.896,237.608 
		1715.434,168.133 1735.896,146.421 1735.896,110.232 1724.239,108.202 1733.304,101.892 1746.767,79.236 1754.309,48.977 	"/>
</g>
<g id="набросок">
</g>
</svg>
