<?xml version="1.0" encoding="utf-8"?>
<!-- Generator: Adobe Illustrator 16.0.2, SVG Export Plug-In . SVG Version: 6.00 Build 0)  -->
<!DOCTYPE svg PUBLIC "-//W3C//DTD SVG 1.1//EN" "http://www.w3.org/Graphics/SVG/1.1/DTD/svg11.dtd">
<svg version="1.1" id="Слой_1" xmlns="http://www.w3.org/2000/svg" xmlns:xlink="http://www.w3.org/1999/xlink" x="0px" y="0px"
	 width="2843.15px" height="1697.949px" viewBox="0 0 2843.15 1697.949" enable-background="new 0 0 2843.15 1697.949"
	 xml:space="preserve">
<g id="background">
	
		<linearGradient id="SVGID_1_" gradientUnits="userSpaceOnUse" x1="-282.4805" y1="3869.386" x2="-149.5165" y2="903.7104" gradientTransform="matrix(1 0 0 -1 1619.9551 2852.0103)">
		<stop  offset="0" style="stop-color:#65A4D9"/>
		<stop  offset="1" style="stop-color:#270830"/>
	</linearGradient>
	
		<rect y="9.47" fill="url(#SVGID_1_)" stroke="#634E42" stroke-width="0.2" stroke-miterlimit="10" width="2843.15" height="1697.95"/>
</g>
<g id="bubbles" display="none">
	
		<linearGradient id="SVGID_2_" gradientUnits="userSpaceOnUse" x1="-1135.8354" y1="2582.2483" x2="-1127.0858" y2="2387.093" gradientTransform="matrix(1 0 0 -1 1619.9551 2852.0103)">
		<stop  offset="0" style="stop-color:#F0D0E5"/>
		<stop  offset="1" style="stop-color:#0083A4"/>
	</linearGradient>
	
		<circle display="inline" fill="url(#SVGID_2_)" stroke="#634E42" stroke-width="0.2" stroke-miterlimit="10" cx="487" cy="334" r="60"/>
	
		<linearGradient id="SVGID_3_" gradientUnits="userSpaceOnUse" x1="-692.3804" y1="1836.4905" x2="-685.0861" y2="1673.7983" gradientTransform="matrix(1 0 0 -1 1619.9551 2852.0103)">
		<stop  offset="0" style="stop-color:#F0D0E5"/>
		<stop  offset="1" style="stop-color:#0083A4"/>
	</linearGradient>
	
		<circle display="inline" fill="url(#SVGID_3_)" stroke="#634E42" stroke-width="0.2" stroke-miterlimit="10" cx="929.977" cy="1069.072" r="50.02"/>
	
		<linearGradient id="SVGID_4_" gradientUnits="userSpaceOnUse" x1="547.6211" y1="2729.5833" x2="554.9155" y2="2566.8879" gradientTransform="matrix(1 0 0 -1 1619.9551 2852.0103)">
		<stop  offset="0" style="stop-color:#F0D0E5"/>
		<stop  offset="1" style="stop-color:#0083A4"/>
	</linearGradient>
	
		<circle display="inline" fill="url(#SVGID_4_)" stroke="#634E42" stroke-width="0.2" stroke-miterlimit="10" cx="2169.977" cy="175.981" r="50.02"/>
	
		<linearGradient id="SVGID_5_" gradientUnits="userSpaceOnUse" x1="927.6211" y1="1539.0842" x2="934.9152" y2="1376.3937" gradientTransform="matrix(1 0 0 -1 1619.9551 2852.0103)">
		<stop  offset="0" style="stop-color:#F0D0E5"/>
		<stop  offset="1" style="stop-color:#0083A4"/>
	</linearGradient>
	
		<circle display="inline" fill="url(#SVGID_5_)" stroke="#634E42" stroke-width="0.2" stroke-miterlimit="10" cx="2549.977" cy="1366.479" r="50.02"/>
	
		<linearGradient id="SVGID_6_" gradientUnits="userSpaceOnUse" x1="1170.7759" y1="2247.0862" x2="1178.0702" y2="2084.3909" gradientTransform="matrix(1 0 0 -1 1619.9551 2852.0103)">
		<stop  offset="0" style="stop-color:#F0D0E5"/>
		<stop  offset="1" style="stop-color:#0083A4"/>
	</linearGradient>
	
		<circle display="inline" fill="url(#SVGID_6_)" stroke="#634E42" stroke-width="0.2" stroke-miterlimit="10" cx="2793.131" cy="658.479" r="50.02"/>
	
		<linearGradient id="SVGID_7_" gradientUnits="userSpaceOnUse" x1="-1318.8784" y1="1389.1584" x2="-1310.1285" y2="1193.9977" gradientTransform="matrix(1 0 0 -1 1619.9551 2852.0103)">
		<stop  offset="0" style="stop-color:#F0D0E5"/>
		<stop  offset="1" style="stop-color:#0083A4"/>
	</linearGradient>
	
		<circle display="inline" fill="url(#SVGID_7_)" stroke="#634E42" stroke-width="0.2" stroke-miterlimit="10" cx="303.957" cy="1527.092" r="60"/>
	
		<linearGradient id="SVGID_8_" gradientUnits="userSpaceOnUse" x1="77.1221" y1="2462.2502" x2="85.872" y2="2267.0896" gradientTransform="matrix(1 0 0 -1 1619.9551 2852.0103)">
		<stop  offset="0" style="stop-color:#F0D0E5"/>
		<stop  offset="1" style="stop-color:#0083A4"/>
	</linearGradient>
	
		<circle display="inline" fill="url(#SVGID_8_)" stroke="#634E42" stroke-width="0.2" stroke-miterlimit="10" cx="1699.957" cy="454" r="60"/>
	
		<linearGradient id="SVGID_9_" gradientUnits="userSpaceOnUse" x1="83.1133" y1="1323.887" x2="87.2662" y2="1231.257" gradientTransform="matrix(1 0 0 -1 1619.9551 2852.0103)">
		<stop  offset="0" style="stop-color:#F0D0E5"/>
		<stop  offset="1" style="stop-color:#0083A4"/>
	</linearGradient>
	
		<circle display="inline" fill="url(#SVGID_9_)" stroke="#634E42" stroke-width="0.2" stroke-miterlimit="10" cx="1704.436" cy="1558.613" r="28.478"/>
	
		<linearGradient id="SVGID_10_" gradientUnits="userSpaceOnUse" x1="321.6772" y1="1544.4993" x2="325.8302" y2="1451.8708" gradientTransform="matrix(1 0 0 -1 1619.9551 2852.0103)">
		<stop  offset="0" style="stop-color:#F0D0E5"/>
		<stop  offset="1" style="stop-color:#0083A4"/>
	</linearGradient>
	
		<circle display="inline" fill="url(#SVGID_10_)" stroke="#634E42" stroke-width="0.2" stroke-miterlimit="10" cx="1943" cy="1338" r="28.478"/>
	
		<linearGradient id="SVGID_11_" gradientUnits="userSpaceOnUse" x1="-458.3218" y1="2656.4983" x2="-454.1688" y2="2563.8689" gradientTransform="matrix(1 0 0 -1 1619.9551 2852.0103)">
		<stop  offset="0" style="stop-color:#F0D0E5"/>
		<stop  offset="1" style="stop-color:#0083A4"/>
	</linearGradient>
	
		<circle display="inline" fill="url(#SVGID_11_)" stroke="#634E42" stroke-width="0.2" stroke-miterlimit="10" cx="1163" cy="226" r="28.478"/>
	
		<linearGradient id="SVGID_12_" gradientUnits="userSpaceOnUse" x1="665.8501" y1="2342.4377" x2="693.85" y2="2158.4363" gradientTransform="matrix(1 0 0 -1 1619.9551 2852.0103)">
		<stop  offset="0" style="stop-color:#F0D0E5"/>
		<stop  offset="1" style="stop-color:#7A356A"/>
	</linearGradient>
	
		<circle display="inline" fill="url(#SVGID_12_)" stroke="#634E42" stroke-width="0.2" stroke-miterlimit="10" cx="2295" cy="570" r="60"/>
	
		<linearGradient id="SVGID_13_" gradientUnits="userSpaceOnUse" x1="-1031.1123" y1="1893.1956" x2="-1008.0515" y2="1741.6517" gradientTransform="matrix(1 0 0 -1 1619.9551 2852.0103)">
		<stop  offset="0" style="stop-color:#F0D0E5"/>
		<stop  offset="1" style="stop-color:#7A356A"/>
	</linearGradient>
	
		<circle display="inline" fill="url(#SVGID_13_)" stroke="#634E42" stroke-width="0.2" stroke-miterlimit="10" cx="596.416" cy="1008.584" r="49.416"/>
	
		<linearGradient id="SVGID_14_" gradientUnits="userSpaceOnUse" x1="-1448.5283" y1="2825.2327" x2="-1425.4677" y2="2673.6904" gradientTransform="matrix(1 0 0 -1 1619.9551 2852.0103)">
		<stop  offset="0" style="stop-color:#F0D0E5"/>
		<stop  offset="1" style="stop-color:#7A356A"/>
	</linearGradient>
	
		<circle display="inline" fill="url(#SVGID_14_)" stroke="#634E42" stroke-width="0.2" stroke-miterlimit="10" cx="179" cy="76.545" r="49.416"/>
</g>
<g id="sea_x5F_rocks">
	<g id="XMLID_2_">
		<g>
			
				<linearGradient id="SVGID_15_" gradientUnits="userSpaceOnUse" x1="953.5088" y1="1539.6292" x2="1232.0635" y2="1539.6292" gradientTransform="matrix(1 0 0 -1 1619.9551 2852.0103)">
				<stop  offset="0" style="stop-color:#211933"/>
				<stop  offset="1" style="stop-color:#433345"/>
			</linearGradient>
			<path fill="url(#SVGID_15_)" d="M2847.075,1221.509v169.06c-39.21-22.05-86.17,10.65-128.341,12.5
				c-46.22,1.88-97.399-11.279-145.271-13.16c13.21-9.398,24.761-20.68,37.971-26.318c6.601-3.762,26.409-3.762,31.359-9.4
				c9.909-9.4,3.311-20.67,8.26-31.95c8.25-13.159,23.11-16.92,34.66-20.68c8.261-3.76,19.811-1.88,28.069-5.641
				c18.16-5.641,4.95,0,18.16-15.04c14.851-16.909,28.061-31.949,52.82-13.149
				C2797.605,1238.488,2822.925,1230.559,2847.075,1221.509z"/>
			
				<linearGradient id="SVGID_16_" gradientUnits="userSpaceOnUse" x1="591.7725" y1="1883.2688" x2="1166.7402" y2="1883.2688" gradientTransform="matrix(1 0 0 -1 1619.9551 2852.0103)">
				<stop  offset="0" style="stop-color:#211933"/>
				<stop  offset="1" style="stop-color:#433345"/>
			</linearGradient>
			<path fill="url(#SVGID_16_)" d="M2746.275,1092.867c13.5,2.74,26.699,6.37,39.898,16.09l0.521,2.41
				c-0.631,0.16-1.211,0.301-1.761,0.41c-23.521,2.82-45.811-1.41-65.62-4.229c-18.149-1.96-34.49,5-49.439,14.659l-1.32-1.971
				c-21.039-8.46-55.71-16.909-77.989-21.14c-30.95-4.23-61.899-1.41-91.62-7.05c-32.18-4.23-60.66-23.972-92.851-25.381
				c-13.489-0.811-31.449-4.859-48.521-6.04l0.11-1.551c-6.19-15.5-7.301-14.96-24.631-19.188c2.471-12.69-4.949-9.87-7.431-16.92
				c-2.479-4.23-7.43-12.681-9.898-16.91c-9.91-14.101-21.051-22.561-37.15-29.61c-16.09-5.64-24.76-5.64-43.33-5.64
				c-8.629,0-16.01-2.38-23.109-4.931l0.529-1.479c-7.409-20.54,31.341-27.58,38.681-40.11c8.659-12.68,1.239-22.55,16.091-28.188
				c8.67-2.82,21.05,2.819,27.239,8.46c6.189-8.46,4.95-18.33,8.67-26.79c4.95-8.45,14.851-15.51,21.04-23.96
				c13.699-20.8,21.08-33.21,42.521-37.23c1.82-0.34,3.74-0.619,5.771-0.84c24.761-2.81,27.229,7.051,32.181,32.431
				c1.96,10.409,4.608,20.819,7.399,31.02c2.5,9.14,5.119,18.11,7.459,26.78h-0.01c11.53,14.568-1.07,42.92,3.721,62.02
				c4.959,18.33,10.83,59.29,29.399,62.12c1.07-8.43,8.78-17.2,7.75-25.46c7.42,0,35.899,21.141,44.56,28.19
				c14.86,12.688,16.102,23.97,37.15,21.148c1.23-12.688-16.1-36.659-1.24-36.659c9.9,1.409,21.04,23.971,33.42,29.609
				c13.62,7.051,27.24,8.46,40.86,11.28c11.14,1.399,23.521,7.04,34.66,7.04l1.239,1.409c30.949-5.64,43.33,14.101,70.569,21.149
				C2730.105,1089.918,2738.245,1091.238,2746.275,1092.867z"/>
			
				<linearGradient id="SVGID_17_" gradientUnits="userSpaceOnUse" x1="792.3027" y1="1958.467" x2="1126.3223" y2="1958.467" gradientTransform="matrix(1 0 0 -1 1619.9551 2852.0103)">
				<stop  offset="0" style="stop-color:#211933"/>
				<stop  offset="1" style="stop-color:#433345"/>
			</linearGradient>
			<path fill="url(#SVGID_17_)" d="M2523.375,959.648l2.811-0.12c-3.709-22.55,17.33-35.24,26-50.74
				c9.899-18.33,11.141-40.89,7.431-62.029c17.33,0,33.42-22.561,38.38-42.29c6.189-22.561-7.43-42.29-6.19-64.851
				c12.382-5.64,3.711-26.779,11.142-36.649c1.24,5.64,6.188,9.87,6.188,16.91c16.091,0,9.9-22.55,27.24-25.37
				c21.04-2.82,19.8,15.51,24.76,31.01c4.95,16.92,18.57,26.79,23.521,43.7c3.71,14.1,3.71,40.89,2.47,54.979
				c-18.57,0-4.95,23.971-3.71,35.25c17.33-1.41,14.86,22.551,19.812,38.062c8.67,32.42,14.858,56.39,1.238,88.81
				c-1.238,0-2.479-2.82-3.72-2.82c-4.95,26.79,1.24,40.881,17.34,57.802c11.021,13.948,19.61,33.409,28.19,51.568
				c-8.03-1.63-16.17-2.949-24.48-5.05c-27.24-7.05-39.62-26.79-70.568-21.15l-1.24-1.408c-11.142,0-23.521-5.642-34.66-7.04
				c-13.62-2.82-27.24-4.23-40.86-11.28c-12.38-5.641-23.52-28.2-33.42-29.61c-14.858,0,2.472,23.972,1.24,36.66
				c-21.05,2.82-22.29-8.46-37.149-21.149c-8.659-7.051-37.141-28.189-44.561-28.189c1.03,8.26-6.68,17.03-7.75,25.46
				c-18.57-2.83-24.439-43.79-29.4-62.12c-4.789-19.1,7.812-47.45-3.72-62.02h0.011c-2.341-8.67-4.961-17.642-7.461-26.78l0.03-0.01
				c1.24,1.409,17.33,14.1,22.29,16.92c16.09,7.05,23.521,1.409,38.38,15.51C2488.965,926.799,2505.625,944.907,2523.375,959.648z"
				/>
			
				<linearGradient id="SVGID_18_" gradientUnits="userSpaceOnUse" x1="635.7207" y1="1735.4124" x2="1049.9199" y2="1735.4124" gradientTransform="matrix(1 0 0 -1 1619.9551 2852.0103)">
				<stop  offset="0" style="stop-color:#211933"/>
				<stop  offset="1" style="stop-color:#433345"/>
			</linearGradient>
			<path fill="url(#SVGID_18_)" d="M2668.555,1120.238l1.32,1.97c-6.46,4.182-12.67,8.86-18.648,13.541
				c-9.9,8.459-21.041,16.92-32.19,21.149c-12.38,4.22-27.229,0-39.61,2.811c-26,5.641-49.529,15.511-78,12.689
				c-28.47-2.819-56.949-7.05-85.42-8.46c-2.1-0.14-4.188-0.25-6.29-0.311l0.102-2.511c-34.67-14.09-80.48-36.648-116.38-46.52
				c-11.142-2.82-27.24-1.41-34.66-11.271c-3.26-3.71-2.771-9.26-3.102-13.818c5.66-2.972,19.15-7.33,27.86-7.33
				c7.431,0,14.851,2.819,22.28,0c7.43-2.82,9.91-14.101,17.33-16.92c9.51-4.812,21.72-5.511,34.43-4.631
				c17.07,1.181,35.03,5.229,48.521,6.04c32.189,1.41,60.671,21.149,92.851,25.381c29.721,5.64,60.67,2.818,91.62,7.05
				C2612.845,1103.327,2647.516,1111.778,2668.555,1120.238z"/>
			
				<linearGradient id="SVGID_19_" gradientUnits="userSpaceOnUse" x1="553.541" y1="1609.2004" x2="709.5089" y2="1393.2444" gradientTransform="matrix(1 0 0 -1 1619.9551 2852.0103)">
				<stop  offset="0" style="stop-color:#142258"/>
				<stop  offset="1" style="stop-color:#332845"/>
			</linearGradient>
			<path fill="url(#SVGID_19_)" d="M2581.715,1429.378c29.721,3.761,66.04,0,94.102,11.279
				c-24.762,18.801-99.051,26.32-127.11,18.801c-23.11-5.641-36.32-18.801-59.43-3.761c-11.55,3.761-9.9,13.16-21.46,16.91
				c-8.25,1.88-21.46-1.87-29.71-1.87c0-1.88,1.648-3.76,1.648-7.52c-42.92-15.04-95.75-1.88-138.67,3.76c0,3.76,1.65,5.63,3.3,9.39
				c-24.76,11.28-62.729,3.761-89.14,1.881c-14.86,0-34.67,3.761-47.87-1.881c-18.16-5.63-24.77-18.789-39.62-31.949
				c-34.67-28.199-46.229,1.881-79.239,9.399c-15.189,3.71-38.949,3.351-59.539,0c-10.73-1.739-20.602-4.3-27.95-7.52
				c4.829-9.171,13.34-15.36,23.52-19.74c21.11-9.061,49.45-10.29,67.271-14.101c-6.601-3.76-11.562-11.271-18.16-13.149
				c11.56-20.681,29.71-16.92,46.22-7.521c39.62,9.399,87.5,3.761,130.42,3.761c44.57,0,90.79,3.76,135.36,7.52
				C2426.545,1408.698,2502.485,1418.099,2581.715,1429.378z"/>
			
				<linearGradient id="SVGID_20_" gradientUnits="userSpaceOnUse" x1="646.46" y1="1642.5627" x2="986.5303" y2="1642.5627" gradientTransform="matrix(1 0 0 -1 1619.9551 2852.0103)">
				<stop  offset="0" style="stop-color:#142258"/>
				<stop  offset="1" style="stop-color:#332845"/>
			</linearGradient>
			<path fill="url(#SVGID_20_)" d="M2606.485,1216.979c-24.771,3.75-51.181,0-75.94,5.63c4.95,1.88,8.25,7.521,11.562,9.4
				c-37.972,9.398-80.892-15.03-120.511-11.28c1.649,3.76,3.301,5.64,4.949,7.52c-31.37,1.881-102.35,0-125.46-18.789
				c3.3-1.881,9.9-3.761,14.86-7.521c-14.86-7.521-34.67-7.521-49.53-16.92c57.78-1.88,113.91,5.64,171.69,5.64
				C2490.925,1190.657,2556.955,1192.537,2606.485,1216.979z"/>
			
				<linearGradient id="SVGID_21_" gradientUnits="userSpaceOnUse" x1="387.2813" y1="1736.8303" x2="789.8613" y2="1736.8303" gradientTransform="matrix(1 0 0 -1 1619.9551 2852.0103)">
				<stop  offset="0" style="stop-color:#211933"/>
				<stop  offset="1" style="stop-color:#433345"/>
			</linearGradient>
			<path fill="url(#SVGID_21_)" d="M2255.675,1089.509c0.33,4.56-0.159,10.108,3.102,13.818c7.42,9.86,23.52,8.45,34.659,11.271
				c35.899,9.87,81.711,32.43,116.381,46.52l-0.102,2.511c-39.89-1.431-78.819,8.421-119.989,1.721
				c-19.811-2.82-108.569-4.23-124.659-4.23c0.528-18.489,0.199-38.729-1-55.05c-31.36,5.64-44.57,24.44-70.98,33.84
				c-22.8,7.42-66.479,9.352-75.58,40.062c-0.13-0.04-0.27-0.07-0.398-0.11c-0.73-24.68-3.722-43.7-9.871-59.62
				c5.801-3.97,12.74-7.31,20-9.88c6.551-2.33,13.351-4.03,19.83-5.01c1.681-0.25,3.33-0.46,4.95-0.61
				c4.96-1.41,12.38,2.812,17.341,0c4.948-2.819,6.188-15.51,12.379-19.74c22.28-19.738,54.471-11.278,80.471-19.738
				c12.38-4.23,23.521-18.32,39.62-14.091c13.61,2.819,23.52,18.319,34.659,26.779c6.189,4.23,12.381,0,17.33,5.642
				C2255.085,1085.028,2255.485,1087.139,2255.675,1089.509z"/>
			
				<linearGradient id="SVGID_22_" gradientUnits="userSpaceOnUse" x1="573.418" y1="2270.801" x2="641.4176" y2="1952.8015" gradientTransform="matrix(1 0 0 -1 1619.9551 2852.0103)">
				<stop  offset="0" style="stop-color:#211933"/>
				<stop  offset="1" style="stop-color:#433345"/>
			</linearGradient>
			<path fill="url(#SVGID_22_)" d="M2366.477,814.338l0.43,2.239c-21.44,4.021-28.82,16.431-42.521,37.23
				c-6.188,8.45-16.09,15.51-21.04,23.96c-3.72,8.46-2.479,18.33-8.67,26.79c-6.188-5.642-18.569-11.28-27.239-8.46
				c-14.851,5.64-7.431,15.51-16.091,28.188c-7.34,12.53-46.09,19.57-38.68,40.11l-0.53,1.479c-5.119-1.828-10.08-3.76-15.27-4.938
				c-9.9-1.41-27.23,4.229-37.141,7.05c-4.271,1.391-7.939,2.44-11.449,3.82c4.568-24.97,2.09-52.521-2.76-77.37
				c12.379-8.46,29.709-62.04,34.67-81.78c7.43-31.02,0-62.04,9.898-93.05c17.34-56.399,12.38-129.72,32.2-188.93
				c2.47,5.64,7.43,11.27,9.899,14.1c0-22.56-2.471-47.94,2.479-64.86c7.43,11.28,19.811,19.74,34.67,19.74
				c2.47-5.64,0.58-16.609,0.58-16.609c6.189-12.681,32.189,32.43,35.899,43.699c3.721,14.101,0,29.61,3.721,42.301
				c1.229,7.039,7.42,7.039,9.899,15.5c2.479,5.64,1.239,12.689,3.71,19.739c8.67,25.37,18.569,49.341,13.62,80.351
				c-4.95,29.609-8.66,56.39,6.188,87.399C2347.905,784.729,2359.055,800.238,2366.477,814.338z"/>
			
				<linearGradient id="SVGID_23_" gradientUnits="userSpaceOnUse" x1="427.1104" y1="1818.7893" x2="737.7295" y2="1818.7893" gradientTransform="matrix(1 0 0 -1 1619.9551 2852.0103)">
				<stop  offset="0" style="stop-color:#211933"/>
				<stop  offset="1" style="stop-color:#433345"/>
			</linearGradient>
			<path fill="url(#SVGID_23_)" d="M2148.275,971.809c3.51-1.38,7.18-2.431,11.449-3.82c9.909-2.819,27.239-8.46,37.141-7.05
				c5.188,1.18,10.149,3.11,15.27,4.939c7.102,2.551,14.48,4.931,23.11,4.931c18.569,0,27.239,0,43.33,5.64
				c16.1,7.051,27.239,15.511,37.149,29.61c2.471,4.229,7.42,12.68,9.899,16.91c2.479,7.05,9.899,4.229,7.43,16.92
				c17.33,4.229,18.44,3.688,24.631,19.188l-0.11,1.551c-12.709-0.88-24.92-0.181-34.43,4.631c-7.42,2.818-9.899,14.1-17.33,16.92
				c-7.431,2.819-14.851,0-22.279,0c-8.711,0-22.2,4.358-27.86,7.33c-0.189-2.37-0.591-4.48-1.859-5.92
				c-4.95-5.642-11.141-1.41-17.33-5.642c-11.141-8.46-21.05-23.96-34.659-26.779c-16.101-4.229-27.24,9.859-39.621,14.091
				c-26,8.46-58.188,0-80.47,19.738c-6.189,4.23-7.431,16.921-12.38,19.74c-4.96,2.812-12.38-1.41-17.34,0
				c-1.62,0.15-3.271,0.36-4.95,0.61c0-0.521,0.021-20.392,1.239-23.17c6.189-9.87,12.381-4.23,17.33-9.87
				c12.381-16.91-2.47-25.37,0-40.88c1.24-7.052,21.051-38.062,24.761-40.881c17.341-14.101,17.341,8.461,34.67,2.819
				c2.479,0,9.899-12.688,12.38-15.51C2141.215,974.997,2144.665,973.229,2148.275,971.809z"/>
			
				<linearGradient id="SVGID_24_" gradientUnits="userSpaceOnUse" x1="397.5479" y1="1699.7571" x2="545.354" y2="1699.7571" gradientTransform="matrix(1 0 0 -1 1619.9551 2852.0103)">
				<stop  offset="0" style="stop-color:#142258"/>
				<stop  offset="1" style="stop-color:#332845"/>
			</linearGradient>
			<path fill="url(#SVGID_24_)" d="M2164.064,1106.068c1.2,16.32,1.529,36.561,1,55.05c-0.209,7.08-0.539,13.9-1,20.142
				c-31.359,3.76-67.681,9.398-97.391,15.04l-0.85,2.14c-12.761-5.08-25.58-10.29-38.771-15.3c-2.829-1.17-6.068-2.21-9.55-3.17
				c9.101-30.71,52.78-32.642,75.58-40.062C2119.495,1130.509,2132.705,1111.707,2164.064,1106.068z"/>
			
				<linearGradient id="SVGID_25_" gradientUnits="userSpaceOnUse" x1="305.0498" y1="1992.6174" x2="407.2813" y2="1992.6174" gradientTransform="matrix(1 0 0 -1 1619.9551 2852.0103)">
				<stop  offset="0" style="stop-color:#211933"/>
				<stop  offset="1" style="stop-color:#433345"/>
			</linearGradient>
			<path fill="url(#SVGID_25_)" d="M2027.055,1108.957l0.182,1.4c-7.26,2.57-14.2,5.91-20,9.88
				c-5.23-13.56-12.75-24.88-23.102-35.52c-9.908-78.95-16.51-189.182-26.408-283.16c-7.25-65.98-23.32-131.95-32.722-199.4
				c6.722-0.7,53.32-3.609,59.13-3.609C2007.245,763.957,2020.455,951.068,2027.055,1108.957z"/>
			
				<linearGradient id="SVGID_26_" gradientUnits="userSpaceOnUse" x1="397.1504" y1="1671.4514" x2="397.5498" y2="1671.4514" gradientTransform="matrix(1 0 0 -1 1619.9551 2852.0103)">
				<stop  offset="0" style="stop-color:#F0D0E5"/>
				<stop  offset="1" style="stop-color:#7A356A"/>
			</linearGradient>
			<path fill="url(#SVGID_26_)" d="M2017.505,1179.969c-0.13,0.43-0.25,0.85-0.358,1.29c-0.012-0.472-0.03-0.94-0.041-1.4
				C2017.234,1179.898,2017.375,1179.929,2017.505,1179.969z"/>
			
				<linearGradient id="SVGID_27_" gradientUnits="userSpaceOnUse" x1="391.6094" y1="1672.1624" x2="397.1895" y2="1672.1624" gradientTransform="matrix(1 0 0 -1 1619.9551 2852.0103)">
				<stop  offset="0" style="stop-color:#F0D0E5"/>
				<stop  offset="1" style="stop-color:#7A356A"/>
			</linearGradient>
			<path fill="url(#SVGID_27_)" d="M2017.105,1179.858c0.01,0.46,0.028,0.93,0.039,1.4c-1.83-1.04-3.689-1.98-5.58-2.82
				C2013.465,1178.898,2015.314,1179.367,2017.105,1179.858z"/>
			
				<linearGradient id="SVGID_28_" gradientUnits="userSpaceOnUse" x1="328.5234" y1="1732.5432" x2="397.1504" y2="1732.5432" gradientTransform="matrix(1 0 0 -1 1619.9551 2852.0103)">
				<stop  offset="0" style="stop-color:#142258"/>
				<stop  offset="1" style="stop-color:#332845"/>
			</linearGradient>
			<path fill="url(#SVGID_28_)" d="M2017.105,1179.858c-1.791-0.49-3.642-0.96-5.541-1.42c-11.709-5.29-24.311-7.36-35.689-12.22
				c-4.35-2.48-7.51-4.23-9.84-5.74c-8.27-5.34-6.1-7.562-9.971-28.09c-3.299-20.681-13.199-60.15-3.299-73.312
				c12.549,8.682,22.908,16.932,31.368,25.642c10.351,10.64,17.87,21.96,23.101,35.52
				C2013.385,1136.157,2016.375,1155.179,2017.105,1179.858z"/>
			
				<linearGradient id="SVGID_29_" gradientUnits="userSpaceOnUse" x1="198.6436" y1="2304.6311" x2="234.6366" y2="1044.8851" gradientTransform="matrix(1 0 0 -1 1619.9551 2852.0103)">
				<stop  offset="0" style="stop-color:#242335"/>
				<stop  offset="1" style="stop-color:#2B404F"/>
			</linearGradient>
			<path fill="url(#SVGID_29_)" d="M1807.995,296.979c4.36-2.25,9.01-4.22,13.989-5.88c6.171-2.06,12.871-3.62,20.181-4.58
				c20.79,78.899,30.67,165.05,39.181,251.92c7.709,78.7,14.301,158,26.851,233.04c19.81,131.58,33.02,292.939,42.92,413.24
				l0.739,0.029c-0.26,5.399,0.029,10.819,0.91,15.311c1.819,9.67,5.199,16.04,9.899,19.939
				c-16.51,37.601,18.17,160.511,21.47,205.619l0.41,0.94c-10.18,4.38-18.688,10.569-23.52,19.74c7.35,3.22,17.22,5.778,27.949,7.52
				c-56.011,42.54-179.83,16.92-252.459,46.99c0-3.681-0.262-8.55-0.711-14.312c0-0.01,0-0.028,0-0.05
				c-0.319-89.108-10.539-202.46-12.5-233.76c-1.859-29.71-0.569-67.8-7.41-98.05c-1.771-27.472-3.649-54.94-5.609-82.4
				c-4.689-65.63-9.811-131.2-14.77-196.7c-12.16-160.61-23.4-320.76-25.031-480l-0.01-0.18
				C1742.955,390.367,1755.005,324.178,1807.995,296.979z"/>
			
				<linearGradient id="SVGID_30_" gradientUnits="userSpaceOnUse" x1="342.7188" y1="1683.0881" x2="391.6094" y2="1683.0881" gradientTransform="matrix(1 0 0 -1 1619.9551 2852.0103)">
				<stop  offset="0" style="stop-color:#F0D0E5"/>
				<stop  offset="1" style="stop-color:#7A356A"/>
			</linearGradient>
			<path fill="url(#SVGID_30_)" d="M2011.564,1178.438c-18.069-4.39-40.129-7.88-48.891-17.86l0.061-1.17
				c1.011,0.05,2.091,0.432,3.24,1.17l0.061-0.1c2.33,1.51,5.49,3.26,9.84,5.74
				C1987.255,1171.077,1999.855,1173.148,2011.564,1178.438z"/>
			
				<linearGradient id="SVGID_31_" gradientUnits="userSpaceOnUse" x1="261.3887" y1="1996.0774" x2="364.1777" y2="1996.0774" gradientTransform="matrix(1 0 0 -1 1619.9551 2852.0103)">
				<stop  offset="0" style="stop-color:#211933"/>
				<stop  offset="1" style="stop-color:#433345"/>
			</linearGradient>
			<path fill="url(#SVGID_31_)" d="M1962.734,1159.407c-6.5-0.37-10.271,12.42-10.879,25.34l-0.74-0.028
				c-9.9-120.302-23.11-281.66-42.92-413.24c-12.551-75.04-19.142-154.34-26.852-233.04l0.44-0.04
				c9.899-7.52,26.409-11.28,36.319-11.28c0.891,25.261,3.439,50.25,6.899,75.04c9.399,67.45,25.471,133.42,32.721,199.4
				c9.899,93.979,16.5,204.21,26.409,283.16c-8.46-8.71-18.818-16.96-31.369-25.642c-9.9,13.16,0,52.63,3.301,73.312
				c3.869,20.529,1.699,22.75,9.97,28.09l-0.061,0.1C1964.825,1159.839,1963.745,1159.457,1962.734,1159.407z"/>
			
				<linearGradient id="SVGID_32_" gradientUnits="userSpaceOnUse" x1="331.8081" y1="1625.967" x2="799.9902" y2="1625.967" gradientTransform="matrix(1 0 0 -1 1619.9551 2852.0103)">
				<stop  offset="0" style="stop-color:#142258"/>
				<stop  offset="1" style="stop-color:#332845"/>
			</linearGradient>
			<path fill="url(#SVGID_32_)" d="M1962.675,1160.577c8.761,9.98,30.82,13.472,48.892,17.86c1.89,0.84,3.75,1.78,5.58,2.82
				c0.108-0.44,0.229-0.86,0.358-1.29c3.479,0.96,6.722,2,9.55,3.17c13.19,5.01,26.012,10.22,38.771,15.3
				c25.58,10.17,50.9,19.78,78.439,26.05c41.261,9.4,82.529,9.4,122.149,18.8c39.62,11.28,75.94,24.44,113.91,30.08
				c13.2,3.761,28.06,3.761,39.62,11.271c-75.94,26.318-155.18-20.67-231.11-16.91c-24.771,1.88-90.8,9.399-112.26-13.16
				c-11.55-15.04-1.65-39.479-31.36-45.109c-16.51-1.881-31.37,9.391-47.88,13.149c-14.62,3.57-26.59,4.13-34.67-2.61
				c-4.7-3.898-8.08-10.27-9.899-19.938c-0.881-4.49-1.171-9.91-0.91-15.312c0.609-12.92,4.381-25.709,10.881-25.34
				L1962.675,1160.577z"/>
			
				<linearGradient id="SVGID_33_" gradientUnits="userSpaceOnUse" x1="-71.73" y1="1283.4309" x2="-35.7301" y2="2715.4253" gradientTransform="matrix(1 0 0 -1 1619.9551 2852.0103)">
				<stop  offset="0" style="stop-color:#211933"/>
				<stop  offset="1" style="stop-color:#433345"/>
			</linearGradient>
			<path fill="url(#SVGID_33_)" d="M1588.155,831.778c-0.07-0.04-0.14-0.1-0.21-0.149c0,3.76,0,0,0,3.76
				C1588.016,834.188,1588.085,832.979,1588.155,831.778z M1670.477,395.358l0.01,0.18c1.63,159.24,12.869,319.391,25.029,480
				c-9.131-1.5-19.921,1.21-28.33,1.21c3.301,11.28,0,26.312,6.601,37.592c-14.229,3.238-30.91,6.479-45.81,9.72l-0.41-1.88
				c0,0,0-0.102,0-0.32c0-3.06,0-27.21,0-33.83c-4.94,0-9.062,2.812-12.36,6.09c-42.7,24.761-86.3,30.12-133.5,32.011
				c-2.271-14.899,0.59-35.399,0.59-49.381c16.51,0,29.71-11.278,46.221-7.52c-15.739-35.84-7.471-88.74-12.381-119.66l1.841-0.28
				c-2.671-16.739-2.671-51.04-2.671-75.55c-29.71,0-26.409,30.07-19.81,56.391c-39.62,7.52-39.62-56.391-69.33-71.431
				c-22.051-10.76-65.12-7.83-91.98-7.55c0.09-27.46-0.38-55.65-2.47-82.359c33.51,35.81,101.649,22.239,147.28,22.239
				c3.3-26.319,0-52.63-3.311-78.95c-3.301-30.069-19.811-63.91-19.811-75.18c0-22.56,9.91-48.88,13.21-78.95
				c3.3-33.84,0-67.67,0-101.51l0.46-0.05c-0.46-4.33-0.46-9.16-0.46-14.98v-3.76c9.909-3.76,29.72-3.76,39.62-3.76
				c3.3,41.35,16.51,105.26,66.029,78.939c-3.3-18.789-6.601-41.35-9.899-60.149c9.899,3.76,19.811-3.76,29.71-3.76
				c-9.899-22.55-13.2-52.63-16.51-78.94c9.189,0,26.879-3.229,34.67-3.7c-0.5-11.27-1.041-22.489-1.641-33.64
				c15.08,0.95,39.71-1,65.939-2.51c41.939-2.42,87.979-3.71,105.729,9.77c4.91,3.99,9.37,12.061,13.39,22.54
				c14.25,37.181,22.871,104.76,25.86,128.66c-4.979,1.66-9.63,3.63-13.989,5.88
				C1755.005,324.178,1742.955,390.367,1670.477,395.358z"/>
			
				<linearGradient id="SVGID_34_" gradientUnits="userSpaceOnUse" x1="52.9053" y1="2750.1819" x2="195.7998" y2="2750.1819" gradientTransform="matrix(1 0 0 -1 1619.9551 2852.0103)">
				<stop  offset="0" style="stop-color:#283A5F"/>
				<stop  offset="1" style="stop-color:#5E7979"/>
			</linearGradient>
			<path fill="url(#SVGID_34_)" d="M1815.755,158.698c-5.528,3.141-13.358,3.66-19.63,3.74c-4.02-10.479-8.479-18.55-13.391-22.54
				c-17.75-13.479-63.789-12.189-105.729-9.77c-0.76-28.07-6.3-56.141-3.22-84.21c23.109-7.521,49.52-3.761,75.939-3.761
				c0,11.271,6.601,37.591,3.301,48.87C1809.146,53.428,1802.545,117.338,1815.755,158.698z"/>
			
				<linearGradient id="SVGID_35_" gradientUnits="userSpaceOnUse" x1="67.6807" y1="2026.9006" x2="34.677" y2="1216.8192" gradientTransform="matrix(1 0 0 -1 1619.9551 2852.0103)">
				<stop  offset="0" style="stop-color:#142258"/>
				<stop  offset="1" style="stop-color:#332845"/>
			</linearGradient>
			<path fill="url(#SVGID_35_)" d="M1595.625,1218.938c0.74-31.32,3.23-61.79,8.28-90.95c12.28-21.53,54.68-28.13,76.479-21.92
				c20.132,6.55,30.24,25.23,35.511,48.57c4.67,72.76,8.511,145.55,10.711,218.35c0,31.44,6.93,83.931,9.198,113.46
				c0,0.021,0,0.04,0,0.05c0.222,60.69-4.149,110.13-18.868,114.7c-29.722,7.51-66.262,4.87-99.281,4.87
				c0-2.9-0.01-5.81-0.039-8.729c0,0,0,0,0-0.011C1616.484,1476.998,1592.715,1341.498,1595.625,1218.938z"/>
			
				<linearGradient id="SVGID_36_" gradientUnits="userSpaceOnUse" x1="95.9414" y1="1531.467" x2="115.8496" y2="1531.467" gradientTransform="matrix(1 0 0 -1 1619.9551 2852.0103)">
				<stop  offset="0" style="stop-color:#F0D0E5"/>
				<stop  offset="1" style="stop-color:#7A356A"/>
			</linearGradient>
			<path fill="url(#SVGID_36_)" d="M1723.305,1252.688c1.961,31.3,12.182,144.65,12.5,233.76c-2.27-29.529-9.199-82.02-9.199-113.46
				c-2.199-72.8-6.039-145.59-10.709-218.35C1722.734,1184.889,1721.445,1222.979,1723.305,1252.688z"/>
			
				<linearGradient id="SVGID_37_" gradientUnits="userSpaceOnUse" x1="34.1611" y1="2028.2678" x2="1.1574" y2="1218.1848" gradientTransform="matrix(1 0 0 -1 1619.9551 2852.0103)">
				<stop  offset="0" style="stop-color:#31242E"/>
				<stop  offset="1" style="stop-color:#796386"/>
			</linearGradient>
			<path fill="url(#SVGID_37_)" d="M1603.905,1127.988c-5.05,29.16-7.54,59.63-8.28,90.95c-5.141,0.17-9.811,0.59-14.07,1.25
				l-0.209-1.34c-2.899-36.2,1.811-86.8,5.239-124.062c0.49-5.31,0.95-10.34,1.36-15.028c3.3-67.67-36.32-97.75,39.619-109.03
				c-6.609-15.03-3.299-33.83-6.609-45.11c2.28-0.52,4.63-1.04,7.021-1.56c14.898-3.24,31.578-6.48,45.81-9.72
				c-6.601-11.28-3.3-26.312-6.601-37.592c8.41,0,19.199-2.71,28.33-1.21c4.961,65.5,10.08,131.07,14.771,196.7h-0.01
				c-13.2-26.32-36.49-60.148-49.7-86.47c-6.6,48.87-62.73,97.75-56.12,139.1
				C1604.266,1125.907,1604.085,1126.948,1603.905,1127.988z"/>
			
				<linearGradient id="SVGID_38_" gradientUnits="userSpaceOnUse" x1="-379.2305" y1="1860.6038" x2="8.0195" y2="1860.6038" gradientTransform="matrix(1 0 0 -1 1619.9551 2852.0103)">
				<stop  offset="0" style="stop-color:#142258"/>
				<stop  offset="1" style="stop-color:#332845"/>
			</linearGradient>
			<path fill="url(#SVGID_38_)" d="M1403.425,955.099c-26.61,4.38-54.819,17.96-77.96,34.43c-25.33,19.83-50.66,72.521-84.74,70.16
				c0.45-19.95,1.551-39.19,3.86-52.33c8.601-0.17,17.511-1.1,26.41-2.79c1.979-38.439,2.78-76.87,3.09-115.31
				c14.57,20.27,41.09,30.31,69.979,35.06c20.73,3.4,42.69,4.08,62.33,3.86c8.811-0.102,17.16-0.38,24.721-0.682
				c17.369-0.479,34.199-0.72,50.59-1.37c47.199-1.89,90.8-7.25,133.5-32.01c3.3-3.278,7.42-6.09,12.359-6.09
				c0,6.62,0,30.771,0,33.83c0,0.22,0,0.32,0,0.32l0.41,1.88c-2.391,0.52-4.74,1.04-7.021,1.56c3.312,11.28,0,30.08,6.61,45.11
				c-75.94,11.28-36.32,41.36-39.621,109.03c-0.409,4.688-0.869,9.72-1.359,15.028c-29.52-69.738-61.92-110.25-100.46-128.898
				c-21.7-10.521-45.351-14.102-71.521-12.07C1410.925,954.049,1407.195,954.488,1403.425,955.099z"/>
			
				<linearGradient id="SVGID_39_" gradientUnits="userSpaceOnUse" x1="-12.2002" y1="2719.5022" x2="-8.8887" y2="2719.5022" gradientTransform="matrix(1 0 0 -1 1619.9551 2852.0103)">
				<stop  offset="0" style="stop-color:#F0D0E5"/>
				<stop  offset="1" style="stop-color:#7A356A"/>
			</linearGradient>
			<path fill="url(#SVGID_39_)" d="M1611.055,132.378c0,0.09,0.012,0.17,0.012,0.26c-1.16-0.06-2.262-0.15-3.312-0.26
				C1608.655,132.378,1609.805,132.378,1611.055,132.378z"/>
			
				<linearGradient id="SVGID_40_" gradientUnits="userSpaceOnUse" x1="29.0127" y1="1280.9006" x2="65.0129" y2="2712.9055" gradientTransform="matrix(1 0 0 -1 1619.9551 2852.0103)">
				<stop  offset="0" style="stop-color:#142258"/>
				<stop  offset="1" style="stop-color:#332845"/>
			</linearGradient>
			<path fill="url(#SVGID_40_)" d="M1680.385,1106.068c-21.8-6.21-64.199,0.39-76.479,21.92c0.18-1.04,0.359-2.08,0.55-3.12
				c-6.61-41.35,49.521-90.229,56.12-139.1c13.21,26.32,36.5,60.149,49.699,86.47h0.011c1.96,27.46,3.84,54.931,5.61,82.4
				C1710.625,1131.299,1700.516,1112.617,1680.385,1106.068z"/>
			
				<linearGradient id="SVGID_41_" gradientUnits="userSpaceOnUse" x1="-44.3027" y1="1282.7424" x2="-8.3027" y2="2714.7429" gradientTransform="matrix(1 0 0 -1 1619.9551 2852.0103)">
				<stop  offset="0" style="stop-color:#142258"/>
				<stop  offset="1" style="stop-color:#332845"/>
			</linearGradient>
			<path fill="url(#SVGID_41_)" d="M1595.625,1218.938c-2.91,122.561,20.859,258.061,21.99,378.39
				c-9.92-30.079-42.881-92.76-56.09-126.59c-16.5-45.12-16.5-75.188-16.5-124.069c-2.99-68.199-19.57-117.851,36.529-126.479
				C1585.814,1219.528,1590.484,1219.108,1595.625,1218.938z"/>
			
				<linearGradient id="SVGID_42_" gradientUnits="userSpaceOnUse" x1="-32.0098" y1="2018.5022" x2="-31.7998" y2="2018.5022" gradientTransform="matrix(1 0 0 -1 1619.9551 2852.0103)">
				<stop  offset="0" style="stop-color:#F0D0E5"/>
				<stop  offset="1" style="stop-color:#7A356A"/>
			</linearGradient>
			<path fill="url(#SVGID_42_)" d="M1587.945,831.628c0.069,0.05,0.14,0.109,0.209,0.149c-0.069,1.2-0.14,2.41-0.209,3.61
				C1587.945,831.628,1587.945,835.388,1587.945,831.628z"/>
			
				<linearGradient id="SVGID_43_" gradientUnits="userSpaceOnUse" x1="-286.5801" y1="2062.6331" x2="-91.4395" y2="2062.6331" gradientTransform="matrix(1 0 0 -1 1619.9551 2852.0103)">
				<stop  offset="0" style="stop-color:#142258"/>
				<stop  offset="1" style="stop-color:#332845"/>
			</linearGradient>
			<path fill="url(#SVGID_43_)" d="M1516.135,749.568c4.91,30.92-3.359,83.82,12.381,119.66c-16.511-3.76-29.711,7.521-46.221,7.521
				c0,13.979-2.859,34.479-0.59,49.38c-16.391,0.649-33.22,0.891-50.59,1.37c-7.561,0.301-15.91,0.579-24.721,0.681l-0.039-2.562
				c0-63.909,3.3-135.34-6.601-199.25c-8.46,3.211-64.979-10.01-64.979-6.949l-1.4-0.021c0.23-21.25,0.73-44.479,0.811-68.25
				c26.859-0.28,69.93-3.21,91.979,7.55c29.71,15.04,29.71,78.95,69.33,71.431c-6.601-26.32-9.899-56.391,19.81-56.391
				c0,24.511,0,58.811,2.672,75.55L1516.135,749.568z"/>
			
				<linearGradient id="SVGID_44_" gradientUnits="userSpaceOnUse" x1="-131.6025" y1="1433.0764" x2="-127.3008" y2="1433.0764" gradientTransform="matrix(1 0 0 -1 1619.9551 2852.0103)">
				<stop  offset="0" style="stop-color:#F0D0E5"/>
				<stop  offset="1" style="stop-color:#7A356A"/>
			</linearGradient>
			<path fill="url(#SVGID_44_)" d="M1488.896,1418.099c6.879,0,2.619,1.81,0.479,1.66
				C1488.425,1419.698,1487.885,1419.248,1488.896,1418.099z"/>
			
				<linearGradient id="SVGID_45_" gradientUnits="userSpaceOnUse" x1="-134.7388" y1="1608.9309" x2="-88.2314" y2="1608.9309" gradientTransform="matrix(1 0 0 -1 1619.9551 2852.0103)">
				<stop  offset="0" style="stop-color:#142258"/>
				<stop  offset="1" style="stop-color:#332845"/>
			</linearGradient>
			<path fill="url(#SVGID_45_)" d="M1489.375,1419.759c2.141,0.148,6.4-1.66-0.479-1.66c-6.4-36.471-3.142-76.08-0.041-114.76
				c1.689-21.142,3.34-42.012,3.34-61.932c0-56.39-6.601-120.3,3.301-176.688c46.23,3.76,36.32,296.988,33.021,353.38
				c-9.712,0-27.771,4.06-39.271,3.229L1489.375,1419.759z"/>
			
				<linearGradient id="SVGID_46_" gradientUnits="userSpaceOnUse" x1="-304.8525" y1="1535.2952" x2="-130.5801" y2="1535.2952" gradientTransform="matrix(1 0 0 -1 1619.9551 2852.0103)">
				<stop  offset="0" style="stop-color:#142258"/>
				<stop  offset="1" style="stop-color:#332845"/>
			</linearGradient>
			<path fill="url(#SVGID_46_)" d="M1488.896,1418.099c-1.012,1.149-0.472,1.6,0.479,1.66l-0.13,1.568
				c-4.15-0.31-7.44-1.238-9.19-3.229l0.2-0.83c-7.92-1.84-19.858-5.9-27.68-2.93c3.3-7.521-3.3-22.552-3.3-30.07
				c-59.431-18.8-16.511,48.87-36.32,71.43c-9.801,11.171-68.15,0.221-82.13,0c0.46-6.909,0.89-13.79,1.25-20.68
				c1.649-16.92,1.649-37.59-3.311-50.75c-1.649-1.88-11.55-1.88-13.2-9.4c-1.649-5.64,1.65-15.04,1.65-22.56
				c1.24-57.73,3.4-116.521,2.32-174.79l0.979-0.021c102.351-41.35,51.54,201.25,168.341,125.841
				C1485.755,1342.019,1482.495,1381.628,1488.896,1418.099z"/>
			
				<linearGradient id="SVGID_47_" gradientUnits="userSpaceOnUse" x1="-216.5303" y1="1852.4426" x2="-133.8301" y2="1852.4426" gradientTransform="matrix(1 0 0 -1 1619.9551 2852.0103)">
				<stop  offset="0" style="stop-color:#31242E"/>
				<stop  offset="1" style="stop-color:#796386"/>
			</linearGradient>
			<path fill="url(#SVGID_47_)" d="M1485.595,978.247c3.302,37.602-13.21,86.472-56.13,60.15c-22.209-14.45-23.07-56.68-26.04-83.3
				c3.771-0.61,7.5-1.05,11.181-1.28c26.17-2.03,49.819,1.55,71.52,12.07l-0.53,1.08
				C1485.595,971.559,1485.595,974.747,1485.595,978.247z"/>
			
				<linearGradient id="SVGID_48_" gradientUnits="userSpaceOnUse" x1="-286.7075" y1="2028.425" x2="-213.0718" y2="2028.425" gradientTransform="matrix(1 0 0 -1 1619.9551 2852.0103)">
				<stop  offset="0" style="stop-color:#142258"/>
				<stop  offset="1" style="stop-color:#332845"/>
			</linearGradient>
			<path fill="url(#SVGID_48_)" d="M1334.775,719.418c0-3.061,56.52,10.159,64.979,6.949c9.9,63.91,6.601,135.34,6.601,199.25
				l0.039,2.562c-19.64,0.22-41.6-0.46-62.33-3.86v-0.01c6.61-45.11,9.471-107.71,6.16-156.59c-6.6,0-9.899,0-16.5,0
				c-0.569-14.17-0.55-30.561-0.35-48.32L1334.775,719.418z"/>
			
				<linearGradient id="SVGID_49_" gradientUnits="userSpaceOnUse" x1="-403.2705" y1="2160.1272" x2="-268.3477" y2="2160.1272" gradientTransform="matrix(1 0 0 -1 1619.9551 2852.0103)">
				<stop  offset="0" style="stop-color:#323147"/>
				<stop  offset="1" style="stop-color:#2B404F"/>
			</linearGradient>
			<path fill="url(#SVGID_49_)" d="M1331.715,568.789c2.09,26.709,2.561,54.899,2.471,82.359c-0.08,23.77-0.58,47-0.811,68.25
				c-0.2,17.76-0.221,34.15,0.35,48.32c6.6,0,9.9,0,16.5,0c3.311,48.88,0.45,111.479-6.16,156.59v0.01
				c-28.89-4.75-55.41-14.79-69.979-35.06c0.21-25.472,0.21-50.94,0.21-76.42c-19.811,0-36.32,0-56.13-7.521l-1.48-0.03
				c0.86-43,3.05-85.87,8.921-126.989c0-0.03,0.01-0.061,0.01-0.09c0.369-2.61,0.76-5.2,1.16-7.791
				c60.51,12.41,50.779-87.279,47.52-120.739c0-29.101,7.32-55.42,21.98-78.95v-0.01c2.379-3.83,4.959-7.59,7.729-11.271
				C1320.595,485.599,1328.305,525.229,1331.715,568.789z"/>
			
				<linearGradient id="SVGID_50_" gradientUnits="userSpaceOnUse" x1="-357.2456" y1="1290.6135" x2="-321.2455" y2="2722.6138" gradientTransform="matrix(1 0 0 -1 1619.9551 2852.0103)">
				<stop  offset="0" style="stop-color:#142258"/>
				<stop  offset="1" style="stop-color:#332845"/>
			</linearGradient>
			<path fill="url(#SVGID_50_)" d="M1327.135,1529.479c0.25,3.45,3.141,5.33-0.02,8.92c-3.301,0-8.25-1.87-9.9,0
				c-18.16,5.641-104-1.87-113.91-16.91c-13.199-22.56,1.65-103.39,3.301-129.699c3.31-42.291,6.189-84.12,9.289-125.939
				c3.051-41.221,6.301-82.42,10.34-124.08l0.181,0.021c2.5,0.569,8.19,1.311,14.851,1.391c15.329,0.18,35.829-3.16,34.68-20.19
				c13.199-1.88,26.41-3.76,41.27-3.76c1.24,19.33,1.96,38.78,2.32,58.29c1.08,58.271-1.08,117.061-2.32,174.79
				c0,7.521-3.3,16.92-1.65,22.561c1.65,7.521,11.551,7.521,13.201,9.399c4.959,13.16,4.959,33.83,3.31,50.75
				c-0.36,6.891-0.79,13.771-1.25,20.681c-1.61,24.09-3.54,48.41-3.69,73.771V1529.479L1327.135,1529.479z"/>
			
				<linearGradient id="SVGID_51_" gradientUnits="userSpaceOnUse" x1="-399.3623" y1="1291.6731" x2="-363.3623" y2="2723.6724" gradientTransform="matrix(1 0 0 -1 1619.9551 2852.0103)">
				<stop  offset="0" style="stop-color:#142258"/>
				<stop  offset="1" style="stop-color:#332845"/>
			</linearGradient>
			<path fill="url(#SVGID_51_)" d="M1226.775,670.418c-0.131-0.021-0.26-0.051-0.391-0.07c2.71-28.01,11.59-122.07,11.59-150.75
				c-14.43,0-28.859,0-43.289,0c-3.301-71.43,16.879-172.93,16.879-251.88c42.92,18.8,33.011-15.03,29.711-45.11
				c13.209-3.76,26.41,0,39.619,7.521c0,45.109-6.6,82.699-13.209,124.06c46.229,7.52,35.189,75.18,28.59,116.53v0.01
				c-14.66,23.53-21.98,49.85-21.98,78.95C1277.555,583.138,1287.285,682.828,1226.775,670.418z"/>
			
				<linearGradient id="SVGID_52_" gradientUnits="userSpaceOnUse" x1="-392.2349" y1="1291.4915" x2="-356.2349" y2="2723.4873" gradientTransform="matrix(1 0 0 -1 1619.9551 2852.0103)">
				<stop  offset="0" style="stop-color:#142258"/>
				<stop  offset="1" style="stop-color:#332845"/>
			</linearGradient>
			<path fill="url(#SVGID_52_)" d="M1274.295,812.838c0,25.479,0,50.949-0.21,76.42c-0.31,38.438-1.11,76.869-3.09,115.31
				c-8.899,1.69-17.81,2.62-26.41,2.79c-10.54,0.21-20.63-0.72-29.72-2.79l-1.68-0.09c0.66-12.66,1.229-25.19,1.68-37.51
				c1.75-51.841,0.72-106.86,1.82-161.681l1.479,0.03C1237.975,812.838,1254.484,812.838,1274.295,812.838z"/>
			
				<linearGradient id="SVGID_53_" gradientUnits="userSpaceOnUse" x1="-449.9272" y1="2047.9895" x2="-482.9308" y2="1237.9087" gradientTransform="matrix(1 0 0 -1 1619.9551 2852.0103)">
				<stop  offset="0" style="stop-color:#142258"/>
				<stop  offset="1" style="stop-color:#332845"/>
			</linearGradient>
			<path fill="url(#SVGID_53_)" d="M1226.385,670.349c-0.439,4.53-0.72,7.33-0.77,7.86c0,0.029-0.01,0.06-0.01,0.09
				c-5.871,41.119-8.061,83.989-8.92,126.989c-1.101,54.82-0.07,109.84-1.82,161.681c-0.45,12.318-1.021,24.85-1.68,37.51
				c-4.07,78.64-11.261,162.42-11.521,233.04h-0.021c-0.24,93.53-9.89,215.43-9.89,293.37c-3.3,41.35-66.03,56.39-95.75,18.79
				c-19.81-26.312-3.3-157.892-3.3-195.49c3.029-79.42,8.85-187.399,30.25-262.729c1.81,11.521,3.56-0.801,4.72-15.261v-0.01
				c0.83-10.46,1.351-22.04,1.351-26.51c3.299-22.562,3.299-48.87,3.299-71.431c3.301-52.631,3.301-105.261,9.9-157.891
				c9.91-101.51,16.51-199.25,16.51-300.76c4.4,0,8.811,0,13.211,0c7.58,0,15.16,0,22.739,0c14.431,0,28.86,0,43.29,0
				C1237.975,548.278,1229.095,642.338,1226.385,670.349z"/>
			
				<linearGradient id="SVGID_54_" gradientUnits="userSpaceOnUse" x1="-394.3398" y1="2177.7307" x2="-393.1797" y2="2177.7307" gradientTransform="matrix(1 0 0 -1 1619.9551 2852.0103)">
				<stop  offset="0" style="stop-color:#F0D0E5"/>
				<stop  offset="1" style="stop-color:#7A356A"/>
			</linearGradient>
			<path fill="url(#SVGID_54_)" d="M1226.385,670.349c0.131,0.02,0.26,0.05,0.391,0.069c-0.4,2.591-0.791,5.181-1.16,7.791
				C1225.665,677.678,1225.945,674.877,1226.385,670.349z"/>
			
				<linearGradient id="SVGID_55_" gradientUnits="userSpaceOnUse" x1="-219.8716" y1="1099.3586" x2="-203.8715" y2="1587.3571" gradientTransform="matrix(1 0 0 -1 1619.9551 2852.0103)">
				<stop  offset="0" style="stop-color:#01233F"/>
				<stop  offset="1" style="stop-color:#26173D"/>
			</linearGradient>
			<path fill="url(#SVGID_55_)" d="M1226.234,1141.769c-4.039,41.66-7.289,82.859-10.34,124.08
				c-3.1,41.819-5.979,83.649-9.289,125.938c-1.65,26.312-16.5,107.142-3.301,129.7c9.91,15.04,95.75,22.55,113.91,16.91
				c1.65-1.87,6.6,0,9.9,0c3.16-3.59,0.27-5.47,0.02-8.92v-0.01c0.15-25.36,2.08-49.682,3.69-73.771
				c13.979,0.22,72.329,11.17,82.13,0c19.811-22.56-23.11-90.229,36.32-71.43c0,7.52,6.6,22.55,3.3,30.069
				c7.819-2.971,19.76,1.09,27.68,2.931l-0.2,0.83c1.75,1.989,5.041,2.92,9.19,3.229c11.5,0.83,29.56-3.229,39.271-3.229
				c3.301-56.392,13.211-349.62-33.021-353.38c-9.9,56.39-3.3,120.3-3.3,176.688c0,19.92-1.65,40.79-3.34,61.931
				c-116.801,75.409-65.99-167.189-168.34-125.841l-0.98,0.021c-0.36-19.511-1.08-38.96-2.32-58.29c-14.859,0-28.07,1.88-41.27,3.76
				c1.15,17.03-19.35,20.37-34.68,20.189c-6.66-0.079-12.351-0.819-14.851-1.391L1226.234,1141.769z M58.955,940.657
				c4.3,18.87,5.91,36.5-0.16,45.49c-5.09,3.75-14.56,9.14-20.95,12.78c4.96,16.92,23.12,11.279,19.811,28.188
				c0,9.4-23.11,20.682-28.061,24.44c0,22.56,23.11,15.04,36.32,26.318c0.82,9.4,3.71,18.791,6.81,28.19
				c3.09,9.4,6.39,18.8,8.04,28.2c-4.95-1.88-9.9,0-14.85-1.88c3.14,7.14,6.52,14.148,9.91,21.17c-0.46,0.52-0.33,0.91,0.56,1.14
				c8.91,18.46,17.83,37.05,22.54,58.521c-1.65,1.869-4.95,5.63-8.25,7.51c21.46,9.398,34.67,39.479,59.43,41.359
				c15.94-4.189,32.55-6.301,49.52-7.211c28.72-1.539,58.43,0.392,87.49,1.57c74.29,1.88,153.529-3.76,227.81-16.92
				c69.28-13.15,141.841-13.16,211.12-28.15c0.061,0.631,0.12,1.24,0.18,1.841c-2.83-1.609,0.41,0.921,2.44,1.671
				c7.71,5.31,16.36,11.188,22.33,9.488c-8.07,4.771-17.351,9.2-28.07,13.271c-0.88,12.979-2.22,26.49-3.659,40.25
				c-27.99,10.319-68.141,6.74-101.99,6.74c-37.971,0-100.7,26.318-130.41,54.52c11.55,0,24.76-1.88,36.32,3.76
				c-21.461,9.392-33.021,26.312-52.83,41.352c-13.2,11.279-42.92,13.16-46.221,30.069c23.11,7.521,46.221-13.149,69.33-18.79
				c26.41-9.399,47.88-13.16,72.641-24.439c35.76-16.66,109.959-35.141,146.89-23.13c-0.78,14.989-0.92,29.71,0.03,43.81
				c6.6,0,16.51,3.761,23.109,0c0,11.09,0,26.29-1.33,39.54c-57.49-15.899-124.539,26.37-176.96,41.28
				c-16.5,5.64-33.01,1.88-47.87,9.4c-16.51,9.398-28.06,24.438-44.569,33.84c-24.761,13.16-52.83,16.92-75.94,35.71
				c36.32,11.279,74.29-5.642,110.61-3.761c0,1.881-3.311,3.761-3.311,5.641c26.421,20.68,69.341-15.04,97.4-5.641
				c0,1.881-3.3,0-4.95,1.881c13.2,16.92,39.62,5.64,57.78,3.76c-3.31-13.16-14.86-22.551-24.771-31.95
				c18.16-7.521,41.811-21.84,59.971-21.84c-4.601,30.91-4.221,65.77-12.09,80.11c56.119,22.55,118.85,15.039,178.279,22.55
				c36.32,3.76,155.17,26.318,165.08,18.8c66.03,7.52,39.62-161.65,39.62-214.29c3.24-84.979,3.3-184.51,22.12-266.42
				c-9.971-32.05-25.63-54.22-32.02-86.96c-3.311-30.08,6.6-75.19,6.6-105.26c3.3-82.71,13.21-157.9,19.81-240.61
				c13.9-120.29,13.761-261.89,33.07-384.43c9.899,7.52,26.36,16.01,39.56,16.01c6.34-46.88,13.48-100.36,11.141-147.78
				c9.88-1.619,23.27,1.16,31.779,1.16c-3.3,56.391-16.5,109.03-23.109,161.66c6.609,3.76,9.91,3.76,16.51,3.76
				c0,52.63-6.6,116.54-6.6,161.65c-4.4,0-8.811,0-13.21,0c0,101.51-6.601,199.25-16.511,300.76c-6.6,52.63-6.6,105.26-9.899,157.89
				c0,22.562,0,48.87-3.3,71.432c0,4.47-0.521,16.05-1.351,26.51v0.01c-1.659,4.91-3.229,10.011-4.72,15.261
				c-21.4,75.329-27.22,183.311-30.25,262.729c0,37.6-16.51,169.18,3.3,195.49c29.72,37.6,92.45,22.56,95.75-18.79
				c0-77.94,9.65-199.84,9.89-293.37h0.021c0.261-70.62,7.45-154.4,11.521-233.04l1.68,0.09c9.09,2.07,19.18,3,29.72,2.79
				c-2.31,13.14-3.409,32.38-3.86,52.33c34.08,2.36,59.41-50.33,84.74-70.16c23.141-16.47,51.351-30.05,77.961-34.43
				c2.969,26.62,3.829,68.85,26.039,83.3c42.92,26.32,59.432-22.55,56.131-60.15c0-3.5,0-6.688,0-11.278l0.529-1.08
				c38.54,18.648,70.94,59.16,100.46,128.898c-3.43,37.262-8.14,87.86-5.239,124.062l0.209,1.34
				c-56.1,8.63-39.52,58.28-36.528,126.479c0,48.882,0,78.95,16.5,124.07c13.21,33.83,46.17,96.51,56.09,126.59
				c0,0.012,0,0.012,0,0.012c0.03,2.92,0.04,5.828,0.04,8.729c33.02,0,69.56,2.64,99.279-4.87
				c14.721-4.569,19.091-54.01,18.869-114.7c0.45,5.762,0.711,10.631,0.711,14.312c72.631-30.07,196.449-4.45,252.461-46.99
				c20.59,3.351,44.35,3.71,59.539,0c33.011-7.52,44.569-37.6,79.239-9.399c14.852,13.159,21.46,26.319,39.62,31.949
				c13.2,5.642,33.01,1.88,47.87,1.88c26.41,1.88,64.38,9.4,89.14-1.88c-1.648-3.76-3.3-5.63-3.3-9.39
				c42.92-5.64,95.75-18.8,138.67-3.76c0,3.76-1.648,5.64-1.648,7.52c8.25,0,21.46,3.75,29.71,1.87
				c11.56-3.75,9.91-13.15,21.46-16.91c23.108-15.04,36.319-1.88,59.43,3.76c28.062,7.521,102.351,0,127.11-18.8
				c-28.062-11.28-64.38-7.52-94.102-11.28c-79.229-11.278-155.17-20.68-236.06-26.31c-44.57-3.76-90.79-7.521-135.36-7.521
				c-42.92,0-90.8,5.641-130.42-3.761c-16.51-9.399-34.66-13.16-46.22,7.521c6.6,1.88,11.56,9.39,18.159,13.148
				c-17.819,3.812-46.16,5.04-67.271,14.102l-0.41-0.94c-3.3-45.109-37.979-168.02-21.47-205.62c8.08,6.74,20.05,6.182,34.67,2.61
				c16.51-3.76,31.37-15.03,47.88-13.15c29.71,5.631,19.812,30.07,31.36,45.11c21.46,22.56,87.49,15.04,112.26,13.16
				c75.931-3.761,155.17,43.229,231.11,16.91c-11.562-7.512-26.42-7.512-39.62-11.271c-37.971-5.64-74.29-18.8-113.91-30.08
				c-39.62-9.398-80.89-9.398-122.148-18.8c-27.541-6.27-52.86-15.88-78.44-26.05l0.851-2.141
				c29.709-5.641,66.029-11.279,97.391-15.04c0.46-6.239,0.79-13.061,1-20.141c16.09,0,104.85,1.41,124.66,4.23
				c41.17,6.699,80.1-3.15,119.988-1.722c2.102,0.062,4.19,0.171,6.291,0.312c28.471,1.41,56.949,5.64,85.42,8.46
				c28.471,2.819,52-7.05,78-12.69c12.379-2.81,27.229,1.41,39.609-2.81c11.15-4.23,22.29-12.69,32.19-21.15
				c5.979-4.68,12.188-9.358,18.648-13.54c14.95-9.659,31.29-16.619,49.44-14.659c19.81,2.819,42.1,7.05,65.62,4.229
				c0.55-0.11,1.13-0.25,1.76-0.41c14.8-3.819,49.351-19.88,57.66,0.41l0.1,0.01c-0.64,9.051,0.66,17.79,2.62,26.439v83.28
				c-24.149,9.05-49.47,16.979-62.31,46.22c-24.761-18.8-37.972-3.76-52.82,13.149c-13.21,15.04,0,9.4-18.16,15.04
				c-8.26,3.761-19.81,1.881-28.069,5.641c-11.551,3.761-26.41,7.521-34.66,20.681c-4.949,11.28,1.649,22.55-8.26,31.95
				c-4.95,5.64-24.761,5.64-31.359,9.399c-13.21,5.641-24.761,16.92-37.971,26.319c47.87,1.88,99.051,15.04,145.271,13.16
				c42.17-1.851,89.13-34.551,128.341-12.5v319.62H-8.355v-191.681c65.86-19.87,140.49-21.99,207.98-28.979
				c75.94-7.521,155.18-3.761,232.76-5.641c-4.949-39.471-70.979-22.55-90.79-37.59c4.95-1.881,9.9-5.641,14.86-7.521
				c-28.07-13.16-52.83-16.92-84.19-15.04c-24.77,1.88-54.48,15.04-77.59,1.88c1.65-1.88,3.3-1.88,6.6-1.88
				c-33.01-28.189-102.35-13.16-141.97-13.16c-19.02,0-46.81-2.22-67.66-3.25v-788.09c36.3,18.8,41.25,80.83,54.46,118.409
				c-19.81,43.23-19.81,93.98-6.61,139.101C43.145,889.198,53.345,915.997,58.955,940.657z M2530.545,1222.608
				c24.76-5.63,51.17-1.88,75.939-5.63c-49.529-24.44-115.561-26.32-168.379-26.32c-57.78,0-113.91-7.52-171.69-5.64
				c14.86,9.399,34.67,9.399,49.53,16.92c-4.96,3.76-11.562,5.641-14.86,7.521c23.11,18.79,94.09,20.67,125.46,18.79
				c-1.648-1.881-3.3-3.761-4.95-7.521c39.62-3.75,82.54,20.681,120.511,11.28
				C2538.795,1230.128,2535.495,1224.488,2530.545,1222.608z M196.265,1335.188c34.01,0,70.33,10.3,102.41,19
				c-31.37-45.11-117.21-92.1-160.13-46.99c-13.2,15.04-28.06,13.16-37.97,33.84c33.02,3.75,61.08,0,94.1,1.881
				c-3.3-1.881-4.95-5.641-6.6-7.521C190.785,1335.259,193.515,1335.188,196.265,1335.188z"/>
			
				<linearGradient id="SVGID_56_" gradientUnits="userSpaceOnUse" x1="-497" y1="1765.9094" x2="-492.2803" y2="1765.9094" gradientTransform="matrix(1 0 0 -1 1619.9551 2852.0103)">
				<stop  offset="0" style="stop-color:#F0D0E5"/>
				<stop  offset="1" style="stop-color:#7A356A"/>
			</linearGradient>
			<path fill="url(#SVGID_56_)" d="M1127.675,1076.198c-1.159,14.46-2.909,26.78-4.72,15.26
				C1124.445,1086.207,1126.016,1081.108,1127.675,1076.198z"/>
			
				<linearGradient id="SVGID_57_" gradientUnits="userSpaceOnUse" x1="-738.7935" y1="2277.8489" x2="-702.8002" y2="1018.1002" gradientTransform="matrix(1 0 0 -1 1619.9551 2852.0103)">
				<stop  offset="0" style="stop-color:#323147"/>
				<stop  offset="1" style="stop-color:#2B404F"/>
			</linearGradient>
			<path fill="url(#SVGID_57_)" d="M719.266,1277.898c1.439-13.76,2.779-27.271,3.659-40.25c10.72-4.07,20-8.5,28.07-13.271
				c13.44-7.939,23.521-16.811,31.28-26.479c11.27-14.03,17.66-29.74,22.369-46.72c9.9-35.71,12.381-77.062,37.141-120.301
				c6.609-1.881,12.38-5.641,17.75-9.399c5.359-3.75,10.32-7.51,15.27-9.39c-19.81-7.521-33.02-22.562-29.72-45.12l-0.2-0.841
				c3.25-0.771,6.68-2,10.11-3.391c5.771-2.35,11.55-5.16,16.5-7.04c-9.44-7.17-12.88-21.17-21.76-28.97
				c-0.44-0.39-0.891-0.76-1.351-1.11c-6.6-26.318,16.51-78.95,26.42-120.3c6.48-29.52-6.13-66.28-6.6-88.96l-0.47,0.01
				c-0.521-16.45-3.78-75.35,33.479-57.67c6.6-33.83-19.81-45.109-13.21-86.47c6.601,0,19.81-7.52,29.72-3.75
				c6.601-30.08,0-56.4-29.72-60.16c23.11-60.15,33.021-127.82,49.53-191.729c12.32-52.62,41.89-118.34,43.109-175.76
				c8.83,10.04,44.45,24.56,49.33,32.909c19.791,30.03,23.101,131.34,82.33,97.851c-3.68,16.71-6.859,33.93-9.64,51.55
				c-19.31,122.54-19.17,264.14-33.07,384.43c-6.6,82.71-16.51,157.9-19.81,240.61c0,30.068-9.91,75.18-6.6,105.26
				c6.39,32.74,22.049,54.91,32.02,86.96c-18.82,81.91-18.88,181.439-22.12,266.42c0,52.641,26.41,221.811-39.62,214.29
				c-9.91,7.521-128.76-15.04-165.08-18.8c-59.43-7.51-122.16,0-178.279-22.55c7.869-14.341,7.489-49.2,12.09-80.11
				c5.039-33.92,16.09-63.1,50.64-55.23c0.86-3.938,1.5-8.39,1.97-13.09c1.33-13.25,1.33-28.449,1.33-39.54
				c-6.6,3.762-16.51,0-23.109,0c-0.95-14.1-0.811-28.818-0.03-43.81C714.186,1324.809,716.855,1300.998,719.266,1277.898z"/>
			
				<linearGradient id="SVGID_58_" gradientUnits="userSpaceOnUse" x1="-641.1201" y1="2714.7073" x2="-639.2695" y2="2714.7073" gradientTransform="matrix(1 0 0 -1 1619.9551 2852.0103)">
				<stop  offset="0" style="stop-color:#F0D0E5"/>
				<stop  offset="1" style="stop-color:#7A356A"/>
			</linearGradient>
			<path fill="url(#SVGID_58_)" d="M980.655,133.778c0.02,1.141,0.03,2.28,0.03,3.42c0,1.21-0.011,2.41-0.041,3.631
				c-0.909-1.03-1.539-2.021-1.81-2.94c0.32-1.11,0.65-2.22,0.92-3.39C980.005,134.238,980.305,134.008,980.655,133.778z"/>
			
				<linearGradient id="SVGID_59_" gradientUnits="userSpaceOnUse" x1="-640.2002" y1="2720.4514" x2="-639.2998" y2="2720.4514" gradientTransform="matrix(1 0 0 -1 1619.9551 2852.0103)">
				<stop  offset="0" style="stop-color:#F0D0E5"/>
				<stop  offset="1" style="stop-color:#7A356A"/>
			</linearGradient>
			<path fill="url(#SVGID_59_)" d="M980.455,128.618c0.1,1.71,0.16,3.43,0.2,5.159c-0.351,0.23-0.65,0.46-0.9,0.721
				C980.165,132.738,980.455,130.838,980.455,128.618z"/>
			
				<linearGradient id="SVGID_60_" gradientUnits="userSpaceOnUse" x1="-641.2861" y1="2715.8167" x2="-640.2002" y2="2715.8167" gradientTransform="matrix(1 0 0 -1 1619.9551 2852.0103)">
				<stop  offset="0" style="stop-color:#F0D0E5"/>
				<stop  offset="1" style="stop-color:#7A356A"/>
			</linearGradient>
			<path fill="url(#SVGID_60_)" d="M979.755,134.499c-0.271,1.17-0.6,2.279-0.92,3.39
				C978.455,136.628,978.715,135.488,979.755,134.499z"/>
			
				<linearGradient id="SVGID_61_" gradientUnits="userSpaceOnUse" x1="-925.0898" y1="1791.8909" x2="-745.1504" y2="1791.8909" gradientTransform="matrix(1 0 0 -1 1619.9551 2852.0103)">
				<stop  offset="0" style="stop-color:#211933"/>
				<stop  offset="1" style="stop-color:#433345"/>
			</linearGradient>
			<path fill="url(#SVGID_61_)" d="M844.885,966.128l0.2,0.841c-3.3,22.56,9.91,37.6,29.72,45.12c-4.949,1.88-9.91,5.64-15.27,9.39
				c-5.37,3.76-11.141,7.52-17.75,9.399c-24.76,43.239-27.24,84.591-37.141,120.301c-4.709,16.979-11.1,32.688-22.369,46.72
				c-29.711-16.92,3.38-42.96-3.221-67.39c-12.68-48.71-46.64,1.278-61.029,12.02c-0.021-0.25-0.03-0.5-0.051-0.739
				c-9.899,3.761-19.81,1.88-23.109-9.399c6.6,0,14.859-5.642,21.46-5.642c-4.95-5.64-6.601-15.039-9.91-20.68
				c3.31,3.76,11.56,5.641,14.86,7.521c0-28.19-1.65-62.03-1.65-92.11c-4.95-1.87-9.9-7.51-14.859-11.271
				c4.959,0,9.909-3.761,13.209-3.761c0-11.3-0.819-25.96-1.359-39.479c0.1,0.12,0.22,0.239,0.34,0.37
				c16.45,18.5,37.48,24.09,58.8,27.828c3.3-11.278,3.3-22.56,1.65-33.84c29.71,1.88,13.21-22.55,31.36-35.71
				c8.859-6.729,29.609-1.42,40.97,1.11c8.88,7.8,12.319,21.8,21.76,28.97c-4.95,1.88-10.729,4.69-16.5,7.04
				C851.564,964.128,848.135,965.358,844.885,966.128z"/>
			
				<linearGradient id="SVGID_62_" gradientUnits="userSpaceOnUse" x1="-872.229" y1="1730.1877" x2="-860.2279" y2="1562.172" gradientTransform="matrix(1 0 0 -1 1619.9551 2852.0103)">
				<stop  offset="0" style="stop-color:#00344B"/>
				<stop  offset="1" style="stop-color:#968499"/>
			</linearGradient>
			<path fill="url(#SVGID_62_)" d="M726.045,1211.378c-1.8-17.021-6.38-45.431-8.02-68.851c14.39-10.74,48.35-60.729,61.029-12.02
				c6.6,24.43-26.49,50.47,3.221,67.39c-7.761,9.67-17.841,18.54-31.28,26.479c-5.97,1.699-14.62-4.181-22.33-9.489
				c-0.83-0.562-1.64-1.13-2.44-1.67C726.165,1212.617,726.105,1212.009,726.045,1211.378z"/>
			
				<linearGradient id="SVGID_63_" gradientUnits="userSpaceOnUse" x1="-1076.0654" y1="1804.5442" x2="-1052.0653" y2="1220.5439" gradientTransform="matrix(1 0 0 -1 1619.9551 2852.0103)">
				<stop  offset="0" style="stop-color:#142258"/>
				<stop  offset="1" style="stop-color:#332845"/>
			</linearGradient>
			<path fill="url(#SVGID_63_)" d="M734.805,1431.327c-0.47,4.7-1.109,9.15-1.97,13.091c-34.55-7.869-45.6,21.311-50.64,55.229
				c-18.16,0-41.811,14.32-59.971,21.84c9.91,9.4,21.461,18.79,24.771,31.95c-18.16,1.88-44.58,13.16-57.78-3.76
				c1.65-1.881,4.95,0,4.95-1.881c-28.06-9.399-70.979,26.319-97.4,5.641c0-1.88,3.311-3.76,3.311-5.641
				c-36.32-1.881-74.29,15.041-110.61,3.761c23.11-18.79,51.18-22.55,75.94-35.71c16.51-9.4,28.06-24.44,44.569-33.84
				c14.86-7.521,31.37-3.762,47.87-9.4C610.266,1457.698,677.314,1415.429,734.805,1431.327z"/>
			
				<linearGradient id="SVGID_64_" gradientUnits="userSpaceOnUse" x1="-894.8398" y1="1638.219" x2="-891.29" y2="1638.219" gradientTransform="matrix(1 0 0 -1 1619.9551 2852.0103)">
				<stop  offset="0" style="stop-color:#F0D0E5"/>
				<stop  offset="1" style="stop-color:#7A356A"/>
			</linearGradient>
			<path fill="url(#SVGID_64_)" d="M728.665,1214.889c-2.03-0.75-5.271-3.28-2.44-1.67
				C727.025,1213.759,727.835,1214.327,728.665,1214.889z"/>
			
				<linearGradient id="SVGID_65_" gradientUnits="userSpaceOnUse" x1="-1197.314" y1="2275.467" x2="-1131.3271" y2="1513.6187" gradientTransform="matrix(1 0 0 -1 1619.9551 2852.0103)">
				<stop  offset="0" style="stop-color:#211933"/>
				<stop  offset="1" style="stop-color:#433345"/>
			</linearGradient>
			<path fill="url(#SVGID_65_)" d="M718.025,1142.528c1.64,23.42,6.22,51.83,8.02,68.85c-69.279,14.99-141.84,15-211.12,28.15
				c-74.28,13.16-153.52,18.8-227.81,16.92c-29.06-1.18-58.77-3.108-87.49-1.569c8.25-3.761,36.32-11.591,41.27-22.869
				c1.6-3.2,2.04-7.062,1.88-11.341c-0.52-13.351-6.88-30.819-1.88-45.051c-1.65,1.881-6.6,3.761-9.9,5.642
				c-3.31-15.04-14.86-50.75,1.65-54.511c0-7.521-4.96-22.561-6.61-30.08c-3.3,3.761-4.95,5.641-8.25,7.521
				c-4.95-20.67-14.86-50.75-13.21-73.311c14.86,5.641,19.81-7.521,19.81-20.67c-1.649-1.881-4.95-1.881-8.25-3.761
				c1.65-3.76,3.3-9.398,3.3-13.16c-1.65-1.88-4.95-1.88-6.6-1.88c0-13.159-3.3-24.438-4.95-37.59c3.3,0,6.601,0,8.25,0
				c-1.54-10.56-8.88-24.41-8.45-33.85l0.2,0.01c3.3-9.4,46.22-3.76,59.42-7.521c0.78,4.439,1.19,9.311,1.4,14.399
				c-0.07,0.98-0.05,1.82,0.1,2.49c0,0.01,0,0.02,0,0.029c0.15,4.899,0.15,9.971,0.15,15.04c3.31,0,4.96,0,8.26,0
				c0,20.671,9.9,37.591,11.55,56.391c-3.3,0-4.95,1.88-8.25,3.76c28.06,0,39.62,122.18,41.27,150.37c-3.3,0-6.6,1.88-9.9,1.88
				c3.3,3.76,4.95,13.16,8.25,15.04c-1.14,0.65-2.29,1.3-3.36,1.96c-2.03,1.22-3.81,2.45-4.89,3.68c8.25,13.16,9.9,30.08,13.2,43.23
				c25.44,13.04,79.3,22.72,120.8,21.32c0.48,1,0.57,0.869,0.4-0.012c12.21-0.43,23.34-1.83,32.33-4.39
				c16.5-5.64,56.12-20.67,67.68-35.71c2.721-3.72,4.18-8.26,5.04-13.14c1.75-9.921,1-21.28,3.21-30.102
				c3.3-13.148,13.21-24.43,9.91-39.47c-3.311,1.88-6.61,0-9.91,1.88c-0.47-11.319,0.141-22.64,0.79-33.78
				c1.54-26.58,3.29-52.16-9.04-74.31l1.65-0.93c-0.83-7.521-1.24-17.392-1.65-27.73c-0.41-10.34-0.82-21.14-1.65-30.54
				c2.61-1.49,4.961-3.56,7.36-5.64c0.63-0.551,1.271-1.102,1.92-1.642c3.101-2.59,6.4-4.938,10.53-5.88
				c-6.61-1.88-14.86-13.159-16.51-13.159c1.649-15.04-3.301-46.989,3.3-63.909c4.95,1.88,11.56,1.88,16.51,5.64
				c0-15.04,4.95-31.96-8.26-39.479c4.96-3.75,6.61-1.881,9.91-1.881c0-3.76-1.65-15.029-1.65-18.79c-1.12,0-8.271,0.86-11.26,0.841
				c0.909-14.54-6.95-69.931,17.86-62.87c-3.301-7.521-4.951-18.8-6.601-26.32c3.3,0,8.25,0,13.2,1.88c0-19.439,0-43.87,0-63.909
				c19.81,0,39.62,1.879,59.43,5.64c0,5.64,3.301,15.04,3.301,20.68c9.909-3.76,19.81-7.52,29.719-11.28
				c1.65,15.04,1.65,31.95,1.65,45.11l1.521,0.19c0,0.539,13.51-9.69,16.64-11.471c0,18.801,6.6,37.601,6.6,58.271
				c-4.93,0-9.85,3.72-14.789,3.76c0,0,0.439,0,1.59,0c4.949,0,11.55,3.76,16.5,5.64c-2.48,3.761-4.95,7.99-7.631,11.98
				c-2.68,4-5.569,7.76-8.869,10.58c5.16,0,14.35-0.68,18.91-0.97l2.55,0.97c1.649,13.16,1.649,30.07,6.6,43.229
				c3.3-3.76,8.25-5.64,9.9-7.52c6.61,15.04,3.31,31.96-11.55,35.72c-4.511,17.13,1.939,57.66,3.119,78.95
				c0,5.62,0.2,12.06,0.471,18.79c0.539,13.52,1.359,28.18,1.359,39.479c-3.3,0-8.25,3.761-13.21,3.761
				c4.96,3.761,9.91,9.399,14.86,11.271c0,30.08,1.65,63.92,1.65,92.11c-3.301-1.881-11.551-3.761-14.86-7.521
				c3.31,5.641,4.96,15.04,9.91,20.681c-6.601,0-14.86,5.641-21.46,5.641c3.3,11.279,13.21,13.16,23.109,9.399
				C717.995,1142.028,718.005,1142.278,718.025,1142.528z"/>
			
				<linearGradient id="SVGID_66_" gradientUnits="userSpaceOnUse" x1="-1060.5542" y1="1805.178" x2="-1036.5543" y2="1221.1843" gradientTransform="matrix(1 0 0 -1 1619.9551 2852.0103)">
				<stop  offset="0" style="stop-color:#142258"/>
				<stop  offset="1" style="stop-color:#332845"/>
			</linearGradient>
			<path fill="url(#SVGID_66_)" d="M719.266,1277.898c-2.41,23.1-5.08,46.91-6.271,70.08c-36.931-12.01-111.13,6.47-146.89,23.13
				c-24.761,11.28-46.23,15.04-72.641,24.439c-23.109,5.641-46.22,26.311-69.33,18.791c3.3-16.91,33.021-18.791,46.221-30.07
				c19.81-15.04,31.369-31.96,52.83-41.352c-11.561-5.64-24.771-3.76-36.32-3.76c29.71-28.199,92.439-54.52,130.41-54.52
				C651.125,1284.639,691.275,1288.219,719.266,1277.898z"/>
			
				<linearGradient id="SVGID_67_" gradientUnits="userSpaceOnUse" x1="-1099.1665" y1="1713.9739" x2="-1087.1653" y2="1545.9557" gradientTransform="matrix(1 0 0 -1 1619.9551 2852.0103)">
				<stop  offset="0" style="stop-color:#00344B"/>
				<stop  offset="1" style="stop-color:#968499"/>
			</linearGradient>
			<path fill="url(#SVGID_67_)" d="M564.455,1119.229c3.3,15.04-6.61,26.32-9.91,39.47c-2.21,8.82-1.46,20.181-3.21,30.102
				l-0.09-0.021c-28.06-3.76-11.56-54.51-47.87-43.229c1.65,20.67-19.811,18.79-21.46,0c-1.16-0.19-2.29-0.36-3.38-0.49l0.08-0.63
				c-1.66-13.16-9.91-30.84,1.649-36.48c18.15-7.52,8.25,24.44,28.061,20.681c-1.65-9.399-1.65-18.801-4.95-28.199
				c4.95-1.88,8.25-1.88,14.85-1.88c-1.649,13.159,1.65,18.8,13.211,15.04c-1.65-11.28-4.951-22.562-4.951-33.83
				c11.551-7.521,23.11-5.642,28.061,7.52l0.79,0.051c-0.649,11.141-1.26,22.46-0.79,33.779
				C557.845,1119.229,561.145,1121.108,564.455,1119.229z"/>
			
				<linearGradient id="SVGID_68_" gradientUnits="userSpaceOnUse" x1="-1127.063" y1="1711.9856" x2="-1115.0619" y2="1543.9681" gradientTransform="matrix(1 0 0 -1 1619.9551 2852.0103)">
				<stop  offset="0" style="stop-color:#00344B"/>
				<stop  offset="1" style="stop-color:#968499"/>
			</linearGradient>
			<path fill="url(#SVGID_68_)" d="M551.245,1188.778l0.09,0.021c-0.86,4.88-2.319,9.42-5.04,13.14
				c-11.56,15.04-51.18,30.07-67.68,35.71c-8.99,2.561-20.12,3.96-32.33,4.39c-0.12-0.608-0.37-1.568-0.7-2.778
				c-1.68-42.32-18.95-100.62,32.95-94.2c1.09,0.13,2.22,0.3,3.38,0.49c1.649,18.79,23.11,20.67,21.46,0
				C539.686,1134.269,523.186,1185.019,551.245,1188.778z"/>
			
				<linearGradient id="SVGID_69_" gradientUnits="userSpaceOnUse" x1="-1174.0698" y1="1609.6174" x2="-1173.5908" y2="1609.6174" gradientTransform="matrix(1 0 0 -1 1619.9551 2852.0103)">
				<stop  offset="0" style="stop-color:#F0D0E5"/>
				<stop  offset="1" style="stop-color:#7A356A"/>
			</linearGradient>
			<path fill="url(#SVGID_69_)" d="M446.285,1242.037c0.17,0.881,0.08,1.012-0.4,0.012
				C446.025,1242.049,446.155,1242.049,446.285,1242.037z"/>
			
				<linearGradient id="SVGID_70_" gradientUnits="userSpaceOnUse" x1="-1245.249" y1="1703.5442" x2="-1233.2479" y2="1535.5287" gradientTransform="matrix(1 0 0 -1 1619.9551 2852.0103)">
				<stop  offset="0" style="stop-color:#00344B"/>
				<stop  offset="1" style="stop-color:#968499"/>
			</linearGradient>
			<path fill="url(#SVGID_70_)" d="M445.585,1239.259c0.33,1.21,0.58,2.17,0.7,2.778c-0.13,0.012-0.26,0.012-0.4,0.012
				c-41.5,1.398-95.36-8.28-120.8-21.32c-3.3-13.15-4.95-30.07-13.2-43.229c1.08-1.229,2.86-2.46,4.89-3.681
				c-1.07,1.62,14.96-3.87,18.22-5.72c0,18.8,13.2,24.438,26.41,30.08c-3.3-24.44-14.86-45.12,16.51-41.36
				c4.95,16.92,3.3,35.721,6.6,54.521c3.3,0,6.6,1.88,9.91,1.88c-1.66-18.801-18.16-101.511,18.15-58.28
				c9.91,13.16,6.61,35.72,11.56,48.88c3.301,7.521,9.9,5.641,14.86,15.03C440.064,1221.287,443.915,1233.229,445.585,1239.259z"/>
			
				<linearGradient id="SVGID_71_" gradientUnits="userSpaceOnUse" x1="-1351.25" y1="1827.3215" x2="-1063.5376" y2="1827.3215" gradientTransform="matrix(1 0 0 -1 1619.9551 2852.0103)">
				<stop  offset="0" style="stop-color:#211933"/>
				<stop  offset="1" style="stop-color:#433345"/>
			</linearGradient>
			<path fill="url(#SVGID_71_)" d="M334.995,1168.099c-3.26,1.85-19.29,7.34-18.22,5.72c1.07-0.66,2.22-1.31,3.36-1.96
				c-3.3-1.88-4.95-11.28-8.25-15.04c3.3,0,6.6-1.88,9.9-1.88c-1.65-28.19-13.21-150.37-41.27-150.37c3.3-1.88,4.95-3.76,8.25-3.76
				c-1.65-18.8-11.55-35.72-11.55-56.391c-3.3,0-4.95,0-8.26,0c0-5.069,0-10.141-0.15-15.04c0-0.011,0-0.021,0-0.029
				c-0.03-0.84-0.06-1.67-0.1-2.49c0.79-9.979,12.11-34.39,15.11-46.35c4.83-22.03-1.34-49.431,9.12-69.95l0.79,0.4
				c49.52,0,77.58-11.28,99.04,48.869c8.26,24.44,11.56,54.512,23.12,77.07c3.3,5.641,11.55,13.16,16.5,18.8
				c6.94,7.892,5.721,15.78,11.021,19.221c3.3,7.521,15.399,12.729,20.35,16.489c6.601-41.35-11.56-88.35-9.91-129.699l-0.1-0.091
				c8.45-9.83,32.01-26.35,39.72-28.109c21.46-7.511,23.11-1.88,33.02,18.8c9.9,18.8,10.66,92.109,25.521,95.87
				c-2.399,2.08-4.75,4.148-7.36,5.64c0.83,9.4,1.24,20.2,1.65,30.54s0.82,20.21,1.65,27.73l-1.65,0.93
				c12.33,22.149,10.58,47.729,9.04,74.31l-0.79-0.05c-4.95-13.16-16.51-15.04-28.06-7.521c0,11.271,3.3,22.551,4.95,33.83
				c-11.561,3.761-14.86-1.881-13.211-15.04c-6.6,0-9.899,0-14.85,1.88c3.3,9.399,3.3,18.801,4.95,28.199
				c-19.81,3.762-9.91-28.199-28.06-20.68c-11.561,5.641-3.311,23.32-1.65,36.479l-0.08,0.63c-51.9-6.42-34.63,51.881-32.95,94.2
				c-1.67-6.03-5.521-17.971-6.59-20.41c-4.96-9.391-11.56-7.51-14.86-15.029c-4.95-13.16-1.649-35.721-11.56-48.88
				c-36.31-43.23-19.81,39.479-18.15,58.279c-3.31,0-6.61-1.88-9.91-1.88c-3.3-18.801-1.65-37.601-6.6-54.521
				c-31.37-3.761-19.81,16.92-16.51,41.359C348.195,1192.537,334.995,1186.898,334.995,1168.099z"/>
			
				<linearGradient id="SVGID_72_" gradientUnits="userSpaceOnUse" x1="-1351.2886" y1="1923.9075" x2="-1351.1499" y2="1923.9075" gradientTransform="matrix(1 0 0 -1 1619.9551 2852.0103)">
				<stop  offset="0" style="stop-color:#F0D0E5"/>
				<stop  offset="1" style="stop-color:#7A356A"/>
			</linearGradient>
			<path fill="url(#SVGID_72_)" d="M268.705,926.858c0.04,0.82,0.07,1.65,0.1,2.49C268.655,928.679,268.635,927.839,268.705,926.858
				z"/>
			
				<linearGradient id="SVGID_73_" gradientUnits="userSpaceOnUse" x1="-1462.3076" y1="1688.0393" x2="-1450.3066" y2="1520.0238" gradientTransform="matrix(1 0 0 -1 1619.9551 2852.0103)">
				<stop  offset="0" style="stop-color:#00344B"/>
				<stop  offset="1" style="stop-color:#968499"/>
			</linearGradient>
			<path fill="url(#SVGID_73_)" d="M76.385,1154.698c-0.19-0.38-0.37-0.76-0.56-1.14c2.65-3.07,25.47-10.3,28.06-11.771
				c19.81,35.71-1.66,88.341,47.87,84.58c-1.65-18.79-16.51-46.989-4.95-60.148c4.95-7.521,36.31-15.03,46.22-16.91
				c1.65,41.35,21.46,56.39,47.87,71.42l1.88-0.062c0.16,4.28-0.28,8.142-1.88,11.342c-4.95,11.278-33.02,19.108-41.27,22.868
				c-16.97,0.91-33.58,3.021-49.52,7.212c-24.76-1.882-37.97-31.962-59.43-41.36c3.3-1.88,6.6-5.64,8.25-7.51
				C94.215,1191.748,85.295,1173.157,76.385,1154.698z"/>
			
				<linearGradient id="SVGID_74_" gradientUnits="userSpaceOnUse" x1="-1590.3604" y1="1795.967" x2="-1352.6504" y2="1795.967" gradientTransform="matrix(1 0 0 -1 1619.9551 2852.0103)">
				<stop  offset="0" style="stop-color:#211933"/>
				<stop  offset="1" style="stop-color:#433345"/>
			</linearGradient>
			<path fill="url(#SVGID_74_)" d="M207.685,919.969c-0.43,9.438,6.91,23.29,8.45,33.85c-1.65,0-4.95,0-8.25,0
				c1.65,13.15,4.95,24.43,4.95,37.59c1.65,0,4.95,0,6.6,1.88c0,3.762-1.65,9.4-3.3,13.16c3.3,1.88,6.6,1.88,8.25,3.761
				c0,13.149-4.95,26.311-19.81,20.67c-1.65,22.561,8.26,52.641,13.21,73.311c3.3-1.88,4.95-3.76,8.25-7.521
				c1.65,7.521,6.61,22.561,6.61,30.079c-16.51,3.762-4.96,39.472-1.65,54.512c3.3-1.881,8.25-3.762,9.9-5.642
				c-5,14.23,1.36,31.7,1.88,45.051l-1.88,0.061c-26.41-15.03-46.22-30.069-47.87-71.42c-9.91,1.88-41.27,9.39-46.22,16.91
				c-11.56,13.159,3.3,41.358,4.95,60.149c-49.53,3.76-28.06-48.87-47.87-84.58c-2.59,1.471-25.41,8.699-28.06,11.771
				c-3.39-7.021-6.77-14.03-9.91-21.17c4.95,1.88,9.9,0,14.85,1.88c-1.65-9.4-4.95-18.8-8.04-28.2
				c-3.1-9.399-5.99-18.79-6.81-28.189c-13.21-11.279-36.32-3.76-36.32-26.319c4.95-3.76,28.061-15.04,28.061-24.439
				c3.31-16.91-14.85-11.271-19.811-28.189c6.39-3.641,15.86-9.03,20.95-12.78c6.07-8.989,4.46-26.619,0.16-45.489
				c9.47,0,18.87,0.08,26.77,1.88c8.25,41.351,1.65,52.63,41.27,48.87c1.65-24.439-8.26-65.79,0-88.351
				c9.9-22.55,34.66-16.909,57.77-16.909c3.31,26.31,1.66,65.789,9.91,86.46c0-22.021,4.72-56.61,6.48-82.721l0.12,0.011
				c18.16,1.88,57.78,7.52,66.03,22.56c-13.2,3.761-56.12-1.88-59.42,7.521L207.685,919.969z"/>
			
				<linearGradient id="SVGID_75_" gradientUnits="userSpaceOnUse" x1="-1432.064" y1="1789.9202" x2="-1408.0638" y2="1205.9202" gradientTransform="matrix(1 0 0 -1 1619.9551 2852.0103)">
				<stop  offset="0" style="stop-color:#142258"/>
				<stop  offset="1" style="stop-color:#332845"/>
			</linearGradient>
			<path fill="url(#SVGID_75_)" d="M298.675,1354.188c-32.08-8.7-68.4-19-102.41-19c-2.75,0-5.48,0.07-8.19,0.21
				c1.65,1.88,3.3,5.64,6.6,7.521c-33.02-1.881-61.08,1.869-94.1-1.881c9.91-20.68,24.77-18.8,37.97-33.84
				C181.465,1262.089,267.305,1309.077,298.675,1354.188z"/>
			
				<linearGradient id="SVGID_76_" gradientUnits="userSpaceOnUse" x1="-1544.3896" y1="1697.8811" x2="-1543.5703" y2="1697.8811" gradientTransform="matrix(1 0 0 -1 1619.9551 2852.0103)">
				<stop  offset="0" style="stop-color:#F0D0E5"/>
				<stop  offset="1" style="stop-color:#7A356A"/>
			</linearGradient>
			<path fill="url(#SVGID_76_)" d="M75.825,1153.559c0.19,0.38,0.37,0.76,0.56,1.14
				C75.495,1154.469,75.365,1154.077,75.825,1153.559z"/>
			
				<linearGradient id="SVGID_77_" gradientUnits="userSpaceOnUse" x1="-1654.2563" y1="1146.4036" x2="-1638.2565" y2="1634.3951" gradientTransform="matrix(1 0 0 -1 1619.9551 2852.0103)">
				<stop  offset="0" style="stop-color:#01233F"/>
				<stop  offset="1" style="stop-color:#26173D"/>
			</linearGradient>
			<path fill="url(#SVGID_77_)" d="M11.435,574.108c0,13.16,0,26.32,1.65,37.6c-6.59,1.881-14.84,7.511-21.44,7.521v-56.34
				c4.3,2.14,8.81,4.45,12.47,6.479C7.775,571.388,10.575,573.117,11.435,574.108z"/>
			
				<linearGradient id="SVGID_78_" gradientUnits="userSpaceOnUse" x1="-1425.9956" y1="1790.1624" x2="-1401.9955" y2="1206.1621" gradientTransform="matrix(1 0 0 -1 1619.9551 2852.0103)">
				<stop  offset="0" style="stop-color:#142258"/>
				<stop  offset="1" style="stop-color:#332845"/>
			</linearGradient>
			<path fill="url(#SVGID_78_)" d="M-8.355,1518.509v-111.182c20.85,1.03,48.64,3.25,67.66,3.25c39.62,0,108.96-15.028,141.97,13.16
				c-3.3,0-4.95,0-6.6,1.88c23.11,13.16,52.82,0,77.59-1.88c31.36-1.88,56.12,1.88,84.19,15.04c-4.96,1.88-9.91,5.641-14.86,7.521
				c19.811,15.04,85.841-1.881,90.79,37.59c-77.58,1.88-156.82-1.88-232.76,5.64C132.135,1496.519,57.505,1498.639-8.355,1518.509z"
				/>
		</g>
		<g>
			
				<linearGradient id="SVGID_79_" gradientUnits="userSpaceOnUse" x1="52.4053" y1="2766.5803" x2="134.4941" y2="2766.5803" gradientTransform="matrix(1 0 0 -1 1619.9551 2852.0103)">
				<stop  offset="0" style="stop-color:#211933"/>
				<stop  offset="1" style="stop-color:#1E3A4D"/>
			</linearGradient>
			<path fill="none" stroke="url(#SVGID_79_)" stroke-miterlimit="10" d="M1677.005,130.128c-0.76-28.07-6.3-56.141-3.22-84.21
				c23.109-7.521,49.52-3.761,75.939-3.761c0,11.271,6.601,37.591,3.301,48.87"/>
			
				<linearGradient id="SVGID_80_" gradientUnits="userSpaceOnUse" x1="-1520.1343" y1="1530.2981" x2="-1320.0854" y2="1530.2981" gradientTransform="matrix(1 0 0 -1 1619.9551 2852.0103)">
				<stop  offset="0" style="stop-color:#211933"/>
				<stop  offset="1" style="stop-color:#1E3A4D"/>
			</linearGradient>
			<path fill="none" stroke="url(#SVGID_80_)" stroke-miterlimit="10" d="M138.545,1307.198c42.92-45.108,128.76,1.88,160.13,46.99
				c-32.08-8.7-68.4-19-102.41-19c-2.75,0-5.48,0.07-8.19,0.21c1.65,1.88,3.3,5.64,6.6,7.521c-33.02-1.881-61.08,1.869-94.1-1.881
				C110.485,1320.358,125.345,1322.238,138.545,1307.198z"/>
		</g>
	</g>
</g>
<g id="ship">
	
		<radialGradient id="SVGID_81_" cx="-680.4971" cy="1801.6877" r="1268.3032" gradientTransform="matrix(1 0 0 -1 1619.9551 2852.0103)" gradientUnits="userSpaceOnUse">
		<stop  offset="0" style="stop-color:#654A79"/>
		<stop  offset="1" style="stop-color:#1A1B43;stop-opacity:0"/>
	</radialGradient>
	<rect x="-8.353" y="-3.701" fill="url(#SVGID_81_)" width="1827.246" height="1713.891"/>
	
		<radialGradient id="SVGID_82_" cx="861.1953" cy="1597.5911" r="1067.7875" gradientTransform="matrix(1 0 0 -1.0701 1619.9551 3025.5537)" gradientUnits="userSpaceOnUse">
		<stop  offset="0" style="stop-color:#1E173A"/>
		<stop  offset="1" style="stop-color:#34183E;stop-opacity:0"/>
	</radialGradient>
	<rect x="1123.012" y="-6.525" fill="url(#SVGID_82_)" width="1724.064" height="1704.475"/>
</g>
<linearGradient id="SVGID_83_" gradientUnits="userSpaceOnUse" x1="1406.9678" y1="16.22" x2="1062.4249" y2="1109.3997">
	<stop  offset="0" style="stop-color:#7FFFB9;stop-opacity:0.2"/>
	<stop  offset="1" style="stop-color:#00143F;stop-opacity:0"/>
</linearGradient>
<polygon fill="url(#SVGID_83_)" points="1446.364,-6.525 956.743,878.19 1039.992,1241.686 1592.688,-6.525 "/>
<linearGradient id="SVGID_84_" gradientUnits="userSpaceOnUse" x1="1432.0225" y1="-401.8997" x2="1108.0229" y2="626.0994" gradientTransform="matrix(1.2179 0.0457 -0.0551 1.2215 -415.9632 114.5479)">
	<stop  offset="0" style="stop-color:#7FFFB9;stop-opacity:0.2"/>
	<stop  offset="1" style="stop-color:#00143F;stop-opacity:0"/>
</linearGradient>
<polygon fill="url(#SVGID_84_)" points="1226.825,10.296 788.572,665.054 871.253,1082.736 1446.364,-6.525 "/>
<linearGradient id="SVGID_85_" gradientUnits="userSpaceOnUse" x1="1743.2773" y1="-150.1013" x2="1382.7397" y2="993.8271" gradientTransform="matrix(0.9929 -0.1188 0.1188 0.9929 -57.6392 158.8716)">
	<stop  offset="0" style="stop-color:#7FFFB9;stop-opacity:0.2"/>
	<stop  offset="1" style="stop-color:#00143F;stop-opacity:0"/>
</linearGradient>
<polygon fill="url(#SVGID_85_)" points="1592.688,-6.525 1203.086,813.987 1482.101,1132.08 1881.35,-6.525 "/>
<linearGradient id="SVGID_86_" gradientUnits="userSpaceOnUse" x1="838.0674" y1="-491.7468" x2="477.5296" y2="652.1824" gradientTransform="matrix(0.9999 -0.0105 0.0105 0.9999 -50.0756 -3.7344)">
	<stop  offset="0" style="stop-color:#7FFFB9;stop-opacity:0.2"/>
	<stop  offset="1" style="stop-color:#00143F;stop-opacity:0"/>
</linearGradient>
<polygon fill="url(#SVGID_86_)" points="532.031,-6.525 245.588,458.735 488.5,805.184 876.404,-6.525 "/>
<linearGradient id="SVGID_87_" gradientUnits="userSpaceOnUse" x1="2602.8984" y1="-60.8826" x2="2242.3604" y2="1083.0475" gradientTransform="matrix(0.9999 -0.0105 0.0105 0.9999 -50.0756 -3.7344)">
	<stop  offset="0" style="stop-color:#7FFFB9;stop-opacity:0.2"/>
	<stop  offset="1" style="stop-color:#00143F;stop-opacity:0"/>
</linearGradient>
<polygon fill="url(#SVGID_87_)" points="2516.993,-6.525 1982.756,861.218 2225.667,1207.667 2805.913,-6.525 "/>
<linearGradient id="SVGID_88_" gradientUnits="userSpaceOnUse" x1="617.1812" y1="-328.9099" x2="256.6431" y2="815.0201" gradientTransform="matrix(0.62 0.1468 -0.2091 0.883 -1.4268 -120.8762)">
	<stop  offset="0" style="stop-color:#7FFFB9;stop-opacity:0.2"/>
	<stop  offset="1" style="stop-color:#00143F;stop-opacity:0"/>
</linearGradient>
<polygon fill="url(#SVGID_88_)" points="241.059,-6.525 -96.809,438.675 -21.464,781.969 477.8,-6.525 "/>
</svg>
