<?xml version="1.0" encoding="utf-8"?>
<!-- Generator: Adobe Illustrator 16.0.2, SVG Export Plug-In . SVG Version: 6.00 Build 0)  -->
<!DOCTYPE svg PUBLIC "-//W3C//DTD SVG 1.1//EN" "http://www.w3.org/Graphics/SVG/1.1/DTD/svg11.dtd">
<svg version="1.1" xmlns="http://www.w3.org/2000/svg" xmlns:xlink="http://www.w3.org/1999/xlink" x="0px" y="0px"
	 width="2843.15px" height="1697.95px" viewBox="0 0 2843.15 1697.95" enable-background="new 0 0 2843.15 1697.95"
	 xml:space="preserve">
<g id="background">
</g>
<g id="bubbles" display="none">
	<linearGradient id="SVGID_1_" gradientUnits="userSpaceOnUse" x1="484.1201" y1="269.7612" x2="492.8699" y2="464.9196">
		<stop  offset="0" style="stop-color:#F0D0E5"/>
		<stop  offset="1" style="stop-color:#0083A4"/>
	</linearGradient>
	
		<circle display="inline" fill="url(#SVGID_1_)" stroke="#634E42" stroke-width="0.2" stroke-miterlimit="10" cx="487" cy="334" r="60"/>
	<linearGradient id="SVGID_2_" gradientUnits="userSpaceOnUse" x1="927.5747" y1="1015.5195" x2="934.869" y2="1178.2133">
		<stop  offset="0" style="stop-color:#F0D0E5"/>
		<stop  offset="1" style="stop-color:#0083A4"/>
	</linearGradient>
	
		<circle display="inline" fill="url(#SVGID_2_)" stroke="#634E42" stroke-width="0.2" stroke-miterlimit="10" cx="929.976" cy="1069.072" r="50.02"/>
	<linearGradient id="SVGID_3_" gradientUnits="userSpaceOnUse" x1="2167.5762" y1="122.4272" x2="2174.8706" y2="285.1226">
		<stop  offset="0" style="stop-color:#F0D0E5"/>
		<stop  offset="1" style="stop-color:#0083A4"/>
	</linearGradient>
	
		<circle display="inline" fill="url(#SVGID_3_)" stroke="#634E42" stroke-width="0.2" stroke-miterlimit="10" cx="2169.977" cy="175.981" r="50.02"/>
	<linearGradient id="SVGID_4_" gradientUnits="userSpaceOnUse" x1="2547.5762" y1="1312.9258" x2="2554.8704" y2="1475.6195">
		<stop  offset="0" style="stop-color:#F0D0E5"/>
		<stop  offset="1" style="stop-color:#0083A4"/>
	</linearGradient>
	
		<circle display="inline" fill="url(#SVGID_4_)" stroke="#634E42" stroke-width="0.2" stroke-miterlimit="10" cx="2549.977" cy="1366.479" r="50.02"/>
	<linearGradient id="SVGID_5_" gradientUnits="userSpaceOnUse" x1="2790.7305" y1="604.9258" x2="2798.0247" y2="767.6195">
		<stop  offset="0" style="stop-color:#F0D0E5"/>
		<stop  offset="1" style="stop-color:#0083A4"/>
	</linearGradient>
	
		<circle display="inline" fill="url(#SVGID_5_)" stroke="#634E42" stroke-width="0.2" stroke-miterlimit="10" cx="2793.131" cy="658.479" r="50.02"/>
	<linearGradient id="SVGID_6_" gradientUnits="userSpaceOnUse" x1="301.0767" y1="1462.8525" x2="309.8265" y2="1658.0117">
		<stop  offset="0" style="stop-color:#F0D0E5"/>
		<stop  offset="1" style="stop-color:#0083A4"/>
	</linearGradient>
	
		<circle display="inline" fill="url(#SVGID_6_)" stroke="#634E42" stroke-width="0.2" stroke-miterlimit="10" cx="303.957" cy="1527.092" r="60"/>
	<linearGradient id="SVGID_7_" gradientUnits="userSpaceOnUse" x1="1697.0771" y1="389.7612" x2="1705.827" y2="584.9203">
		<stop  offset="0" style="stop-color:#F0D0E5"/>
		<stop  offset="1" style="stop-color:#0083A4"/>
	</linearGradient>
	
		<circle display="inline" fill="url(#SVGID_7_)" stroke="#634E42" stroke-width="0.2" stroke-miterlimit="10" cx="1699.957" cy="454" r="60"/>
	<linearGradient id="SVGID_8_" gradientUnits="userSpaceOnUse" x1="1703.0684" y1="1528.124" x2="1707.2213" y2="1620.754">
		<stop  offset="0" style="stop-color:#F0D0E5"/>
		<stop  offset="1" style="stop-color:#0083A4"/>
	</linearGradient>
	
		<circle display="inline" fill="url(#SVGID_8_)" stroke="#634E42" stroke-width="0.2" stroke-miterlimit="10" cx="1704.435" cy="1558.613" r="28.478"/>
	<linearGradient id="SVGID_9_" gradientUnits="userSpaceOnUse" x1="1941.6328" y1="1307.5098" x2="1945.7858" y2="1400.1382">
		<stop  offset="0" style="stop-color:#F0D0E5"/>
		<stop  offset="1" style="stop-color:#0083A4"/>
	</linearGradient>
	
		<circle display="inline" fill="url(#SVGID_9_)" stroke="#634E42" stroke-width="0.2" stroke-miterlimit="10" cx="1943" cy="1338" r="28.478"/>
	<linearGradient id="SVGID_10_" gradientUnits="userSpaceOnUse" x1="1161.6323" y1="195.5107" x2="1165.7853" y2="288.14">
		<stop  offset="0" style="stop-color:#F0D0E5"/>
		<stop  offset="1" style="stop-color:#0083A4"/>
	</linearGradient>
	
		<circle display="inline" fill="url(#SVGID_10_)" stroke="#634E42" stroke-width="0.2" stroke-miterlimit="10" cx="1163" cy="226" r="28.478"/>
	<linearGradient id="SVGID_11_" gradientUnits="userSpaceOnUse" x1="2285.8047" y1="509.5732" x2="2313.8044" y2="693.5732">
		<stop  offset="0" style="stop-color:#F0D0E5"/>
		<stop  offset="1" style="stop-color:#7A356A"/>
	</linearGradient>
	
		<circle display="inline" fill="url(#SVGID_11_)" stroke="#634E42" stroke-width="0.2" stroke-miterlimit="10" cx="2295" cy="570" r="60"/>
	<linearGradient id="SVGID_12_" gradientUnits="userSpaceOnUse" x1="588.8433" y1="958.8154" x2="611.9042" y2="1110.3593">
		<stop  offset="0" style="stop-color:#F0D0E5"/>
		<stop  offset="1" style="stop-color:#7A356A"/>
	</linearGradient>
	
		<circle display="inline" fill="url(#SVGID_12_)" stroke="#634E42" stroke-width="0.2" stroke-miterlimit="10" cx="596.416" cy="1008.584" r="49.416"/>
	<linearGradient id="SVGID_13_" gradientUnits="userSpaceOnUse" x1="171.4268" y1="26.7769" x2="194.4877" y2="178.3207">
		<stop  offset="0" style="stop-color:#F0D0E5"/>
		<stop  offset="1" style="stop-color:#7A356A"/>
	</linearGradient>
	
		<circle display="inline" fill="url(#SVGID_13_)" stroke="#634E42" stroke-width="0.2" stroke-miterlimit="10" cx="179" cy="76.545" r="49.416"/>
</g>
<g id="sea_x5F_rocks">
</g>
<g id="ship">
	<g id="ship_1_">
		<g id="XMLID_4_">
			<g>
				
					<linearGradient id="SVGID_14_" gradientUnits="userSpaceOnUse" x1="222.4258" y1="1945.3281" x2="72.434" y2="1651.3435" gradientTransform="matrix(1 0 0 -1 1619.9551 2853.0605)">
					<stop  offset="0" style="stop-color:#EC6747"/>
					<stop  offset="1" style="stop-color:#261230"/>
				</linearGradient>
				<path fill="url(#SVGID_14_)" d="M1799.051,860.113c-7.688-0.985-14.618-1.661-20.517-1.958
					c-9.006-0.415-15.639,0.06-18.973,1.744c0,0-79.894,15.021-68.821,154.254c0,0,25.31,98.877,81.48,147.918l30.853,22.948
					c0,0,2.219,0.333,6.324,0.45c0.877,0.023,1.851,0.036,2.906,0.036c6.146-0.013,15.152-0.569,26.365-2.789
					c0,0-195.145-171.187-36.273-322.153C1801.271,860.409,1800.153,860.256,1799.051,860.113z M1701.812,967.475
					c-5.672,0-6.289-15.544-1.389-33.225c4.557-16.411,13.906-38.754,19.59-38.754c5.672,0,4.545,17.799-0.996,35.989
					C1713.677,949.023,1707.494,967.475,1701.812,967.475z"/>
				
					<linearGradient id="SVGID_15_" gradientUnits="userSpaceOnUse" x1="46.3013" y1="1965.502" x2="140.3011" y2="1872.8356" gradientTransform="matrix(1 0 0 -1 1619.9551 2853.0605)">
					<stop  offset="0" style="stop-color:#2B4051"/>
					<stop  offset="1" style="stop-color:#261230"/>
				</linearGradient>
				<path fill="url(#SVGID_15_)" d="M1700.423,934.25c-4.9,17.681-4.284,33.225,1.389,33.225c5.684,0,11.865-18.451,17.205-35.989
					c5.541-18.19,6.668-35.989,0.996-35.989C1714.329,895.496,1704.979,917.84,1700.423,934.25z"/>
				<path fill="#AB9F9B" d="M1803.073,1185.021l-37.971,257.083h4.746l39.549-256.597v-0.035
					C1805.292,1185.354,1803.073,1185.021,1803.073,1185.021z"/>
				
					<linearGradient id="SVGID_16_" gradientUnits="userSpaceOnUse" x1="211.2939" y1="1331.123" x2="219.2939" y2="1699.1237" gradientTransform="matrix(1 0 0 -1 1619.9551 2853.0605)">
					<stop  offset="0.0054" style="stop-color:#975C73"/>
					<stop  offset="1" style="stop-color:#261230"/>
				</linearGradient>
				<path fill="url(#SVGID_16_)" d="M1812.305,1185.507l-39.69,256.597l66.057,19.78l37.176-90.181l20.303-58.142l-28.146-139.363
					c-10.869,4.153-20.741,6.823-29.332,8.52C1827.457,1184.938,1818.451,1185.494,1812.305,1185.507z"/>
				
					<linearGradient id="SVGID_17_" gradientUnits="userSpaceOnUse" x1="158.5791" y1="1995.0313" x2="426.3662" y2="1995.0313" gradientTransform="matrix(1 0 0 -1 1619.9551 2853.0605)">
					<stop  offset="0" style="stop-color:#DC865A"/>
					<stop  offset="1" style="stop-color:#927B91"/>
				</linearGradient>
				<path fill="url(#SVGID_17_)" d="M1778.547,858.013l-0.013,0.143c5.896,0.297,12.827,0.973,20.517,1.958
					c161.671-101.31,240.589,38.646,240.589,38.646l6.682-3.263c0,0-52.446-94.546-163.629-75.715
					c-10.441,1.769-21.395,4.533-32.881,8.472L1778.547,858.013z"/>
				
					<linearGradient id="SVGID_18_" gradientUnits="userSpaceOnUse" x1="194.4883" y1="2027.0742" x2="338.4805" y2="1736.0889" gradientTransform="matrix(1 0 0 -1 1619.9551 2853.0605)">
					<stop  offset="0" style="stop-color:#EC6747"/>
					<stop  offset="1" style="stop-color:#261230"/>
				</linearGradient>
				<path fill="url(#SVGID_18_)" d="M1876.296,1170.806c1.08-0.464,2.172-0.949,3.275-1.459c8.342-3.785,17.146-8.449,26.307-14.168
					c-23.839-24.35-37.876-45.707-37.876-45.707c-11.569-59.875,44.427-59.329,44.427-59.329
					c17.597-1.508,47.616,8.175,80.426,22.105c92.802-123.416,36.974-164.305,35.205-167.84l-17.799,1.78
					c0,0-122.894-32.465-197.422-44.094c-3.596-0.558-7.084-1.08-10.441-1.53c-158.871,150.968,36.272,322.153,36.272,322.153
					c8.591-1.695,18.463-4.365,29.332-8.52v-0.012C1870.707,1173.155,1873.474,1172.028,1876.296,1170.806z M1790.412,946.911
					c0-20.967,20.184-37.97,45.09-37.97s51.414,29.651,51.414,50.631c0,20.967-23.353,34.007-48.246,34.007
					C1813.764,993.579,1790.412,967.878,1790.412,946.911z"/>
				
					<linearGradient id="SVGID_19_" gradientUnits="userSpaceOnUse" x1="179.0957" y1="1988.3125" x2="419.6846" y2="1988.3125" gradientTransform="matrix(1 0 0 -1 1619.9551 2853.0605)">
					<stop  offset="0" style="stop-color:#2B4051"/>
					<stop  offset="1" style="stop-color:#261230"/>
				</linearGradient>
				<path fill="url(#SVGID_19_)" d="M1799.051,860.113c1.104,0.143,2.22,0.296,3.347,0.451c3.357,0.45,6.847,0.973,10.441,1.53
					c74.528,11.629,197.422,44.094,197.422,44.094l17.799-1.78l11.58-5.647C2039.64,898.761,1960.721,758.804,1799.051,860.113z"/>
				
					<linearGradient id="SVGID_20_" gradientUnits="userSpaceOnUse" x1="170.457" y1="1901.8008" x2="266.9609" y2="1901.8008" gradientTransform="matrix(1 0 0 -1 1619.9551 2853.0605)">
					<stop  offset="0" style="stop-color:#2B4051"/>
					<stop  offset="1" style="stop-color:#261230"/>
				</linearGradient>
				<path fill="url(#SVGID_20_)" d="M1835.502,908.941c-24.906,0-45.09,17.003-45.09,37.97s23.353,46.668,48.258,46.668
					c24.896,0,48.246-13.041,48.246-34.007C1886.916,938.593,1860.408,908.941,1835.502,908.941z M1831.61,961.897
					c0-12.673,8.15-22.938,18.201-22.938c10.039,0,18.189,10.265,18.189,22.938c0,12.672-8.15,22.937-18.189,22.937
					C1839.762,984.834,1831.61,974.57,1831.61,961.897z"/>
				<path fill="#C7B8B0" d="M1849.812,938.961c-10.05,0-18.201,10.265-18.201,22.938c0,12.672,8.151,22.937,18.201,22.937
					c10.039,0,18.19-10.264,18.19-22.937C1868.002,949.225,1859.851,938.961,1849.812,938.961z"/>
				
					<linearGradient id="SVGID_21_" gradientUnits="userSpaceOnUse" x1="246.4727" y1="1750.4766" x2="372.8994" y2="1750.4766" gradientTransform="matrix(1 0 0 -1 1619.9551 2853.0605)">
					<stop  offset="0" style="stop-color:#E14448"/>
					<stop  offset="1" style="stop-color:#F8B881"/>
				</linearGradient>
				<path fill="url(#SVGID_21_)" d="M1912.428,1050.143c0,0-55.995-0.545-44.426,59.329c0,0,14.037,21.357,37.876,45.707
					c26.482-16.564,55.887-41.993,85.456-80.912c0.511-0.678,1.021-1.354,1.521-2.019
					C1960.045,1058.318,1930.024,1048.636,1912.428,1050.143z"/>
				
					<linearGradient id="SVGID_22_" gradientUnits="userSpaceOnUse" x1="204.3652" y1="1627.0352" x2="609.3447" y2="1102.0625" gradientTransform="matrix(1 0 0 -1 1619.9551 2853.0605)">
					<stop  offset="0" style="stop-color:#EC6747"/>
					<stop  offset="1" style="stop-color:#261230"/>
				</linearGradient>
				<path fill="url(#SVGID_22_)" d="M1868.002,1174.199l28.146,139.363l35.075,173.631l5.529-1.578l-60.456-314.81
					c-2.823,1.223-5.589,2.35-8.294,3.382V1174.199z"/>
				
					<linearGradient id="SVGID_23_" gradientUnits="userSpaceOnUse" x1="314.4409" y1="1328.8809" x2="322.4409" y2="1696.8802" gradientTransform="matrix(1 0 0 -1 1619.9551 2853.0605)">
					<stop  offset="0.0054" style="stop-color:#975C73"/>
					<stop  offset="1" style="stop-color:#261230"/>
				</linearGradient>
				<path fill="url(#SVGID_23_)" d="M1876.296,1170.806l60.456,314.81l64.075,8.697l-4.746-66.448h4.746l-3.951-91.757l-7.915-3.169
					l-6.323-87.011l-103.065-76.581C1878.468,1169.856,1877.376,1170.342,1876.296,1170.806z"/>
				<path fill="#B892B6" d="M1882.265,817.195l0.428,2.587c111.183-18.831,163.629,75.715,163.629,75.715l-6.682,3.264l-11.58,5.647
					c1.769,3.536,57.597,44.425-35.205,167.84c1.804,0.76,3.618,1.53,5.435,2.326c40.925-47.511,70.838-107.255,41.353-165.634
					l15.77-10.182c0,0-29.533-48.067-49.041-54.688c0,0-26.697-23.34-35.598-20.765c0,0-31.101-9.243-60.241-9.671
					C1894.558,814.715,1884.531,816.708,1882.265,817.195z"/>
				
					<linearGradient id="SVGID_24_" gradientUnits="userSpaceOnUse" x1="593.752" y1="2071.4453" x2="587.7522" y2="1281.446" gradientTransform="matrix(1 0 0 -1 1619.9551 2853.0605)">
					<stop  offset="0" style="stop-color:#EC6747"/>
					<stop  offset="1" style="stop-color:#261230"/>
				</linearGradient>
				<path fill="url(#SVGID_24_)" d="M2342.56,1114.443l5.577,3.216l8.177,4.711c34.563,19.958,62.981,36.559,62.981,36.559
					l7.726,10.086c1.862-1.827,4.105-3.239,6.764-4.142c0.428-0.392,0.865-0.795,1.329-1.211
					c18.202-16.611,60.919,15.817,60.919,15.817l38.386,15.164c-0.712-2.61-1.508-5.647-2.397-9.137
					c-6.562-25.771-25.713-50.037-43.559-68.121l-35.895-31.018c-0.035-0.023-0.048-0.035-0.048-0.035l-104.419-74.161
					L2129.772,870.97c-18.023-11.034-35.752-20.064-52.934-27.409l-0.854,0.51c-15.117-3.478-24.729-7.95-30.791-12.471
					c-16.804-5.519-32.868-9.518-47.902-12.354c-14.561-2.753-28.169-4.426-40.557-5.339c-18.322-1.365-33.996-1.092-46.205-0.273
					c29.142,0.428,60.241,9.67,60.241,9.67c8.899-2.574,35.597,20.766,35.597,20.766c19.509,6.621,49.041,54.689,49.041,54.689
					l-15.77,10.181c29.486,58.379-0.427,118.123-41.352,165.634c29.166,12.672,60.1,28.347,86.191,42.289c0.012,0,0.023,0,0.023,0
					l0.414,0.226c20.672,11.048,38.257,20.979,49.492,27.445l0.582,0.32c0.012,0.012,0.023,0.022,0.035,0.035
					c7.95,4.567,12.542,7.298,12.542,7.298c60.517,58.142-9.492,88.992-9.492,88.992c-3.43,0.808-6.87,1.472-10.323,2.006
					c-0.012,0.012-0.023,0.012-0.023,0.012h-0.012c-72.902,11.438-148.25-33.33-148.25-33.33
					c-28.895-13.693-53.823-34.612-72.749-53.823c-12.091,8.556-19.804,13.302-19.804,13.302
					c133.798,109.662,188.272,116.926,188.272,116.926l198.157,57.382c37.234,8.591,77.197,6.337,112.665,0.153l-0.533-2.36
					l47.095-8.341c35.598-10.074,59.696-21.121,59.696-21.121c15.746-9.908,25.986-30.092,32.631-51.462l-40.735-29.629
					c0,0-22.152,6.337-26.898,8.71s-34.802-16.612-34.802-16.612l-20.575,10.274l-69.641-26.566l-7.084-2.693l-4.723-2.443
					l-109.723-56.706l-3.429-1.769l-3.063-4.533l-0.012-0.012l-7.203-10.68l-6.336-28.275c0,0,3.963-17.407,7.119-22.948
					c3.168-5.528,11.083-15.021,15.034-18.984c2.254-2.255,6.857-2.967,11.568-3.156c3.513-0.143,7.084,0,9.789,0
					C2237.667,1054.497,2293.222,1086.036,2342.56,1114.443z M2204.218,1214.909l18.984-34.933l175.922,79.002l-13.646,15.426
					L2204.218,1214.909z M2248.429,993.188c0,0-34.47-46.953-22.829-49.836c0,0,28.525,6.384,60.681,76.166
					c0,0-40.746-25.535-39.299-25.938C2248.429,993.188,2248.429,993.188,2248.429,993.188z M2254.741,1056.253v-35.431
					l164.554,96.041v27.991L2254.741,1056.253z M2311.317,1034.717c0,0-34.411-54.677-22.545-49.883c0,0,14.5,2.42,25.642,21.406
					l28.134,48.258L2311.317,1034.717z M2364.653,1071.501c-32.108-61.702-22.105-49.742-22.105-49.742
					c33.592,10.774,56.576,69.913,56.576,69.913L2364.653,1071.501z"/>
				<path fill="#F9F0DC" d="M1961.278,784.742c0,0-24.656-2.539-14.238,16.315c4.39,7.949,7.617,10.371,9.872,10.513
					c3.085,0.202,4.366-3.88,4.366-3.88s0.236-0.083,0.604-0.249c2.563-1.175,11.808-6.812-0.581-22.675
					C1961.29,784.754,1961.29,784.754,1961.278,784.742z"/>
				
					<linearGradient id="SVGID_25_" gradientUnits="userSpaceOnUse" x1="341.3232" y1="2052.0391" x2="377.7158" y2="2052.0391" gradientTransform="matrix(1 0 0 -1 1619.9551 2853.0605)">
					<stop  offset="0" style="stop-color:#2B4051"/>
					<stop  offset="1" style="stop-color:#261230"/>
				</linearGradient>
				<path fill="url(#SVGID_25_)" d="M1961.278,784.742c0.012,0.012,0.012,0.012,0.023,0.024c0.771,0.593,18.949,14.867,0.581,22.675
					c-0.368,0.166-0.604,0.249-0.604,0.249l36.393,9.611C1997.671,817.302,1997.671,792.657,1961.278,784.742z"/>
				
					<linearGradient id="SVGID_26_" gradientUnits="userSpaceOnUse" x1="286.7646" y1="1693.2383" x2="507.7637" y2="1693.2383" gradientTransform="matrix(1 0 0 -1 1619.9551 2853.0605)">
					<stop  offset="0" style="stop-color:#E14448"/>
					<stop  offset="1" style="stop-color:#F8B881"/>
				</linearGradient>
				<path fill="url(#SVGID_26_)" d="M1998.288,1074.575c-31.302,36.332-69.035,65.521-91.568,81.47
					c18.926,19.211,43.855,40.13,72.749,53.823c0,0,75.349,44.77,148.25,33.33c-124.232-26.472-93.276-79.523-93.276-79.523v-0.013
					c0-6.62,1.188-12.909,3.336-18.617c1.826-5.114,4.282-9.313,7.118-12.755c0.023-0.036,0.048-0.06,0.071-0.096
					c7.416-9.421,18.119-15.33,30.008-15.33c0.726,0,1.448,0.022,2.172,0.06c4.178-0.319,7.014-0.096,7.334-0.06
					C2058.388,1102.921,2027.454,1087.246,1998.288,1074.575z"/>
				
					<linearGradient id="SVGID_27_" gradientUnits="userSpaceOnUse" x1="411.0625" y1="1673.0859" x2="543.001" y2="1673.0859" gradientTransform="matrix(1 0 0 -1 1619.9551 2853.0605)">
					<stop  offset="0.0054" style="stop-color:#84444F"/>
					<stop  offset="1" style="stop-color:#9F827A"/>
				</linearGradient>
				<path fill="url(#SVGID_27_)" d="M2034.442,1163.674c0,0-30.957,53.053,93.275,79.523h0.012c0,0,0.014,0,0.024-0.012
					c1.554-0.652,73.401-31.61,7.272-98.296c-0.201-0.118-0.402-0.237-0.617-0.355l-49.491-27.445l-0.415-0.226c0,0-0.012,0-0.023,0
					c-0.32-0.036-3.156-0.261-7.333,0.06c21.382,1.306,38.374,21.737,38.374,46.738c0,25.832-18.154,46.787-40.546,46.787
					C2052.584,1210.448,2034.442,1189.505,2034.442,1163.674z"/>
				
					<linearGradient id="SVGID_28_" gradientUnits="userSpaceOnUse" x1="485.2368" y1="1668.2002" x2="399.74" y2="1728.1978" gradientTransform="matrix(1 0 0 -1 1619.9551 2853.0605)">
					<stop  offset="0" style="stop-color:#2B4051"/>
					<stop  offset="1" style="stop-color:#261230"/>
				</linearGradient>
				<path fill="url(#SVGID_28_)" d="M2034.442,1163.661v0.013c0,25.831,18.143,46.774,40.532,46.774s40.546-20.955,40.546-46.787
					c0-25.001-16.992-45.434-38.374-46.738c-8.483,0.664-22.51,3.631-32.18,15.271c-0.024,0.036-0.048,0.06-0.071,0.096
					c-2.943,3.749-5.352,8.058-7.119,12.755C2035.914,1150.241,2034.716,1156.388,2034.442,1163.661z"/>
				<path fill="#F9F0DC" d="M2055.409,794.235c0,0-26.889-15.817-19.77,17.407C2058.577,817.184,2055.409,794.235,2055.409,794.235z
					"/>
				
					<linearGradient id="SVGID_29_" gradientUnits="userSpaceOnUse" x1="415.2041" y1="2034.1641" x2="467.8965" y2="2034.1641" gradientTransform="matrix(1 0 0 -1 1619.9551 2853.0605)">
					<stop  offset="0" style="stop-color:#2B4051"/>
					<stop  offset="1" style="stop-color:#261230"/>
				</linearGradient>
				<path fill="url(#SVGID_29_)" d="M2035.641,811.642c0,0-3.726,10.073,9.554,19.958c10.287,3.381,20.858,7.345,31.646,11.96
					l11.012-6.609c0,0-3.964-40.343-32.44-42.716C2055.409,794.235,2058.577,817.184,2035.641,811.642z"/>
				
					<linearGradient id="SVGID_30_" gradientUnits="userSpaceOnUse" x1="570.7236" y1="1756.541" x2="617.6929" y2="1756.541" gradientTransform="matrix(1 0 0 -1 1619.9551 2853.0605)">
					<stop  offset="0" style="stop-color:#2B4051"/>
					<stop  offset="1" style="stop-color:#261230"/>
				</linearGradient>
				<path fill="url(#SVGID_30_)" d="M2190.679,1099.587l6.336,28.275l7.203,10.68c0,0,59.056-36.984,20.184-84.045
					c-4.711,0.189-9.314,0.901-11.568,3.156c-3.951,3.963-11.866,13.456-15.034,18.985
					C2194.642,1082.181,2190.679,1099.587,2190.679,1099.587z"/>
				
					<linearGradient id="SVGID_31_" gradientUnits="userSpaceOnUse" x1="624.2686" y1="1897.6152" x2="669.2656" y2="1677.1261" gradientTransform="matrix(1 0 0 -1 1619.9551 2853.0605)">
					<stop  offset="0" style="stop-color:#7D779C"/>
					<stop  offset="1" style="stop-color:#456962"/>
				</linearGradient>
				<polygon fill="url(#SVGID_31_)" points="2223.202,1179.978 2204.218,1214.909 2385.479,1274.405 2399.124,1258.979 				"/>
				<path fill="#7C7777" d="M2204.218,1138.542l0.012,0.013l6.49,6.301c64.336-39.358,23.471-90.357,23.471-90.357h-9.789
					C2263.272,1101.558,2204.218,1138.542,2204.218,1138.542z"/>
				
					<linearGradient id="SVGID_32_" gradientUnits="userSpaceOnUse" x1="694.6108" y1="1657.2979" x2="583.616" y2="1850.7893" gradientTransform="matrix(1 0 0 -1 1619.9551 2853.0605)">
					<stop  offset="0" style="stop-color:#E14448"/>
					<stop  offset="1" style="stop-color:#F8B881"/>
				</linearGradient>
				<path fill="url(#SVGID_32_)" d="M2210.72,1144.855l109.723,56.706c0,0,47.381-32.347,22.117-87.118
					c-49.338-28.406-104.893-59.945-108.369-59.945C2234.19,1054.497,2275.056,1105.496,2210.72,1144.855z"/>
				
					<linearGradient id="SVGID_33_" gradientUnits="userSpaceOnUse" x1="603.2441" y1="1871.626" x2="666.3262" y2="1871.626" gradientTransform="matrix(1 0 0 -1 1619.9551 2853.0605)">
					<stop  offset="0" style="stop-color:#2B4051"/>
					<stop  offset="1" style="stop-color:#261230"/>
				</linearGradient>
				<path fill="url(#SVGID_33_)" d="M2225.601,943.352c-11.642,2.884,22.828,49.836,22.828,49.836s0,0-1.446,0.392
					c-1.447,0.403,39.299,25.938,39.299,25.938C2254.125,949.735,2225.601,943.352,2225.601,943.352z"/>
				
					<linearGradient id="SVGID_34_" gradientUnits="userSpaceOnUse" x1="687.665" y1="1910.5537" x2="732.6619" y2="1690.0651" gradientTransform="matrix(1 0 0 -1 1619.9551 2853.0605)">
					<stop  offset="0" style="stop-color:#A29ACB"/>
					<stop  offset="1" style="stop-color:#598B81"/>
				</linearGradient>
				<polygon fill="url(#SVGID_34_)" points="2254.741,1020.823 2254.741,1056.253 2419.295,1144.855 2419.295,1116.864 				"/>
				
					<linearGradient id="SVGID_35_" gradientUnits="userSpaceOnUse" x1="666.3281" y1="1833.5439" x2="722.5918" y2="1833.5439" gradientTransform="matrix(1 0 0 -1 1619.9551 2853.0605)">
					<stop  offset="0" style="stop-color:#2B4051"/>
					<stop  offset="1" style="stop-color:#261230"/>
				</linearGradient>
				<path fill="url(#SVGID_35_)" d="M2288.772,984.834c-11.866-4.794,22.545,49.883,22.545,49.883l31.229,19.78l-28.134-48.258
					C2303.272,987.254,2288.772,984.834,2288.772,984.834z"/>
				
					<linearGradient id="SVGID_36_" gradientUnits="userSpaceOnUse" x1="700.4873" y1="1692.4893" x2="744.6934" y2="1692.4893" gradientTransform="matrix(1 0 0 -1 1619.9551 2853.0605)">
					<stop  offset="0" style="stop-color:#2B4051"/>
					<stop  offset="1" style="stop-color:#261230"/>
				</linearGradient>
				<path fill="url(#SVGID_36_)" d="M2320.442,1201.562l11.806,5.138c54.155-32.097,24.063-84.329,24.063-84.329l-8.176-4.711
					c-1.852-1.068-3.702-2.136-5.577-3.216C2367.822,1169.215,2320.442,1201.562,2320.442,1201.562z"/>
				
					<linearGradient id="SVGID_37_" gradientUnits="userSpaceOnUse" x1="851.2261" y1="1592.6514" x2="685.2261" y2="1854.6514" gradientTransform="matrix(1 0 0 -1 1619.9551 2853.0605)">
					<stop  offset="0.0054" style="stop-color:#84444F"/>
					<stop  offset="1" style="stop-color:#9F827A"/>
				</linearGradient>
				<path fill="url(#SVGID_37_)" d="M2332.248,1206.699l69.642,26.567l20.574-10.275c0,0,30.057,18.985,34.803,16.612
					s26.898-8.71,26.898-8.71l40.735,29.629c6.821-22.011,9.86-45.291,11.178-59.97c-0.499-1.673-1.045-3.632-1.661-5.909
					l-38.386-15.164c0,0-42.717-32.429-60.919-15.817c-0.463,0.416-0.9,0.819-1.329,1.211c2.267-0.795,4.842-1.211,7.749-1.211
					c16.386,0,29.664,13.278,29.664,29.665c0,16.374-13.278,29.664-29.664,29.664c-16.375,0-22.237-13.29-22.237-29.664
					c0-9.991,2.185-18.831,7.606-24.183c0.07-0.083,0.117-0.131,0.117-0.131l-7.725-10.086c0,0-28.418-16.601-62.982-36.559
					C2356.313,1122.369,2386.403,1174.603,2332.248,1206.699z"/>
				
					<linearGradient id="SVGID_38_" gradientUnits="userSpaceOnUse" x1="721.1187" y1="1796.8105" x2="779.1689" y2="1796.8105" gradientTransform="matrix(1 0 0 -1 1619.9551 2853.0605)">
					<stop  offset="0" style="stop-color:#2B4051"/>
					<stop  offset="1" style="stop-color:#261230"/>
				</linearGradient>
				<path fill="url(#SVGID_38_)" d="M2342.548,1021.76c0,0-10.003-11.96,22.105,49.742l34.471,20.171
					C2399.124,1091.672,2376.14,1032.534,2342.548,1021.76z"/>
				
					<linearGradient id="SVGID_39_" gradientUnits="userSpaceOnUse" x1="791.1724" y1="1318.5156" x2="799.1725" y2="1686.5208" gradientTransform="matrix(1 0 0 -1 1619.9551 2853.0605)">
					<stop  offset="0.0054" style="stop-color:#975C73"/>
					<stop  offset="1" style="stop-color:#261230"/>
				</linearGradient>
				<path fill="url(#SVGID_39_)" d="M2386.012,1343.808l4.782,21.369c0,0,20.967-3.215,53.206-33.342v24.515
					c0.498-14.487,0.807-24.989,0.807-24.989h-2.373l-9.86,1.745C2418.571,1337.068,2402.802,1340.876,2386.012,1343.808z"/>
				<path fill="#466B62" d="M2390.794,1365.177l4.746,21.217c10.645,6.371,48.46-30.044,48.46-30.044v-24.515
					C2411.761,1361.962,2390.794,1365.177,2390.794,1365.177z"/>
				
					<linearGradient id="SVGID_40_" gradientUnits="userSpaceOnUse" x1="796.2656" y1="1318.4033" x2="804.2659" y2="1686.4117" gradientTransform="matrix(1 0 0 -1 1619.9551 2853.0605)">
					<stop  offset="0.0054" style="stop-color:#975C73"/>
					<stop  offset="1" style="stop-color:#261230"/>
				</linearGradient>
				<path fill="url(#SVGID_40_)" d="M2395.54,1386.394l8.923,39.893c0,0,32.632,20.766,35.004,13.646
					c1.614-4.83,3.489-53.053,4.533-83.584C2444,1356.35,2406.185,1392.766,2395.54,1386.394z"/>
				
					<linearGradient id="SVGID_41_" gradientUnits="userSpaceOnUse" x1="799.3398" y1="1659.7344" x2="851.2412" y2="1659.7344" gradientTransform="matrix(1 0 0 -1 1619.9551 2853.0605)">
					<stop  offset="0" style="stop-color:#2B4051"/>
					<stop  offset="1" style="stop-color:#261230"/>
				</linearGradient>
				<path fill="url(#SVGID_41_)" d="M2426.901,1169.145c-5.424,5.352-7.606,14.19-7.606,24.183c0,16.374,5.862,29.664,22.237,29.664
					c16.386,0,29.664-13.29,29.664-29.664c0-16.387-13.278-29.665-29.664-29.665c-2.907,0-5.482,0.416-7.749,1.211
					C2418.536,1178.707,2425.846,1170.342,2426.901,1169.145z"/>
				
					<linearGradient id="SVGID_42_" gradientUnits="userSpaceOnUse" x1="820.2227" y1="1884.8252" x2="926.2227" y2="1664.8252" gradientTransform="matrix(1 0 0 -1 1619.9551 2853.0605)">
					<stop  offset="0" style="stop-color:#EC6747"/>
					<stop  offset="1" style="stop-color:#261230"/>
				</linearGradient>
				<path fill="url(#SVGID_42_)" d="M2452.521,1086.333c0,0,0.012,0.012,0.047,0.035c1.009,0.712,17.787,12.685,35.895,31.018
					l12.114,10.478h2.967l28.479-61.108C2509.476,1009.799,2452.521,1086.333,2452.521,1086.333z"/>
				
					<linearGradient id="SVGID_43_" gradientUnits="userSpaceOnUse" x1="784.6602" y1="1824.248" x2="1156.6534" y2="1292.2577" gradientTransform="matrix(1 0 0 -1 1619.9551 2853.0605)">
					<stop  offset="0.0054" style="stop-color:#975C73"/>
					<stop  offset="1" style="stop-color:#261230"/>
				</linearGradient>
				<path fill="url(#SVGID_43_)" d="M2524.899,1260.522l7.119,5.186l1.211,0.642c4.235-22.533,19.376-41.223,39.727-50.383v-6.099
					l-34.34-13.563c1.293,9.813,2.207,20.49-2.539,4.246C2534.761,1215.231,2531.723,1238.511,2524.899,1260.522z"/>
				
					<linearGradient id="SVGID_44_" gradientUnits="userSpaceOnUse" x1="912.0635" y1="1550.2725" x2="947.957" y2="1550.2725" gradientTransform="matrix(1 0 0 -1 1619.9551 2853.0605)">
					<stop  offset="0" style="stop-color:#2B4051"/>
					<stop  offset="1" style="stop-color:#261230"/>
				</linearGradient>
				<path fill="url(#SVGID_44_)" d="M2533.229,1266.349c-0.795,4.188-1.211,8.508-1.211,12.934c0,25.57,13.824,47.902,34.398,59.945
					c0.262-1.756,0.725-3.5,1.495-4.983c-18.498-11.296-30.851-31.682-30.851-54.962c0-3.561,0.284-7.062,0.854-10.466
					L2533.229,1266.349z"/>
				
					<linearGradient id="SVGID_45_" gradientUnits="userSpaceOnUse" x1="913.2744" y1="1610.668" x2="953.001" y2="1610.668" gradientTransform="matrix(1 0 0 -1 1619.9551 2853.0605)">
					<stop  offset="0" style="stop-color:#2B4051"/>
					<stop  offset="1" style="stop-color:#261230"/>
				</linearGradient>
				<path fill="url(#SVGID_45_)" d="M2533.229,1266.349l4.688,2.468c3.395-20.801,16.768-38.255,35.039-47.272v-5.576
					C2552.606,1225.126,2537.466,1243.815,2533.229,1266.349z"/>
				
					<linearGradient id="SVGID_46_" gradientUnits="userSpaceOnUse" x1="789.4697" y1="1827.6133" x2="1161.4663" y2="1295.6183" gradientTransform="matrix(1 0 0 -1 1619.9551 2853.0605)">
					<stop  offset="0.0054" style="stop-color:#975C73"/>
					<stop  offset="1" style="stop-color:#261230"/>
				</linearGradient>
				<path fill="url(#SVGID_46_)" d="M2537.917,1268.816l19.814,10.466l15.225,45.754l24.325,6.324c0,0,21.357-23.34,17.407-32.238
					c-3.965-8.899,0.485-3.358,0.485-3.358l6.634-16.48h11.069l-59.922-47.594v-10.146
					C2554.685,1230.562,2541.312,1248.016,2537.917,1268.816z"/>
				
					<linearGradient id="SVGID_47_" gradientUnits="userSpaceOnUse" x1="756.4619" y1="1804.5488" x2="1128.4729" y2="1272.5332" gradientTransform="matrix(1 0 0 -1 1619.9551 2853.0605)">
					<stop  offset="0.0054" style="stop-color:#975C73"/>
					<stop  offset="1" style="stop-color:#261230"/>
				</linearGradient>
				<path fill="url(#SVGID_47_)" d="M2566.418,1339.228c-0.699,4.698,0.013,9.469,0.013,9.469l23.139,16.48
					c17.799-2.966,16.611-16.48,16.611-16.48l-0.083-0.166c-1.543,0.119-3.098,0.166-4.663,0.166
					C2588.655,1348.696,2576.694,1345.243,2566.418,1339.228z"/>
				
					<linearGradient id="SVGID_48_" gradientUnits="userSpaceOnUse" x1="946.4629" y1="1511.5918" x2="986.1436" y2="1511.5918" gradientTransform="matrix(1 0 0 -1 1619.9551 2853.0605)">
					<stop  offset="0" style="stop-color:#2B4051"/>
					<stop  offset="1" style="stop-color:#261230"/>
				</linearGradient>
				<path fill="url(#SVGID_48_)" d="M2567.913,1334.243c-0.771,1.483-1.232,3.229-1.495,4.983
					c10.276,6.017,22.237,9.469,35.017,9.469c1.565,0,3.121-0.047,4.664-0.166l-2.588-4.912c-0.688,0.022-1.377,0.035-2.075,0.035
					C2589.153,1343.653,2577.679,1340.212,2567.913,1334.243z"/>
				
					<linearGradient id="SVGID_49_" gradientUnits="userSpaceOnUse" x1="947.958" y1="1516.1191" x2="983.5547" y2="1516.1191" gradientTransform="matrix(1 0 0 -1 1619.9551 2853.0605)">
					<stop  offset="0" style="stop-color:#2B4051"/>
					<stop  offset="1" style="stop-color:#261230"/>
				</linearGradient>
				<path fill="url(#SVGID_49_)" d="M2579.481,1331.36c-6.396-2.516-9.801-0.521-11.568,2.884c9.766,5.969,21.24,9.409,33.521,9.409
					c0.699,0,1.388-0.012,2.076-0.035l-2.076-3.951L2579.481,1331.36z"/>
				
					<linearGradient id="SVGID_50_" gradientUnits="userSpaceOnUse" x1="955.042" y1="1636.9463" x2="973.6357" y2="1636.9463" gradientTransform="matrix(1 0 0 -1 1619.9551 2853.0605)">
					<stop  offset="0" style="stop-color:#2B4051"/>
					<stop  offset="1" style="stop-color:#261230"/>
				</linearGradient>
				<path fill="url(#SVGID_50_)" d="M2574.997,1215.088l1.84,4.688c5.269-2.184,10.894-3.678,16.754-4.391l-10.976-2.932
					C2580.017,1213.179,2577.466,1214.057,2574.997,1215.088z"/>
				
					<linearGradient id="SVGID_51_" gradientUnits="userSpaceOnUse" x1="830.1357" y1="1856.0566" x2="1202.1393" y2="1324.0515" gradientTransform="matrix(1 0 0 -1 1619.9551 2853.0605)">
					<stop  offset="0.0054" style="stop-color:#975C73"/>
					<stop  offset="1" style="stop-color:#261230"/>
				</linearGradient>
				<path fill="url(#SVGID_51_)" d="M2576.837,1219.775l4.426,11.319l52.59,47.106l4.365,3.916l27.457,1.293
					c0.083-1.364,0.131-2.74,0.131-4.129c0-21.015-10.073-39.679-25.652-51.426l-46.563-12.472
					C2587.729,1216.098,2582.104,1217.592,2576.837,1219.775z"/>
				
					<linearGradient id="SVGID_52_" gradientUnits="userSpaceOnUse" x1="962.6602" y1="1632.7344" x2="1031.1367" y2="1632.7344" gradientTransform="matrix(1 0 0 -1 1619.9551 2853.0605)">
					<stop  offset="0" style="stop-color:#2B4051"/>
					<stop  offset="1" style="stop-color:#261230"/>
				</linearGradient>
				<path fill="url(#SVGID_52_)" d="M2582.615,1212.453l10.976,2.932c2.575-0.309,5.187-0.476,7.844-0.476
					c14.535,0,27.943,4.818,38.719,12.946l10.938,2.931c-12.601-12.91-30.198-20.919-49.657-20.919
					C2594.908,1209.867,2588.596,1210.77,2582.615,1212.453z"/>
				
					<linearGradient id="SVGID_53_" gradientUnits="userSpaceOnUse" x1="983.5557" y1="1537.0908" x2="1050.751" y2="1537.0908" gradientTransform="matrix(1 0 0 -1 1619.9551 2853.0605)">
					<stop  offset="0" style="stop-color:#2B4051"/>
					<stop  offset="1" style="stop-color:#261230"/>
				</linearGradient>
				<path fill="url(#SVGID_53_)" d="M2603.511,1343.617l2.587,4.912c27.113-1.791,49.979-19.151,59.708-43.238
					c2.421-5.979,4.034-12.376,4.699-19.057c0.083-0.854,0.154-1.722,0.201-2.587l-5.031-0.237
					C2663.587,1316.362,2636.723,1342.563,2603.511,1343.617z"/>
				
					<linearGradient id="SVGID_54_" gradientUnits="userSpaceOnUse" x1="1020.1982" y1="1597.3086" x2="1050.8936" y2="1597.3086" gradientTransform="matrix(1 0 0 -1 1619.9551 2853.0605)">
					<stop  offset="0" style="stop-color:#2B4051"/>
					<stop  offset="1" style="stop-color:#261230"/>
				</linearGradient>
				<path fill="url(#SVGID_54_)" d="M2651.092,1230.786l-10.938-2.931c15.579,11.747,25.652,30.411,25.652,51.426
					c0,1.389-0.048,2.765-0.131,4.129l5.031,0.237c0.095-1.447,0.143-2.896,0.143-4.366
					C2670.849,1260.415,2663.313,1243.306,2651.092,1230.786z"/>
				
					<linearGradient id="SVGID_55_" gradientUnits="userSpaceOnUse" x1="862.959" y1="1879.0049" x2="1234.959" y2="1347.0049" gradientTransform="matrix(1 0 0 -1 1619.9551 2853.0605)">
					<stop  offset="0.0054" style="stop-color:#975C73"/>
					<stop  offset="1" style="stop-color:#261230"/>
				</linearGradient>
				<path fill="url(#SVGID_55_)" d="M2674.408,1237.028l-23.316-6.241c12.222,12.52,19.757,29.629,19.757,48.495
					c0,1.472-0.048,2.919-0.143,4.366l55.911,2.623l-12.459-22.545L2674.408,1237.028z"/>
				
					<linearGradient id="SVGID_56_" gradientUnits="userSpaceOnUse" x1="1045.8506" y1="1553.9531" x2="1069.6812" y2="1553.9531" gradientTransform="matrix(1 0 0 -1 1619.9551 2853.0605)">
					<stop  offset="0" style="stop-color:#2B4051"/>
					<stop  offset="1" style="stop-color:#261230"/>
				</linearGradient>
				<path fill="url(#SVGID_56_)" d="M2665.806,1305.291l5.043,3.524c0,0-1.779,7.119,12.459,0c14.239-7.12,0-22.545,0-22.545
					h-12.459l-0.344-0.036C2669.84,1292.915,2668.228,1299.312,2665.806,1305.291z"/>
			</g>
			<g>
				<path fill="none" stroke="#010202" stroke-width="2" stroke-miterlimit="10" d="M1876.296,1170.806
					c1.08-0.464,2.172-0.949,3.275-1.459c8.342-3.785,17.146-8.449,26.307-14.168c26.483-16.564,55.887-41.993,85.456-80.912
					c0.511-0.678,1.021-1.354,1.521-2.019c92.802-123.416,36.974-164.305,35.205-167.84l-17.799,1.78
					c0,0-122.894-32.465-197.422-44.094c-3.596-0.558-7.084-1.08-10.441-1.53c-1.127-0.154-2.242-0.309-3.347-0.451
					c-7.688-0.985-14.618-1.661-20.517-1.958c-9.006-0.415-15.639,0.06-18.973,1.744c0,0-79.894,15.021-68.821,154.254
					c0,0,25.31,98.877,81.48,147.918l30.853,22.948c0,0,2.219,0.333,6.324,0.45c0.877,0.023,1.851,0.036,2.906,0.036
					c6.146-0.013,15.152-0.569,26.365-2.789c8.591-1.695,18.463-4.365,29.332-8.52"/>
				<path fill="none" stroke="#010202" stroke-miterlimit="10" d="M1790.412,946.911c0,20.967,23.353,46.668,48.258,46.668
					c24.896,0,48.246-13.041,48.246-34.007c0-20.979-26.508-50.631-51.414-50.631S1790.412,925.944,1790.412,946.911z"/>
				<path fill="none" stroke="#010202" stroke-miterlimit="10" d="M1868.002,961.897c0,12.672-8.151,22.937-18.19,22.937
					c-10.05,0-18.201-10.264-18.201-22.937s8.151-22.938,18.201-22.938C1859.851,938.961,1868.002,949.225,1868.002,961.897z"/>
				<path fill="none" stroke="#010202" stroke-width="2" stroke-miterlimit="10" d="M1838.67,1182.718
					c0,0-195.144-171.187-36.272-322.153"/>
				<path fill="none" stroke="#010202" stroke-width="2" stroke-miterlimit="10" d="M2028.06,904.408l11.58-5.647l6.682-3.264
					c0,0-52.446-94.546-163.629-75.715c-10.441,1.768-21.395,4.533-32.881,8.472l-71.265,29.759"/>
				<path fill="none" stroke="#010202" stroke-width="2" stroke-miterlimit="10" d="M2045.192,831.601
					c6.063,4.521,15.675,8.994,30.791,12.471l0.854-0.51l11.012-6.609c0,0-3.964-40.343-32.44-42.716c0,0,3.168,22.948-19.77,17.407
					C2035.641,811.642,2031.915,821.716,2045.192,831.601z"/>
				<path fill="none" stroke="#010202" stroke-width="2" stroke-miterlimit="10" d="M2039.64,898.761
					c0,0-78.919-139.957-240.589-38.646c-0.237,0.143-0.487,0.296-0.725,0.451"/>
				<path fill="none" stroke="#010202" stroke-width="2" stroke-miterlimit="10" d="M2055.409,794.235
					c0,0-26.889-15.817-19.77,17.407"/>
				<path fill="none" stroke="#010202" stroke-width="2" stroke-miterlimit="10" d="M1961.278,807.69l36.393,9.611
					c0,0,0-24.646-36.393-32.561"/>
				<path fill="none" stroke="#010202" stroke-width="2" stroke-miterlimit="10" d="M1961.303,784.767
					c0.771,0.593,18.949,14.867,0.581,22.675"/>
				<path fill="none" stroke="#010202" stroke-miterlimit="10" d="M2395.54,1386.394l8.923,39.893c0,0,32.632,20.766,35.004,13.646
					c1.614-4.83,3.489-53.053,4.533-83.584c0.498-14.486,0.807-24.988,0.807-24.988h-2.373l-9.86,1.745l-47.095,8.341l0.533,2.36
					l4.782,21.37"/>
				<polyline fill="none" stroke="#010202" stroke-miterlimit="10" points="2452.565,1086.368 2488.461,1117.386 2500.575,1127.863 
									"/>
				<path fill="none" stroke="#010202" stroke-miterlimit="10" d="M2503.542,1127.863l28.479-61.108
					c-22.545-56.955-79.5,19.579-79.5,19.579"/>
				<path fill="none" stroke="#010202" stroke-miterlimit="10" d="M2533.229,1266.349c-0.795,4.188-1.211,8.508-1.211,12.934
					c0,25.57,13.824,47.902,34.398,59.945c10.275,6.017,22.237,9.469,35.018,9.469c1.564,0,3.119-0.047,4.662-0.166
					c27.113-1.791,49.979-19.151,59.709-43.238c2.42-5.979,4.033-12.376,4.698-19.057c0.083-0.854,0.154-1.721,0.201-2.587
					c0.095-1.447,0.144-2.896,0.144-4.366c0-18.866-7.535-35.978-19.758-48.495c-12.601-12.91-30.197-20.919-49.656-20.919
					c-6.526,0-12.84,0.901-18.819,2.586c-2.6,0.725-5.149,1.604-7.618,2.635c-0.688,0.272-1.364,0.569-2.041,0.878
					C2552.606,1225.126,2537.466,1243.815,2533.229,1266.349z"/>
				<path fill="none" stroke="#010202" stroke-miterlimit="10" d="M2537.917,1268.816c-0.569,3.405-0.854,6.905-0.854,10.466
					c0,23.28,12.353,43.666,30.851,54.962c9.767,5.969,21.24,9.409,33.521,9.409c0.699,0,1.389-0.012,2.076-0.035
					c33.212-1.056,60.076-27.256,62.164-60.207c0.083-1.364,0.131-2.74,0.131-4.129c0-21.016-10.073-39.679-25.652-51.426
					c-10.774-8.128-24.184-12.946-38.719-12.946c-2.657,0-5.269,0.167-7.844,0.476c-5.861,0.712-11.486,2.207-16.754,4.391
					c-1.316,0.546-2.609,1.127-3.881,1.769C2554.685,1230.562,2541.312,1248.016,2537.917,1268.816z"/>
				<polygon fill="none" stroke="#010202" stroke-miterlimit="10" points="2670.706,1283.648 2726.617,1286.271 2714.158,1263.727 
					2674.408,1237.028 2651.092,1230.786 2640.151,1227.856 2593.591,1215.385 2582.615,1212.453 2572.956,1209.867 
					2574.997,1215.088 2576.837,1219.775 2581.263,1231.095 2633.853,1278.201 2638.218,1282.117 2665.675,1283.41 				"/>
				<path fill="none" stroke="#010202" stroke-miterlimit="10" d="M2670.849,1286.271h12.459c0,0,14.239,15.425,0,22.545
					c-14.238,7.119-12.459,0-12.459,0l-5.043-3.524"/>
				<path fill="none" stroke="#010202" stroke-miterlimit="10" d="M2606.098,1348.53l0.083,0.166c0,0,1.188,13.516-16.611,16.48
					l-23.139-16.48c0,0-0.712-4.771-0.013-9.469c0.262-1.756,0.726-3.5,1.495-4.983c1.77-3.405,5.174-5.397,11.569-2.884
					l21.952,8.307l2.075,3.951L2606.098,1348.53z"/>
				<path fill="none" stroke="#010202" stroke-miterlimit="10" d="M2426.901,1169.145c-5.424,5.352-7.606,14.19-7.606,24.183
					c0,16.374,5.862,29.664,22.237,29.664c16.386,0,29.664-13.29,29.664-29.664c0-16.387-13.278-29.665-29.664-29.665
					c-2.907,0-5.482,0.416-7.749,1.211c-2.657,0.901-4.9,2.313-6.765,4.142"/>
				<path fill="none" stroke="#010202" stroke-miterlimit="10" d="M2204.229,1138.554l3.063,4.533l3.429,1.769l109.724,56.706
					l4.723,2.443l7.083,2.693l69.641,26.566l20.575-10.274c0,0,30.056,18.985,34.802,16.612s26.899-8.711,26.899-8.711l40.734,29.63
					l7.119,5.186l1.211,0.642l4.688,2.468l19.814,10.466l15.225,45.754l24.324,6.324c0,0,21.358-23.34,17.407-32.238
					c-3.964-8.899,0.486-3.358,0.486-3.358l6.633-16.48h11.07l-59.922-47.594v-10.146v-5.577v-6.099l-34.339-13.563l-2.125-0.843
					l-2.075-0.818l-38.386-15.164c0,0-42.718-32.43-60.92-15.817c-0.463,0.416-0.9,0.819-1.328,1.211
					c-15.248,13.835-7.938,5.47-6.883,4.271c0.071-0.082,0.118-0.131,0.118-0.131l-7.726-10.086c0,0-28.418-16.6-62.981-36.558"/>
				<path fill="none" stroke="#010202" stroke-miterlimit="10" d="M2348.137,1117.658c-1.852-1.068-3.702-2.136-5.577-3.216
					c-49.338-28.406-104.893-59.945-108.368-59.945c-2.706,0-6.277-0.143-9.789,0c-4.711,0.189-9.315,0.901-11.569,3.156
					c-3.951,3.963-11.866,13.456-15.034,18.984c-3.155,5.541-7.118,22.948-7.118,22.948l6.336,28.275l7.202,10.68"/>
				<path fill="none" stroke="#010202" stroke-miterlimit="10" d="M1881.838,817.29c0.071-0.012,0.213-0.048,0.427-0.095
					c2.268-0.486,12.293-2.479,28.266-3.56c12.209-0.819,27.884-1.093,46.205,0.272c12.388,0.914,25.996,2.586,40.557,5.339
					c15.034,2.836,31.1,6.835,47.902,12.354c10.287,3.381,20.858,7.345,31.646,11.96c17.183,7.345,34.909,16.375,52.934,27.409
					l218.327,141.202l104.42,74.161c0,0,0.012,0.012,0.047,0.035c1.009,0.712,17.787,12.685,35.895,31.018
					c17.846,18.083,36.997,42.35,43.56,68.121c0.89,3.488,1.686,6.525,2.396,9.137c0.616,2.277,1.162,4.235,1.661,5.908
					c4.746,16.244,3.832,5.565,2.539-4.246c-0.725-5.543-1.555-10.799-1.555-10.799s-0.096,3.737-0.569,9.955
					c-0.106,1.542-0.249,3.251-0.415,5.09c-1.316,14.68-4.355,37.959-11.178,59.971c-6.646,21.37-16.885,41.554-32.631,51.462
					c0,0-24.101,11.047-59.696,21.121c-14.002,3.963-29.771,7.771-46.563,10.702c-35.467,6.183-75.43,8.437-112.665-0.154
					l-198.156-57.382c0,0-54.477-7.263-188.273-116.925c0,0,7.713-4.747,19.804-13.303c22.533-15.946,60.267-45.138,91.568-81.47
					c40.925-47.511,70.838-107.255,41.353-165.634l15.77-10.182c0,0-29.533-48.067-49.041-54.688c0,0-26.697-23.34-35.598-20.765
					c0,0-31.101-9.243-60.241-9.671C1900.229,813.481,1890.179,814.431,1881.838,817.29c-0.036,0.012-0.06,0.012-0.06,0.012"/>
				<path fill="none" stroke="#010202" stroke-width="2" stroke-miterlimit="10" d="M2084.479,1116.864
					c-26.093-13.942-57.025-29.617-86.191-42.289c-1.814-0.796-3.631-1.566-5.436-2.326c-32.809-13.931-62.828-23.613-80.426-22.105
					c0,0-55.994-0.545-44.426,59.328c0,0,14.037,21.358,37.876,45.707c0.272,0.284,0.558,0.581,0.842,0.866
					c18.927,19.211,43.855,40.13,72.749,53.823c0,0,75.348,44.77,148.25,33.33"/>
				<path fill="none" stroke="#010202" stroke-width="2" stroke-miterlimit="10" d="M2127.755,1243.187
					c3.453-0.534,6.895-1.198,10.323-2.006c0,0,70.008-30.852,9.491-88.992c0,0-4.592-2.729-12.541-7.298
					c-0.202-0.118-0.403-0.237-0.617-0.355c-11.236-6.467-28.821-16.397-49.492-27.445"/>
				<path fill="none" stroke="#010202" stroke-width="2" stroke-miterlimit="10" d="M2342.548,1114.432l0.012,0.012l5.577,3.216
					l8.177,4.711c0,0,30.091,52.232-24.064,84.329l-11.806-5.138c0,0,47.38-32.347,22.116-87.118"/>
				<path fill="none" stroke="#010202" stroke-width="2" stroke-miterlimit="10" d="M2234.19,1054.497
					c0,0,40.864,50.999-23.472,90.357l-6.489-6.302l-0.013-0.012c0,0,59.056-36.985,20.185-84.045L2234.19,1054.497
					L2234.19,1054.497z"/>
				<path fill="none" stroke="#010202" stroke-width="2" stroke-miterlimit="10" d="M2044.897,1132.289
					c-2.943,3.749-5.353,8.058-7.119,12.755c-2.148,5.708-3.335,11.997-3.335,18.617"/>
				<path fill="none" stroke="#010202" stroke-width="2" stroke-miterlimit="10" d="M2034.442,1163.674
					c0,25.831,18.143,46.774,40.532,46.774s40.546-20.955,40.546-46.787c0-25.001-16.992-45.434-38.374-46.738
					c-0.724-0.035-1.446-0.06-2.172-0.06c-11.889,0-22.592,5.909-30.008,15.33"/>
				<path fill="none" stroke="#010202" stroke-width="2" stroke-miterlimit="10" d="M2034.442,1163.661v0.013
					c0,0-30.957,53.053,93.275,79.523h0.012c0,0,0.014,0,0.024-0.012c1.554-0.652,73.401-31.61,7.272-98.296
					c-0.012-0.013-0.022-0.023-0.035-0.035l-0.582-0.32l-49.491-27.445l-0.415-0.226c0,0-0.012,0-0.023,0
					c-0.32-0.036-3.156-0.261-7.333,0.06c-8.483,0.664-22.51,3.631-32.18,15.271c-0.024,0.036-0.048,0.06-0.071,0.096
					c-2.836,3.44-5.292,7.641-7.119,12.755C2035.914,1150.241,2034.716,1156.388,2034.442,1163.661z"/>
				<path fill="none" stroke="#010202" stroke-width="2" stroke-miterlimit="10" d="M2444,1356.35c0,0-37.815,36.416-48.46,30.044
					l-4.746-21.217c0,0,20.967-3.215,53.206-33.342V1356.35z"/>
				<path fill="none" stroke="#010202" stroke-width="2" stroke-miterlimit="10" d="M1961.278,784.742
					c0,0-24.656-2.539-14.238,16.315c4.39,7.949,7.617,10.371,9.872,10.513c3.085,0.202,4.366-3.88,4.366-3.88
					s0.236-0.083,0.604-0.249c2.563-1.175,11.808-6.812-0.581-22.675C1961.29,784.754,1961.29,784.754,1961.278,784.742z"/>
				<path fill="none" stroke="#010202" stroke-width="2" stroke-miterlimit="10" d="M2286.28,1019.518
					c0,0-40.746-25.535-39.299-25.938c1.446-0.392,1.446-0.392,1.446-0.392s-34.47-46.953-22.829-49.836
					C2225.601,943.352,2254.125,949.735,2286.28,1019.518z"/>
				<path fill="none" stroke="#010202" stroke-width="2" stroke-miterlimit="10" d="M2364.653,1071.501l34.471,20.171
					c0,0-22.984-59.138-56.576-69.913C2342.548,1021.76,2332.545,1009.799,2364.653,1071.501z"/>
				<polygon fill="none" stroke="#010202" stroke-width="2" stroke-miterlimit="10" points="2419.295,1116.864 2419.295,1144.855 
					2254.741,1056.253 2254.741,1020.823 				"/>
				<polygon fill="none" stroke="#010202" stroke-width="2" stroke-miterlimit="10" points="2399.124,1258.979 2385.479,1274.405 
					2204.218,1214.909 2223.202,1179.978 				"/>
				<polyline fill="none" stroke="#010202" stroke-width="2" stroke-miterlimit="10" points="1896.147,1313.563 1875.846,1371.703 
					1838.67,1461.883 1772.613,1442.104 1812.305,1185.507 				"/>
				<path fill="none" stroke="#010202" stroke-width="2" stroke-miterlimit="10" d="M1876.296,1170.806
					c-2.822,1.223-5.589,2.35-8.294,3.382v0.012"/>
				
					<line fill="none" stroke="#010202" stroke-width="2" stroke-miterlimit="10" x1="1868.002" y1="1174.199" x2="1896.147" y2="1313.563"/>
				<polyline fill="none" stroke="#010202" stroke-width="2" stroke-miterlimit="10" points="1936.752,1485.615 1931.224,1487.193 
					1896.147,1313.563 				"/>
				
					<line fill="none" stroke="#010202" stroke-width="2" stroke-miterlimit="10" x1="1876.296" y1="1170.806" x2="1876.296" y2="1170.793"/>
				
					<line fill="none" stroke="#010202" stroke-width="2" stroke-miterlimit="10" x1="1876.296" y1="1170.806" x2="1936.752" y2="1485.615"/>
				<polyline fill="none" stroke="#010202" stroke-width="2" stroke-miterlimit="10" points="1879.571,1169.347 1982.637,1245.927 
					1988.961,1332.938 1996.876,1336.107 2000.827,1427.864 1996.081,1427.864 2000.827,1494.313 1936.752,1485.615 				"/>
			</g>
		</g>
		
			<linearGradient id="SVGID_57_" gradientUnits="userSpaceOnUse" x1="699.7056" y1="2028.1846" x2="-206.6509" y2="2549.1143" gradientTransform="matrix(1 0 0 -1 1619.9551 2853.0605)">
			<stop  offset="0" style="stop-color:#EF7C70"/>
			<stop  offset="1" style="stop-color:#E2BE26;stop-opacity:0"/>
		</linearGradient>
		<polyline fill="url(#SVGID_57_)" points="1961.278,784.742 1569.958,203.638 942.368,210.928 1947.04,801.058 		"/>
		
			<linearGradient id="SVGID_58_" gradientUnits="userSpaceOnUse" x1="449.769" y1="1914.3301" x2="-197.3496" y2="2567.4966" gradientTransform="matrix(1 0 0 -1 1619.9551 2853.0605)">
			<stop  offset="0" style="stop-color:#EF7C70"/>
			<stop  offset="1" style="stop-color:#E2BE26;stop-opacity:0"/>
		</linearGradient>
		<polyline fill="url(#SVGID_58_)" points="2055.409,794.235 1658.843,203.638 1031.252,210.928 2035.925,801.058 		"/>
	</g>
</g>
</svg>
