<?xml version="1.0" encoding="utf-8"?>
<!-- Generator: Adobe Illustrator 16.0.2, SVG Export Plug-In . SVG Version: 6.00 Build 0)  -->
<!DOCTYPE svg PUBLIC "-//W3C//DTD SVG 1.1//EN" "http://www.w3.org/Graphics/SVG/1.1/DTD/svg11.dtd">
<svg version="1.1" xmlns="http://www.w3.org/2000/svg" xmlns:xlink="http://www.w3.org/1999/xlink" x="0px" y="0px"
	 width="1860.256px" height="1542.547px" viewBox="0 0 1860.256 1542.547" enable-background="new 0 0 1860.256 1542.547"
	 xml:space="preserve">
<g id="background">
</g>
<g id="bubbles" display="none">
	<linearGradient id="SVGID_4_" gradientUnits="userSpaceOnUse" x1="438.0923" y1="69.7612" x2="446.8421" y2="264.9196">
		<stop  offset="0" style="stop-color:#F0D0E5"/>
		<stop  offset="1" style="stop-color:#0083A4"/>
	</linearGradient>
	
		<circle display="inline" fill="url(#SVGID_4_)" stroke="#634E42" stroke-width="0.2" stroke-miterlimit="10" cx="440.972" cy="134" r="60"/>
	<linearGradient id="SVGID_5_" gradientUnits="userSpaceOnUse" x1="881.5469" y1="815.5195" x2="888.8411" y2="978.2133">
		<stop  offset="0" style="stop-color:#F0D0E5"/>
		<stop  offset="1" style="stop-color:#0083A4"/>
	</linearGradient>
	
		<circle display="inline" fill="url(#SVGID_5_)" stroke="#634E42" stroke-width="0.2" stroke-miterlimit="10" cx="883.948" cy="869.072" r="50.02"/>
	<linearGradient id="SVGID_6_" gradientUnits="userSpaceOnUse" x1="255.0488" y1="1262.8525" x2="263.7986" y2="1458.0117">
		<stop  offset="0" style="stop-color:#F0D0E5"/>
		<stop  offset="1" style="stop-color:#0083A4"/>
	</linearGradient>
	
		<circle display="inline" fill="url(#SVGID_6_)" stroke="#634E42" stroke-width="0.2" stroke-miterlimit="10" cx="257.929" cy="1327.092" r="60"/>
	<linearGradient id="SVGID_7_" gradientUnits="userSpaceOnUse" x1="1651.0493" y1="189.7612" x2="1659.7992" y2="384.9203">
		<stop  offset="0" style="stop-color:#F0D0E5"/>
		<stop  offset="1" style="stop-color:#0083A4"/>
	</linearGradient>
	
		<circle display="inline" fill="url(#SVGID_7_)" stroke="#634E42" stroke-width="0.2" stroke-miterlimit="10" cx="1653.929" cy="254" r="60"/>
	<linearGradient id="SVGID_8_" gradientUnits="userSpaceOnUse" x1="1657.0405" y1="1328.124" x2="1661.1935" y2="1420.754">
		<stop  offset="0" style="stop-color:#F0D0E5"/>
		<stop  offset="1" style="stop-color:#0083A4"/>
	</linearGradient>
	
		<circle display="inline" fill="url(#SVGID_8_)" stroke="#634E42" stroke-width="0.2" stroke-miterlimit="10" cx="1658.407" cy="1358.613" r="28.478"/>
	<linearGradient id="SVGID_9_" gradientUnits="userSpaceOnUse" x1="1115.6045" y1="-4.4893" x2="1119.7574" y2="88.14">
		<stop  offset="0" style="stop-color:#F0D0E5"/>
		<stop  offset="1" style="stop-color:#0083A4"/>
	</linearGradient>
	
		<circle display="inline" fill="url(#SVGID_9_)" stroke="#634E42" stroke-width="0.2" stroke-miterlimit="10" cx="1116.972" cy="26" r="28.478"/>
	<linearGradient id="SVGID_10_" gradientUnits="userSpaceOnUse" x1="542.8154" y1="758.8154" x2="565.8763" y2="910.3593">
		<stop  offset="0" style="stop-color:#F0D0E5"/>
		<stop  offset="1" style="stop-color:#7A356A"/>
	</linearGradient>
	
		<circle display="inline" fill="url(#SVGID_10_)" stroke="#634E42" stroke-width="0.2" stroke-miterlimit="10" cx="550.388" cy="808.584" r="49.416"/>
</g>
<g id="sea_x5F_rocks">
</g>
<g id="ship">
	<g id="ship_2_">
		<g id="XMLID_2_">
			<g>
				
					<linearGradient id="SVGID_11_" gradientUnits="userSpaceOnUse" x1="-644.8057" y1="1498.251" x2="-794.797" y2="1204.2673" gradientTransform="matrix(1 0 0 -1 1619.9551 2453.0605)">
					<stop  offset="0" style="stop-color:#EC6747"/>
					<stop  offset="1" style="stop-color:#261230"/>
				</linearGradient>
				<path fill="url(#SVGID_11_)" d="M931.82,907.19c-7.689-0.986-14.618-1.662-20.517-1.959c-9.007-0.414-15.64,0.061-18.974,1.744
					c0,0-79.893,15.021-68.82,154.254c0,0,25.31,98.877,81.48,147.918l30.853,22.949c0,0,2.22,0.332,6.324,0.449
					c0.876,0.023,1.851,0.037,2.906,0.037c6.146-0.014,15.153-0.57,26.365-2.789c0,0-195.145-171.188-36.274-322.154
					C934.04,907.485,932.922,907.333,931.82,907.19z M834.58,1014.552c-5.671,0-6.289-15.545-1.388-33.225
					c4.557-16.412,13.905-38.754,19.59-38.754c5.672,0,4.544,17.799-0.996,35.988C846.445,996.101,840.263,1014.552,834.58,1014.552
					z"/>
				
					<linearGradient id="SVGID_12_" gradientUnits="userSpaceOnUse" x1="-820.9282" y1="1518.4238" x2="-726.9308" y2="1425.7599" gradientTransform="matrix(1 0 0 -1 1619.9551 2453.0605)">
					<stop  offset="0" style="stop-color:#2B4051"/>
					<stop  offset="1" style="stop-color:#261230"/>
				</linearGradient>
				<path fill="url(#SVGID_12_)" d="M833.192,981.327c-4.901,17.68-4.284,33.225,1.388,33.225c5.684,0,11.865-18.451,17.206-35.99
					c5.54-18.189,6.668-35.988,0.996-35.988C847.097,942.573,837.749,964.917,833.192,981.327z"/>
				<path fill="#AB9F9B" d="M935.842,1232.097l-37.971,257.084h4.746l39.549-256.598v-0.035
					C938.062,1232.431,935.842,1232.097,935.842,1232.097z"/>
				
					<linearGradient id="SVGID_13_" gradientUnits="userSpaceOnUse" x1="-655.937" y1="884.0459" x2="-647.9368" y2="1252.0472" gradientTransform="matrix(1 0 0 -1 1619.9551 2453.0605)">
					<stop  offset="0.0054" style="stop-color:#975C73"/>
					<stop  offset="1" style="stop-color:#261230"/>
				</linearGradient>
				<path fill="url(#SVGID_13_)" d="M945.074,1232.583l-39.69,256.598l66.057,19.779l37.176-90.18l20.303-58.143l-28.146-139.363
					c-10.869,4.154-20.741,6.824-29.332,8.52C960.226,1232.015,951.22,1232.571,945.074,1232.583z"/>
				
					<linearGradient id="SVGID_14_" gradientUnits="userSpaceOnUse" x1="-708.6519" y1="1547.9551" x2="-440.8647" y2="1547.9551" gradientTransform="matrix(1 0 0 -1 1619.9551 2453.0605)">
					<stop  offset="0" style="stop-color:#DC865A"/>
					<stop  offset="1" style="stop-color:#927B91"/>
				</linearGradient>
				<path fill="url(#SVGID_14_)" d="M911.316,905.089l-0.013,0.143c5.896,0.297,12.827,0.973,20.517,1.959
					c161.671-101.31,240.589,38.645,240.589,38.645l6.682-3.262c0,0-52.446-94.546-163.629-75.716
					c-10.441,1.77-21.395,4.534-32.882,8.472L911.316,905.089z"/>
				
					<linearGradient id="SVGID_15_" gradientUnits="userSpaceOnUse" x1="-672.7437" y1="1579.9961" x2="-528.7515" y2="1289.0109" gradientTransform="matrix(1 0 0 -1 1619.9551 2453.0605)">
					<stop  offset="0" style="stop-color:#EC6747"/>
					<stop  offset="1" style="stop-color:#261230"/>
				</linearGradient>
				<path fill="url(#SVGID_15_)" d="M1009.064,1217.882c1.082-0.463,2.173-0.949,3.276-1.459
					c8.342-3.785,17.146-8.449,26.306-14.168c-23.838-24.35-37.875-45.707-37.875-45.707
					c-11.569-59.875,44.426-59.328,44.426-59.328c17.598-1.508,47.617,8.174,80.427,22.105
					c92.802-123.416,36.974-164.305,35.205-167.84l-17.8,1.779c0,0-122.893-32.465-197.421-44.094
					c-3.597-0.557-7.084-1.08-10.441-1.529c-158.872,150.967,36.272,322.152,36.272,322.152c8.59-1.695,18.463-4.365,29.332-8.52
					v-0.012C1003.476,1220.231,1006.242,1219.104,1009.064,1217.882z M923.181,993.987c0-20.967,20.184-37.969,45.09-37.969
					s51.414,29.65,51.414,50.631c0,20.967-23.353,34.006-48.246,34.006C946.533,1040.655,923.181,1014.954,923.181,993.987z"/>
				
					<linearGradient id="SVGID_16_" gradientUnits="userSpaceOnUse" x1="-688.1353" y1="1541.2363" x2="-447.5464" y2="1541.2363" gradientTransform="matrix(1 0 0 -1 1619.9551 2453.0605)">
					<stop  offset="0" style="stop-color:#2B4051"/>
					<stop  offset="1" style="stop-color:#261230"/>
				</linearGradient>
				<path fill="url(#SVGID_16_)" d="M931.82,907.19c1.104,0.143,2.22,0.295,3.347,0.451c3.357,0.449,6.847,0.973,10.441,1.529
					c74.528,11.629,197.421,44.094,197.421,44.094l17.8-1.779l11.58-5.648C1172.409,945.837,1093.49,805.881,931.82,907.19z"/>
				
					<linearGradient id="SVGID_17_" gradientUnits="userSpaceOnUse" x1="-696.7739" y1="1454.7236" x2="-600.27" y2="1454.7236" gradientTransform="matrix(1 0 0 -1 1619.9551 2453.0605)">
					<stop  offset="0" style="stop-color:#2B4051"/>
					<stop  offset="1" style="stop-color:#261230"/>
				</linearGradient>
				<path fill="url(#SVGID_17_)" d="M968.271,956.019c-24.906,0-45.09,17.002-45.09,37.969s23.353,46.668,48.258,46.668
					c24.896,0,48.246-13.041,48.246-34.006C1019.685,985.669,993.177,956.019,968.271,956.019z M964.378,1008.974
					c0-12.672,8.15-22.938,18.201-22.938c10.04,0,18.19,10.266,18.19,22.938s-8.15,22.938-18.19,22.938
					C972.531,1031.911,964.378,1021.647,964.378,1008.974z"/>
				<path fill="#C7B8B0" d="M982.58,986.038c-10.049,0-18.201,10.264-18.201,22.938c0,12.672,8.152,22.936,18.201,22.936
					c10.04,0,18.191-10.264,18.191-22.936C1000.771,996.302,992.62,986.038,982.58,986.038z"/>
				
					<linearGradient id="SVGID_18_" gradientUnits="userSpaceOnUse" x1="-620.7583" y1="1303.4004" x2="-494.3315" y2="1303.4004" gradientTransform="matrix(1 0 0 -1 1619.9551 2453.0605)">
					<stop  offset="0" style="stop-color:#E14448"/>
					<stop  offset="1" style="stop-color:#F8B881"/>
				</linearGradient>
				<path fill="url(#SVGID_18_)" d="M1045.197,1097.22c0,0-55.995-0.545-44.426,59.328c0,0,14.037,21.357,37.875,45.707
					c26.482-16.564,55.888-41.992,85.457-80.912c0.51-0.678,1.021-1.354,1.521-2.018
					C1092.814,1105.396,1062.793,1095.712,1045.197,1097.22z"/>
				
					<linearGradient id="SVGID_19_" gradientUnits="userSpaceOnUse" x1="-662.8647" y1="1179.959" x2="-257.8832" y2="654.9844" gradientTransform="matrix(1 0 0 -1 1619.9551 2453.0605)">
					<stop  offset="0" style="stop-color:#EC6747"/>
					<stop  offset="1" style="stop-color:#261230"/>
				</linearGradient>
				<path fill="url(#SVGID_19_)" d="M1000.771,1221.276l28.146,139.363l35.075,173.631l5.529-1.578l-60.457-314.811
					c-2.822,1.223-5.588,2.35-8.293,3.383V1221.276z"/>
				
					<linearGradient id="SVGID_20_" gradientUnits="userSpaceOnUse" x1="-552.791" y1="881.8057" x2="-544.7908" y2="1249.8047" gradientTransform="matrix(1 0 0 -1 1619.9551 2453.0605)">
					<stop  offset="0.0054" style="stop-color:#975C73"/>
					<stop  offset="1" style="stop-color:#261230"/>
				</linearGradient>
				<path fill="url(#SVGID_20_)" d="M1009.064,1217.882l60.457,314.811l64.074,8.697l-4.745-66.449h4.745l-3.949-91.756l-7.916-3.17
					l-6.323-87.01l-103.065-76.582C1011.237,1216.933,1010.146,1217.419,1009.064,1217.882z"/>
				<path fill="#B892B6" d="M1015.034,864.271l0.428,2.588c111.183-18.832,163.629,75.714,163.629,75.714l-6.682,3.264l-11.58,5.648
					c1.769,3.535,57.597,44.424-35.205,167.84c1.804,0.76,3.618,1.529,5.435,2.326c40.925-47.512,70.838-107.256,41.352-165.635
					l15.77-10.182c0,0-29.533-48.066-49.04-54.688c0,0-26.698-23.341-35.598-20.766c0,0-31.101-9.243-60.241-9.671
					C1027.326,861.791,1017.3,863.785,1015.034,864.271z"/>
				
					<linearGradient id="SVGID_21_" gradientUnits="userSpaceOnUse" x1="-273.4785" y1="1624.3711" x2="-279.4777" y2="834.3727" gradientTransform="matrix(1 0 0 -1 1619.9551 2453.0605)">
					<stop  offset="0" style="stop-color:#EC6747"/>
					<stop  offset="1" style="stop-color:#261230"/>
				</linearGradient>
				<path fill="url(#SVGID_21_)" d="M1475.329,1161.521l5.577,3.215l8.177,4.711c34.563,19.959,62.981,36.559,62.981,36.559
					l7.726,10.086c1.862-1.826,4.106-3.238,6.763-4.141c0.428-0.393,0.866-0.795,1.33-1.211
					c18.201-16.611,60.918,15.816,60.918,15.816l38.387,15.164c-0.711-2.609-1.508-5.646-2.397-9.137
					c-6.562-25.771-25.713-50.037-43.559-68.121l-35.894-31.018c-0.036-0.023-0.049-0.035-0.049-0.035l-104.419-74.16
					l-218.328-141.203c-18.022-11.033-35.752-20.064-52.934-27.408l-0.854,0.51c-15.117-3.479-24.729-7.951-30.792-12.471
					c-16.803-5.52-32.867-9.519-47.9-12.354c-14.562-2.752-28.17-4.426-40.558-5.338c-18.322-1.365-33.997-1.092-46.205-0.273
					c29.142,0.428,60.241,9.669,60.241,9.669c8.899-2.573,35.597,20.766,35.597,20.766c19.509,6.621,49.041,54.689,49.041,54.689
					l-15.77,10.182c29.487,58.379-0.427,118.123-41.352,165.633c29.166,12.672,60.1,28.348,86.19,42.289c0.012,0,0.024,0,0.024,0
					l0.415,0.227c20.671,11.047,38.256,20.979,49.491,27.445l0.581,0.32c0.013,0.012,0.024,0.021,0.035,0.035
					c7.951,4.566,12.543,7.297,12.543,7.297c60.516,58.143-9.492,88.992-9.492,88.992c-3.43,0.809-6.869,1.473-10.323,2.006
					c-0.012,0.012-0.024,0.012-0.024,0.012h-0.011c-72.902,11.438-148.25-33.33-148.25-33.33
					c-28.895-13.693-53.823-34.611-72.749-53.822c-12.092,8.555-19.803,13.301-19.803,13.301
					c133.797,109.662,188.271,116.926,188.271,116.926l198.156,57.383c37.234,8.59,77.199,6.336,112.666,0.152l-0.533-2.359
					l47.094-8.342c35.598-10.074,59.697-21.121,59.697-21.121c15.746-9.908,25.986-30.092,32.631-51.461l-40.736-29.629
					c0,0-22.151,6.336-26.897,8.709c-4.747,2.373-34.802-16.611-34.802-16.611l-20.575,10.273l-69.641-26.566l-7.085-2.693
					l-4.722-2.443l-109.722-56.705l-3.43-1.77l-3.063-4.533l-0.012-0.012l-7.203-10.68l-6.336-28.275c0,0,3.963-17.406,7.119-22.947
					c3.168-5.529,11.083-15.021,15.034-18.984c2.255-2.256,6.856-2.967,11.568-3.156c3.513-0.143,7.084,0,9.788,0
					C1370.437,1101.573,1425.99,1133.112,1475.329,1161.521z M1336.986,1261.985l18.985-34.932l175.923,79.002l-13.648,15.426
					L1336.986,1261.985z M1381.197,1040.265c0,0-34.469-46.953-22.828-49.836c0,0,28.525,6.383,60.681,76.166
					c0,0-40.746-25.535-39.299-25.939C1381.197,1040.265,1381.197,1040.265,1381.197,1040.265z M1387.51,1103.329v-35.43
					l164.554,96.041v27.99L1387.51,1103.329z M1444.086,1081.794c0,0-34.411-54.678-22.545-49.883c0,0,14.5,2.42,25.642,21.406
					l28.134,48.258L1444.086,1081.794z M1497.422,1118.577c-32.108-61.701-22.105-49.742-22.105-49.742
					c33.592,10.775,56.577,69.914,56.577,69.914L1497.422,1118.577z"/>
				<path fill="#F9F0DC" d="M1094.046,831.818c0,0-24.655-2.539-14.236,16.316c4.389,7.949,7.616,10.371,9.871,10.512
					c3.085,0.203,4.365-3.879,4.365-3.879s0.237-0.084,0.605-0.25c2.563-1.174,11.807-6.811-0.581-22.674
					C1094.06,831.83,1094.06,831.83,1094.046,831.818z"/>
				
					<linearGradient id="SVGID_22_" gradientUnits="userSpaceOnUse" x1="-525.9087" y1="1604.9619" x2="-489.5151" y2="1604.9619" gradientTransform="matrix(1 0 0 -1 1619.9551 2453.0605)">
					<stop  offset="0" style="stop-color:#2B4051"/>
					<stop  offset="1" style="stop-color:#261230"/>
				</linearGradient>
				<path fill="url(#SVGID_22_)" d="M1094.046,831.818c0.014,0.012,0.014,0.012,0.024,0.025c0.771,0.592,18.949,14.867,0.581,22.674
					c-0.368,0.166-0.605,0.25-0.605,0.25l36.394,9.611C1130.44,864.379,1130.44,839.734,1094.046,831.818z"/>
				
					<linearGradient id="SVGID_23_" gradientUnits="userSpaceOnUse" x1="-580.4663" y1="1246.1621" x2="-359.4673" y2="1246.1621" gradientTransform="matrix(1 0 0 -1 1619.9551 2453.0605)">
					<stop  offset="0" style="stop-color:#E14448"/>
					<stop  offset="1" style="stop-color:#F8B881"/>
				</linearGradient>
				<path fill="url(#SVGID_23_)" d="M1131.057,1121.651c-31.302,36.332-69.035,65.521-91.568,81.471
					c18.925,19.211,43.854,40.129,72.749,53.822c0,0,75.349,44.77,148.25,33.33c-124.232-26.471-93.277-79.523-93.277-79.523v-0.012
					c0-6.621,1.188-12.91,3.336-18.617c1.827-5.115,4.283-9.314,7.119-12.756c0.023-0.035,0.047-0.059,0.071-0.096
					c7.416-9.42,18.119-15.33,30.008-15.33c0.726,0,1.448,0.023,2.172,0.061c4.178-0.32,7.013-0.096,7.334-0.061
					C1191.157,1149.997,1160.223,1134.323,1131.057,1121.651z"/>
				
					<linearGradient id="SVGID_24_" gradientUnits="userSpaceOnUse" x1="-456.1694" y1="1226.0088" x2="-324.231" y2="1226.0088" gradientTransform="matrix(1 0 0 -1 1619.9551 2453.0605)">
					<stop  offset="0.0054" style="stop-color:#84444F"/>
					<stop  offset="1" style="stop-color:#9F827A"/>
				</linearGradient>
				<path fill="url(#SVGID_24_)" d="M1167.21,1210.751c0,0-30.956,53.053,93.276,79.523h0.011c0,0,0.014,0,0.025-0.012
					c1.554-0.652,73.4-31.611,7.271-98.297c-0.2-0.117-0.4-0.236-0.616-0.355l-49.491-27.445l-0.415-0.225c0,0-0.013,0-0.024,0
					c-0.32-0.037-3.156-0.262-7.332,0.059c21.381,1.307,38.374,21.738,38.374,46.738c0,25.832-18.154,46.787-40.546,46.787
					C1185.353,1257.524,1167.21,1236.581,1167.21,1210.751z"/>
				
					<linearGradient id="SVGID_25_" gradientUnits="userSpaceOnUse" x1="-381.9927" y1="1221.126" x2="-467.4893" y2="1281.1234" gradientTransform="matrix(1 0 0 -1 1619.9551 2453.0605)">
					<stop  offset="0" style="stop-color:#2B4051"/>
					<stop  offset="1" style="stop-color:#261230"/>
				</linearGradient>
				<path fill="url(#SVGID_25_)" d="M1167.21,1210.737v0.014c0,25.83,18.144,46.773,40.533,46.773s40.546-20.955,40.546-46.787
					c0-25-16.993-45.434-38.374-46.738c-8.483,0.664-22.51,3.631-32.18,15.271c-0.025,0.037-0.048,0.061-0.072,0.096
					c-2.942,3.75-5.352,8.059-7.118,12.756C1168.683,1197.317,1167.485,1203.464,1167.21,1210.737z"/>
				<path fill="#F9F0DC" d="M1188.178,841.313c0,0-26.889-15.818-19.77,17.406C1191.345,864.26,1188.178,841.313,1188.178,841.313z"
					/>
				
					<linearGradient id="SVGID_26_" gradientUnits="userSpaceOnUse" x1="-452.0264" y1="1587.0879" x2="-399.3345" y2="1587.0879" gradientTransform="matrix(1 0 0 -1 1619.9551 2453.0605)">
					<stop  offset="0" style="stop-color:#2B4051"/>
					<stop  offset="1" style="stop-color:#261230"/>
				</linearGradient>
				<path fill="url(#SVGID_26_)" d="M1168.41,858.719c0,0-3.725,10.072,9.553,19.958c10.288,3.381,20.859,7.344,31.646,11.959
					l11.012-6.609c0,0-3.964-40.343-32.441-42.716C1188.178,841.313,1191.345,864.26,1168.41,858.719z"/>
				
					<linearGradient id="SVGID_27_" gradientUnits="userSpaceOnUse" x1="-296.5073" y1="1309.4648" x2="-249.5386" y2="1309.4648" gradientTransform="matrix(1 0 0 -1 1619.9551 2453.0605)">
					<stop  offset="0" style="stop-color:#2B4051"/>
					<stop  offset="1" style="stop-color:#261230"/>
				</linearGradient>
				<path fill="url(#SVGID_27_)" d="M1323.448,1146.663l6.335,28.275l7.203,10.68c0,0,59.057-36.984,20.185-84.045
					c-4.712,0.189-9.314,0.902-11.567,3.156c-3.953,3.963-11.867,13.457-15.035,18.986
					C1327.41,1129.257,1323.448,1146.663,1323.448,1146.663z"/>
				
					<linearGradient id="SVGID_28_" gradientUnits="userSpaceOnUse" x1="-242.9624" y1="1450.5381" x2="-197.9655" y2="1230.049" gradientTransform="matrix(1 0 0 -1 1619.9551 2453.0605)">
					<stop  offset="0" style="stop-color:#7D779C"/>
					<stop  offset="1" style="stop-color:#456962"/>
				</linearGradient>
				<polygon fill="url(#SVGID_28_)" points="1355.971,1227.054 1336.986,1261.985 1518.249,1321.481 1531.894,1306.056 				"/>
				<path fill="#7C7777" d="M1336.986,1185.618l0.012,0.014l6.491,6.301c64.336-39.359,23.47-90.357,23.47-90.357h-9.788
					C1396.042,1148.634,1336.986,1185.618,1336.986,1185.618z"/>
				
					<linearGradient id="SVGID_29_" gradientUnits="userSpaceOnUse" x1="-172.6216" y1="1210.2217" x2="-283.6154" y2="1403.7113" gradientTransform="matrix(1 0 0 -1 1619.9551 2453.0605)">
					<stop  offset="0" style="stop-color:#E14448"/>
					<stop  offset="1" style="stop-color:#F8B881"/>
				</linearGradient>
				<path fill="url(#SVGID_29_)" d="M1343.489,1191.933l109.722,56.705c0,0,47.381-32.346,22.118-87.117
					c-49.339-28.406-104.892-59.945-108.37-59.945C1366.958,1101.573,1407.825,1152.573,1343.489,1191.933z"/>
				
					<linearGradient id="SVGID_30_" gradientUnits="userSpaceOnUse" x1="-263.9868" y1="1424.5488" x2="-200.9048" y2="1424.5488" gradientTransform="matrix(1 0 0 -1 1619.9551 2453.0605)">
					<stop  offset="0" style="stop-color:#2B4051"/>
					<stop  offset="1" style="stop-color:#261230"/>
				</linearGradient>
				<path fill="url(#SVGID_30_)" d="M1358.37,990.429c-11.642,2.883,22.827,49.836,22.827,49.836s0,0-1.445,0.391
					c-1.447,0.404,39.299,25.939,39.299,25.939C1386.894,996.812,1358.37,990.429,1358.37,990.429z"/>
				
					<linearGradient id="SVGID_31_" gradientUnits="userSpaceOnUse" x1="-179.5659" y1="1463.4775" x2="-134.5692" y2="1242.989" gradientTransform="matrix(1 0 0 -1 1619.9551 2453.0605)">
					<stop  offset="0" style="stop-color:#A29ACB"/>
					<stop  offset="1" style="stop-color:#598B81"/>
				</linearGradient>
				<polygon fill="url(#SVGID_31_)" points="1387.51,1067.899 1387.51,1103.329 1552.064,1191.933 1552.064,1163.94 				"/>
				
					<linearGradient id="SVGID_32_" gradientUnits="userSpaceOnUse" x1="-200.9028" y1="1386.4668" x2="-144.6392" y2="1386.4668" gradientTransform="matrix(1 0 0 -1 1619.9551 2453.0605)">
					<stop  offset="0" style="stop-color:#2B4051"/>
					<stop  offset="1" style="stop-color:#261230"/>
				</linearGradient>
				<path fill="url(#SVGID_32_)" d="M1421.542,1031.911c-11.866-4.795,22.545,49.883,22.545,49.883l31.229,19.779l-28.134-48.258
					C1436.042,1034.331,1421.542,1031.911,1421.542,1031.911z"/>
				
					<linearGradient id="SVGID_33_" gradientUnits="userSpaceOnUse" x1="-166.7446" y1="1245.4121" x2="-122.5376" y2="1245.4121" gradientTransform="matrix(1 0 0 -1 1619.9551 2453.0605)">
					<stop  offset="0" style="stop-color:#2B4051"/>
					<stop  offset="1" style="stop-color:#261230"/>
				</linearGradient>
				<path fill="url(#SVGID_33_)" d="M1453.21,1248.638l11.807,5.139c54.154-32.098,24.063-84.33,24.063-84.33l-8.176-4.711
					c-1.851-1.068-3.702-2.135-5.577-3.215C1500.591,1216.292,1453.21,1248.638,1453.21,1248.638z"/>
				
					<linearGradient id="SVGID_34_" gradientUnits="userSpaceOnUse" x1="-16.0044" y1="1145.5742" x2="-182.0039" y2="1407.574" gradientTransform="matrix(1 0 0 -1 1619.9551 2453.0605)">
					<stop  offset="0.0054" style="stop-color:#84444F"/>
					<stop  offset="1" style="stop-color:#9F827A"/>
				</linearGradient>
				<path fill="url(#SVGID_34_)" d="M1465.017,1253.776l69.641,26.566l20.575-10.275c0,0,30.057,18.986,34.803,16.613
					c4.745-2.373,26.899-8.711,26.899-8.711l40.734,29.629c6.82-22.01,9.859-45.291,11.178-59.969c-0.5-1.674-1.045-3.633-1.66-5.91
					l-38.387-15.164c0,0-42.717-32.428-60.919-15.816c-0.463,0.416-0.901,0.818-1.329,1.211c2.266-0.795,4.842-1.211,7.749-1.211
					c16.386,0,29.664,13.277,29.664,29.664c0,16.375-13.278,29.664-29.664,29.664c-16.375,0-22.237-13.289-22.237-29.664
					c0-9.99,2.185-18.83,7.606-24.182c0.07-0.084,0.116-0.131,0.116-0.131l-7.724-10.086c0,0-28.417-16.602-62.982-36.559
					C1489.081,1169.446,1519.171,1221.679,1465.017,1253.776z"/>
				
					<linearGradient id="SVGID_35_" gradientUnits="userSpaceOnUse" x1="-146.1123" y1="1349.7344" x2="-88.061" y2="1349.7344" gradientTransform="matrix(1 0 0 -1 1619.9551 2453.0605)">
					<stop  offset="0" style="stop-color:#2B4051"/>
					<stop  offset="1" style="stop-color:#261230"/>
				</linearGradient>
				<path fill="url(#SVGID_35_)" d="M1475.317,1068.837c0,0-10.003-11.961,22.105,49.742l34.472,20.17
					C1531.894,1138.749,1508.909,1079.61,1475.317,1068.837z"/>
				
					<linearGradient id="SVGID_36_" gradientUnits="userSpaceOnUse" x1="-76.0586" y1="871.4404" x2="-68.0583" y2="1239.4456" gradientTransform="matrix(1 0 0 -1 1619.9551 2453.0605)">
					<stop  offset="0.0054" style="stop-color:#975C73"/>
					<stop  offset="1" style="stop-color:#261230"/>
				</linearGradient>
				<path fill="url(#SVGID_36_)" d="M1518.781,1390.884l4.782,21.369c0,0,20.966-3.215,53.206-33.342v24.516
					c0.498-14.488,0.807-24.99,0.807-24.99h-2.373l-9.86,1.746C1551.339,1384.146,1535.57,1387.952,1518.781,1390.884z"/>
				<path fill="#466B62" d="M1523.563,1412.253l4.747,21.217c10.644,6.371,48.459-30.043,48.459-30.043v-24.516
					C1544.529,1409.038,1523.563,1412.253,1523.563,1412.253z"/>
				
					<linearGradient id="SVGID_37_" gradientUnits="userSpaceOnUse" x1="-70.9653" y1="871.3271" x2="-62.965" y2="1239.3352" gradientTransform="matrix(1 0 0 -1 1619.9551 2453.0605)">
					<stop  offset="0.0054" style="stop-color:#975C73"/>
					<stop  offset="1" style="stop-color:#261230"/>
				</linearGradient>
				<path fill="url(#SVGID_37_)" d="M1528.31,1433.47l8.922,39.893c0,0,32.632,20.766,35.004,13.646
					c1.614-4.83,3.49-53.053,4.533-83.584C1576.769,1403.427,1538.954,1439.843,1528.31,1433.47z"/>
				
					<linearGradient id="SVGID_38_" gradientUnits="userSpaceOnUse" x1="-67.8911" y1="1212.6572" x2="-15.9897" y2="1212.6572" gradientTransform="matrix(1 0 0 -1 1619.9551 2453.0605)">
					<stop  offset="0" style="stop-color:#2B4051"/>
					<stop  offset="1" style="stop-color:#261230"/>
				</linearGradient>
				<path fill="url(#SVGID_38_)" d="M1559.67,1216.222c-5.425,5.352-7.606,14.189-7.606,24.182c0,16.375,5.862,29.664,22.237,29.664
					c16.386,0,29.664-13.289,29.664-29.664c0-16.387-13.278-29.664-29.664-29.664c-2.907,0-5.483,0.416-7.749,1.211
					C1551.304,1225.784,1558.615,1217.419,1559.67,1216.222z"/>
				
					<linearGradient id="SVGID_39_" gradientUnits="userSpaceOnUse" x1="-47.0083" y1="1437.752" x2="58.9932" y2="1217.7488" gradientTransform="matrix(1 0 0 -1 1619.9551 2453.0605)">
					<stop  offset="0" style="stop-color:#EC6747"/>
					<stop  offset="1" style="stop-color:#261230"/>
				</linearGradient>
				<path fill="url(#SVGID_39_)" d="M1585.29,1133.409c0,0,0.012,0.012,0.048,0.035c1.008,0.713,17.785,12.686,35.894,31.018
					l12.114,10.479h2.967l28.479-61.109C1642.245,1056.876,1585.29,1133.409,1585.29,1133.409z"/>
				
					<linearGradient id="SVGID_40_" gradientUnits="userSpaceOnUse" x1="-82.5713" y1="1377.1719" x2="289.4211" y2="845.1828" gradientTransform="matrix(1 0 0 -1 1619.9551 2453.0605)">
					<stop  offset="0.0054" style="stop-color:#975C73"/>
					<stop  offset="1" style="stop-color:#261230"/>
				</linearGradient>
				<path fill="url(#SVGID_40_)" d="M1657.667,1307.599l7.119,5.186l1.211,0.643c4.236-22.533,19.377-41.223,39.729-50.383v-6.1
					l-34.342-13.563c1.294,9.813,2.207,20.49-2.538,4.246C1667.529,1262.308,1664.492,1285.587,1657.667,1307.599z"/>
				
					<linearGradient id="SVGID_41_" gradientUnits="userSpaceOnUse" x1="44.8315" y1="1103.1963" x2="80.7261" y2="1103.1963" gradientTransform="matrix(1 0 0 -1 1619.9551 2453.0605)">
					<stop  offset="0" style="stop-color:#2B4051"/>
					<stop  offset="1" style="stop-color:#261230"/>
				</linearGradient>
				<path fill="url(#SVGID_41_)" d="M1665.998,1313.425c-0.793,4.188-1.211,8.508-1.211,12.934c0,25.57,13.825,47.902,34.4,59.945
					c0.261-1.756,0.723-3.5,1.494-4.982c-18.498-11.297-30.852-31.682-30.852-54.963c0-3.561,0.285-7.061,0.855-10.465
					L1665.998,1313.425z"/>
				
					<linearGradient id="SVGID_42_" gradientUnits="userSpaceOnUse" x1="46.0425" y1="1163.5918" x2="85.771" y2="1163.5918" gradientTransform="matrix(1 0 0 -1 1619.9551 2453.0605)">
					<stop  offset="0" style="stop-color:#2B4051"/>
					<stop  offset="1" style="stop-color:#261230"/>
				</linearGradient>
				<path fill="url(#SVGID_42_)" d="M1665.998,1313.425l4.689,2.469c3.394-20.801,16.767-38.256,35.039-47.273v-5.576
					C1685.375,1272.202,1670.234,1290.892,1665.998,1313.425z"/>
				
					<linearGradient id="SVGID_43_" gradientUnits="userSpaceOnUse" x1="-77.7622" y1="1380.5391" x2="294.2376" y2="848.5394" gradientTransform="matrix(1 0 0 -1 1619.9551 2453.0605)">
					<stop  offset="0.0054" style="stop-color:#975C73"/>
					<stop  offset="1" style="stop-color:#261230"/>
				</linearGradient>
				<path fill="url(#SVGID_43_)" d="M1670.687,1315.894l19.813,10.465l15.227,45.754l24.324,6.324c0,0,21.357-23.34,17.407-32.238
					c-3.965-8.898,0.485-3.357,0.485-3.357l6.634-16.48h11.069l-59.922-47.594v-10.146
					C1687.454,1277.638,1674.081,1295.093,1670.687,1315.894z"/>
				
					<linearGradient id="SVGID_44_" gradientUnits="userSpaceOnUse" x1="-110.7637" y1="1357.4639" x2="261.2384" y2="825.4609" gradientTransform="matrix(1 0 0 -1 1619.9551 2453.0605)">
					<stop  offset="0.0054" style="stop-color:#975C73"/>
					<stop  offset="1" style="stop-color:#261230"/>
				</linearGradient>
				<path fill="url(#SVGID_44_)" d="M1699.187,1386.304c-0.699,4.699,0.012,9.469,0.012,9.469l23.14,16.48
					c17.798-2.965,16.611-16.48,16.611-16.48l-0.083-0.166c-1.543,0.119-3.098,0.166-4.662,0.166
					C1721.423,1395.772,1709.462,1392.319,1699.187,1386.304z"/>
				
					<linearGradient id="SVGID_45_" gradientUnits="userSpaceOnUse" x1="79.2319" y1="1064.5146" x2="118.9126" y2="1064.5146" gradientTransform="matrix(1 0 0 -1 1619.9551 2453.0605)">
					<stop  offset="0" style="stop-color:#2B4051"/>
					<stop  offset="1" style="stop-color:#261230"/>
				</linearGradient>
				<path fill="url(#SVGID_45_)" d="M1700.682,1381.319c-0.772,1.484-1.232,3.229-1.495,4.984
					c10.275,6.016,22.236,9.469,35.018,9.469c1.564,0,3.12-0.047,4.663-0.166l-2.588-4.912c-0.688,0.021-1.376,0.035-2.075,0.035
					C1721.922,1390.729,1710.448,1387.288,1700.682,1381.319z"/>
				
					<linearGradient id="SVGID_46_" gradientUnits="userSpaceOnUse" x1="80.7271" y1="1069.043" x2="116.3237" y2="1069.043" gradientTransform="matrix(1 0 0 -1 1619.9551 2453.0605)">
					<stop  offset="0" style="stop-color:#2B4051"/>
					<stop  offset="1" style="stop-color:#261230"/>
				</linearGradient>
				<path fill="url(#SVGID_46_)" d="M1712.25,1378.437c-6.396-2.516-9.801-0.521-11.568,2.885c9.766,5.969,21.24,9.408,33.521,9.408
					c0.699,0,1.388-0.012,2.076-0.035l-2.076-3.951L1712.25,1378.437z"/>
				
					<linearGradient id="SVGID_47_" gradientUnits="userSpaceOnUse" x1="87.811" y1="1189.8691" x2="106.4048" y2="1189.8691" gradientTransform="matrix(1 0 0 -1 1619.9551 2453.0605)">
					<stop  offset="0" style="stop-color:#2B4051"/>
					<stop  offset="1" style="stop-color:#261230"/>
				</linearGradient>
				<path fill="url(#SVGID_47_)" d="M1707.766,1262.165l1.839,4.688c5.27-2.184,10.895-3.678,16.755-4.391l-10.976-2.932
					C1712.786,1260.255,1710.234,1261.134,1707.766,1262.165z"/>
				
					<linearGradient id="SVGID_48_" gradientUnits="userSpaceOnUse" x1="-37.0952" y1="1408.9756" x2="334.905" y2="876.9753" gradientTransform="matrix(1 0 0 -1 1619.9551 2453.0605)">
					<stop  offset="0.0054" style="stop-color:#975C73"/>
					<stop  offset="1" style="stop-color:#261230"/>
				</linearGradient>
				<path fill="url(#SVGID_48_)" d="M1709.605,1266.853l4.427,11.318l52.59,47.107l4.364,3.916l27.458,1.293
					c0.083-1.365,0.13-2.74,0.13-4.129c0-21.016-10.072-39.68-25.651-51.426l-46.563-12.473
					C1720.498,1263.175,1714.874,1264.669,1709.605,1266.853z"/>
				
					<linearGradient id="SVGID_49_" gradientUnits="userSpaceOnUse" x1="95.4292" y1="1185.6572" x2="163.9058" y2="1185.6572" gradientTransform="matrix(1 0 0 -1 1619.9551 2453.0605)">
					<stop  offset="0" style="stop-color:#2B4051"/>
					<stop  offset="1" style="stop-color:#261230"/>
				</linearGradient>
				<path fill="url(#SVGID_49_)" d="M1715.384,1259.53l10.976,2.932c2.575-0.309,5.187-0.477,7.845-0.477
					c14.533,0,27.942,4.818,38.718,12.947l10.938,2.93c-12.602-12.91-30.199-20.918-49.656-20.918
					C1727.677,1256.944,1721.365,1257.847,1715.384,1259.53z"/>
				
					<linearGradient id="SVGID_50_" gradientUnits="userSpaceOnUse" x1="116.3247" y1="1090.0137" x2="183.521" y2="1090.0137" gradientTransform="matrix(1 0 0 -1 1619.9551 2453.0605)">
					<stop  offset="0" style="stop-color:#2B4051"/>
					<stop  offset="1" style="stop-color:#261230"/>
				</linearGradient>
				<path fill="url(#SVGID_50_)" d="M1736.28,1390.694l2.587,4.912c27.113-1.791,49.979-19.152,59.707-43.238
					c2.422-5.98,4.035-12.377,4.699-19.057c0.084-0.855,0.154-1.723,0.203-2.588l-5.032-0.236
					C1796.356,1363.438,1769.492,1389.64,1736.28,1390.694z"/>
				
					<linearGradient id="SVGID_51_" gradientUnits="userSpaceOnUse" x1="152.9673" y1="1150.2324" x2="183.6626" y2="1150.2324" gradientTransform="matrix(1 0 0 -1 1619.9551 2453.0605)">
					<stop  offset="0" style="stop-color:#2B4051"/>
					<stop  offset="1" style="stop-color:#261230"/>
				</linearGradient>
				<path fill="url(#SVGID_51_)" d="M1783.861,1277.862l-10.938-2.93c15.579,11.746,25.651,30.41,25.651,51.426
					c0,1.389-0.047,2.764-0.13,4.129l5.032,0.236c0.094-1.447,0.142-2.895,0.142-4.365
					C1803.618,1307.491,1796.083,1290.382,1783.861,1277.862z"/>
				
					<linearGradient id="SVGID_52_" gradientUnits="userSpaceOnUse" x1="-4.2705" y1="1431.9258" x2="367.7253" y2="899.9318" gradientTransform="matrix(1 0 0 -1 1619.9551 2453.0605)">
					<stop  offset="0.0054" style="stop-color:#975C73"/>
					<stop  offset="1" style="stop-color:#261230"/>
				</linearGradient>
				<path fill="url(#SVGID_52_)" d="M1807.177,1284.104l-23.316-6.24c12.222,12.52,19.757,29.629,19.757,48.494
					c0,1.473-0.048,2.92-0.142,4.367l55.91,2.623l-12.459-22.545L1807.177,1284.104z"/>
				
					<linearGradient id="SVGID_53_" gradientUnits="userSpaceOnUse" x1="178.6187" y1="1106.877" x2="202.4502" y2="1106.877" gradientTransform="matrix(1 0 0 -1 1619.9551 2453.0605)">
					<stop  offset="0" style="stop-color:#2B4051"/>
					<stop  offset="1" style="stop-color:#261230"/>
				</linearGradient>
				<path fill="url(#SVGID_53_)" d="M1798.574,1352.368l5.044,3.523c0,0-1.779,7.119,12.459,0c14.239-7.119,0-22.545,0-22.545
					h-12.459l-0.345-0.035C1802.609,1339.991,1800.997,1346.388,1798.574,1352.368z"/>
			</g>
			<g>
				<path fill="none" stroke="#010202" stroke-width="2" stroke-miterlimit="10" d="M1009.064,1217.882
					c1.082-0.463,2.173-0.949,3.276-1.459c8.342-3.785,17.146-8.449,26.306-14.168c26.484-16.564,55.888-41.992,85.457-80.912
					c0.51-0.678,1.021-1.354,1.521-2.018c92.802-123.416,36.974-164.305,35.205-167.84l-17.8,1.779
					c0,0-122.893-32.465-197.421-44.094c-3.597-0.557-7.084-1.08-10.441-1.529c-1.127-0.154-2.242-0.309-3.347-0.451
					c-7.689-0.986-14.618-1.662-20.517-1.959c-9.007-0.414-15.64,0.061-18.974,1.744c0,0-79.893,15.021-68.82,154.254
					c0,0,25.31,98.877,81.48,147.918l30.853,22.949c0,0,2.22,0.332,6.324,0.449c0.876,0.023,1.851,0.037,2.906,0.037
					c6.146-0.014,15.153-0.57,26.365-2.789c8.591-1.695,18.463-4.365,29.332-8.52"/>
				<path fill="none" stroke="#010202" stroke-miterlimit="10" d="M923.181,993.987c0,20.967,23.353,46.668,48.258,46.668
					c24.896,0,48.246-13.041,48.246-34.006c0-20.98-26.508-50.631-51.414-50.631S923.181,973.021,923.181,993.987z"/>
				<path fill="none" stroke="#010202" stroke-miterlimit="10" d="M1000.771,1008.974c0,12.672-8.151,22.938-18.191,22.938
					c-10.049,0-18.201-10.264-18.201-22.938c0-12.672,8.152-22.938,18.201-22.938
					C992.62,986.038,1000.771,996.302,1000.771,1008.974z"/>
				<path fill="none" stroke="#010202" stroke-width="2" stroke-miterlimit="10" d="M971.439,1229.794
					c0,0-195.145-171.186-36.272-322.152"/>
				<path fill="none" stroke="#010202" stroke-width="2" stroke-miterlimit="10" d="M1160.829,951.485l11.58-5.648l6.682-3.264
					c0,0-52.446-94.546-163.629-75.714c-10.441,1.768-21.395,4.532-32.882,8.472l-71.264,29.758"/>
				<path fill="none" stroke="#010202" stroke-width="2" stroke-miterlimit="10" d="M1177.961,878.677
					c6.063,4.521,15.675,8.994,30.791,12.471l0.854-0.51l11.012-6.609c0,0-3.964-40.343-32.44-42.716c0,0,3.167,22.949-19.77,17.408
					C1168.41,858.719,1164.685,868.793,1177.961,878.677z"/>
				<path fill="none" stroke="#010202" stroke-width="2" stroke-miterlimit="10" d="M1172.409,945.837
					c0,0-78.919-139.956-240.589-38.646c-0.237,0.143-0.487,0.297-0.725,0.451"/>
				<path fill="none" stroke="#010202" stroke-width="2" stroke-miterlimit="10" d="M1188.178,841.313
					c0,0-26.889-15.818-19.77,17.406"/>
				<path fill="none" stroke="#010202" stroke-width="2" stroke-miterlimit="10" d="M1094.046,854.768l36.394,9.611
					c0,0,0-24.646-36.394-32.561"/>
				<path fill="none" stroke="#010202" stroke-width="2" stroke-miterlimit="10" d="M1094.072,831.844
					c0.771,0.592,18.949,14.867,0.581,22.674"/>
				<path fill="none" stroke="#010202" stroke-miterlimit="10" d="M1528.31,1433.47l8.922,39.893c0,0,32.632,20.766,35.004,13.646
					c1.614-4.83,3.49-53.053,4.533-83.584c0.498-14.486,0.807-24.988,0.807-24.988h-2.373l-9.86,1.746l-47.095,8.34l0.533,2.361
					l4.782,21.369"/>
				<polyline fill="none" stroke="#010202" stroke-miterlimit="10" points="1585.334,1133.444 1621.23,1164.462 1633.343,1174.94 
									"/>
				<path fill="none" stroke="#010202" stroke-miterlimit="10" d="M1636.312,1174.94l28.478-61.109
					c-22.545-56.955-79.5,19.58-79.5,19.58"/>
				<path fill="none" stroke="#010202" stroke-miterlimit="10" d="M1665.998,1313.425c-0.793,4.188-1.211,8.508-1.211,12.934
					c0,25.57,13.825,47.902,34.4,59.945c10.274,6.018,22.236,9.469,35.018,9.469c1.564,0,3.117-0.047,4.66-0.166
					c27.114-1.791,49.98-19.15,59.709-43.238c2.42-5.979,4.034-12.375,4.699-19.057c0.083-0.854,0.154-1.721,0.201-2.586
					c0.095-1.447,0.144-2.896,0.144-4.367c0-18.865-7.535-35.977-19.758-48.494c-12.601-12.91-30.198-20.92-49.655-20.92
					c-6.527,0-12.841,0.902-18.82,2.586c-2.6,0.725-5.15,1.604-7.618,2.635c-0.688,0.273-1.364,0.57-2.04,0.879
					C1685.375,1272.202,1670.234,1290.892,1665.998,1313.425z"/>
				<path fill="none" stroke="#010202" stroke-miterlimit="10" d="M1670.687,1315.894c-0.57,3.404-0.854,6.904-0.854,10.465
					c0,23.281,12.353,43.666,30.851,54.963c9.767,5.969,21.24,9.408,33.521,9.408c0.699,0,1.387-0.012,2.075-0.035
					c33.212-1.055,60.076-27.256,62.164-60.207c0.083-1.363,0.13-2.74,0.13-4.129c0-21.016-10.072-39.678-25.651-51.426
					c-10.774-8.127-24.185-12.945-38.718-12.945c-2.658,0-5.27,0.166-7.845,0.475c-5.862,0.713-11.486,2.207-16.755,4.391
					c-1.315,0.547-2.608,1.127-3.879,1.77C1687.454,1277.638,1674.081,1295.093,1670.687,1315.894z"/>
				<polygon fill="none" stroke="#010202" stroke-miterlimit="10" points="1803.476,1330.726 1859.386,1333.349 1846.927,1310.804 
					1807.177,1284.104 1783.861,1277.862 1772.921,1274.933 1726.36,1262.462 1715.384,1259.53 1705.726,1256.944 
					1707.766,1262.165 1709.605,1266.853 1714.032,1278.171 1766.622,1325.278 1770.986,1329.194 1798.444,1330.487 				"/>
				<path fill="none" stroke="#010202" stroke-miterlimit="10" d="M1803.618,1333.349h12.459c0,0,14.239,15.424,0,22.545
					c-14.238,7.119-12.459,0-12.459,0l-5.044-3.525"/>
				<path fill="none" stroke="#010202" stroke-miterlimit="10" d="M1738.867,1395.606l0.083,0.166c0,0,1.187,13.516-16.611,16.48
					l-23.14-16.48c0,0-0.711-4.77-0.012-9.469c0.262-1.756,0.726-3.5,1.495-4.982c1.77-3.406,5.174-5.398,11.569-2.885l21.953,8.307
					l2.074,3.951L1738.867,1395.606z"/>
				<path fill="none" stroke="#010202" stroke-miterlimit="10" d="M1559.67,1216.222c-5.425,5.352-7.606,14.189-7.606,24.182
					c0,16.375,5.862,29.664,22.237,29.664c16.386,0,29.664-13.289,29.664-29.664c0-16.387-13.278-29.664-29.664-29.664
					c-2.907,0-5.483,0.416-7.749,1.211c-2.656,0.9-4.9,2.313-6.766,4.141"/>
				<path fill="none" stroke="#010202" stroke-miterlimit="10" d="M1336.998,1185.63l3.064,4.533l3.428,1.77l109.724,56.705
					l4.724,2.443l7.082,2.693l69.641,26.566l20.574-10.273c0,0,30.057,18.984,34.803,16.611s26.9-8.711,26.9-8.711l40.733,29.631
					l7.119,5.186l1.211,0.641l4.688,2.469l19.814,10.465l15.226,45.754l24.323,6.324c0,0,21.358-23.34,17.407-32.238
					c-3.965-8.898,0.486-3.357,0.486-3.357l6.633-16.48h11.07l-59.922-47.594v-10.146v-5.576v-6.1l-34.339-13.563l-2.125-0.844
					l-2.075-0.818l-38.387-15.164c0,0-42.717-32.43-60.919-15.816c-0.463,0.416-0.901,0.818-1.329,1.211
					c-15.248,13.834-7.938,5.469-6.882,4.27c0.071-0.082,0.118-0.131,0.118-0.131l-7.726-10.086c0,0-28.417-16.6-62.981-36.557"/>
				<path fill="none" stroke="#010202" stroke-miterlimit="10" d="M1480.906,1164.735c-1.852-1.068-3.701-2.137-5.577-3.217
					c-49.339-28.406-104.892-59.945-108.368-59.945c-2.706,0-6.277-0.143-9.789,0c-4.711,0.189-9.315,0.902-11.568,3.156
					c-3.953,3.963-11.867,13.457-15.035,18.984c-3.155,5.541-7.118,22.949-7.118,22.949l6.336,28.275l7.202,10.68"/>
				<path fill="none" stroke="#010202" stroke-miterlimit="10" d="M1014.607,864.367c0.071-0.012,0.213-0.049,0.427-0.096
					c2.268-0.486,12.292-2.479,28.266-3.559c12.208-0.82,27.884-1.094,46.205,0.271c12.388,0.914,25.996,2.586,40.558,5.34
					c15.033,2.836,31.099,6.835,47.9,12.353c10.288,3.381,20.859,7.346,31.646,11.961c17.182,7.344,34.91,16.375,52.934,27.408
					l218.327,141.203l104.42,74.16c0,0,0.012,0.012,0.048,0.035c1.008,0.713,17.785,12.686,35.894,31.018
					c17.846,18.084,36.997,42.35,43.56,68.121c0.889,3.488,1.686,6.525,2.396,9.137c0.616,2.277,1.162,4.236,1.66,5.908
					c4.747,16.244,3.832,5.566,2.54-4.246c-0.726-5.543-1.555-10.799-1.555-10.799s-0.096,3.738-0.569,9.955
					c-0.106,1.543-0.249,3.252-0.416,5.09c-1.315,14.68-4.354,37.959-11.177,59.971c-6.646,21.371-16.885,41.555-32.632,51.463
					c0,0-24.1,11.047-59.695,21.121c-14.002,3.963-29.771,7.77-46.563,10.701c-35.467,6.184-75.43,8.438-112.665-0.154
					l-198.157-57.381c0,0-54.476-7.264-188.271-116.926c0,0,7.712-4.746,19.803-13.303c22.533-15.945,60.267-45.137,91.568-81.469
					c40.925-47.512,70.838-107.256,41.352-165.635l15.77-10.182c0,0-29.533-48.066-49.04-54.688c0,0-26.698-23.341-35.598-20.766
					c0,0-31.101-9.243-60.241-9.671C1032.999,860.559,1022.947,861.508,1014.607,864.367c-0.036,0.012-0.061,0.012-0.061,0.012"/>
				<path fill="none" stroke="#010202" stroke-width="2" stroke-miterlimit="10" d="M1217.248,1163.94
					c-26.092-13.941-57.024-29.617-86.19-42.289c-1.815-0.795-3.631-1.566-5.436-2.326c-32.81-13.93-62.828-23.613-80.427-22.105
					c0,0-55.993-0.545-44.425,59.328c0,0,14.037,21.359,37.876,45.707c0.272,0.285,0.558,0.582,0.842,0.867
					c18.926,19.211,43.855,40.129,72.749,53.822c0,0,75.348,44.77,148.25,33.33"/>
				<path fill="none" stroke="#010202" stroke-width="2" stroke-miterlimit="10" d="M1260.524,1290.263
					c3.454-0.533,6.895-1.197,10.323-2.006c0,0,70.008-30.852,9.491-88.992c0,0-4.593-2.729-12.542-7.297
					c-0.201-0.119-0.402-0.238-0.617-0.355c-11.235-6.467-28.82-16.398-49.491-27.445"/>
				<path fill="none" stroke="#010202" stroke-width="2" stroke-miterlimit="10" d="M1475.317,1161.509l0.012,0.012l5.577,3.215
					l8.177,4.711c0,0,30.091,52.232-24.063,84.33l-11.807-5.139c0,0,47.379-32.346,22.116-87.117"/>
				<path fill="none" stroke="#010202" stroke-width="2" stroke-miterlimit="10" d="M1366.958,1101.573c0,0,40.865,51-23.471,90.357
					l-6.49-6.301l-0.012-0.012c0,0,59.056-36.986,20.185-84.045H1366.958L1366.958,1101.573z"/>
				<path fill="none" stroke="#010202" stroke-width="2" stroke-miterlimit="10" d="M1177.667,1179.366
					c-2.943,3.748-5.353,8.057-7.12,12.754c-2.147,5.709-3.334,11.998-3.334,18.617"/>
				<path fill="none" stroke="#010202" stroke-width="2" stroke-miterlimit="10" d="M1167.21,1210.751
					c0,25.83,18.144,46.773,40.533,46.773s40.546-20.955,40.546-46.787c0-25-16.993-45.434-38.374-46.738
					c-0.724-0.035-1.446-0.059-2.172-0.059c-11.889,0-22.592,5.908-30.008,15.33"/>
				<path fill="none" stroke="#010202" stroke-width="2" stroke-miterlimit="10" d="M1167.21,1210.737v0.014
					c0,0-30.956,53.053,93.276,79.523h0.011c0,0,0.014,0,0.025-0.012c1.554-0.652,73.4-31.611,7.271-98.297
					c-0.011-0.012-0.021-0.023-0.035-0.035l-0.581-0.32l-49.491-27.445l-0.415-0.225c0,0-0.013,0-0.024,0
					c-0.32-0.037-3.156-0.262-7.332,0.059c-8.483,0.664-22.51,3.631-32.18,15.271c-0.025,0.037-0.048,0.061-0.072,0.096
					c-2.835,3.441-5.291,7.641-7.118,12.756C1168.683,1197.317,1167.485,1203.464,1167.21,1210.737z"/>
				<path fill="none" stroke="#010202" stroke-width="2" stroke-miterlimit="10" d="M1576.769,1403.427
					c0,0-37.815,36.416-48.459,30.043l-4.747-21.217c0,0,20.966-3.215,53.206-33.342V1403.427z"/>
				<path fill="none" stroke="#010202" stroke-width="2" stroke-miterlimit="10" d="M1094.046,831.818
					c0,0-24.655-2.539-14.236,16.316c4.389,7.949,7.616,10.371,9.871,10.512c3.085,0.203,4.365-3.879,4.365-3.879
					s0.237-0.084,0.605-0.25c2.563-1.174,11.807-6.811-0.581-22.674C1094.06,831.83,1094.06,831.83,1094.046,831.818z"/>
				<path fill="none" stroke="#010202" stroke-width="2" stroke-miterlimit="10" d="M1419.049,1066.595
					c0,0-40.746-25.535-39.299-25.939c1.446-0.391,1.446-0.391,1.446-0.391s-34.469-46.953-22.83-49.836
					C1358.367,990.429,1386.894,996.812,1419.049,1066.595z"/>
				<path fill="none" stroke="#010202" stroke-width="2" stroke-miterlimit="10" d="M1497.422,1118.577l34.472,20.172
					c0,0-22.985-59.139-56.577-69.914C1475.317,1068.837,1465.314,1056.876,1497.422,1118.577z"/>
				<polygon fill="none" stroke="#010202" stroke-width="2" stroke-miterlimit="10" points="1552.064,1163.94 1552.064,1191.933 
					1387.51,1103.329 1387.51,1067.899 				"/>
				<polygon fill="none" stroke="#010202" stroke-width="2" stroke-miterlimit="10" points="1531.894,1306.056 1518.249,1321.481 
					1336.986,1261.985 1355.971,1227.054 				"/>
				<polyline fill="none" stroke="#010202" stroke-width="2" stroke-miterlimit="10" points="1028.917,1360.64 1008.615,1418.78 
					971.439,1508.96 905.382,1489.181 945.074,1232.583 				"/>
				<path fill="none" stroke="#010202" stroke-width="2" stroke-miterlimit="10" d="M1009.064,1217.882
					c-2.822,1.223-5.588,2.35-8.293,3.383v0.012"/>
				
					<line fill="none" stroke="#010202" stroke-width="2" stroke-miterlimit="10" x1="1000.771" y1="1221.276" x2="1028.917" y2="1360.64"/>
				<polyline fill="none" stroke="#010202" stroke-width="2" stroke-miterlimit="10" points="1069.521,1532.692 1063.993,1534.271 
					1028.917,1360.64 				"/>
				
					<line fill="none" stroke="#010202" stroke-width="2" stroke-miterlimit="10" x1="1009.064" y1="1217.882" x2="1009.064" y2="1217.87"/>
				
					<line fill="none" stroke="#010202" stroke-width="2" stroke-miterlimit="10" x1="1009.064" y1="1217.882" x2="1069.521" y2="1532.692"/>
				<polyline fill="none" stroke="#010202" stroke-width="2" stroke-miterlimit="10" points="1012.34,1216.423 1115.406,1293.003 
					1121.73,1380.015 1129.646,1383.185 1133.595,1474.94 1128.85,1474.94 1133.595,1541.39 1069.521,1532.692 				"/>
			</g>
		</g>
		
			<linearGradient id="SVGID_54_" gradientUnits="userSpaceOnUse" x1="-153.21" y1="1606.0176" x2="-1059.5659" y2="2126.9468" gradientTransform="matrix(1 0 0 -1 1619.9551 2453.0605)">
			<stop  offset="0" style="stop-color:#EF7C70"/>
			<stop  offset="1" style="stop-color:#E2BE26;stop-opacity:0"/>
		</linearGradient>
		<polyline fill="url(#SVGID_54_)" points="1094.046,831.818 594.089,122 75.137,258.004 1079.81,848.135 		"/>
		
			<linearGradient id="SVGID_55_" gradientUnits="userSpaceOnUse" x1="-392.0049" y1="1464.0303" x2="-1155.124" y2="2234.282" gradientTransform="matrix(1 0 0 -1 1619.9551 2453.0605)">
			<stop  offset="0" style="stop-color:#EF7C70"/>
			<stop  offset="1" style="stop-color:#E2BE26;stop-opacity:0"/>
		</linearGradient>
		<polyline fill="url(#SVGID_55_)" points="1188.178,841.313 628.972,0 0,134.057 1168.693,848.135 		"/>
	</g>
</g>
</svg>
