<?xml version="1.0" encoding="utf-8"?>
<!-- Generator: Adobe Illustrator 16.0.2, SVG Export Plug-In . SVG Version: 6.00 Build 0)  -->
<!DOCTYPE svg PUBLIC "-//W3C//DTD SVG 1.1//EN" "http://www.w3.org/Graphics/SVG/1.1/DTD/svg11.dtd">
<svg version="1.1" id="Слой_1" xmlns="http://www.w3.org/2000/svg" xmlns:xlink="http://www.w3.org/1999/xlink" x="0px" y="0px"
	 width="942.967px" height="1029.107px" viewBox="0 0 942.967 1029.107" enable-background="new 0 0 942.967 1029.107"
	 xml:space="preserve">
<g>
	<linearGradient id="SVGID_1_" gradientUnits="userSpaceOnUse" x1="883.5698" y1="459.6807" x2="1025.2886" y2="459.6807">
		<stop  offset="0" style="stop-color:#FFFFFF;stop-opacity:0"/>
		<stop  offset="1" style="stop-color:#000000;stop-opacity:0"/>
	</linearGradient>
	<path fill-rule="evenodd" clip-rule="evenodd" fill="url(#SVGID_1_)" d="M954.437,513.13c-22.307,0-44.614-0.068-66.92,0.076
		c-3.216,0.021-4-0.923-3.944-4.026c0.2-11.277-0.108-22.563,0.174-33.837c0.796-31.744,23.002-59.336,53.759-67.095
		c37.182-9.378,75.74,13.665,85.293,50.954c1.645,6.417,2.455,12.92,2.428,19.547c-0.044,10.139-0.13,20.281,0.06,30.416
		c0.058,3.085-0.692,4.064-3.931,4.042C999.05,513.061,976.744,513.13,954.437,513.13z"/>
	<linearGradient id="SVGID_2_" gradientUnits="userSpaceOnUse" x1="920.9526" y1="633.6162" x2="987.9331" y2="633.6162">
		<stop  offset="0" style="stop-color:#FFFFFF;stop-opacity:0"/>
		<stop  offset="1" style="stop-color:#000000;stop-opacity:0"/>
	</linearGradient>
	<path fill-rule="evenodd" clip-rule="evenodd" fill="url(#SVGID_2_)" d="M930.322,656.521c-0.002-8.234-0.048-16.47,0.03-24.703
		c0.019-2.009-0.511-3.572-1.807-5.159c-14.735-18.057-7.132-44.966,15.106-51.715c12.833-3.894,25.358-2.101,35.049,8.199
		c9.299,9.883,11.467,21.653,6.985,34.531c-0.917,2.638-2.059,5.301-4.009,7.256c-2.771,2.778-3.231,5.94-3.197,9.634
		c0.139,15.2,0.073,30.403,0.053,45.605c-0.014,9.634-4.337,13.975-13.885,13.992c-7.221,0.013-14.443,0.058-21.663-0.015
		c-7.859-0.078-12.518-4.65-12.633-12.544C930.23,673.245,930.324,664.882,930.322,656.521z"/>
</g>
<g>
	<path fill-rule="evenodd" clip-rule="evenodd" fill="none" d="M471.47,1029.005c0,0.022,0,0.046,0,0.068
		c96.162,0,192.324-0.031,288.487,0.034c14.695,0.01,29.319-0.687,43.82-3.089c40.523-6.712,75.254-24.179,101.987-55.922
		c25.845-30.689,36.202-67.1,37.021-106.394c1.241-59.495-3.861-118.461-16.766-176.673c-9.836-44.366-24.779-86.638-49.467-125.13
		c-37.677-58.74-91.589-88.189-161.083-89.93c-5.809-0.146-10.78,1.65-15.588,4.415c-21.522,12.376-41.79,26.745-62.916,39.746
		c-47.547,29.261-99.125,46.286-155.005,48.655c-56.863,2.41-109.76-12.941-159.628-39.175
		c-22.989-12.093-44.2-27.294-65.813-41.679c-13.802-9.187-27.745-13.104-44.569-11.307c-53.065,5.669-97.414,27.034-130.825,69.271
		C53.42,576.924,35.67,616.876,24.009,659.7C10.653,708.747,3.255,758.747,1.217,809.502c-1.102,27.448-2.715,54.949,1.713,82.316
		c7.403,45.751,29.299,82.383,68.189,108.213c30.373,20.174,64.44,28.66,100.365,28.819
		C271.479,1029.294,371.475,1029.005,471.47,1029.005z M471.67,514.912c140.309,2.113,257.641-117.193,257.606-257.29
		C729.242,116.444,610.336-0.031,471.521,0C332.204,0.03,213.854,117.501,213.897,257.765
		C213.94,396.841,330.693,517.082,471.67,514.912z"/>
	<path fill-rule="evenodd" clip-rule="evenodd" fill="#F7F7F7" d="M471.47,1029.005c-99.995,0-199.992,0.289-299.985-0.154
		c-35.925-0.159-69.993-8.646-100.365-28.819c-38.89-25.83-60.787-62.462-68.189-108.213c-4.428-27.367-2.815-54.868-1.713-82.316
		c2.038-50.755,9.436-100.755,22.792-149.802c11.661-42.824,29.412-82.776,57.117-117.802
		c33.411-42.237,77.76-63.603,130.825-69.271c16.825-1.798,30.767,2.12,44.569,11.307c21.613,14.385,42.823,29.586,65.813,41.679
		c49.869,26.233,102.765,41.585,159.628,39.175c55.88-2.369,107.458-19.395,155.005-48.655
		c21.126-13.001,41.394-27.37,62.916-39.746c4.808-2.765,9.779-4.561,15.588-4.415c69.494,1.74,123.407,31.189,161.083,89.93
		c24.688,38.492,39.631,80.764,49.467,125.13c12.905,58.212,18.007,117.178,16.766,176.673
		c-0.819,39.294-11.177,75.704-37.021,106.394c-26.732,31.743-61.464,49.21-101.987,55.922c-14.501,2.402-29.125,3.099-43.82,3.089
		c-96.163-0.065-192.325-0.034-288.487-0.034C471.47,1029.051,471.47,1029.027,471.47,1029.005z"/>
	<path fill-rule="evenodd" clip-rule="evenodd" fill="#F7F7F7" d="M471.67,514.912c-140.978,2.17-257.73-118.071-257.773-257.147
		C213.854,117.501,332.204,0.03,471.521,0c138.815-0.031,257.721,116.444,257.756,257.622
		C729.311,397.719,611.979,517.025,471.67,514.912z"/>
</g>
</svg>
